M48
INCH
T01C.006
T02C.008
T03C.012
T04C.028
T05C.03
T06C.038
T07C.04
T08C.043
T09C.051
T10C.07
T11C.09
T12C.12
T13C.156
T14C.035
T15C.06
T16C.063
T17C.128
;LEADER: 12 
;HEADER: 
;CODE  : ASCII 
;FILE  : ctc070_RevC1-1-3.drl for board ctc070_RevC1.brd ... layers TOP and LYR3-SIG
;T01 Holesize 1. = 6.000000 Tolerance = +0.000000/-6.000000 PLATED MILS Quantity = 181
%
G90
T01
X00214487Y00157088
X00216062Y00157088
X00115312Y00130962
X00131060Y00127812
X00128900Y00118100
X00222363Y00138187
X00230238Y00158663
X00124762Y00148288
X00212912Y00149212
X00151538Y00156163
X00251000Y00145000
X00212912Y00150788
X00129487Y00130962
X00132637Y00129387
X00126337Y00129387
X00129487Y00129387
X00132900Y00121200
X00125300Y00118519
X00126400Y00119100
X00132637Y00130962
X00127912Y00130962
X00126000Y00132500
X00206250Y00137750
X00108500Y00149000
X00118462Y00137262
X00134212Y00130962
X00211340Y00144490
X00154690Y00154588
X00154690Y00153013
X00126337Y00138837
X00134157Y00156113
X00126337Y00140412
X00127912Y00143562
X00134212Y00138837
X00127912Y00145137
X00129487Y00138837
X00129487Y00140412
X00127912Y00138837
X00126337Y00145137
X00127912Y00146712
X00131062Y00140412
X00126337Y00146712
X00127912Y00153013
X00129487Y00156163
R02X-00001575
X00134212Y00154588
X00127912Y00151438
X00132637Y00154588
X00129487Y00154588
X00126337Y00151438
X00126337Y00153013
X00127912Y00149863
X00228661Y00160236
X00118460Y00135690
X00116890Y00135690
X00123187Y00130962
X00124762Y00146712
X00151160Y00132540
X00120400Y00120700
X00116890Y00138840
X00123190Y00129390
X00116890Y00137260
X00120400Y00113500
X00115310Y00135690
X00118700Y00113600
X00118460Y00138840
X00115310Y00138840
X00116890Y00141990
X00123190Y00127810
X00212910Y00146060
X00151538Y00149863
X00154688Y00149863
X00154688Y00151438
X00151538Y00148288
X00153113Y00149863
X00225513Y00141337
X00145238Y00145137
X00220787Y00158661
X00151538Y00129387
X00222362Y00147638
X00219213Y00160236
X00230240Y00153940
X00151540Y00135690
X00228661Y00150787
X00120037Y00130962
X00151540Y00137260
X00153110Y00135690
X00146820Y00129380
X00145238Y00138837
X00145238Y00137317
X00145238Y00141977
X00145238Y00143547
X00149600Y00156000
X00145238Y00140407
X00146813Y00165613
X00151540Y00138835
X00153110Y00138840
X00151540Y00140410
X00214500Y00148500
X00228663Y00153938
X00124762Y00140412
X00126337Y00137262
X00217638Y00153937
X00145647Y00148253
X00216062Y00158663
X00145497Y00149853
X00211340Y00139760
X00217637Y00158663
X00145238Y00146712
X00138890Y00130910
X00209760Y00146060
X00151538Y00130962
X00214490Y00142910
X00153113Y00145137
X00216065Y00142910
X00222360Y00142910
X00222362Y00161811
X00219210Y00142910
X00153113Y00143562
X00216062Y00141337
X00227090Y00153940
X00153113Y00132537
X00219210Y00141337
X00223937Y00142913
X00153113Y00141987
X00216062Y00139762
X00153113Y00129387
X00223937Y00147638
X00228661Y00157087
X00153113Y00130962
X00135790Y00130960
X00132900Y00119800
X00121612Y00129387
X00220787Y00150787
X00154690Y00164040
X00154690Y00162460
X00217640Y00141340
X00154688Y00145137
X00153110Y00164040
X00217640Y00142910
X00156263Y00164038
X00145238Y00129387
X00145240Y00130960
X00145238Y00127812
X00142088Y00129387
X00217637Y00157088
X00145473Y00151473
X00140513Y00129387
X00149963Y00130962
X00118460Y00134110
X00154690Y00157740
X00151540Y00159310
X00211340Y00138190
X00153110Y00159310
X00154690Y00160890
X00153110Y00162460
X00154688Y00134112
X00153110Y00156160
X00151538Y00157738
X00153110Y00157740
X00212910Y00160240
X00222362Y00139764
X00209760Y00150790
X00140513Y00137262
X00227090Y00142910
X00129490Y00127810
X00227090Y00155510
X00143660Y00137260
X00227090Y00157090
X00145238Y00156163
X00118462Y00129387
X00131062Y00137262
X00132637Y00137262
X00149970Y00129380
X00129500Y00115500
X00138938Y00137262
X00153113Y00140412
X00142090Y00137260
X00134220Y00127810
X00134220Y00129390
M30
