G04 ================== begin FILE IDENTIFICATION RECORD ==================*
G04 Layout Name:  BeagleBoard_xM_RevC1_nologo.brd*
G04 Film Name:    xM_RevC1_smc*
G04 File Format:  Gerber RS274X*
G04 File Origin:  Cadence Allegro 16.5-S022*
G04 Origin Date:  Fri Oct 12 17:26:56 2012*
G04 *
G04 Layer:  PACKAGE GEOMETRY/SOLDERMASK_TOP*
G04 Layer:  VIA CLASS/SOLDERMASK_TOP*
G04 Layer:  PIN/SOLDERMASK_TOP*
G04 Layer:  DRAWING FORMAT/TITLE_BLOCK*
G04 Layer:  BOARD GEOMETRY/SOLDERMASK_TOP*
G04 *
G04 Offset:    (0.00 0.00)*
G04 Mirror:    No*
G04 Mode:      Positive*
G04 Rotation:  0*
G04 FullContactRelief:  No*
G04 UndefLineWidth:     6.00*
G04 ================== end FILE IDENTIFICATION RECORD ====================*
%FSLAX35Y35*MOIN*%
%IR0*IPPOS*OFA0.00000B0.00000*MIA0B0*SFA1.00000B1.00000*%
%ADD52O,.12X.062*%
%ADD49O,.062X.12*%
%ADD79R,.15X.036*%
%ADD43R,.221X.064*%
%ADD82R,.122X.085*%
%ADD80O,.074X.154*%
%ADD53R,.106X.074*%
%ADD74O,.154X.074*%
%ADD46C,.014*%
%ADD41C,.06*%
%ADD81R,.161X.085*%
%ADD78C,.07*%
%ADD73O,.074X.184*%
%ADD63R,.074X.119*%
%ADD14C,.044*%
%ADD68C,.054*%
%ADD32C,.027*%
%ADD57R,.094X.119*%
%ADD12C,.064*%
%ADD23C,.029*%
%ADD58C,.093*%
%ADD21C,.084*%
%ADD18C,.039*%
%ADD67R,.06X.06*%
%ADD60C,.067*%
%ADD39R,.035X.035*%
%ADD17C,.069*%
%AMMACRO44*
21,1,.064,.064,0.0,0.0,45.*%
%ADD44MACRO44*%
%ADD20C,.089*%
%ADD13R,.064X.064*%
%ADD66R,.114X.134*%
%ADD56R,.134X.114*%
%ADD10C,.1*%
%ADD15O,.054X.014*%
%ADD72O,.014X.054*%
%ADD54R,.031X.043*%
%ADD48R,.027X.012*%
%ADD30O,.037X.014*%
%ADD47R,.029X.02*%
%ADD36R,.012X.027*%
%ADD29O,.014X.037*%
%ADD35R,.02X.029*%
%ADD42O,.039X.015*%
%ADD31R,.037X.014*%
%ADD25O,.074X.016*%
%ADD76O,.074X.044*%
%ADD69R,.05X.055*%
%ADD50O,.015X.039*%
%ADD40R,.016X.044*%
%ADD37O,.016X.074*%
%ADD28R,.014X.037*%
%ADD16C,.124*%
%ADD77C,.143*%
%ADD75R,.043X.045*%
%ADD83R,.093X.024*%
%ADD71O,.018X.074*%
%ADD62O,.064X.039*%
%ADD61C,.136*%
%ADD24R,.036X.028*%
%ADD34O,.039X.064*%
%ADD19R,.084X.034*%
%ADD84R,.104X.104*%
%ADD22O,.049X.039*%
%ADD45C,.009*%
%ADD33O,.039X.049*%
%ADD26R,.015X.079*%
%ADD51R,.284X.284*%
%ADD70O,.089X.029*%
%ADD65O,.029X.079*%
%ADD59R,.084X.049*%
%ADD11R,.234X.234*%
%ADD64R,.074X.087*%
%ADD55O,.029X.089*%
%ADD27R,.138X.138*%
%ADD38R,.319X.319*%
%ADD85C,.02*%
%ADD86C,.012*%
%ADD87C,.045*%
%ADD88C,.006*%
%ADD89C,.008*%
G75*
%LPD*%
G75*
G36*
G01X260400Y150000D02*
X264400D01*
Y145300D01*
X260400D01*
Y150000D01*
G37*
G36*
G01Y156800D02*
X264400D01*
Y152100D01*
X260400D01*
Y156800D01*
G37*
G36*
G01X265500Y150000D02*
X269500D01*
Y145300D01*
X265500D01*
Y150000D01*
G37*
G36*
G01Y156800D02*
X269500D01*
Y152100D01*
X265500D01*
Y156800D01*
G37*
G54D10*
X-7500Y-30000D03*
Y290000D03*
X287500Y-30000D03*
X297500Y290000D03*
G54D11*
X0Y0D03*
Y270000D03*
X280000Y0D03*
Y270000D03*
G54D20*
X32500Y166000D03*
G54D30*
X60100Y60605D03*
Y74395D03*
X79900Y60605D03*
Y74395D03*
G54D21*
X20000Y266440D03*
X17600Y285730D03*
X44900Y168500D03*
X97500Y50000D03*
X85000D03*
X77000Y266440D03*
X79400Y285730D03*
X280000Y252500D03*
G54D12*
X2500Y37500D03*
Y67500D03*
Y57500D03*
Y47500D03*
Y87500D03*
Y77500D03*
Y107500D03*
Y97500D03*
Y127500D03*
Y117500D03*
Y147500D03*
Y137500D03*
Y157500D03*
X12500Y37500D03*
Y27500D03*
Y67500D03*
Y57500D03*
Y47500D03*
Y87500D03*
Y77500D03*
Y107500D03*
Y97500D03*
Y127500D03*
Y117500D03*
Y147500D03*
Y137500D03*
Y157500D03*
X65074Y128284D03*
X72145Y121213D03*
X58003Y135355D03*
X65074Y142426D03*
X72145Y135355D03*
X93358Y100000D03*
X79216Y128284D03*
Y114142D03*
X86287Y121213D03*
X93358Y114142D03*
X100429Y107071D03*
Y92929D03*
X215100Y-28300D03*
X205100Y-34300D03*
X208500Y39000D03*
X218500D03*
X244900Y-34300D03*
X241500Y39000D03*
X254900Y-28300D03*
X251500Y39000D03*
X300000Y265000D03*
G54D22*
X52000Y80500D03*
Y74500D03*
X54500Y86500D03*
Y92500D03*
X83500Y84000D03*
Y90000D03*
X85500Y250500D03*
Y244500D03*
X188500Y188500D03*
Y182500D03*
X195500Y188500D03*
Y182500D03*
G54D40*
X80000Y146100D03*
X82600D03*
X77400D03*
Y153900D03*
X80000D03*
X82600D03*
X246000Y202100D03*
X248600D03*
X243400D03*
Y209900D03*
X246000D03*
X248600D03*
G54D31*
X60100Y62575D03*
Y64545D03*
Y66515D03*
Y68485D03*
Y70455D03*
Y72425D03*
X79900Y64545D03*
Y62575D03*
Y72425D03*
Y70455D03*
Y68485D03*
Y66515D03*
G54D13*
X2500Y27500D03*
X310000Y265000D03*
G54D50*
X135452Y22000D03*
X133484D03*
X131516D03*
X129548D03*
X127580D03*
X125612D03*
X123644D03*
X121676D03*
X119708D03*
X117740D03*
Y58000D03*
X119708D03*
X121676D03*
X123644D03*
X125612D03*
X127580D03*
X129548D03*
X131516D03*
X133484D03*
X135452D03*
X147260Y22000D03*
X145292D03*
X143324D03*
X141356D03*
X139388D03*
X137420D03*
Y58000D03*
X139388D03*
X141356D03*
X143324D03*
X145292D03*
X147260D03*
G54D23*
X50500Y178000D03*
X49500Y245500D03*
Y249500D03*
X55000Y53500D03*
Y57500D03*
X65000Y48000D03*
X69000D03*
X54500Y178000D03*
X69500Y249500D03*
Y245500D03*
X64500D03*
Y249500D03*
X54500Y245500D03*
Y249500D03*
X59500Y245500D03*
Y249500D03*
X87000Y-16000D03*
Y-12000D03*
X76500Y48000D03*
Y52000D03*
X90500Y78500D03*
X86500D03*
X94500Y129500D03*
Y133500D03*
X79500Y245500D03*
Y249500D03*
X74500Y245500D03*
Y249500D03*
X109500Y61500D03*
X113500D03*
X132000Y17200D03*
X136000D03*
X118500Y67500D03*
X122500D03*
X132500D03*
X128500D03*
X133000Y111500D03*
Y115500D03*
X127000Y111500D03*
Y115500D03*
X137500Y111500D03*
Y115500D03*
X155500Y23500D03*
Y27500D03*
Y38000D03*
Y33500D03*
Y52000D03*
X142000Y67500D03*
X138000D03*
X158500Y108000D03*
X155500Y117000D03*
X158500Y112000D03*
X162500Y42500D03*
X166500D03*
X159500Y38000D03*
Y33500D03*
X166500Y47500D03*
X162500D03*
X159500Y52000D03*
Y117000D03*
X168500Y116000D03*
Y120000D03*
X167000Y157000D03*
X171000D03*
X186000Y82500D03*
X190000D03*
X194500Y90000D03*
X190500D03*
X187250Y130000D03*
Y120000D03*
Y124000D03*
X196500Y137500D03*
X192500D03*
X188500Y148000D03*
X192500D03*
X187250Y134000D03*
X200000Y151500D03*
X192500Y157000D03*
X188500D03*
Y172000D03*
X192500D03*
X188500Y152500D03*
X192500D03*
X200000Y155500D03*
X188500Y166000D03*
X192500D03*
X202750Y129000D03*
Y125000D03*
X207250Y129000D03*
Y125000D03*
X222000D03*
Y129000D03*
X216000Y170500D03*
Y174500D03*
X222500Y182500D03*
Y178500D03*
X220500Y197750D03*
X227500Y125000D03*
Y129000D03*
X239000Y133000D03*
X243000D03*
Y147500D03*
Y140000D03*
Y152000D03*
X239500Y163000D03*
Y159000D03*
X244500Y170500D03*
X240500D03*
X244500Y174500D03*
X240500D03*
X232500Y178500D03*
Y182500D03*
X227500Y178500D03*
Y182500D03*
X237500Y206000D03*
X233500D03*
X224500Y197750D03*
X247000Y147500D03*
Y140000D03*
Y152000D03*
X263500Y136500D03*
Y132500D03*
X263000Y162500D03*
X262000Y245000D03*
X266000D03*
X277000Y20000D03*
X273000D03*
X287000D03*
X283000D03*
X282500Y146000D03*
Y150000D03*
X267000Y162500D03*
X275000Y159500D03*
Y155500D03*
X281500Y214000D03*
Y218000D03*
X275000Y240500D03*
Y244500D03*
X292500Y250500D03*
Y254500D03*
X310500Y210500D03*
Y214500D03*
X313500Y254500D03*
Y250500D03*
G54D32*
X65000Y62500D03*
X70000Y67500D03*
X65000Y72500D03*
X75000Y62500D03*
Y72500D03*
X125000Y42500D03*
X120000D03*
X135000D03*
X130000D03*
X120000Y37500D03*
X125000D03*
X130000D03*
X135000D03*
X125000Y32500D03*
X120000D03*
X135000D03*
X130000D03*
X120000Y27500D03*
X125000D03*
X130000D03*
X135000D03*
X120000Y52500D03*
X125000D03*
X130000D03*
X135000D03*
X120000Y47500D03*
X125000D03*
X130000D03*
X135000D03*
X145000Y42500D03*
X140000D03*
Y37500D03*
X145000D03*
Y32500D03*
X140000D03*
Y27500D03*
X145000D03*
X140000Y52500D03*
X145000D03*
X140000Y47500D03*
X145000D03*
G54D14*
X2000Y176500D03*
Y181500D03*
X-3000D03*
Y176500D03*
X2000Y186500D03*
X-3000D03*
X2000Y191500D03*
X-3000D03*
Y216500D03*
X2000D03*
X-3000Y211500D03*
X2000D03*
Y196500D03*
X-3000D03*
X2000Y201500D03*
X-3000D03*
X2000Y206500D03*
X-3000D03*
Y221500D03*
X2000D03*
X19500Y176500D03*
Y181500D03*
X14500D03*
Y176500D03*
X19500Y186500D03*
X14500D03*
X19500Y191500D03*
X14500D03*
Y216500D03*
X19500D03*
X14500Y211500D03*
X19500D03*
Y196500D03*
X14500D03*
X19500Y201500D03*
X14500D03*
X19500Y206500D03*
X14500D03*
Y221500D03*
X19500D03*
X190500Y24000D03*
X185500D03*
Y39000D03*
X190500D03*
X185500Y44000D03*
X190500D03*
Y34000D03*
X185500D03*
X190500Y29000D03*
X185500D03*
Y49000D03*
X190500D03*
X185500Y54000D03*
X190500D03*
X185500Y59000D03*
X190500D03*
X185500Y64000D03*
X190500D03*
X185500Y69000D03*
X190500D03*
X217500Y230000D03*
Y225000D03*
X222500D03*
Y230000D03*
G54D41*
X85000Y272500D03*
X95000Y292500D03*
X114100Y254200D03*
Y264000D03*
X140900Y254200D03*
Y264000D03*
X212500Y10000D03*
X217500Y20000D03*
X222500Y10000D03*
X242500D03*
X227500Y20000D03*
X232500Y10000D03*
X237500Y20000D03*
G54D51*
X132500Y40000D03*
G54D33*
X67000Y92000D03*
X61000D03*
X64500Y99000D03*
X58500D03*
X89500Y65000D03*
X95500D03*
X89500Y72500D03*
X95500D03*
X159500Y66500D03*
X153500D03*
X147500D03*
X165500D03*
X174000Y130500D03*
X180000D03*
X201500Y90000D03*
X207500D03*
X280500Y198500D03*
X274500D03*
X286500Y202500D03*
X299000D03*
X305000D03*
X292500D03*
G54D24*
X40000Y190300D03*
Y184700D03*
G54D42*
X114500Y25240D03*
Y27208D03*
Y29176D03*
Y31144D03*
Y33112D03*
Y35080D03*
Y37048D03*
Y39016D03*
Y40984D03*
Y42952D03*
Y44920D03*
Y46888D03*
Y48856D03*
Y50824D03*
Y52792D03*
Y54760D03*
X150500Y42952D03*
Y40984D03*
Y39016D03*
Y37048D03*
Y35080D03*
Y33112D03*
Y31144D03*
Y29176D03*
Y27208D03*
Y25240D03*
Y54760D03*
Y52792D03*
Y50824D03*
Y48856D03*
Y46888D03*
Y44920D03*
G54D15*
X6600Y237060D03*
Y242940D03*
Y240980D03*
Y239020D03*
X18400Y237060D03*
Y239020D03*
Y240980D03*
Y242940D03*
G54D60*
X185000Y261400D03*
Y285000D03*
X240000Y261400D03*
Y285000D03*
G54D70*
X262500Y217500D03*
Y222500D03*
Y227500D03*
Y232500D03*
Y237500D03*
G54D34*
X65300Y107000D03*
X57700D03*
X202700Y178500D03*
X210300D03*
X202700Y187500D03*
X210300D03*
X298700Y252500D03*
X306300D03*
G54D61*
X207500Y-15000D03*
X252500D03*
G54D16*
X20410Y-15970D03*
Y6430D03*
X72150Y-15970D03*
Y6430D03*
X107910Y-15970D03*
Y6430D03*
X159650Y-15970D03*
Y6430D03*
G54D25*
X44900Y195240D03*
Y197208D03*
Y199176D03*
Y201144D03*
Y203112D03*
Y205080D03*
Y207048D03*
Y209016D03*
Y210984D03*
Y212952D03*
Y214920D03*
Y216888D03*
Y218856D03*
Y220824D03*
Y222792D03*
Y224760D03*
X90100Y214920D03*
Y212952D03*
Y210984D03*
Y209016D03*
Y207048D03*
Y205080D03*
Y203112D03*
Y201144D03*
Y199176D03*
Y197208D03*
Y195240D03*
Y224760D03*
Y222792D03*
Y220824D03*
Y218856D03*
Y216888D03*
G54D43*
X113700Y81000D03*
X147300D03*
G54D52*
X127500Y279000D03*
G54D26*
X49500Y262500D03*
X47530D03*
X45560D03*
X43590D03*
X41620D03*
X39650D03*
X37680D03*
X35710D03*
X33740D03*
X31770D03*
X29800D03*
X65260D03*
X63290D03*
X61320D03*
X59350D03*
X57380D03*
X55410D03*
X53440D03*
X51470D03*
G54D62*
X209000Y106700D03*
Y114300D03*
X252500Y123700D03*
Y131300D03*
X282000Y233800D03*
Y226200D03*
X273000D03*
Y233800D03*
G54D71*
X271040Y30740D03*
X273600D03*
X276160D03*
X278720D03*
X281280D03*
X283840D03*
X286400D03*
Y54260D03*
X283840D03*
X281280D03*
X278720D03*
X276160D03*
X273600D03*
X271040D03*
X288960Y30740D03*
Y54260D03*
G54D35*
X69660Y170700D03*
Y164300D03*
X55340D03*
Y170700D03*
X147140Y182600D03*
Y189000D03*
X161460D03*
Y182600D03*
G54D44*
X107500Y100000D03*
G54D17*
X32500Y-5300D03*
Y5000D03*
X29400Y19900D03*
Y37500D03*
X50220Y-5300D03*
X42340D03*
Y5000D03*
X50220D03*
X60060Y-5300D03*
Y5000D03*
X69400Y19900D03*
X55000D03*
X69400Y37500D03*
X55000D03*
X95000Y19900D03*
Y37500D03*
X137720Y-5300D03*
X129840D03*
X120000D03*
X129840Y5000D03*
X120000D03*
X137720D03*
X147560Y-5300D03*
Y5000D03*
G54D53*
X174000Y7900D03*
Y22100D03*
G54D80*
X298600Y119500D03*
G54D27*
X70000Y67500D03*
G54D45*
X113737Y127812D03*
Y126237D03*
Y149863D03*
Y148288D03*
Y146712D03*
Y145137D03*
Y143562D03*
Y141987D03*
Y140412D03*
Y138837D03*
Y137262D03*
Y135687D03*
Y134112D03*
Y132537D03*
Y130962D03*
Y129387D03*
Y168763D03*
Y167188D03*
Y165613D03*
Y164038D03*
Y162463D03*
Y160888D03*
Y159313D03*
Y157738D03*
Y156163D03*
Y154588D03*
Y153013D03*
Y151438D03*
X115312Y127812D03*
X116887D03*
X118462D03*
X120037D03*
X121612D03*
X123187D03*
X124762D03*
X126337D03*
X127912D03*
X129487D03*
X131062D03*
X132637D03*
X134212D03*
X135788D03*
X115312Y126237D03*
X116887D03*
X118462D03*
X120037D03*
X121612D03*
X123187D03*
X124762D03*
X126337D03*
X127912D03*
X129487D03*
X131062D03*
X132637D03*
X134212D03*
X135788D03*
X115312Y149863D03*
X116887D03*
X118462D03*
X124762D03*
X126337D03*
X127912D03*
X115312Y148288D03*
X116887D03*
X118462D03*
X124762D03*
X126337D03*
X127912D03*
X115312Y146712D03*
X116887D03*
X118462D03*
X124762D03*
X126337D03*
X127912D03*
X115312Y145137D03*
X116887D03*
X118462D03*
X124762D03*
X126337D03*
X127912D03*
X115312Y143562D03*
X116887D03*
X118462D03*
X124762D03*
X126337D03*
X127912D03*
X115312Y141987D03*
X116887D03*
X118462D03*
X124762D03*
X126337D03*
X127912D03*
X115312Y140412D03*
X116887D03*
X118462D03*
X124762D03*
X126337D03*
X127912D03*
X129487D03*
X131062D03*
X132637D03*
X134212D03*
X135788D03*
X115312Y138837D03*
X116887D03*
X118462D03*
X124762D03*
X126337D03*
X127912D03*
X129487D03*
X131062D03*
X132637D03*
X134212D03*
X135788D03*
X115312Y137262D03*
X116887D03*
X118462D03*
X124762D03*
X126337D03*
X127912D03*
X129487D03*
X131062D03*
X132637D03*
X134212D03*
X135788D03*
X115312Y135687D03*
X116887D03*
X118462D03*
X115312Y134112D03*
X116887D03*
X118462D03*
X115312Y132537D03*
X116887D03*
X118462D03*
X115312Y130962D03*
X116887D03*
X118462D03*
X120037D03*
X121612D03*
X123187D03*
X124762D03*
X126337D03*
X127912D03*
X129487D03*
X131062D03*
X132637D03*
X134212D03*
X135788D03*
X115312Y129387D03*
X116887D03*
X118462D03*
X120037D03*
X121612D03*
X123187D03*
X124762D03*
X126337D03*
X127912D03*
X129487D03*
X131062D03*
X132637D03*
X134212D03*
X135788D03*
X115312Y168763D03*
X116887D03*
X118462D03*
X120037D03*
X121612D03*
X123187D03*
X124762D03*
X126337D03*
X127912D03*
X129487D03*
X131062D03*
X132637D03*
X134212D03*
X135788D03*
X115312Y167188D03*
X116887D03*
X118462D03*
X120037D03*
X121612D03*
X123187D03*
X124762D03*
X126337D03*
X127912D03*
X129487D03*
X131062D03*
X132637D03*
X134212D03*
X135788D03*
X115312Y165613D03*
X116887D03*
X118462D03*
X120037D03*
X121612D03*
X123187D03*
X124762D03*
X126337D03*
X127912D03*
X129487D03*
X131062D03*
X132637D03*
X134212D03*
X135788D03*
X115312Y164038D03*
X116887D03*
X118462D03*
X120037D03*
X121612D03*
X123187D03*
X124762D03*
X126337D03*
X127912D03*
X129487D03*
X131062D03*
X132637D03*
X134212D03*
X135788D03*
X115312Y162463D03*
X116887D03*
X118462D03*
X115312Y160888D03*
X116887D03*
X118462D03*
X115312Y159313D03*
X116887D03*
X118462D03*
X115312Y157738D03*
X116887D03*
X118462D03*
X126337D03*
X127912D03*
X129487D03*
X131062D03*
X132637D03*
X134212D03*
X135788D03*
X115312Y156163D03*
X116887D03*
X118462D03*
X124762D03*
X126337D03*
X127912D03*
X129487D03*
X131062D03*
X132637D03*
X134212D03*
X135788D03*
X115312Y154588D03*
X116887D03*
X118462D03*
X124762D03*
X126337D03*
X127912D03*
X129487D03*
X131062D03*
X132637D03*
X134212D03*
X135788D03*
X115312Y153013D03*
X116887D03*
X118462D03*
X124762D03*
X126337D03*
X127912D03*
X115312Y151438D03*
X116887D03*
X118462D03*
X124762D03*
X126337D03*
X127912D03*
X137363Y127812D03*
X138938D03*
X140513D03*
X142088D03*
X143663D03*
X145238D03*
X146813D03*
X148388D03*
X149963D03*
X151538D03*
X153113D03*
X154688D03*
X156263D03*
X137363Y126237D03*
X138938D03*
X140513D03*
X142088D03*
X143663D03*
X145238D03*
X146813D03*
X148388D03*
X149963D03*
X151538D03*
X153113D03*
X154688D03*
X156263D03*
X142088Y149863D03*
X143663D03*
X145238D03*
X151538D03*
X153113D03*
X154688D03*
X156263D03*
X142088Y148288D03*
X143663D03*
X145238D03*
X151538D03*
X153113D03*
X154688D03*
X156263D03*
X142088Y146712D03*
X143663D03*
X145238D03*
X151538D03*
X153113D03*
X154688D03*
X156263D03*
X142088Y145137D03*
X143663D03*
X145238D03*
X151538D03*
X153113D03*
X154688D03*
X156263D03*
X142088Y143562D03*
X143663D03*
X145238D03*
X151538D03*
X153113D03*
X154688D03*
X156263D03*
X142088Y141987D03*
X143663D03*
X145238D03*
X151538D03*
X153113D03*
X154688D03*
X156263D03*
X137363Y140412D03*
X138938D03*
X140513D03*
X142088D03*
X143663D03*
X145238D03*
X151538D03*
X153113D03*
X154688D03*
X156263D03*
X137363Y138837D03*
X138938D03*
X140513D03*
X142088D03*
X143663D03*
X145238D03*
X151538D03*
X153113D03*
X154688D03*
X156263D03*
X137363Y137262D03*
X138938D03*
X140513D03*
X142088D03*
X143663D03*
X145238D03*
X151538D03*
X153113D03*
X154688D03*
X156263D03*
X151538Y135687D03*
X153113D03*
X154688D03*
X156263D03*
X151538Y134112D03*
X153113D03*
X154688D03*
X156263D03*
X151538Y132537D03*
X153113D03*
X154688D03*
X156263D03*
X137363Y130962D03*
X138938D03*
X140513D03*
X142088D03*
X143663D03*
X145238D03*
X146813D03*
X148388D03*
X149963D03*
X151538D03*
X153113D03*
X154688D03*
X156263D03*
X137363Y129387D03*
X138938D03*
X140513D03*
X142088D03*
X143663D03*
X145238D03*
X146813D03*
X148388D03*
X149963D03*
X151538D03*
X153113D03*
X154688D03*
X156263D03*
X137363Y168763D03*
X138938D03*
X140513D03*
X142088D03*
X143663D03*
X145238D03*
X146813D03*
X148388D03*
X149963D03*
X151538D03*
X153113D03*
X154688D03*
X156263D03*
X137363Y167188D03*
X138938D03*
X140513D03*
X142088D03*
X143663D03*
X145238D03*
X146813D03*
X148388D03*
X149963D03*
X151538D03*
X153113D03*
X154688D03*
X156263D03*
X137363Y165613D03*
X138938D03*
X140513D03*
X142088D03*
X143663D03*
X145238D03*
X146813D03*
X148388D03*
X149963D03*
X151538D03*
X153113D03*
X154688D03*
X156263D03*
X137363Y164038D03*
X138938D03*
X140513D03*
X142088D03*
X143663D03*
X145238D03*
X146813D03*
X148388D03*
X149963D03*
X151538D03*
X153113D03*
X154688D03*
X156263D03*
X151538Y162463D03*
X153113D03*
X154688D03*
X156263D03*
X151538Y160888D03*
X153113D03*
X154688D03*
X156263D03*
X151538Y159313D03*
X153113D03*
X154688D03*
X156263D03*
X137363Y157738D03*
X138938D03*
X140513D03*
X142088D03*
X143663D03*
X145238D03*
X151538D03*
X153113D03*
X154688D03*
X156263D03*
X137363Y156163D03*
X138938D03*
X140513D03*
X142088D03*
X143663D03*
X145238D03*
X151538D03*
X153113D03*
X154688D03*
X156263D03*
X137363Y154588D03*
X138938D03*
X140513D03*
X142088D03*
X143663D03*
X145238D03*
X151538D03*
X153113D03*
X154688D03*
X156263D03*
X142088Y153013D03*
X143663D03*
X145238D03*
X151538D03*
X153113D03*
X154688D03*
X156263D03*
X142088Y151438D03*
X143663D03*
X145238D03*
X151538D03*
X153113D03*
X154688D03*
X156263D03*
X220788Y149212D03*
Y147637D03*
Y146062D03*
Y142912D03*
Y141337D03*
Y139762D03*
X219212Y149212D03*
Y147637D03*
Y146062D03*
Y142912D03*
Y141337D03*
Y139762D03*
X217637Y149212D03*
Y147637D03*
Y146062D03*
Y142912D03*
Y141337D03*
Y139762D03*
Y138187D03*
X216062Y149212D03*
Y147637D03*
Y142912D03*
Y141337D03*
Y139762D03*
Y138187D03*
X214487Y142912D03*
Y141337D03*
Y139762D03*
X212912Y149212D03*
Y147637D03*
Y146062D03*
Y144487D03*
Y142912D03*
Y141337D03*
Y139762D03*
Y138187D03*
X211337Y149212D03*
Y147637D03*
Y146062D03*
Y144487D03*
Y142912D03*
Y141337D03*
Y139762D03*
Y138187D03*
X209762Y149212D03*
Y147637D03*
Y146062D03*
Y144487D03*
Y142912D03*
Y141337D03*
Y139762D03*
Y138187D03*
X208187Y147637D03*
Y146062D03*
Y142912D03*
Y141337D03*
Y139762D03*
Y138187D03*
X220788Y160238D03*
Y158663D03*
Y157088D03*
Y153938D03*
Y152363D03*
Y150788D03*
X219212Y160238D03*
Y158663D03*
Y157088D03*
Y153938D03*
Y152363D03*
Y150788D03*
X217637Y161813D03*
Y160238D03*
Y158663D03*
Y157088D03*
Y153938D03*
Y152363D03*
Y150788D03*
X216062Y161813D03*
Y160238D03*
Y158663D03*
Y157088D03*
Y152363D03*
Y150788D03*
X214487Y160238D03*
Y158663D03*
Y157088D03*
X212912Y161813D03*
Y160238D03*
Y158663D03*
Y157088D03*
Y155513D03*
Y153938D03*
Y152363D03*
Y150788D03*
X211337Y161813D03*
Y160238D03*
Y158663D03*
Y157088D03*
Y155513D03*
Y153938D03*
Y152363D03*
Y150788D03*
X209762Y161813D03*
Y160238D03*
Y158663D03*
Y157088D03*
Y155513D03*
Y153938D03*
Y152363D03*
Y150788D03*
X208187Y161813D03*
Y160238D03*
Y158663D03*
Y157088D03*
Y153938D03*
Y152363D03*
X231813Y147637D03*
Y146062D03*
Y142912D03*
Y141337D03*
Y139762D03*
Y138187D03*
X230238Y149212D03*
Y147637D03*
Y146062D03*
Y144487D03*
Y142912D03*
Y141337D03*
Y139762D03*
Y138187D03*
X228663Y149212D03*
Y147637D03*
Y146062D03*
Y144487D03*
Y142912D03*
Y141337D03*
Y139762D03*
Y138187D03*
X227088Y149212D03*
Y147637D03*
Y146062D03*
Y144487D03*
Y142912D03*
Y141337D03*
Y139762D03*
Y138187D03*
X225513Y142912D03*
Y141337D03*
Y139762D03*
X223938Y149212D03*
Y147637D03*
Y142912D03*
Y141337D03*
Y139762D03*
Y138187D03*
X222363Y149212D03*
Y147637D03*
Y146062D03*
Y142912D03*
Y141337D03*
Y139762D03*
Y138187D03*
X231813Y161813D03*
Y160238D03*
Y158663D03*
Y157088D03*
Y153938D03*
Y152363D03*
X230238Y161813D03*
Y160238D03*
Y158663D03*
Y157088D03*
Y155513D03*
Y153938D03*
Y152363D03*
Y150788D03*
X228663Y161813D03*
Y160238D03*
Y158663D03*
Y157088D03*
Y155513D03*
Y153938D03*
Y152363D03*
Y150788D03*
X227088Y161813D03*
Y160238D03*
Y158663D03*
Y157088D03*
Y155513D03*
Y153938D03*
Y152363D03*
Y150788D03*
X225513Y160238D03*
Y158663D03*
Y157088D03*
X223938Y161813D03*
Y160238D03*
Y158663D03*
Y157088D03*
Y152363D03*
Y150788D03*
X222363Y161813D03*
Y160238D03*
Y158663D03*
Y157088D03*
Y153938D03*
Y152363D03*
Y150788D03*
X225513Y155513D03*
G54D36*
X67400Y170700D03*
X65440D03*
X67400Y164300D03*
X65440D03*
X63480Y170700D03*
X61520D03*
X59560D03*
X57600D03*
X63480Y164300D03*
X61520D03*
X59560D03*
X57600D03*
X157240Y189000D03*
Y182600D03*
X155280Y189000D03*
X153320D03*
X151360D03*
X149400D03*
X155280Y182600D03*
X153320D03*
X151360D03*
X149400D03*
X159200Y189000D03*
Y182600D03*
G54D54*
X173760Y104800D03*
X177500D03*
X173760Y115200D03*
X177500D03*
X181240Y104800D03*
Y115200D03*
G54D72*
X284560Y69100D03*
X286520D03*
Y80900D03*
X284560D03*
X288480Y69100D03*
X290440D03*
Y80900D03*
X288480D03*
G54D18*
X32500Y74000D03*
G54D63*
X208150Y281560D03*
X263150D03*
G54D81*
X309200Y150600D03*
Y189400D03*
G54D55*
X160000Y216000D03*
X165000D03*
X170000D03*
X175000D03*
X180000D03*
X197500Y79000D03*
X217500D03*
X212500D03*
X207500D03*
X202500D03*
G54D64*
X208200Y261400D03*
X263200D03*
G54D19*
X25500Y85000D03*
Y80000D03*
Y105000D03*
Y100000D03*
Y95000D03*
Y90000D03*
Y130000D03*
Y125000D03*
Y120000D03*
Y115000D03*
Y110000D03*
Y150000D03*
Y145000D03*
Y140000D03*
Y135000D03*
Y160000D03*
Y155000D03*
X39500Y85000D03*
Y80000D03*
Y105000D03*
Y100000D03*
Y95000D03*
Y90000D03*
Y130000D03*
Y125000D03*
Y120000D03*
Y115000D03*
Y110000D03*
Y150000D03*
Y145000D03*
Y140000D03*
Y135000D03*
Y160000D03*
Y155000D03*
G54D28*
X70985Y57600D03*
X69015D03*
X67045D03*
X65075D03*
Y77400D03*
X67045D03*
X69015D03*
X70985D03*
X74925Y57600D03*
X72955D03*
Y77400D03*
X74925D03*
G54D37*
X72420Y187400D03*
X70452D03*
X68484D03*
X66516D03*
X64548D03*
X62580D03*
X60612D03*
X58644D03*
X56676D03*
X54708D03*
X52740D03*
Y232600D03*
X54708D03*
X56676D03*
X58644D03*
X60612D03*
X62580D03*
X64548D03*
X66516D03*
X68484D03*
X70452D03*
X72420D03*
X82260Y187400D03*
X80292D03*
X78324D03*
X76356D03*
X74388D03*
Y232600D03*
X76356D03*
X78324D03*
X80292D03*
X82260D03*
X305180Y215000D03*
X302620D03*
X300060D03*
X297500D03*
X294940D03*
X292380D03*
X289820D03*
Y239000D03*
X292380D03*
X294940D03*
X297500D03*
X300060D03*
X302620D03*
X305180D03*
G54D73*
X275000Y119500D03*
G54D46*
X114500Y177500D03*
X129250D03*
X120750Y179250D03*
G54D82*
X292500Y150600D03*
Y189400D03*
G54D38*
X67500Y210000D03*
G54D65*
X242500Y71500D03*
X237500D03*
X232500D03*
X227500D03*
Y93600D03*
X232500D03*
X237500D03*
X242500D03*
X262500Y71500D03*
X257500D03*
X252500D03*
X247500D03*
Y93600D03*
X252500D03*
X257500D03*
X262500D03*
G54D83*
X292500Y170000D03*
Y166850D03*
Y163700D03*
Y176300D03*
Y173150D03*
G54D29*
X63105Y57600D03*
Y77400D03*
X76895Y57600D03*
Y77400D03*
G54D47*
X113200Y212840D03*
X106800D03*
Y227160D03*
X113200D03*
G54D56*
X170000Y240000D03*
X207500Y55000D03*
G54D74*
X286800Y138000D03*
G54D84*
X297500Y227000D03*
G54D75*
X282000Y164700D03*
Y158300D03*
Y172300D03*
Y178700D03*
G54D48*
X106800Y224900D03*
Y222940D03*
X113200Y224900D03*
Y222940D03*
X106800Y220980D03*
Y219020D03*
Y217060D03*
Y215100D03*
X113200Y220980D03*
Y219020D03*
Y217060D03*
Y215100D03*
G54D66*
X238500Y227500D03*
G54D39*
X92950Y-22500D03*
X87050D03*
X282950Y92000D03*
X277050D03*
X297450D03*
X291550D03*
X313000Y204950D03*
Y199050D03*
Y237050D03*
Y242950D03*
X312500Y287950D03*
Y282050D03*
G54D57*
X162800Y260200D03*
X217800D03*
G54D85*
G01X15000Y-130500D02*
Y-213000D01*
X299000D01*
Y-130500D01*
X15000D01*
G01X97500D02*
Y-213000D01*
G01Y-185500D02*
X299000D01*
G01X97500Y-158000D02*
X298500D01*
G01X175000D02*
Y-185500D01*
G54D76*
X274000Y205500D03*
Y217500D03*
G54D67*
X247500Y20000D03*
G54D58*
X199500Y-3000D03*
X260500D03*
G54D49*
X100950Y275800D03*
X154050D03*
G54D86*
G01X203583Y-182500D02*
Y-175000D01*
X206292D01*
X207158Y-175375D01*
X207700Y-175875D01*
X207917Y-176875D01*
X207700Y-177875D01*
X207050Y-178500D01*
X206292Y-178875D01*
X203583D01*
G01X206292D02*
X207917Y-182500D01*
G01X215217D02*
X210883D01*
Y-175000D01*
X215217D01*
G01X213483Y-178625D02*
X210883D01*
G01X217642Y-175000D02*
X220350Y-182500D01*
X223058Y-175000D01*
G01X227650Y-182750D02*
X227433Y-182625D01*
Y-182375D01*
X227650Y-182250D01*
X227867Y-182375D01*
Y-182625D01*
X227650Y-182750D01*
G01X244633Y-175625D02*
X243983Y-175250D01*
X243225Y-175000D01*
X242358D01*
X241383Y-175375D01*
X240625Y-176000D01*
X240083Y-176750D01*
X239650Y-178000D01*
X239542Y-179125D01*
X239758Y-180250D01*
X240083Y-181000D01*
X240733Y-181750D01*
X241492Y-182250D01*
X242250Y-182500D01*
X243008D01*
X243767Y-182250D01*
X244417Y-181875D01*
X244958Y-181375D01*
G01X249550Y-182500D02*
Y-175000D01*
X248250Y-176500D01*
G01Y-182500D02*
X250850D01*
G01X206617Y-166000D02*
X207050Y-165625D01*
X207375Y-165000D01*
X207592Y-164125D01*
X207375Y-163375D01*
X206942Y-162875D01*
X206183Y-162500D01*
X203258D01*
Y-170000D01*
X206833D01*
X207592Y-169500D01*
X208025Y-168750D01*
X208242Y-167875D01*
X208025Y-167000D01*
X207375Y-166250D01*
X206617Y-166000D01*
X203258D01*
G01X215217Y-170000D02*
X210883D01*
Y-162500D01*
X215217D01*
G01X213483Y-166125D02*
X210883D01*
G01X217642Y-170000D02*
X220350Y-162500D01*
X223058Y-170000D01*
G01X222083Y-167375D02*
X218617D01*
G01X228300Y-166250D02*
X230467D01*
Y-168500D01*
X229817Y-169250D01*
X229058Y-169750D01*
X227975Y-170000D01*
X226892Y-169750D01*
X226133Y-169250D01*
X225483Y-168500D01*
X225050Y-167625D01*
X224833Y-166625D01*
Y-165750D01*
X225050Y-165000D01*
X225483Y-164125D01*
X226133Y-163375D01*
X226783Y-162875D01*
X227650Y-162500D01*
X228408D01*
X229275Y-162750D01*
X229925Y-163250D01*
G01X232783Y-162500D02*
Y-170000D01*
X237117D01*
G01X244417D02*
X240083D01*
Y-162500D01*
X244417D01*
G01X242683Y-166125D02*
X240083D01*
G01X254575Y-170000D02*
X259125Y-162500D01*
G01X254575D02*
X259125Y-170000D01*
G01X261333D02*
Y-162500D01*
X264150Y-168750D01*
X266967Y-162500D01*
Y-170000D01*
G54D59*
X194750Y121600D03*
Y131400D03*
G54D77*
X308200Y-27200D03*
Y71200D03*
G54D68*
X253000Y108500D03*
X247000D03*
G54D87*
G01X25500Y-175750D02*
X31125Y-181375D01*
X38625D01*
G01X31125Y-162625D02*
X25500Y-168250D01*
G01D02*
Y-175750D01*
G01X46125Y-181375D02*
Y-172000D01*
G01X33000Y-181375D02*
X46125D01*
G01Y-175750D02*
X64875D01*
G01X46125Y-172000D02*
X55500Y-162625D01*
G01X38625D02*
X31125D01*
G01X64875Y-172000D02*
Y-181375D01*
G01D02*
X76125D01*
G01X72375Y-162625D02*
Y-181375D01*
G01D02*
X79875D01*
G01X55500Y-162625D02*
X64875Y-172000D01*
G01X74250Y-162625D02*
X68625D01*
G01X79875D02*
X72375D01*
G01X79875Y-181375D02*
X85500Y-175750D01*
G01D02*
Y-168250D01*
G01D02*
X79875Y-162625D01*
G54D69*
X261000Y146500D03*
Y155500D03*
X269000Y146500D03*
Y155500D03*
G54D78*
X308200Y-9300D03*
Y53300D03*
G54D88*
G01X18000Y-172000D02*
X55500Y-209500D01*
X93000Y-172000D01*
G01X18000D02*
X93000D01*
G01X55500Y-134500D02*
X18000Y-172000D01*
G01X43770Y-196630D02*
G03X44234Y-197771I1635J0D01*
G01X43800Y-180430D02*
Y-196630D01*
G01Y-196375D02*
Y-180430D01*
G01X44250Y-197755D02*
X47925Y-201475D01*
G01X47911Y-201489D02*
G03X50325Y-202480I2414J2445D01*
G01X61125Y-197755D02*
X50805D01*
X48480Y-195430D01*
Y-177130D01*
X47055D01*
X43800Y-180430D01*
G01D02*
X47055Y-177130D01*
X48480D01*
Y-195430D01*
X50805Y-197755D01*
X61125D01*
G01X55500Y-183250D02*
X44250Y-172000D01*
G01X55500Y-194500D02*
X48480Y-187450D01*
G01X43305Y-182305D02*
X33000Y-172000D01*
G01X44250D02*
X55500Y-160750D01*
G01X33000Y-172000D02*
X46425Y-158575D01*
G01X43770Y-155380D02*
G03X44234Y-156521I1635J0D01*
G01X43770Y-155380D02*
G03X44234Y-156521I1635J0D01*
G01X49816Y-162114D02*
G03X52230Y-163105I2414J2445D01*
G01X49816Y-162114D02*
G03X52230Y-163105I2414J2445D01*
G01X44250Y-156505D02*
X49830Y-162100D01*
G01X44250Y-156505D02*
X49830Y-162100D01*
G01X52680Y-158380D02*
X48480Y-154180D01*
Y-148555D01*
X52680Y-144325D01*
X59700D01*
G01X43800Y-148075D02*
Y-155380D01*
G01X52680Y-158380D02*
X48480Y-154180D01*
Y-148555D01*
X52680Y-144325D01*
X59700D01*
G01X43800Y-148075D02*
Y-155380D01*
G01X49725Y-155275D02*
X55500Y-149500D01*
G01X49875Y-140575D02*
X44775Y-145675D01*
G01X44761Y-145661D02*
G03X43770Y-148075I2445J-2414D01*
G01X49875Y-140575D02*
X44775Y-145675D01*
G01X44761Y-145661D02*
G03X43770Y-148075I2445J-2414D01*
G01X52125Y-139675D02*
G03X49891Y-140591I-1J-3180D01*
G01X52125Y-139675D02*
G03X49891Y-140591I-1J-3180D01*
G01X50325Y-202450D02*
X61125D01*
G01D02*
X50250D01*
G01X61125Y-202480D02*
G03X63480Y-200125I0J2355D01*
G01D02*
G03X61125Y-197770I-2355J0D01*
G01X55500Y-197755D02*
Y-163555D01*
G01Y-194500D02*
X78000Y-172000D01*
G01X55500Y-209500D02*
Y-202450D01*
G01X66750Y-172000D02*
X55500Y-183250D01*
G01Y-160750D02*
X66750Y-172000D01*
G01X52230Y-163075D02*
X59700D01*
G01X52230D02*
X59700D01*
G01D02*
X57375D01*
G01X59700Y-163105D02*
G03X62055Y-160750I0J2355D01*
G01X59700Y-163105D02*
G03X62055Y-160750I0J2355D01*
G01X59700Y-158380D02*
X52680D01*
G01X62055Y-160750D02*
G03X59700Y-158395I-2355J0D01*
G01Y-158380D02*
X52680D01*
G01X56925D02*
X59700D01*
G01X62055Y-160750D02*
G03X59700Y-158395I-2355J0D01*
G01X55500Y-158380D02*
Y-144325D01*
G01X93000Y-172000D02*
X55500Y-134500D01*
G01X78000Y-172000D02*
X55500Y-149500D01*
G01X59700Y-144355D02*
G03X62055Y-142000I0J2355D01*
G01D02*
G03X59700Y-139645I-2355J0D01*
G01Y-139630D02*
X52125D01*
G01X59700D02*
X52125D01*
G01X55500D02*
Y-134500D01*
G54D79*
X306900Y0D03*
Y11000D03*
Y22000D03*
Y16500D03*
Y5500D03*
Y33000D03*
Y44000D03*
Y38500D03*
Y27500D03*
G54D89*
G01X111333Y-205500D02*
Y-195500D01*
X114667D01*
X116000Y-196000D01*
X117000Y-196667D01*
X117833Y-197667D01*
X118500Y-198834D01*
X118667Y-200500D01*
X118500Y-202167D01*
X117833Y-203333D01*
X117000Y-204334D01*
X116000Y-205000D01*
X114667Y-205500D01*
X111333D01*
G01X121833D02*
X126000Y-195500D01*
X130167Y-205500D01*
G01X128667Y-202000D02*
X123333D01*
G01X137000Y-195500D02*
Y-205500D01*
G01X133167Y-195500D02*
X140833D01*
G01X151333Y-205500D02*
X144667D01*
Y-195500D01*
X151333D01*
G01X148667Y-200333D02*
X144667D01*
G01X159000Y-205833D02*
X158667Y-205667D01*
Y-205333D01*
X159000Y-205167D01*
X159333Y-205333D01*
Y-205667D01*
X159000Y-205833D01*
G01Y-201334D02*
X158667Y-201167D01*
Y-200833D01*
X159000Y-200667D01*
X159333Y-200833D01*
Y-201167D01*
X159000Y-201334D01*
G01X115000Y-140000D02*
Y-150000D01*
G01X111167Y-140000D02*
X118833D01*
G01X129333Y-150000D02*
X122667D01*
Y-140000D01*
X129333D01*
G01X126667Y-144833D02*
X122667D01*
G01X133500Y-150000D02*
X140500Y-140000D01*
G01X133500D02*
X140500Y-150000D01*
G01X143833D02*
X148000Y-140000D01*
X152167Y-150000D01*
G01X150667Y-146500D02*
X145333D01*
G01X155500Y-148667D02*
X156833Y-149500D01*
X158333Y-150000D01*
X159667D01*
X161000Y-149500D01*
X162000Y-148667D01*
X162500Y-147500D01*
X162167Y-146334D01*
X161333Y-145333D01*
X159833Y-144667D01*
X157833Y-144333D01*
X156667Y-143667D01*
X156167Y-142500D01*
X156500Y-141333D01*
X157333Y-140500D01*
X158500Y-140000D01*
X159667D01*
X160833Y-140333D01*
X161833Y-141167D01*
G01X179000Y-140000D02*
X183000D01*
G01X181000D02*
Y-150000D01*
G01X179000D02*
X183000D01*
G01X188167D02*
Y-140000D01*
X195833Y-150000D01*
Y-140000D01*
G01X199500Y-148667D02*
X200833Y-149500D01*
X202333Y-150000D01*
X203667D01*
X205000Y-149500D01*
X206000Y-148667D01*
X206500Y-147500D01*
X206167Y-146334D01*
X205333Y-145333D01*
X203833Y-144667D01*
X201833Y-144333D01*
X200667Y-143667D01*
X200167Y-142500D01*
X200500Y-141333D01*
X201333Y-140500D01*
X202500Y-140000D01*
X203667D01*
X204833Y-140333D01*
X205833Y-141167D01*
G01X214000Y-140000D02*
Y-150000D01*
G01X210167Y-140000D02*
X217833D01*
G01X221667Y-150000D02*
Y-140000D01*
X225833D01*
X227167Y-140500D01*
X228000Y-141167D01*
X228333Y-142500D01*
X228000Y-143833D01*
X227000Y-144667D01*
X225833Y-145167D01*
X221667D01*
G01X225833D02*
X228333Y-150000D01*
G01X232333Y-140000D02*
Y-147167D01*
X233000Y-148667D01*
X234333Y-149667D01*
X236000Y-150000D01*
X237667Y-149667D01*
X239000Y-148667D01*
X239667Y-147167D01*
Y-140000D01*
G01X242667Y-150000D02*
Y-140000D01*
X247000Y-148333D01*
X251333Y-140000D01*
Y-150000D01*
G01X261333D02*
X254667D01*
Y-140000D01*
X261333D01*
G01X258667Y-144833D02*
X254667D01*
G01X265167Y-150000D02*
Y-140000D01*
X272833Y-150000D01*
Y-140000D01*
G01X280000D02*
Y-150000D01*
G01X276167Y-140000D02*
X283833D01*
G01X287500Y-148667D02*
X288833Y-149500D01*
X290333Y-150000D01*
X291667D01*
X293000Y-149500D01*
X294000Y-148667D01*
X294500Y-147500D01*
X294167Y-146334D01*
X293333Y-145333D01*
X291833Y-144667D01*
X289833Y-144333D01*
X288667Y-143667D01*
X288167Y-142500D01*
X288500Y-141333D01*
X289333Y-140500D01*
X290500Y-140000D01*
X291667D01*
X292833Y-140333D01*
X293833Y-141167D01*
G01X119000Y-176167D02*
X120333Y-177000D01*
X121833Y-177500D01*
X123167D01*
X124500Y-177000D01*
X125500Y-176167D01*
X126000Y-175000D01*
X125667Y-173834D01*
X124833Y-172833D01*
X123333Y-172167D01*
X121333Y-171833D01*
X120167Y-171167D01*
X119667Y-170000D01*
X120000Y-168833D01*
X120833Y-168000D01*
X122000Y-167500D01*
X123167D01*
X124333Y-167833D01*
X125333Y-168667D01*
G01X129167Y-177500D02*
Y-167500D01*
X133500Y-175833D01*
X137833Y-167500D01*
Y-177500D01*
G01X148167Y-168333D02*
X147167Y-167833D01*
X146000Y-167500D01*
X144667D01*
X143166Y-168000D01*
X142000Y-168833D01*
X141167Y-169833D01*
X140500Y-171500D01*
X140333Y-173000D01*
X140667Y-174500D01*
X141167Y-175500D01*
X142167Y-176500D01*
X143333Y-177167D01*
X144500Y-177500D01*
X145667D01*
X146833Y-177167D01*
X147833Y-176667D01*
X148667Y-176000D01*
G01X172500Y-195500D02*
X171166Y-195833D01*
X170167Y-196667D01*
X169500Y-197667D01*
X169000Y-199000D01*
X168833Y-200500D01*
X169000Y-202000D01*
X169500Y-203333D01*
X170167Y-204334D01*
X171166Y-205167D01*
X172500Y-205500D01*
X173833Y-205167D01*
X174833Y-204334D01*
X175500Y-203333D01*
X176000Y-202000D01*
X176167Y-200500D01*
X176000Y-199000D01*
X175500Y-197667D01*
X174833Y-196667D01*
X173833Y-195833D01*
X172500Y-195500D01*
G01X183500Y-205500D02*
X184667Y-205333D01*
X186000Y-204833D01*
X186833Y-204000D01*
X187167Y-202833D01*
X186833Y-201667D01*
X185833Y-200667D01*
X184333Y-200167D01*
X182667D01*
X181667Y-199833D01*
X180833Y-199000D01*
X180500Y-197833D01*
X181000Y-196667D01*
X182166Y-195833D01*
X183500Y-195500D01*
X184833Y-195833D01*
X186000Y-196667D01*
X186500Y-197833D01*
X186167Y-199000D01*
X185333Y-199833D01*
X184333Y-200167D01*
X182667D01*
X181167Y-200667D01*
X180167Y-201667D01*
X179833Y-202833D01*
X180167Y-204000D01*
X181000Y-204833D01*
X182333Y-205333D01*
X183500Y-205500D01*
G01X191500Y-205833D02*
X197500Y-195500D01*
G01X205500Y-205500D02*
Y-195500D01*
X203500Y-197500D01*
G01Y-205500D02*
X207500D01*
G01X213333Y-201334D02*
X214500Y-200167D01*
X215500Y-199500D01*
X216833Y-199167D01*
X218000Y-199500D01*
X218833Y-200167D01*
X219500Y-201167D01*
X219667Y-202333D01*
X219500Y-203333D01*
X218833Y-204334D01*
X217833Y-205167D01*
X216667Y-205500D01*
X215333Y-205167D01*
X214167Y-204167D01*
X213500Y-202667D01*
X213333Y-201000D01*
X213667Y-198834D01*
X214167Y-197667D01*
X215000Y-196500D01*
X216167Y-195667D01*
X217333Y-195500D01*
X218500Y-195833D01*
X219333Y-196667D01*
G01X224500Y-205833D02*
X230500Y-195500D01*
G01X238500Y-205500D02*
Y-195500D01*
X236500Y-197500D01*
G01Y-205500D02*
X240500D01*
G01X249500D02*
Y-195500D01*
X247500Y-197500D01*
G01Y-205500D02*
X251500D01*
M02*
