G04 ================== begin FILE IDENTIFICATION RECORD ==================*
G04 Layout Name:  BeagleBoard_xM_RevC1_nologo.brd*
G04 Film Name:    xM_RevC1_lyr6*
G04 File Format:  Gerber RS274X*
G04 File Origin:  Cadence Allegro 16.5-S022*
G04 Origin Date:  Fri Oct 12 17:26:56 2012*
G04 *
G04 Layer:  VIA CLASS/BOTTOM*
G04 Layer:  PIN/BOTTOM*
G04 Layer:  ETCH/BOTTOM*
G04 Layer:  DRAWING FORMAT/TITLE_BLOCK*
G04 Layer:  BOARD GEOMETRY/PLATING_BAR*
G04 *
G04 Offset:    (0.00 0.00)*
G04 Mirror:    No*
G04 Mode:      Positive*
G04 Rotation:  0*
G04 FullContactRelief:  No*
G04 UndefLineWidth:     6.00*
G04 ================== end FILE IDENTIFICATION RECORD ====================*
%FSLAX35Y35*MOIN*%
%IR0*IPPOS*OFA0.00000B0.00000*MIA0B0*SFA1.00000B1.00000*%
%ADD58O,.07X.15*%
%ADD36R,.12X.07*%
%ADD53O,.15X.07*%
%ADD52O,.07X.18*%
%ADD42R,.112X.064*%
%ADD44R,.064X.112*%
%ADD19C,.02*%
%ADD33O,.116X.058*%
%ADD15C,.04*%
%ADD32O,.058X.116*%
%ADD10C,.05*%
%ADD24C,.024*%
%ADD12C,.06*%
%ADD16C,.025*%
%ADD22C,.08*%
%ADD38C,.09*%
%ADD14C,.018*%
%ADD34C,.019*%
%ADD27C,.056*%
%ADD18C,.065*%
%AMMACRO28*
21,1,.06,.06,0.0,0.0,45.*%
%ADD28MACRO28*%
%ADD21C,.085*%
%ADD13R,.06X.06*%
%ADD51R,.045X.045*%
%ADD45R,.056X.056*%
%AMMACRO55*
4,1,8,.0075,.0125,
.0075,-.0125,
-.0075,-.0125,
-.0025,-.0075,
-.0075,-.0025,
-.0025,.0025,
-.0075,.0075,
-.0025,.0125,
.0075,.0125,
0.0*
%
%ADD55MACRO55*%
%AMMACRO47*
4,1,8,-.065,-.0225,
-.065,.0225,
-.04,.0225,
-.04,.0025,
.04,.0025,
.04,.0225,
.065,.0225,
.065,-.0225,
-.065,-.0225,
0.0*
%
%ADD47MACRO47*%
%AMMACRO39*
4,1,8,-.0225,.065,
.0225,.065,
.0225,.04,
.0025,.04,
.0025,-.04,
.0225,-.04,
.0225,-.065,
-.0225,-.065,
-.0225,.065,
0.0*
%
%ADD39MACRO39*%
%ADD31R,.025X.01*%
%ADD26R,.01X.025*%
%ADD50R,.035X.02*%
%ADD35O,.06X.035*%
%ADD23R,.032X.024*%
%ADD40O,.035X.06*%
%ADD17C,.12*%
%ADD60R,.06X.044*%
%ADD57C,.14*%
%ADD46R,.018X.014*%
%ADD30R,.025X.016*%
%ADD29O,.045X.035*%
%ADD25R,.016X.025*%
%ADD20O,.035X.045*%
%ADD37R,.039X.041*%
%ADD59R,.018X.036*%
%ADD49R,.043X.047*%
%ADD41R,.0181X.026*%
%ADD11R,.23X.23*%
%ADD56R,.079X.035*%
%AMMACRO54*
4,1,8,-.0075,-.0125,
-.0075,.0125,
.0075,.0125,
.0025,.0075,
.0075,.0025,
.0025,-.0025,
.0075,-.0075,
.0025,-.0125,
-.0075,-.0125,
0.0*
%
%ADD54MACRO54*%
%AMMACRO48*
4,1,8,.065,.0225,
.065,-.0225,
.04,-.0225,
.04,-.0025,
-.04,-.0025,
-.04,-.0225,
-.065,-.0225,
-.065,.0225,
.065,.0225,
0.0*
%
%ADD48MACRO48*%
%AMMACRO43*
4,1,8,.0225,-.065,
-.0225,-.065,
-.0225,-.04,
-.0025,-.04,
-.0025,.04,
-.0225,.04,
-.0225,.065,
.0225,.065,
.0225,-.065,
0.0*
%
%ADD43MACRO43*%
%ADD61C,.01*%
%ADD62C,.03*%
%ADD63C,.012*%
%ADD64C,.013*%
%ADD65C,.014*%
%ADD66C,.015*%
%ADD67C,.045*%
%ADD68C,.003*%
%ADD69C,.0041*%
%ADD70C,.006*%
%ADD71C,.005*%
%ADD72C,.0034*%
%ADD73C,.008*%
%ADD77C,.03404*%
%ADD75C,.02604*%
%ADD76C,.03804*%
%ADD74C,.07604*%
%ADD78O,.10004X.21004*%
G75*
%LPD*%
G75*
G36*
G01X15500Y19500D02*
X25500Y9500D01*
Y-19000D01*
X23000Y-21500D01*
X13500D01*
X3500Y-11500D01*
X-11500D01*
Y15500D01*
X-7500Y19500D01*
X15500D01*
G37*
G36*
G01X-654Y93177D02*
X-1114Y93636D01*
X-1812Y93000D01*
X-1114Y92364D01*
X-654Y92823D01*
G03Y93177I-177J177D01*
G37*
G36*
G01X5500Y104750D02*
Y107500D01*
X2456Y107544D01*
X2500Y104500D01*
X5250D01*
G03X5500Y104750I0J250D01*
G37*
G36*
G01X2500Y97500D02*
Y100500D01*
X500D01*
X-300Y97500D01*
X2500D01*
G37*
G36*
G01X5500Y124750D02*
Y127500D01*
X2456Y127544D01*
X2500Y124500D01*
X5250D01*
G03X5500Y124750I0J250D01*
G37*
G36*
G01X-7404Y115677D02*
X-7864Y116136D01*
X-8562Y115500D01*
X-7864Y114864D01*
X-7404Y115323D01*
G03Y115677I-177J177D01*
G37*
G36*
G01Y119177D02*
X-7864Y119636D01*
X-8562Y119000D01*
X-7864Y118364D01*
X-7404Y118823D01*
G03Y119177I-177J177D01*
G37*
G36*
G01X-10154Y112177D02*
X-10614Y112636D01*
X-11312Y112000D01*
X-10614Y111364D01*
X-10154Y111823D01*
G03Y112177I-177J177D01*
G37*
G36*
G01X-7354Y122627D02*
X-7864Y123136D01*
X-8562Y122503D01*
X-7884Y121846D01*
X-7374Y122255D01*
G03X-7354Y122627I-157J195D01*
G37*
G36*
G01X-7404Y130177D02*
X-7864Y130636D01*
X-8562Y130000D01*
X-7864Y129364D01*
X-7404Y129823D01*
G03Y130177I-177J177D01*
G37*
G36*
G01X-100Y143350D02*
Y144000D01*
X-1044Y144044D01*
X-1000Y143100D01*
X-350D01*
G03X-100Y143350I0J250D01*
G37*
G36*
G01X-9904Y133177D02*
X-10614Y133885D01*
X-11311Y133263D01*
X-10719Y132551D01*
X-10010Y132760D01*
G03X-9904Y133177I-71J240D01*
G37*
G36*
G01X900Y165400D02*
X250D01*
X206Y164456D01*
X1150Y164500D01*
Y165150D01*
G03X900Y165400I-250J0D01*
G37*
G36*
G01X650Y168400D02*
X0D01*
X-44Y167456D01*
X900Y167500D01*
Y168150D01*
G03X650Y168400I-250J0D01*
G37*
G36*
G01X-7258Y153030D02*
X-7364Y153136D01*
X-8188Y152500D01*
X-7364Y151864D01*
X-7258Y151970D01*
G03Y153030I-530J530D01*
G37*
G36*
G01X4652Y211677D02*
X3414Y212913D01*
X1938Y211500D01*
X3414Y210087D01*
X4652Y211323D01*
G03Y211677I-177J177D01*
G37*
G36*
G01X3750Y213500D02*
X2000D01*
X1956Y211456D01*
X4000Y211500D01*
Y213250D01*
G03X3750Y213500I-250J0D01*
G37*
G36*
G01X5323Y195096D02*
X4864Y194636D01*
X5500Y193938D01*
X6136Y194636D01*
X5677Y195096D01*
G03X5323I-177J-177D01*
G37*
G36*
G01X-1000Y209750D02*
Y211500D01*
X-3044Y211544D01*
X-3000Y209500D01*
X-1250D01*
G03X-1000Y209750I0J250D01*
G37*
G36*
G01X5677Y244404D02*
X6136Y244864D01*
X5500Y245562D01*
X4864Y244864D01*
X5323Y244404D01*
G03X5677I177J177D01*
G37*
G36*
G01X-2970Y238258D02*
X-2864Y238364D01*
X-3500Y239188D01*
X-4136Y238364D01*
X-4030Y238258D01*
G03X-2970I530J530D01*
G37*
G36*
G01X2519Y237300D02*
X2779Y237401D01*
X2633Y238383D01*
X1659Y238528D01*
X1558Y238288D01*
G03X2519Y237300I692J-288D01*
G37*
G36*
G01X20321Y82354D02*
X20173Y82382D01*
X19844Y81396D01*
X20881Y81321D01*
X20912Y81468D01*
G03X20321Y82354I-735J150D01*
G37*
G36*
G01X20822Y94254D02*
X20893Y94900D01*
X19961Y95049D01*
X19900Y94107D01*
X20546Y94034D01*
G03X20822Y94254I28J248D01*
G37*
G36*
G01X20955Y89435D02*
X20895Y90082D01*
X19952Y90040D01*
X20082Y89105D01*
X20729Y89163D01*
G03X20955Y89435I-23J249D01*
G37*
G36*
G01X15866Y91836D02*
X15720Y91872D01*
X15339Y90904D01*
X16373Y90784D01*
X16410Y90928D01*
G03X15866Y91836I-728J181D01*
G37*
G36*
G01X20742Y104030D02*
X20636Y104136D01*
X19812Y103500D01*
X20636Y102864D01*
X20742Y102970D01*
G03Y104030I-530J530D01*
G37*
G36*
G01X21195Y106672D02*
X20735Y107131D01*
X20036Y106495D01*
X20735Y105859D01*
X21195Y106318D01*
G03Y106672I-177J177D01*
G37*
G36*
G01X20742Y135530D02*
X20636Y135636D01*
X19812Y135000D01*
X20636Y134364D01*
X20742Y134470D01*
G03Y135530I-530J530D01*
G37*
G36*
G01Y140530D02*
X20636Y140636D01*
X19812Y140000D01*
X20636Y139364D01*
X20742Y139470D01*
G03Y140530I-530J530D01*
G37*
G36*
G01X19677Y173848D02*
X20913Y175086D01*
X19500Y176562D01*
X18087Y175086D01*
X19323Y173848D01*
G03X19677I177J177D01*
G37*
G36*
G01X25050Y176650D02*
X24750D01*
X24644Y175644D01*
X25650Y175750D01*
Y176050D01*
G03X25050Y176650I-600J0D01*
G37*
G36*
G01X12500Y208250D02*
Y206500D01*
X14544Y206456D01*
X14500Y208500D01*
X12750D01*
G03X12500Y208250I0J-250D01*
G37*
G36*
G01X12750Y204500D02*
X14500D01*
X14544Y206544D01*
X12500Y206500D01*
Y204750D01*
G03X12750Y204500I250J0D01*
G37*
G36*
G01X22152Y201677D02*
X20914Y202913D01*
X19438Y201500D01*
X20914Y200087D01*
X22152Y201323D01*
G03Y201677I-177J177D01*
G37*
G36*
G01X25350Y202600D02*
X26000D01*
X26044Y203544D01*
X25100Y203500D01*
Y202850D01*
G03X25350Y202600I250J0D01*
G37*
G36*
G01X22152Y196677D02*
X20914Y197913D01*
X19438Y196500D01*
X20914Y195087D01*
X22152Y196323D01*
G03Y196677I-177J177D01*
G37*
G36*
G01X27350Y200600D02*
X28000D01*
X28044Y201544D01*
X27100Y201500D01*
Y200850D01*
G03X27350Y200600I250J0D01*
G37*
G36*
G01X11177Y241904D02*
X11636Y242364D01*
X11000Y243062D01*
X10364Y242364D01*
X10823Y241904D01*
G03X11177I177J177D01*
G37*
G36*
G01X22038Y238000D02*
X22250D01*
X22665Y238339D01*
X21864Y238886D01*
X21508Y238530D01*
X22038Y238000D01*
G37*
G36*
G01X21508Y241470D02*
X21864Y241114D01*
X22665Y241661D01*
X22250Y242000D01*
X22038D01*
X21508Y241470D01*
G37*
G36*
G01X46970Y-2255D02*
Y-5300D01*
X50256Y-5336D01*
X50220Y-2050D01*
X47175D01*
G03X46970Y-2255I0J-205D01*
G37*
G36*
G01X45745Y-2050D02*
X42340D01*
X42302Y-5334D01*
X45588Y-5324D01*
X45949Y-2279D01*
G03X45745Y-2050I-204J24D01*
G37*
G36*
G01X32742Y44030D02*
X32636Y44136D01*
X31812Y43500D01*
X32636Y42864D01*
X32742Y42970D01*
G03Y44030I-530J530D01*
G37*
G36*
G01X32404Y109823D02*
X32864Y109364D01*
X33562Y110000D01*
X32864Y110636D01*
X32404Y110177D01*
G03Y109823I177J-177D01*
G37*
G36*
G01X31258Y136970D02*
X31364Y136864D01*
X32188Y137500D01*
X31364Y138136D01*
X31258Y138030D01*
G03Y136970I530J-530D01*
G37*
G36*
G01X30100Y143150D02*
Y142500D01*
X31044Y142456D01*
X31000Y143400D01*
X30350D01*
G03X30100Y143150I0J-250D01*
G37*
G36*
G01X50073Y161096D02*
X49614Y160636D01*
X50250Y159938D01*
X50886Y160636D01*
X50427Y161096D01*
G03X50073I-177J-177D01*
G37*
G36*
G01X48000Y230000D02*
X87500D01*
Y190000D01*
X48000D01*
Y230000D01*
G37*
G36*
G01X48600Y184150D02*
Y184000D01*
X49633Y183867D01*
X49500Y184900D01*
X49350D01*
G03X48600Y184150I0J-750D01*
G37*
G36*
G01X49650Y184900D02*
X49500D01*
X49367Y183867D01*
X50400Y184000D01*
Y184150D01*
G03X49650Y184900I-750J0D01*
G37*
G36*
G01X44330Y183958D02*
X44436Y184064D01*
X43800Y184888D01*
X43164Y184064D01*
X43270Y183958D01*
G03X44330I530J530D01*
G37*
G36*
G01X45600Y176650D02*
Y176500D01*
X46633Y176367D01*
X46500Y177400D01*
X46350D01*
G03X45600Y176650I0J-750D01*
G37*
G36*
G01X47242Y177030D02*
X47136Y177136D01*
X46312Y176500D01*
X47136Y175864D01*
X47242Y175970D01*
G03Y177030I-530J530D01*
G37*
G36*
G01X39712Y207000D02*
X39500D01*
X38847Y206392D01*
X39636Y205864D01*
X40242Y206470D01*
X39712Y207000D01*
G37*
G36*
G01X40400Y200994D02*
Y201144D01*
X39367Y201277D01*
X39500Y200244D01*
X39650D01*
G03X40400Y200994I0J750D01*
G37*
G36*
G01X46400Y226680D02*
X46522Y226768D01*
X46031Y227685D01*
X45268Y226978D01*
X45354Y226856D01*
G03X46400Y226680I611J435D01*
G37*
G36*
G01X39650Y223400D02*
X39500D01*
X39367Y222367D01*
X40400Y222500D01*
Y222650D01*
G03X39650Y223400I-750J0D01*
G37*
G36*
G01X40596Y219677D02*
X40136Y220136D01*
X39438Y219500D01*
X40136Y218864D01*
X40596Y219323D01*
G03Y219677I-177J177D01*
G37*
G36*
G01X44542Y238330D02*
X44436Y238436D01*
X43612Y237800D01*
X44436Y237164D01*
X44542Y237270D01*
G03Y238330I-530J530D01*
G37*
G36*
G01X35200Y245600D02*
X35500D01*
X35606Y246606D01*
X34600Y246500D01*
Y246200D01*
G03X35200Y245600I600J0D01*
G37*
G36*
G01X60242Y16530D02*
X60136Y16636D01*
X59312Y16000D01*
X60136Y15364D01*
X60242Y15470D01*
G03Y16530I-530J530D01*
G37*
G36*
G01X67255Y24587D02*
X66927Y21754D01*
X69455Y19721D01*
X71362Y22198D01*
X68530Y25030D01*
G03X67255Y24587I-530J-530D01*
G37*
G36*
G01X65334Y19370D02*
X67102Y17602D01*
X69588Y19900D01*
X67102Y22198D01*
X65334Y20430D01*
G03Y19370I530J-530D01*
G37*
G36*
G01X60970Y24742D02*
X60864Y24636D01*
X61500Y23812D01*
X62136Y24636D01*
X62030Y24742D01*
G03X60970I-530J-530D01*
G37*
G36*
G01X70738Y32081D02*
X71758Y35304D01*
X69387Y37561D01*
X67103Y35202D01*
X70323Y31980D01*
G03X70738Y32081I177J177D01*
G37*
G36*
G01X56917Y74600D02*
G03Y78400I83J1900D01*
G02X56500Y78800I-17J400D01*
G01Y81000D01*
X61099Y85599D01*
X61171Y85606D01*
G03X62894Y87329I-171J1894D01*
G01X62901Y87401D01*
X65000Y89500D01*
X67500D01*
X72000Y85000D01*
Y80500D01*
X67000Y75500D01*
Y74552D01*
G02X66354Y74236I-400J0D01*
G03Y70764I-1354J-1736D01*
G02X67000Y70448I246J-316D01*
G01Y64552D01*
G02X66354Y64236I-400J0D01*
G03X66730Y61138I-1354J-1736D01*
G02X67327Y61173I314J-248D01*
G01X74500Y54000D01*
Y52000D01*
X73000Y50500D01*
X71982D01*
G02X71635Y51099I0J400D01*
G03X68335I-1650J946D01*
G02X67988Y50500I-347J-199D01*
G01X67500D01*
X62752Y55248D01*
X62794Y55367D01*
G03X59100Y55917I-1794J633D01*
G02X58700Y55500I-400J-17D01*
G01X57500D01*
X56500Y56500D01*
Y66385D01*
G02X56690Y66585I200J0D01*
G03X58181Y69543I-90J1900D01*
G02X58250Y70067I332J223D01*
G03X56917Y73400I-1250J1433D01*
G02X56500Y73800I-17J400D01*
G01Y74200D01*
G02X56917Y74600I400J0D01*
G37*
G36*
G01X58242Y119030D02*
X58136Y119136D01*
X57312Y118500D01*
X58136Y117864D01*
X58242Y117970D01*
G03Y119030I-530J530D01*
G37*
G36*
G01X58030Y125758D02*
X58136Y125864D01*
X57500Y126688D01*
X56864Y125864D01*
X56970Y125758D01*
G03X58030I530J530D01*
G37*
G36*
G01X64897Y146492D02*
X62954Y144547D01*
X65074Y142364D01*
X67194Y144547D01*
X65251Y146492D01*
G03X64897I-177J-177D01*
G37*
G36*
G01X53937Y135178D02*
X55882Y133235D01*
X58066Y135355D01*
X55882Y137475D01*
X53937Y135532D01*
G03Y135178I177J-177D01*
G37*
G36*
G01X72322Y131289D02*
X74265Y133234D01*
X72145Y135418D01*
X70025Y133234D01*
X71968Y131289D01*
G03X72322I177J177D01*
G37*
G36*
G01X56691Y146392D02*
X56542Y146398D01*
X56362Y145373D01*
X57398Y145463D01*
X57405Y145613D01*
G03X56691Y146392I-749J30D01*
G37*
G36*
G01X55532Y140088D02*
X55679Y140119D01*
X55604Y141156D01*
X54618Y140827D01*
X54646Y140679D01*
G03X55532Y140088I736J144D01*
G37*
G36*
G01X61697Y172404D02*
X62156Y172864D01*
X61520Y173562D01*
X60884Y172864D01*
X61343Y172404D01*
G03X61697I177J177D01*
G37*
G36*
G01X67577Y175404D02*
X68036Y175864D01*
X67400Y176562D01*
X66764Y175864D01*
X67223Y175404D01*
G03X67577I177J177D01*
G37*
G36*
G01X63657D02*
X64116Y175864D01*
X63480Y176562D01*
X62844Y175864D01*
X63303Y175404D01*
G03X63657I177J177D01*
G37*
G36*
G01X65617Y172404D02*
X66076Y172864D01*
X65440Y173562D01*
X64804Y172864D01*
X65263Y172404D01*
G03X65617I177J177D01*
G37*
G36*
G01X69837D02*
X70296Y172864D01*
X69660Y173562D01*
X69024Y172864D01*
X69483Y172404D01*
G03X69837I177J177D01*
G37*
G36*
G01X59737Y175404D02*
X60196Y175864D01*
X59560Y176562D01*
X58924Y175864D01*
X59383Y175404D01*
G03X59737I177J177D01*
G37*
G36*
G01X63230Y241820D02*
X62580D01*
X62536Y240876D01*
X63480Y240920D01*
Y241570D01*
G03X63230Y241820I-250J0D01*
G37*
G36*
G01X65030Y251758D02*
X65136Y251864D01*
X64500Y252688D01*
X63864Y251864D01*
X63970Y251758D01*
G03X65030I530J530D01*
G37*
G36*
G01X63452Y237823D02*
X63912Y237364D01*
X64610Y238000D01*
X63912Y238636D01*
X63452Y238177D01*
G03Y237823I177J-177D01*
G37*
G36*
G01X59120Y237470D02*
X59226Y237364D01*
X60050Y238000D01*
X59226Y238636D01*
X59120Y238530D01*
G03Y237470I530J-530D01*
G37*
G36*
G01X80177Y36904D02*
X80636Y37364D01*
X80000Y38062D01*
X79364Y37364D01*
X79823Y36904D01*
G03X80177I177J177D01*
G37*
G36*
G01X85030Y41258D02*
X85136Y41364D01*
X84500Y42188D01*
X83864Y41364D01*
X83970Y41258D01*
G03X85030I530J530D01*
G37*
G36*
G01X72758Y26470D02*
X72864Y26364D01*
X73688Y27000D01*
X72864Y27636D01*
X72758Y27530D01*
G03Y26470I530J-530D01*
G37*
G36*
G01X75677Y36904D02*
X76136Y37364D01*
X75500Y38062D01*
X74864Y37364D01*
X75323Y36904D01*
G03X75677I177J177D01*
G37*
G36*
G01X79823Y29096D02*
X79364Y28636D01*
X80000Y27938D01*
X80636Y28636D01*
X80177Y29096D01*
G03X79823I-177J-177D01*
G37*
G36*
G01X86742Y65530D02*
X86636Y65636D01*
X85812Y65000D01*
X86636Y64364D01*
X86742Y64470D01*
G03Y65530I-530J530D01*
G37*
G36*
G01Y73030D02*
X86636Y73136D01*
X85812Y72500D01*
X86636Y71864D01*
X86742Y71970D01*
G03Y73030I-530J530D01*
G37*
G36*
G01X76166D02*
X75848Y73348D01*
X74812Y72500D01*
X75848Y71652D01*
X76166Y71970D01*
G03Y73030I-530J530D01*
G37*
G36*
G01X78970Y80242D02*
X78864Y80136D01*
X79500Y79312D01*
X80136Y80136D01*
X80030Y80242D01*
G03X78970I-530J-530D01*
G37*
G36*
G01X82807Y69079D02*
X82730Y68950D01*
X83545Y68303D01*
X83963Y69256D01*
X83836Y69334D01*
G03X82807Y69079I-387J-643D01*
G37*
G36*
G01X92674Y91742D02*
X92606Y91095D01*
X93539Y90951D01*
X93595Y91894D01*
X92950Y91964D01*
G03X92674Y91742I-27J-249D01*
G37*
G36*
G01X73242Y107530D02*
X73136Y107636D01*
X72312Y107000D01*
X73136Y106364D01*
X73242Y106470D01*
G03Y107530I-530J530D01*
G37*
G36*
G01X87400Y98350D02*
Y98500D01*
X86367Y98633D01*
X86500Y97600D01*
X86650D01*
G03X87400Y98350I0J750D01*
G37*
G36*
G01X73855Y86305D02*
Y86955D01*
X72911Y86999D01*
X72955Y86055D01*
X73605D01*
G03X73855Y86305I0J250D01*
G37*
G36*
G01X86464Y117147D02*
X88407Y119092D01*
X86287Y121276D01*
X84167Y119092D01*
X86110Y117147D01*
G03X86464I177J177D01*
G37*
G36*
G01X75150Y128107D02*
X77095Y126164D01*
X79278Y128284D01*
X77095Y130404D01*
X75150Y128461D01*
G03Y128107I177J-177D01*
G37*
G36*
G01X79039Y132350D02*
X77096Y130405D01*
X79216Y128222D01*
X81336Y130405D01*
X79393Y132350D01*
G03X79039I-177J-177D01*
G37*
G36*
G01X91600Y128250D02*
Y127600D01*
X92544Y127556D01*
X92500Y128500D01*
X91850D01*
G03X91600Y128250I0J-250D01*
G37*
G36*
G01X91108Y111142D02*
X93358D01*
X93491Y114275D01*
X90358Y114142D01*
Y111892D01*
G03X91108Y111142I750J0D01*
G37*
G36*
G01X80177Y137804D02*
X80636Y138264D01*
X80000Y138962D01*
X79364Y138264D01*
X79823Y137804D01*
G03X80177I177J177D01*
G37*
G36*
G01X85323Y149596D02*
X84864Y149136D01*
X85500Y148438D01*
X86136Y149136D01*
X85677Y149596D01*
G03X85323I-177J-177D01*
G37*
G36*
G01X75323Y172096D02*
X74864Y171636D01*
X75500Y170938D01*
X76136Y171636D01*
X75677Y172096D01*
G03X75323I-177J-177D01*
G37*
G36*
G01X79677Y169904D02*
X80136Y170364D01*
X79500Y171062D01*
X78864Y170364D01*
X79323Y169904D01*
G03X79677I177J177D01*
G37*
G36*
G01X83677D02*
X84136Y170364D01*
X83500Y171062D01*
X82864Y170364D01*
X83323Y169904D01*
G03X83677I177J177D01*
G37*
G36*
G01X75596Y153177D02*
X75136Y153636D01*
X74438Y153000D01*
X75136Y152364D01*
X75596Y152823D01*
G03Y153177I-177J177D01*
G37*
G36*
G01X84501Y178226D02*
X84961Y177767D01*
X85660Y178403D01*
X84961Y179039D01*
X84501Y178580D01*
G03Y178226I177J-177D01*
G37*
G36*
G01X77677Y171904D02*
X78136Y172364D01*
X77500Y173062D01*
X76864Y172364D01*
X77323Y171904D01*
G03X77677I177J177D01*
G37*
G36*
G01X81677D02*
X82136Y172364D01*
X81500Y173062D01*
X80864Y172364D01*
X81323Y171904D01*
G03X81677I177J177D01*
G37*
G36*
G01X89323Y192596D02*
X88864Y192136D01*
X89500Y191438D01*
X90136Y192136D01*
X89677Y192596D01*
G03X89323I-177J-177D01*
G37*
G36*
G01X82596Y182177D02*
X82136Y182636D01*
X81438Y182000D01*
X82136Y181364D01*
X82596Y181823D01*
G03Y182177I-177J177D01*
G37*
G36*
G01X79224Y181350D02*
Y182000D01*
X78280Y182044D01*
X78324Y181100D01*
X78974D01*
G03X79224Y181350I0J250D01*
G37*
G36*
G01X84350Y234100D02*
X84500D01*
X84633Y235133D01*
X83600Y235000D01*
Y234850D01*
G03X84350Y234100I750J0D01*
G37*
G36*
G01X90958Y231670D02*
X91064Y231564D01*
X91888Y232200D01*
X91064Y232836D01*
X90958Y232730D01*
G03Y231670I530J-530D01*
G37*
G36*
G01X92230Y231458D02*
X92336Y231564D01*
X91700Y232388D01*
X91064Y231564D01*
X91170Y231458D01*
G03X92230I530J530D01*
G37*
G36*
G01X73150Y240900D02*
X72500D01*
X72456Y239956D01*
X73400Y240000D01*
Y240650D01*
G03X73150Y240900I-250J0D01*
G37*
G36*
G01X88530Y240258D02*
X88636Y240364D01*
X88000Y241188D01*
X87364Y240364D01*
X87470Y240258D01*
G03X88530I530J530D01*
G37*
G36*
G01X75030Y251758D02*
X75136Y251864D01*
X74500Y252688D01*
X73864Y251864D01*
X73970Y251758D01*
G03X75030I530J530D01*
G37*
G36*
G01X99823Y-5904D02*
X99364Y-6364D01*
X100000Y-7062D01*
X100636Y-6364D01*
X100177Y-5904D01*
G03X99823I-177J-177D01*
G37*
G36*
G01X97823Y-7904D02*
X97364Y-8364D01*
X98000Y-9062D01*
X98636Y-8364D01*
X98177Y-7904D01*
G03X97823I-177J-177D01*
G37*
G36*
G01X112350Y21600D02*
X113000D01*
X113044Y22544D01*
X112100Y22500D01*
Y21850D01*
G03X112350Y21600I250J0D01*
G37*
G36*
G01X108177Y28080D02*
X108636Y28540D01*
X108000Y29238D01*
X107364Y28540D01*
X107823Y28080D01*
G03X108177I177J177D01*
G37*
G36*
G01X100146Y35342D02*
X100020Y35261D01*
X100459Y34317D01*
X101257Y34986D01*
X101177Y35113D01*
G03X100146Y35342I-631J-406D01*
G37*
G36*
G01X98242Y32030D02*
X98136Y32136D01*
X97312Y31500D01*
X98136Y30864D01*
X98242Y30970D01*
G03Y32030I-530J530D01*
G37*
G36*
G01X106904Y34323D02*
X107364Y33864D01*
X108062Y34500D01*
X107364Y35136D01*
X106904Y34677D01*
G03Y34323I177J-177D01*
G37*
G36*
G01X111442Y27058D02*
X111292Y27208D01*
X110427Y27241D01*
X110612Y26308D01*
X111442D01*
Y27058D01*
G37*
G36*
G01X108920Y37402D02*
X108636Y37684D01*
X107875Y37048D01*
X108636Y36412D01*
X108920Y36694D01*
G03Y37402I-354J354D01*
G37*
G36*
G01X110603Y31368D02*
X110286Y31937D01*
X109440Y31517D01*
X109937Y30714D01*
X110505Y31028D01*
G03X110603Y31368I-121J219D01*
G37*
G36*
G01X108404Y31323D02*
X108864Y30864D01*
X109562Y31500D01*
X108864Y32136D01*
X108404Y31677D01*
G03Y31323I177J-177D01*
G37*
G36*
G01X107855Y48016D02*
X107365Y47523D01*
X108000Y46837D01*
X108635Y47523D01*
X108145Y48016D01*
G03X107855I-145J-145D01*
G37*
G36*
G01X109484Y50679D02*
X109977Y50189D01*
X110663Y50824D01*
X109977Y51459D01*
X109484Y50969D01*
G03Y50679I145J-145D01*
G37*
G36*
G01X111512Y46738D02*
Y46888D01*
X110479Y47021D01*
X110612Y45988D01*
X110762D01*
G03X111512Y46738I0J750D01*
G37*
G36*
G01X106400Y72889D02*
Y73539D01*
X105456Y73583D01*
X105500Y72639D01*
X106150D01*
G03X106400Y72889I0J250D01*
G37*
G36*
G01X98258Y65970D02*
X98364Y65864D01*
X99188Y66500D01*
X98364Y67136D01*
X98258Y67030D01*
G03Y65970I530J-530D01*
G37*
G36*
G01X106150Y71362D02*
X105500D01*
X105456Y70418D01*
X106400Y70462D01*
Y71112D01*
G03X106150Y71362I-250J0D01*
G37*
G36*
G01X93150Y69400D02*
X93000D01*
X92867Y68367D01*
X93900Y68500D01*
Y68650D01*
G03X93150Y69400I-750J0D01*
G37*
G36*
G01X100606Y88863D02*
X102549Y90808D01*
X100429Y92992D01*
X98309Y90808D01*
X100252Y88863D01*
G03X100606I177J177D01*
G37*
G36*
G01Y103005D02*
X102549Y104950D01*
X100429Y107134D01*
X98309Y104950D01*
X100252Y103005D01*
G03X100606I177J177D01*
G37*
G36*
G01X94246Y91822D02*
X93600Y91893D01*
X93451Y90961D01*
X94393Y90900D01*
X94466Y91546D01*
G03X94246Y91822I-248J28D01*
G37*
G36*
G01X93781Y87868D02*
X93631Y87889D01*
X93349Y86889D01*
X94388Y86863D01*
X94412Y87011D01*
G03X93781Y87868I-741J115D01*
G37*
G36*
G01X110470Y90242D02*
X110364Y90136D01*
X111000Y89312D01*
X111636Y90136D01*
X111530Y90242D01*
G03X110470I-530J-530D01*
G37*
G36*
G01X114427Y117154D02*
X114886Y117614D01*
X114250Y118312D01*
X113614Y117614D01*
X114073Y117154D01*
G03X114427I177J177D01*
G37*
G36*
G01X112002Y115152D02*
X112652Y115653D01*
X112531Y116554D01*
X111600Y116500D01*
Y115350D01*
G03X112002Y115152I250J0D01*
G37*
G36*
G01X100231Y118750D02*
X101150D01*
X101808Y119373D01*
X101114Y119985D01*
X100054Y118927D01*
X100231Y118750D01*
G37*
G36*
G01X97981Y120500D02*
X98900D01*
X99558Y121123D01*
X98864Y121735D01*
X97804Y120677D01*
X97981Y120500D01*
G37*
G36*
G01X101850Y128650D02*
Y128000D01*
X102794Y127956D01*
X102750Y128900D01*
X102100D01*
G03X101850Y128650I0J-250D01*
G37*
G36*
G01X110677Y117154D02*
X111136Y117614D01*
X110500Y118312D01*
X109864Y117614D01*
X110323Y117154D01*
G03X110677I177J177D01*
G37*
G36*
G01X94270Y125642D02*
X94164Y125536D01*
X94800Y124712D01*
X95436Y125536D01*
X95330Y125642D01*
G03X94270I-530J-530D01*
G37*
G36*
G01X112262Y126338D02*
X112116Y126373D01*
X111740Y125403D01*
X112774Y125289D01*
X112810Y125435D01*
G03X112262Y126338I-729J175D01*
G37*
G36*
G01X102212Y116700D02*
X101781D01*
X101585Y116361D01*
X102386Y115814D01*
X102742Y116170D01*
X102212Y116700D01*
G37*
G36*
G01X95204Y122323D02*
X95664Y121864D01*
X96362Y122500D01*
X95664Y123136D01*
X95204Y122677D01*
G03Y122323I177J-177D01*
G37*
G36*
G01X109815Y128987D02*
X109665Y128997D01*
X109458Y127977D01*
X110497Y128040D01*
X110508Y128189D01*
G03X109815Y128987I-748J50D01*
G37*
G36*
G01X102286Y123301D02*
X102170Y123395D01*
X101413Y122681D01*
X102295Y122130D01*
X102391Y122246D01*
G03X102286Y123301I-580J475D01*
G37*
G36*
G01X98150Y126400D02*
X97500D01*
X97456Y125456D01*
X98400Y125500D01*
Y126150D01*
G03X98150Y126400I-250J0D01*
G37*
G36*
G01X101654Y134323D02*
X102114Y133864D01*
X102812Y134500D01*
X102114Y135136D01*
X101654Y134677D01*
G03Y134323I177J-177D01*
G37*
G36*
G01X101850Y131900D02*
Y131250D01*
X102794Y131206D01*
X102750Y132150D01*
X102100D01*
G03X101850Y131900I0J-250D01*
G37*
G36*
G01X98164Y144366D02*
X98128Y144220D01*
X99096Y143839D01*
X99216Y144873D01*
X99072Y144910D01*
G03X98164Y144366I-181J-728D01*
G37*
G36*
G01X109758Y144970D02*
X109864Y144864D01*
X110688Y145500D01*
X109864Y146136D01*
X109758Y146030D01*
G03Y144970I530J-530D01*
G37*
G36*
G01X110079Y134667D02*
X110324Y134619D01*
X110635Y135590D01*
X109619Y135676D01*
X109569Y135431D01*
G03X110079Y134667I637J-127D01*
G37*
G36*
G01X96030Y142758D02*
X96136Y142864D01*
X95500Y143688D01*
X94864Y142864D01*
X94970Y142758D01*
G03X96030I530J530D01*
G37*
G36*
G01X94758Y142970D02*
X94864Y142864D01*
X95688Y143500D01*
X94864Y144136D01*
X94758Y144030D01*
G03Y142970I530J-530D01*
G37*
G36*
G01X110298Y132863D02*
X110150Y132887D01*
X109847Y131891D01*
X110887Y131850D01*
X110913Y131998D01*
G03X110298Y132863I-740J125D01*
G37*
G36*
G01X109964Y141762D02*
X110098Y141696D01*
X110678Y142559D01*
X109696Y142902D01*
X109628Y142768D01*
G03X109964Y141762I671J-335D01*
G37*
G36*
G01X110076Y138192D02*
X110219Y138146D01*
X110668Y139084D01*
X109648Y139287D01*
X109599Y139145D01*
G03X110076Y138192I711J-240D01*
G37*
G36*
G01X111278Y148995D02*
X111136Y149135D01*
X110325Y148500D01*
X111136Y147865D01*
X111278Y148005D01*
G03Y148995I-495J495D01*
G37*
G36*
G01X96404Y135323D02*
X96864Y134864D01*
X97562Y135500D01*
X96864Y136136D01*
X96404Y135677D01*
G03Y135323I177J-177D01*
G37*
G36*
G01X100255Y148686D02*
X100381Y149324D01*
X99465Y149552D01*
X99324Y148619D01*
X99961Y148490D01*
G03X100255Y148686I49J245D01*
G37*
G36*
G01X95170Y150560D02*
X94781Y150039D01*
X95509Y149438D01*
X96039Y150219D01*
X95520Y150610D01*
G03X95170Y150560I-150J-200D01*
G37*
G36*
G01X102150Y155900D02*
X101500D01*
X101456Y154956D01*
X102400Y155000D01*
Y155650D01*
G03X102150Y155900I-250J0D01*
G37*
G36*
G01X111242Y166030D02*
X111136Y166136D01*
X110312Y165500D01*
X111136Y164864D01*
X111242Y164970D01*
G03Y166030I-530J530D01*
G37*
G36*
G01X97258Y156470D02*
X97364Y156364D01*
X98188Y157000D01*
X97364Y157636D01*
X97258Y157530D01*
G03Y156470I530J-530D01*
G37*
G36*
G01X99030Y167258D02*
X99136Y167364D01*
X98500Y168188D01*
X97864Y167364D01*
X97970Y167258D01*
G03X99030I530J530D01*
G37*
G36*
G01X97970Y168742D02*
X97864Y168636D01*
X98500Y167812D01*
X99136Y168636D01*
X99030Y168742D01*
G03X97970I-530J-530D01*
G37*
G36*
G01X102400Y157350D02*
Y158000D01*
X101456Y158044D01*
X101500Y157100D01*
X102150D01*
G03X102400Y157350I0J250D01*
G37*
G36*
G01X111314Y162411D02*
X111224Y162532D01*
X110315Y162029D01*
X111026Y161272D01*
X111149Y161359D01*
G03X111314Y162411I-439J608D01*
G37*
G36*
G01X111349Y158836D02*
X111271Y158963D01*
X110318Y158545D01*
X110965Y157730D01*
X111094Y157807D01*
G03X111349Y158836I-388J642D01*
G37*
G36*
G01X111390Y155203D02*
X111332Y155341D01*
X110327Y155072D01*
X110841Y154168D01*
X110981Y154224D01*
G03X111390Y155203I-285J694D01*
G37*
G36*
G01X109587Y151498D02*
X109613Y151350D01*
X110653Y151391D01*
X110350Y152387D01*
X110202Y152363D01*
G03X109587Y151498I125J-740D01*
G37*
G36*
G01X97200Y160750D02*
Y160100D01*
X98144Y160056D01*
X98100Y161000D01*
X97450D01*
G03X97200Y160750I0J-250D01*
G37*
G36*
G01X103970Y160742D02*
X103864Y160636D01*
X104500Y159812D01*
X105136Y160636D01*
X105030Y160742D01*
G03X103970I-530J-530D01*
G37*
G36*
G01Y168742D02*
X103864Y168636D01*
X104500Y167812D01*
X105136Y168636D01*
X105030Y168742D01*
G03X103970I-530J-530D01*
G37*
G36*
G01X97600Y182600D02*
X98250D01*
X98294Y183544D01*
X97350Y183500D01*
Y182850D01*
G03X97600Y182600I250J0D01*
G37*
G36*
G01X113030Y183258D02*
X113136Y183364D01*
X112500Y184188D01*
X111864Y183364D01*
X111970Y183258D01*
G03X113030I530J530D01*
G37*
G36*
G01X100400Y189850D02*
Y190500D01*
X99456Y190544D01*
X99500Y189600D01*
X100150D01*
G03X100400Y189850I0J250D01*
G37*
G36*
G01X94350Y182600D02*
X95000D01*
X95044Y183544D01*
X94100Y183500D01*
Y182850D01*
G03X94350Y182600I250J0D01*
G37*
G36*
G01X105096Y199197D02*
X104636Y199656D01*
X103938Y199020D01*
X104636Y198384D01*
X105096Y198843D01*
G03Y199197I-177J177D01*
G37*
G36*
G01X102096Y197237D02*
X101636Y197696D01*
X100938Y197060D01*
X101636Y196424D01*
X102096Y196883D01*
G03Y197237I-177J177D01*
G37*
G36*
G01X105096Y207337D02*
X104636Y207796D01*
X103938Y207160D01*
X104636Y206524D01*
X105096Y206983D01*
G03Y207337I-177J177D01*
G37*
G36*
G01X102096Y201157D02*
X101636Y201616D01*
X100938Y200980D01*
X101636Y200344D01*
X102096Y200803D01*
G03Y201157I-177J177D01*
G37*
G36*
G01Y213017D02*
X101636Y213476D01*
X100938Y212840D01*
X101636Y212204D01*
X102096Y212663D01*
G03Y213017I-177J177D01*
G37*
G36*
G01X105096Y203117D02*
X104636Y203576D01*
X103938Y202940D01*
X104636Y202304D01*
X105096Y202763D01*
G03Y203117I-177J177D01*
G37*
G36*
G01X102096Y205077D02*
X101636Y205536D01*
X100938Y204900D01*
X101636Y204264D01*
X102096Y204723D01*
G03Y205077I-177J177D01*
G37*
G36*
G01X99177Y207920D02*
X99636Y208380D01*
X99000Y209078D01*
X98364Y208380D01*
X98823Y207920D01*
G03X99177I177J177D01*
G37*
G36*
G01X105096Y219197D02*
X104636Y219656D01*
X103938Y219020D01*
X104636Y218384D01*
X105096Y218843D01*
G03Y219197I-177J177D01*
G37*
G36*
G01X102096Y221157D02*
X101636Y221616D01*
X100938Y220980D01*
X101636Y220344D01*
X102096Y220803D01*
G03Y221157I-177J177D01*
G37*
G36*
G01X105096Y223117D02*
X104636Y223576D01*
X103938Y222940D01*
X104636Y222304D01*
X105096Y222763D01*
G03Y223117I-177J177D01*
G37*
G36*
G01Y215277D02*
X104636Y215736D01*
X103938Y215100D01*
X104636Y214464D01*
X105096Y214923D01*
G03Y215277I-177J177D01*
G37*
G36*
G01X102096Y217237D02*
X101636Y217696D01*
X100938Y217060D01*
X101636Y216424D01*
X102096Y216883D01*
G03Y217237I-177J177D01*
G37*
G36*
G01X133500Y221000D02*
X131000Y223500D01*
X129500D01*
X100000Y253000D01*
Y264000D01*
X106000Y270000D01*
X149000D01*
X155000Y264000D01*
Y238500D01*
X152000Y235500D01*
Y222000D01*
X151000Y221000D01*
X133500D01*
G37*
G36*
G01X114823Y-6404D02*
X114364Y-6864D01*
X115000Y-7562D01*
X115636Y-6864D01*
X115177Y-6404D01*
G03X114823I-177J-177D01*
G37*
G36*
G01X117090Y17212D02*
X117740D01*
X117784Y18156D01*
X116840Y18112D01*
Y17462D01*
G03X117090Y17212I250J0D01*
G37*
G36*
G01X121826Y18826D02*
X121676Y18676D01*
X121637Y17929D01*
X122576Y18112D01*
Y18826D01*
X121826D01*
G37*
G36*
G01X124550Y26300D02*
X125000D01*
X125133Y27633D01*
X123800Y27500D01*
Y27050D01*
G03X124550Y26300I750J0D01*
G37*
G36*
G01X119550D02*
X120000D01*
X120133Y27633D01*
X118800Y27500D01*
Y27050D01*
G03X119550Y26300I750J0D01*
G37*
G36*
G01X119324Y31411D02*
X119766Y31324D01*
X120156Y32604D01*
X118825Y32736D01*
X118735Y32295D01*
G03X119324Y31411I735J-148D01*
G37*
G36*
G01X119588Y36249D02*
X120047Y36310D01*
X120133Y37632D01*
X118809Y37633D01*
X118746Y37076D01*
G03X119588Y36249I745J-83D01*
G37*
G36*
G01X119550Y46300D02*
X120000D01*
X120133Y47633D01*
X118800Y47500D01*
Y47050D01*
G03X119550Y46300I750J0D01*
G37*
G36*
G01X133800Y52950D02*
Y52500D01*
X135133Y52367D01*
X135000Y53700D01*
X134550D01*
G03X133800Y52950I0J-750D01*
G37*
G36*
G01X123800D02*
Y52500D01*
X125133Y52367D01*
X125000Y53700D01*
X124550D01*
G03X123800Y52950I0J-750D01*
G37*
G36*
G01X119177Y60904D02*
X119636Y61364D01*
X119000Y62062D01*
X118364Y61364D01*
X118823Y60904D01*
G03X119177I177J177D01*
G37*
G36*
G01X132500Y61288D02*
Y61500D01*
X131892Y62153D01*
X131364Y61364D01*
X131970Y60758D01*
X132500Y61288D01*
G37*
G36*
G01X126150Y91400D02*
X125500D01*
X125456Y90456D01*
X126400Y90500D01*
Y91150D01*
G03X126150Y91400I-250J0D01*
G37*
G36*
G01X119650Y90400D02*
X119000D01*
X118956Y89456D01*
X119900Y89500D01*
Y90150D01*
G03X119650Y90400I-250J0D01*
G37*
G36*
G01X116096Y103177D02*
X115636Y103636D01*
X114938Y103000D01*
X115636Y102364D01*
X116096Y102823D01*
G03Y103177I-177J177D01*
G37*
G36*
G01X116177Y115404D02*
X116636Y115864D01*
X116000Y116562D01*
X115364Y115864D01*
X115823Y115404D01*
G03X116177I177J177D01*
G37*
G36*
G01X118500Y120650D02*
Y121300D01*
X117556Y121344D01*
X117600Y120400D01*
X118250D01*
G03X118500Y120650I0J250D01*
G37*
G36*
G01X130164Y124349D02*
X130037Y124271D01*
X130455Y123318D01*
X131270Y123965D01*
X131193Y124094D01*
G03X130164Y124349I-642J-388D01*
G37*
G36*
G01X134967Y116150D02*
X135114Y116120D01*
X135457Y117102D01*
X134420Y117186D01*
X134388Y117039D01*
G03X134967Y116150I734J-155D01*
G37*
G36*
G01X136212Y117019D02*
X136183Y117167D01*
X135145Y117106D01*
X135463Y116116D01*
X135610Y116142D01*
G03X136212Y117019I-135J738D01*
G37*
G36*
G01X133797Y124390D02*
X133659Y124332D01*
X133928Y123327D01*
X134832Y123841D01*
X134776Y123981D01*
G03X133797Y124390I-694J-285D01*
G37*
G36*
G01X126894Y121559D02*
X126785Y121456D01*
X127394Y120613D01*
X128056Y121415D01*
X127955Y121524D01*
G03X126894Y121559I-548J-512D01*
G37*
G36*
G01X119731Y123192D02*
X119673Y123053D01*
X120570Y122526D01*
X120853Y123527D01*
X120716Y123587D01*
G03X119731Y123192I-295J-690D01*
G37*
G36*
G01X120677Y115604D02*
X121136Y116064D01*
X120500Y116762D01*
X119864Y116064D01*
X120323Y115604D01*
G03X120677I177J177D01*
G37*
G36*
G01X125750Y138250D02*
X124750Y139250D01*
Y140250D01*
X126250Y141750D01*
Y148500D01*
X126750Y149000D01*
X127750D01*
X128250Y148500D01*
Y146750D01*
X128750Y146250D01*
X130000D01*
X130500Y145750D01*
Y143250D01*
X132000Y141750D01*
X133750D01*
X134250Y141250D01*
Y140250D01*
X133500Y139500D01*
X131750D01*
X130502Y138252D01*
X128996D01*
Y138250D01*
X125750D01*
G37*
G36*
G01X126600Y171820D02*
X126478Y171732D01*
X126969Y170815D01*
X127732Y171522D01*
X127646Y171644D01*
G03X126600Y171820I-611J-435D01*
G37*
G36*
G01X116132Y170665D02*
X116277Y170629D01*
X116661Y171595D01*
X115630Y171727D01*
X115591Y171581D01*
G03X116132Y170665I726J-189D01*
G37*
G36*
G01X133177Y171703D02*
X133049Y171628D01*
X133452Y170669D01*
X134277Y171303D01*
X134201Y171434D01*
G03X133177Y171703I-647J-379D01*
G37*
G36*
G01X120030Y171258D02*
X120136Y171364D01*
X119500Y172188D01*
X118864Y171364D01*
X118970Y171258D01*
G03X120030I530J530D01*
G37*
G36*
G01X122150Y171900D02*
X122000D01*
X121867Y170867D01*
X122900Y171000D01*
Y171150D01*
G03X122150Y171900I-750J0D01*
G37*
G36*
G01X124970Y177742D02*
X124864Y177636D01*
X125500Y176812D01*
X126136Y177636D01*
X126030Y177742D01*
G03X124970I-530J-530D01*
G37*
G36*
G01X130970D02*
X130864Y177636D01*
X131500Y176812D01*
X132136Y177636D01*
X132030Y177742D01*
G03X130970I-530J-530D01*
G37*
G36*
G01X115758Y173970D02*
X115864Y173864D01*
X116688Y174500D01*
X115864Y175136D01*
X115758Y175030D01*
G03Y173970I530J-530D01*
G37*
G36*
G01X125600Y207650D02*
Y207000D01*
X126544Y206956D01*
X126500Y207900D01*
X125850D01*
G03X125600Y207650I0J-250D01*
G37*
G36*
G01X131677Y197904D02*
X132136Y198364D01*
X131500Y199062D01*
X130864Y198364D01*
X131323Y197904D01*
G03X131677I177J177D01*
G37*
G36*
G01X135096Y196677D02*
X134636Y197136D01*
X133938Y196500D01*
X134636Y195864D01*
X135096Y196323D01*
G03Y196677I-177J177D01*
G37*
G36*
G01X114777Y198771D02*
X115616Y198692D01*
X116160Y199418D01*
X115464Y200035D01*
X114624Y199197D01*
G03X114777Y198771I177J-177D01*
G37*
G36*
G01X116904Y197323D02*
X117364Y196864D01*
X118062Y197500D01*
X117364Y198136D01*
X116904Y197677D01*
G03Y197323I177J-177D01*
G37*
G36*
G01X114664Y194851D02*
X115523Y194792D01*
X116060Y195518D01*
X115364Y196135D01*
X114504Y195277D01*
G03X114664Y194851I177J-177D01*
G37*
G36*
G01X117350Y193100D02*
X118000D01*
X118044Y194044D01*
X117100Y194000D01*
Y193350D01*
G03X117350Y193100I250J0D01*
G37*
G36*
G01X122868Y222742D02*
X123388Y222343D01*
X124062Y223004D01*
X123364Y223636D01*
X122844Y223117D01*
G03X122868Y222742I177J-177D01*
G37*
G36*
G01X120560Y220803D02*
X121148Y220217D01*
X121846Y220844D01*
X121201Y221529D01*
X120614Y221198D01*
G03X120560Y220803I123J-218D01*
G37*
G36*
G01X125850Y219952D02*
X126500D01*
X126544Y220896D01*
X125600Y220852D01*
Y220202D01*
G03X125850Y219952I250J0D01*
G37*
G36*
G01X125404Y216883D02*
X125864Y216424D01*
X126562Y217060D01*
X125864Y217696D01*
X125404Y217237D01*
G03Y216883I177J-177D01*
G37*
G36*
G01X121654Y214923D02*
X122114Y214464D01*
X122812Y215100D01*
X122114Y215736D01*
X121654Y215277D01*
G03Y214923I177J-177D01*
G37*
G36*
G01X141600Y8150D02*
Y8000D01*
X142633Y7867D01*
X142500Y8900D01*
X142350D01*
G03X141600Y8150I0J-750D01*
G37*
G36*
G01X142650Y8900D02*
X142500D01*
X142367Y7867D01*
X143400Y8000D01*
Y8150D01*
G03X142650Y8900I-750J0D01*
G37*
G36*
G01X152258Y9970D02*
X152364Y9864D01*
X153188Y10500D01*
X152364Y11136D01*
X152258Y11030D01*
G03Y9970I530J-530D01*
G37*
G36*
G01X155970Y17242D02*
X155864Y17136D01*
X156500Y16312D01*
X157136Y17136D01*
X157030Y17242D01*
G03X155970I-530J-530D01*
G37*
G36*
G01X148900Y15850D02*
Y16500D01*
X147956Y16544D01*
X148000Y15600D01*
X148650D01*
G03X148900Y15850I0J250D01*
G37*
G36*
G01X143900D02*
Y16500D01*
X142956Y16544D01*
X143000Y15600D01*
X143650D01*
G03X143900Y15850I0J250D01*
G37*
G36*
G01X152323Y17596D02*
X151864Y17136D01*
X152500Y16438D01*
X153136Y17136D01*
X152677Y17596D01*
G03X152323I-177J-177D01*
G37*
G36*
G01X140000Y16581D02*
Y17500D01*
X139365Y18170D01*
X138753Y17476D01*
X139823Y16404D01*
X140000Y16581D01*
G37*
G36*
G01X145450Y33700D02*
X145000D01*
X144867Y32367D01*
X146200Y32500D01*
Y32950D01*
G03X145450Y33700I-750J0D01*
G37*
G36*
G01X143800Y52950D02*
Y52500D01*
X145133Y52367D01*
X145000Y53700D01*
X144550D01*
G03X143800Y52950I0J-750D01*
G37*
G36*
G01X138800D02*
Y52500D01*
X140133Y52367D01*
X140000Y53700D01*
X139550D01*
G03X138800Y52950I0J-750D01*
G37*
G36*
G01X152000Y61788D02*
Y62000D01*
X151392Y62653D01*
X150864Y61864D01*
X151470Y61258D01*
X152000Y61788D01*
G37*
G36*
G01X155288Y54610D02*
Y54760D01*
X154255Y54893D01*
X154388Y53860D01*
X154538D01*
G03X155288Y54610I0J750D01*
G37*
G36*
G01X156242Y58030D02*
X156136Y58136D01*
X155312Y57500D01*
X156136Y56864D01*
X156242Y56970D01*
G03Y58030I-530J530D01*
G37*
G36*
G01X137774Y63580D02*
X138056Y63864D01*
X137420Y64625D01*
X136784Y63864D01*
X137066Y63580D01*
G03X137774I354J354D01*
G37*
G36*
G01X143413Y61592D02*
X143558Y61632D01*
X143418Y62662D01*
X142456Y62266D01*
X142494Y62121D01*
G03X143413Y61592I724J195D01*
G37*
G36*
G01X154400Y70350D02*
Y70500D01*
X153367Y70633D01*
X153500Y69600D01*
X153650D01*
G03X154400Y70350I0J750D01*
G37*
G36*
G01X143181Y104078D02*
X143830Y104101D01*
X143843Y105046D01*
X142901Y104969D01*
X142923Y104319D01*
G03X143181Y104078I250J9D01*
G37*
G36*
G01X145900Y105650D02*
Y105000D01*
X146844Y104956D01*
X146800Y105900D01*
X146150D01*
G03X145900Y105650I0J-250D01*
G37*
G36*
G01X146688Y103895D02*
X147250Y104221D01*
X146816Y105060D01*
X146022Y104549D01*
X146347Y103987D01*
G03X146688Y103895I217J125D01*
G37*
G36*
G01X155500Y107350D02*
Y108000D01*
X154556Y108044D01*
X154600Y107100D01*
X155250D01*
G03X155500Y107350I0J250D01*
G37*
G36*
G01X150854Y103948D02*
X151232Y104477D01*
X150490Y105062D01*
X149977Y104268D01*
X150506Y103890D01*
G03X150854Y103948I145J203D01*
G37*
G36*
G01X136970Y95242D02*
X136864Y95136D01*
X137500Y94312D01*
X138136Y95136D01*
X138030Y95242D01*
G03X136970I-530J-530D01*
G37*
G36*
G01X155470Y95742D02*
X155364Y95636D01*
X156000Y94812D01*
X156636Y95636D01*
X156530Y95742D01*
G03X155470I-530J-530D01*
G37*
G36*
G01X147600Y89150D02*
Y89000D01*
X148633Y88867D01*
X148500Y89900D01*
X148350D01*
G03X147600Y89150I0J-750D01*
G37*
G36*
G01X141262Y95536D02*
X141196Y95402D01*
X142059Y94822D01*
X142402Y95804D01*
X142268Y95872D01*
G03X141262Y95536I-335J-671D01*
G37*
G36*
G01X150470Y95742D02*
X150364Y95636D01*
X151000Y94812D01*
X151636Y95636D01*
X151530Y95742D01*
G03X150470I-530J-530D01*
G37*
G36*
G01X138850Y90100D02*
X139500D01*
X139544Y91044D01*
X138600Y91000D01*
Y90350D01*
G03X138850Y90100I250J0D01*
G37*
G36*
G01X140596Y91177D02*
X140136Y91636D01*
X139438Y91000D01*
X140136Y90364D01*
X140596Y90823D01*
G03Y91177I-177J177D01*
G37*
G36*
G01X151708Y109600D02*
X150958D01*
X150931Y108673D01*
X151858Y108700D01*
Y109450D01*
G03X151708Y109600I-150J0D01*
G37*
G36*
G01X155596Y110677D02*
X155136Y111136D01*
X154438Y110500D01*
X155136Y109864D01*
X155596Y110323D01*
G03Y110677I-177J177D01*
G37*
G36*
G01X141146Y119490D02*
X140829Y119171D01*
X141500Y118375D01*
X142171Y119171D01*
X141854Y119490D01*
G03X141146I-354J-354D01*
G37*
G36*
G01X148667Y124306D02*
X148518Y124244D01*
X148691Y123247D01*
X149700Y123400D01*
Y123611D01*
G03X148667Y124306I-750J0D01*
G37*
G36*
G01X138854Y122644D02*
X138768Y122522D01*
X139531Y121815D01*
X140022Y122732D01*
X139900Y122820D01*
G03X138854Y122644I-435J-611D01*
G37*
G36*
G01X149970Y117813D02*
X149829Y117672D01*
X150500Y116812D01*
X151171Y117672D01*
X151030Y117813D01*
G03X149970I-530J-530D01*
G37*
G36*
G01X150077Y116126D02*
X150271Y116079D01*
X150661Y117097D01*
X149580Y117232D01*
X149530Y117037D01*
G03X150077Y116126I727J-183D01*
G37*
G36*
G01X147470Y109242D02*
X147364Y109136D01*
X148000Y108312D01*
X148636Y109136D01*
X148530Y109242D01*
G03X147470I-530J-530D01*
G37*
G36*
G01X139964Y111762D02*
X140098Y111696D01*
X140678Y112559D01*
X139696Y112902D01*
X139628Y112768D01*
G03X139964Y111762I671J-335D01*
G37*
G36*
G01X143053Y122796D02*
X142937Y122701D01*
X143480Y121814D01*
X144201Y122563D01*
X144108Y122681D01*
G03X143053Y122796I-585J-470D01*
G37*
G36*
G01X144980Y118258D02*
X145086Y118364D01*
X144450Y119188D01*
X143814Y118364D01*
X143920Y118258D01*
G03X144980I530J530D01*
G37*
G36*
G01X154700Y119188D02*
Y119400D01*
X154418Y119769D01*
X153864Y118964D01*
X154170Y118658D01*
X154700Y119188D01*
G37*
G36*
G01X154530Y170258D02*
X154636Y170364D01*
X154000Y171188D01*
X153364Y170364D01*
X153470Y170258D01*
G03X154530I530J530D01*
G37*
G36*
G01X154742Y171530D02*
X154636Y171636D01*
X153812Y171000D01*
X154636Y170364D01*
X154742Y170470D01*
G03Y171530I-530J530D01*
G37*
G36*
G01X153258Y170470D02*
X153364Y170364D01*
X154188Y171000D01*
X153364Y171636D01*
X153258Y171530D01*
G03Y170470I530J-530D01*
G37*
G36*
G01X143370Y171742D02*
X143264Y171636D01*
X143900Y170812D01*
X144536Y171636D01*
X144430Y171742D01*
G03X143370I-530J-530D01*
G37*
G36*
G01X144430Y170258D02*
X144536Y170364D01*
X143900Y171188D01*
X143264Y170364D01*
X143370Y170258D01*
G03X144430I530J530D01*
G37*
G36*
G01X136779Y171566D02*
X136639Y171511D01*
X136889Y170500D01*
X137800Y171003D01*
X137746Y171142D01*
G03X136779Y171566I-697J-276D01*
G37*
G36*
G01X146448Y171842D02*
X146322Y171761D01*
X146758Y170817D01*
X147564Y171472D01*
X147486Y171601D01*
G03X146448Y171842I-638J-394D01*
G37*
G36*
G01X145150Y187900D02*
X144500D01*
X144456Y186956D01*
X145400Y187000D01*
Y187650D01*
G03X145150Y187900I-250J0D01*
G37*
G36*
G01X140596Y203177D02*
X140136Y203636D01*
X139438Y203000D01*
X140136Y202364D01*
X140596Y202823D01*
G03Y203177I-177J177D01*
G37*
G36*
G01X136323Y200096D02*
X135864Y199636D01*
X136500Y198938D01*
X137136Y199636D01*
X136677Y200096D01*
G03X136323I-177J-177D01*
G37*
G36*
G01X145400Y194850D02*
Y195000D01*
X144367Y195133D01*
X144500Y194100D01*
X144650D01*
G03X145400Y194850I0J750D01*
G37*
G36*
G01X155970Y222742D02*
X155864Y222636D01*
X156500Y221812D01*
X157136Y222636D01*
X157030Y222742D01*
G03X155970I-530J-530D01*
G37*
G36*
G01X163242Y18030D02*
X163136Y18136D01*
X162312Y17500D01*
X163136Y16864D01*
X163242Y16970D01*
G03Y18030I-530J530D01*
G37*
G36*
G01X159866Y41836D02*
X159720Y41872D01*
X159339Y40904D01*
X160373Y40784D01*
X160410Y40928D01*
G03X159866Y41836I-728J181D01*
G37*
G36*
G01X163242Y24030D02*
X163136Y24136D01*
X162312Y23500D01*
X163136Y22864D01*
X163242Y22970D01*
G03Y24030I-530J530D01*
G37*
G36*
G01X157970Y31242D02*
X157864Y31136D01*
X158500Y30312D01*
X159136Y31136D01*
X159030Y31242D01*
G03X157970I-530J-530D01*
G37*
G36*
G01X162323Y70596D02*
X161864Y70136D01*
X162500Y69438D01*
X163136Y70136D01*
X162677Y70596D01*
G03X162323I-177J-177D01*
G37*
G36*
G01X176848Y71121D02*
X176364Y70636D01*
X176998Y69938D01*
X177645Y70626D01*
X177211Y71111D01*
G03X176848Y71121I-186J-167D01*
G37*
G36*
G01X157758Y72470D02*
X157864Y72364D01*
X158688Y73000D01*
X157864Y73636D01*
X157758Y73530D01*
G03Y72470I530J-530D01*
G37*
G36*
G01X167823Y93096D02*
X167364Y92636D01*
X168000Y91938D01*
X168636Y92636D01*
X168177Y93096D01*
G03X167823I-177J-177D01*
G37*
G36*
G01X172970Y101242D02*
X172864Y101136D01*
X173500Y100312D01*
X174136Y101136D01*
X174030Y101242D01*
G03X172970I-530J-530D01*
G37*
G36*
G01X163258Y97470D02*
X163364Y97364D01*
X164188Y98000D01*
X163364Y98636D01*
X163258Y98530D01*
G03Y97470I530J-530D01*
G37*
G36*
G01X176970Y101242D02*
X176864Y101136D01*
X177500Y100312D01*
X178136Y101136D01*
X178030Y101242D01*
G03X176970I-530J-530D01*
G37*
G36*
G01X177211Y89389D02*
X177645Y89874D01*
X176998Y90562D01*
X176364Y89864D01*
X176848Y89379D01*
G03X177211Y89389I177J177D01*
G37*
G36*
G01X160346Y128341D02*
X160268Y128469D01*
X159318Y128043D01*
X159975Y127236D01*
X160102Y127314D01*
G03X160346Y128341I-396J637D01*
G37*
G36*
G01X165250Y115400D02*
X164500D01*
X164473Y114473D01*
X165400Y114500D01*
Y115250D01*
G03X165250Y115400I-150J0D01*
G37*
G36*
G01X165720Y124742D02*
X165614Y124636D01*
X166250Y123812D01*
X166886Y124636D01*
X166780Y124742D01*
G03X165720I-530J-530D01*
G37*
G36*
G01X172720Y110992D02*
X172614Y110886D01*
X173250Y110062D01*
X173886Y110886D01*
X173780Y110992D01*
G03X172720I-530J-530D01*
G37*
G36*
G01X178400Y118850D02*
Y119000D01*
X177367Y119133D01*
X177500Y118100D01*
X177650D01*
G03X178400Y118850I0J750D01*
G37*
G36*
G01X159230Y118858D02*
X159336Y118964D01*
X158700Y119788D01*
X158064Y118964D01*
X158170Y118858D01*
G03X159230I530J530D01*
G37*
G36*
G01X172258Y120720D02*
X172364Y120614D01*
X173188Y121250D01*
X172364Y121886D01*
X172258Y121780D01*
G03Y120720I530J-530D01*
G37*
G36*
G01X160400Y124850D02*
Y125000D01*
X159367Y125133D01*
X159500Y124100D01*
X159650D01*
G03X160400Y124850I0J750D01*
G37*
G36*
G01X175123Y117818D02*
X175432Y118427D01*
X174741Y119062D01*
X174115Y118364D01*
X174723Y117754D01*
G03X175123Y117818I177J177D01*
G37*
G36*
G01X158141Y138920D02*
X157859Y138636D01*
X158495Y137875D01*
X159131Y138636D01*
X158849Y138920D01*
G03X158141I-354J-354D01*
G37*
G36*
G01X157575Y137646D02*
X157859Y137364D01*
X158620Y138000D01*
X157859Y138636D01*
X157575Y138354D01*
G03Y137646I354J-354D01*
G37*
G36*
G01X167400Y136400D02*
Y137150D01*
X166473Y137177D01*
X166500Y136250D01*
X167250D01*
G03X167400Y136400I0J150D01*
G37*
G36*
G01X166200Y141255D02*
X165237D01*
X165207Y140332D01*
X166130Y140314D01*
X166344Y141064D01*
G03X166200Y141255I-144J41D01*
G37*
G36*
G01X168400Y138750D02*
Y139500D01*
X167473Y139527D01*
X167500Y138600D01*
X168250D01*
G03X168400Y138750I0J150D01*
G37*
G36*
G01X169167Y142606D02*
X168636Y143135D01*
X167962Y142500D01*
X168636Y141865D01*
X169167Y142394D01*
G03Y142606I-106J106D01*
G37*
G36*
G01X159113Y146034D02*
X159173Y145897D01*
X160174Y146180D01*
X159647Y147077D01*
X159508Y147019D01*
G03X159113Y146034I295J-690D01*
G37*
G36*
G01X160888Y146040D02*
X160897Y146190D01*
X159877Y146391D01*
X159940Y145353D01*
X160090Y145342D01*
G03X160888Y146040I50J748D01*
G37*
G36*
G01X157970Y131742D02*
X157864Y131636D01*
X158500Y130812D01*
X159136Y131636D01*
X159030Y131742D01*
G03X157970I-530J-530D01*
G37*
G36*
G01X169550Y160700D02*
Y160000D01*
X170544Y159956D01*
X170500Y160950D01*
X169800D01*
G03X169550Y160700I0J-250D01*
G37*
G36*
G01X173970Y159042D02*
X173864Y158936D01*
X174500Y158112D01*
X175136Y158936D01*
X175030Y159042D01*
G03X173970I-530J-530D01*
G37*
G36*
G01X166450Y160150D02*
Y160000D01*
X167483Y159867D01*
X167350Y160900D01*
X167200D01*
G03X166450Y160150I0J-750D01*
G37*
G36*
G01X167880Y159258D02*
X167986Y159364D01*
X167350Y160188D01*
X166714Y159364D01*
X166820Y159258D01*
G03X167880I530J530D01*
G37*
G36*
G01X161875Y152291D02*
X162005Y152218D01*
X162631Y153050D01*
X161665Y153439D01*
X161591Y153308D01*
G03X161875Y152291I655J-365D01*
G37*
G36*
G01X158758Y159220D02*
X158864Y159114D01*
X159688Y159750D01*
X158864Y160386D01*
X158758Y160280D01*
G03Y159220I530J-530D01*
G37*
G36*
G01X171600Y155050D02*
Y154300D01*
X172527Y154273D01*
X172500Y155200D01*
X171750D01*
G03X171600Y155050I0J-150D01*
G37*
G36*
G01X161758Y162720D02*
X161864Y162614D01*
X162688Y163250D01*
X161864Y163886D01*
X161758Y163780D01*
G03Y162720I530J-530D01*
G37*
G36*
G01X173970Y166742D02*
X173864Y166636D01*
X174500Y165812D01*
X175136Y166636D01*
X175030Y166742D01*
G03X173970I-530J-530D01*
G37*
G36*
G01X162110Y192900D02*
X161460D01*
X161416Y191956D01*
X162360Y192000D01*
Y192650D01*
G03X162110Y192900I-250J0D01*
G37*
G36*
G01X174500Y210712D02*
Y210500D01*
X175108Y209847D01*
X175636Y210636D01*
X175030Y211242D01*
X174500Y210712D01*
G37*
G36*
G01X159470Y222742D02*
X159364Y222636D01*
X160000Y221812D01*
X160636Y222636D01*
X160530Y222742D01*
G03X159470I-530J-530D01*
G37*
G36*
G01X165530Y221258D02*
X165636Y221364D01*
X165000Y222188D01*
X164364Y221364D01*
X164470Y221258D01*
G03X165530I530J530D01*
G37*
G36*
G01X158780Y237508D02*
X158886Y237614D01*
X158250Y238438D01*
X157614Y237614D01*
X157720Y237508D01*
G03X158780I530J530D01*
G37*
G36*
G01X168100Y257900D02*
Y257500D01*
X169088Y257412D01*
X169000Y258400D01*
X168600D01*
G03X168100Y257900I0J-500D01*
G37*
G36*
G01X173530Y269758D02*
X173636Y269864D01*
X173000Y270688D01*
X172364Y269864D01*
X172470Y269758D01*
G03X173530I530J530D01*
G37*
G36*
G01X167530Y272258D02*
X167636Y272364D01*
X167000Y273188D01*
X166364Y272364D01*
X166470Y272258D01*
G03X167530I530J530D01*
G37*
G36*
G01X195000Y250D02*
Y-3000D01*
X199721Y-3221D01*
X199500Y1500D01*
X196250D01*
G03X195000Y250I0J-1250D01*
G37*
G36*
G01X204980Y-2116D02*
X202681Y181D01*
X199188Y-3000D01*
X202681Y-6181D01*
X204980Y-3884D01*
G03Y-2116I-884J884D01*
G37*
G36*
G01X185323Y10096D02*
X184864Y9636D01*
X185500Y8938D01*
X186136Y9636D01*
X185677Y10096D01*
G03X185323I-177J-177D01*
G37*
G36*
G01X188323D02*
X187864Y9636D01*
X188500Y8938D01*
X189136Y9636D01*
X188677Y10096D01*
G03X188323I-177J-177D01*
G37*
G36*
G01X197730Y14400D02*
X197000D01*
X196970Y13470D01*
X197900Y13500D01*
Y14230D01*
G03X197730Y14400I-170J0D01*
G37*
G36*
G01Y17900D02*
X197000D01*
X196970Y16970D01*
X197900Y17000D01*
Y17730D01*
G03X197730Y17900I-170J0D01*
G37*
G36*
G01X197400Y9850D02*
Y10000D01*
X196367Y10133D01*
X196500Y9100D01*
X196650D01*
G03X197400Y9850I0J750D01*
G37*
G36*
G01X183500Y70250D02*
Y69000D01*
X185633Y68867D01*
X185500Y71000D01*
X184250D01*
G03X183500Y70250I0J-750D01*
G37*
G36*
G01X206501Y124978D02*
Y123772D01*
G02X205909Y123420I-400J-1D01*
G03X206177Y120256I-909J-1670D01*
G01X206232Y120299D01*
X206501D01*
Y120001D01*
X203500Y117000D01*
Y114500D01*
X201500D01*
Y106500D01*
X203500D01*
Y102500D01*
X202500Y101500D01*
X194500D01*
X193500Y102500D01*
Y126000D01*
X196000Y128500D01*
Y134000D01*
X200500Y138500D01*
X203500D01*
X206500Y135500D01*
Y129022D01*
G02X205909Y128671I-400J0D01*
G03Y125329I-909J-1671D01*
G02X206501Y124978I192J-351D01*
G37*
G36*
G01X181650Y94900D02*
X181000D01*
X180956Y93956D01*
X181900Y94000D01*
Y94650D01*
G03X181650Y94900I-250J0D01*
G37*
G36*
G01X181530Y89758D02*
X181636Y89864D01*
X181000Y90688D01*
X180364Y89864D01*
X180470Y89758D01*
G03X181530I530J530D01*
G37*
G36*
G01X185258Y104470D02*
X185364Y104364D01*
X186188Y105000D01*
X185364Y105636D01*
X185258Y105530D01*
G03Y104470I530J-530D01*
G37*
G36*
G01X184650Y128900D02*
X184500D01*
X184367Y127867D01*
X185400Y128000D01*
Y128150D01*
G03X184650Y128900I-750J0D01*
G37*
G36*
G01X188970Y126742D02*
X188864Y126636D01*
X189500Y125812D01*
X190136Y126636D01*
X190030Y126742D01*
G03X188970I-530J-530D01*
G37*
G36*
G01X184600Y139600D02*
X185250D01*
X185294Y140544D01*
X184350Y140500D01*
Y139850D01*
G03X184600Y139600I250J0D01*
G37*
G36*
G01Y144250D02*
X185250D01*
X185294Y145194D01*
X184350Y145150D01*
Y144500D01*
G03X184600Y144250I250J0D01*
G37*
G36*
G01X196030Y140758D02*
X196136Y140864D01*
X195500Y141688D01*
X194864Y140864D01*
X194970Y140758D01*
G03X196030I530J530D01*
G37*
G36*
G01X205500Y175000D02*
X205501Y165001D01*
X204501Y164001D01*
X201746D01*
X201651Y164244D01*
Y164282D01*
G03X201200Y165530I-1901J18D01*
G03X199039Y168483I-1500J1170D01*
G02X198500Y168858I-139J375D01*
G01Y170000D01*
X198377Y170123D01*
G02X198372Y170682I283J282D01*
G03X196917Y173900I-1372J1318D01*
G02X196500Y174300I-17J400D01*
G01Y174978D01*
G02X197091Y175329I400J0D01*
G03Y178671I909J1671D01*
G02X196500Y179022I-191J351D01*
G01Y188500D01*
X197500Y189500D01*
X204000D01*
X204500Y189000D01*
Y186500D01*
X202500D01*
Y178500D01*
X204500D01*
Y176000D01*
X205500Y175000D01*
G37*
G36*
G01X195850Y167100D02*
X196500D01*
X196544Y168044D01*
X195600Y168000D01*
Y167350D01*
G03X195850Y167100I250J0D01*
G37*
G36*
G01X186750Y153950D02*
Y154100D01*
X185717Y154233D01*
X185850Y153200D01*
X186000D01*
G03X186750Y153950I0J750D01*
G37*
G36*
G01X186018Y154997D02*
X185868Y154999D01*
X185715Y153970D01*
X186749Y154082D01*
X186753Y154232D01*
G03X186018Y154997I-750J15D01*
G37*
G36*
G01X187353Y163532D02*
X187393Y163900D01*
X186449Y164181D01*
X186500Y163750D01*
X186608Y163615D01*
X187353Y163532D01*
G37*
G36*
G01X181850Y157900D02*
Y157750D01*
X182883Y157617D01*
X182750Y158650D01*
X182600D01*
G03X181850Y157900I0J-750D01*
G37*
G36*
G01X200515Y163803D02*
X200574Y163941D01*
X199682Y164475D01*
X199385Y163479D01*
X199522Y163417D01*
G03X200515Y163803I305J685D01*
G37*
G36*
G01X191400Y153850D02*
Y154500D01*
X190456Y154544D01*
X190500Y153600D01*
X191150D01*
G03X191400Y153850I0J250D01*
G37*
G36*
G01X189030Y168058D02*
X189136Y168164D01*
X188500Y168988D01*
X187864Y168164D01*
X187970Y168058D01*
G03X189030I530J530D01*
G37*
G36*
G01X193917Y156242D02*
X194174Y155646D01*
X195058Y155977D01*
X194646Y156826D01*
X194048Y156571D01*
G03X193917Y156242I99J-230D01*
G37*
G36*
G01X194100Y160150D02*
Y159500D01*
X195044Y159456D01*
X195000Y160400D01*
X194350D01*
G03X194100Y160150I0J-250D01*
G37*
G36*
G01X196797Y163230D02*
X197203Y163739D01*
X196493Y164362D01*
X195939Y163597D01*
X196446Y163191D01*
G03X196797Y163230I156J195D01*
G37*
G36*
G01X181530Y173258D02*
X181636Y173364D01*
X181000Y174188D01*
X180364Y173364D01*
X180470Y173258D01*
G03X181530I530J530D01*
G37*
G36*
G01X189030Y174258D02*
X189136Y174364D01*
X188500Y175188D01*
X187864Y174364D01*
X187970Y174258D01*
G03X189030I530J530D01*
G37*
G36*
G01X191470Y175742D02*
X191364Y175636D01*
X192000Y174812D01*
X192636Y175636D01*
X192530Y175742D01*
G03X191470I-530J-530D01*
G37*
G36*
G01X192530Y191758D02*
X192636Y191864D01*
X192000Y192688D01*
X191364Y191864D01*
X191470Y191758D01*
G03X192530I530J530D01*
G37*
G36*
G01X185530Y190758D02*
X185636Y190864D01*
X185000Y191688D01*
X184364Y190864D01*
X184470Y190758D01*
G03X185530I530J530D01*
G37*
G36*
G01X185900Y183850D02*
Y184000D01*
X184867Y184133D01*
X185000Y183100D01*
X185150D01*
G03X185900Y183850I0J750D01*
G37*
G36*
G01X194087Y173969D02*
X194718Y174127D01*
X194532Y175054D01*
X193627Y174781D01*
X193785Y174151D01*
G03X194087Y173969I242J61D01*
G37*
G36*
G01X183100Y194600D02*
X183500D01*
X183588Y195588D01*
X182600Y195500D01*
Y195100D01*
G03X183100Y194600I500J0D01*
G37*
G36*
G01X195530Y208698D02*
X195636Y208804D01*
X195000Y209628D01*
X194364Y208804D01*
X194470Y208698D01*
G03X195530I530J530D01*
G37*
G36*
G01X194470Y196242D02*
X194364Y196136D01*
X195000Y195312D01*
X195636Y196136D01*
X195530Y196242D01*
G03X194470I-530J-530D01*
G37*
G36*
G01X179100Y210150D02*
Y210000D01*
X180133Y209867D01*
X180000Y210900D01*
X179850D01*
G03X179100Y210150I0J-750D01*
G37*
G36*
G01X183530Y209258D02*
X183636Y209364D01*
X183000Y210188D01*
X182364Y209364D01*
X182470Y209258D01*
G03X183530I530J530D01*
G37*
G36*
G01X182850Y200600D02*
X183000D01*
X183133Y201633D01*
X182100Y201500D01*
Y201350D01*
G03X182850Y200600I750J0D01*
G37*
G36*
G01X192400Y208790D02*
Y209440D01*
X191456Y209484D01*
X191500Y208540D01*
X192150D01*
G03X192400Y208790I0J250D01*
G37*
G36*
G01X192617Y200344D02*
X193076Y200804D01*
X192440Y201502D01*
X191804Y200804D01*
X192263Y200344D01*
G03X192617I177J177D01*
G37*
G36*
G01X188030Y217258D02*
X188136Y217364D01*
X187500Y218188D01*
X186864Y217364D01*
X186970Y217258D01*
G03X188030I530J530D01*
G37*
G36*
G01X198530Y269758D02*
X198636Y269864D01*
X198000Y270688D01*
X197364Y269864D01*
X197470Y269758D01*
G03X198530I530J530D01*
G37*
G36*
G01X210356Y14354D02*
X210478Y14268D01*
X211185Y15031D01*
X210268Y15522D01*
X210180Y15400D01*
G03X210356Y14354I611J-435D01*
G37*
G36*
G01X222677Y6217D02*
X224479Y8021D01*
X222500Y10062D01*
X220521Y8021D01*
X222323Y6217D01*
G03X222677I177J177D01*
G37*
G36*
G01X215820Y10120D02*
X214480Y11460D01*
X212458Y10000D01*
X214480Y8540D01*
X215820Y9880D01*
G03Y10120I-120J120D01*
G37*
G36*
G01X215796Y16260D02*
X217440Y17387D01*
X217519Y20038D01*
X215531Y19170D01*
X215530Y16400D01*
G03X215796Y16260I170J0D01*
G37*
G36*
G01X208030Y10758D02*
X208136Y10864D01*
X207500Y11688D01*
X206864Y10864D01*
X206970Y10758D01*
G03X208030I530J530D01*
G37*
G36*
G01X210258Y25970D02*
X210364Y25864D01*
X211188Y26500D01*
X210364Y27136D01*
X210258Y27030D01*
G03Y25970I530J-530D01*
G37*
G36*
G01X218323Y43066D02*
X216380Y41121D01*
X218500Y38938D01*
X220620Y41121D01*
X218677Y43066D01*
G03X218323I-177J-177D01*
G37*
G36*
G01X202030Y32758D02*
X202136Y32864D01*
X201500Y33688D01*
X200864Y32864D01*
X200970Y32758D01*
G03X202030I530J530D01*
G37*
G36*
G01X219242Y28030D02*
X219136Y28136D01*
X218312Y27500D01*
X219136Y26864D01*
X219242Y26970D01*
G03Y28030I-530J530D01*
G37*
G36*
G01X202850Y45100D02*
X203500D01*
X203544Y46044D01*
X202600Y46000D01*
Y45350D01*
G03X202850Y45100I250J0D01*
G37*
G36*
G01X217501Y141001D02*
X217500Y140000D01*
X215000Y137500D01*
Y135500D01*
X217000Y133500D01*
Y130498D01*
G03X217626Y126852I750J-1748D01*
G02X218000Y126453I-26J-399D01*
G01Y121000D01*
X218048Y120952D01*
Y120937D01*
X219000Y119985D01*
Y119389D01*
G02X218452Y119018I-400J0D01*
G03Y115482I-702J-1768D01*
G02X219000Y115111I148J-371D01*
G01Y114083D01*
G02X218510Y113694I-400J1D01*
G03Y109306I-510J-2194D01*
G02X219000Y108917I90J-390D01*
G01Y102500D01*
X218000Y101500D01*
X208500D01*
X207500Y102500D01*
Y106500D01*
X209500D01*
Y114500D01*
X207500D01*
Y118000D01*
X208501Y119001D01*
Y120423D01*
G03Y123177I-1001J1377D01*
G01Y140001D01*
X215001Y146501D01*
X216501D01*
X217501Y145501D01*
Y141001D01*
G37*
G36*
G01X201745Y144200D02*
X201000D01*
X200964Y143214D01*
X201950Y143250D01*
Y143995D01*
G03X201745Y144200I-205J0D01*
G37*
G36*
G01X203998Y146396D02*
X203472Y146920D01*
X202750Y146251D01*
X203472Y145582D01*
X203998Y146106D01*
G03Y146396I-145J145D01*
G37*
G36*
G01X203542Y149430D02*
X202836Y150136D01*
X202049Y149611D01*
X202800Y148900D01*
X203012D01*
X203542Y149430D01*
G37*
G36*
G01X217361Y136992D02*
X216711Y136999D01*
X216655Y136056D01*
X217599Y136089D01*
X217608Y136739D01*
G03X217361Y136992I-250J3D01*
G37*
G36*
G01X206800Y163050D02*
X207000D01*
X207133Y164133D01*
X206050Y164000D01*
Y163800D01*
G03X206800Y163050I750J0D01*
G37*
G36*
G01X201504Y156223D02*
X201964Y155764D01*
X202662Y156400D01*
X201964Y157036D01*
X201504Y156577D01*
G03Y156223I177J-177D01*
G37*
G36*
G01X227501Y183589D02*
Y181501D01*
X227500D01*
Y178000D01*
X227000Y177500D01*
X223500D01*
X223247Y177247D01*
X223214Y177232D01*
G03X222268Y176286I786J-1732D01*
G01X222253Y176253D01*
X221500Y175500D01*
X218000D01*
X213500Y171000D01*
X209000D01*
X208500Y171500D01*
Y178500D01*
X210500D01*
Y186500D01*
X208500D01*
Y189000D01*
X209000Y189500D01*
X219000D01*
X220500Y188000D01*
X222998D01*
Y187998D01*
X225002D01*
Y188000D01*
X225659D01*
X225707Y187867D01*
G03X226057Y187261I1794J632D01*
G02Y186739I-303J-261D01*
G03X227320Y183607I1443J-1239D01*
G01X227501Y183589D01*
G37*
G36*
G01X205951Y152201D02*
X205000D01*
X204815Y151272D01*
X205801Y151301D01*
X205951Y151451D01*
Y152201D01*
G37*
G36*
G01X216656Y164443D02*
X216561Y164327D01*
X217268Y163564D01*
X217827Y164441D01*
X217713Y164538D01*
G03X216656Y164443I-481J-576D01*
G37*
G36*
G01X206942Y156460D02*
X206742D01*
X206609Y155377D01*
X207692Y155510D01*
Y155710D01*
G03X206942Y156460I-750J0D01*
G37*
G36*
G01X205842Y155873D02*
X205808Y155676D01*
X206849Y155356D01*
X206908Y156444D01*
X206711Y156480D01*
G03X205842Y155873I-131J-738D01*
G37*
G36*
G01X221742Y191530D02*
X221636Y191636D01*
X220812Y191000D01*
X221636Y190364D01*
X221742Y190470D01*
G03Y191530I-530J530D01*
G37*
G36*
G01X219479Y171914D02*
X219628Y171903D01*
X219842Y172922D01*
X218803Y172867D01*
X218791Y172717D01*
G03X219479Y171914I748J-55D01*
G37*
G36*
G01X200650Y192400D02*
X200000D01*
X199956Y191456D01*
X200900Y191500D01*
Y192150D01*
G03X200650Y192400I-250J0D01*
G37*
G36*
G01X203030Y206758D02*
X203136Y206864D01*
X202500Y207688D01*
X201864Y206864D01*
X201970Y206758D01*
G03X203030I530J530D01*
G37*
G36*
G01X201970Y198242D02*
X201864Y198136D01*
X202500Y197312D01*
X203136Y198136D01*
X203030Y198242D01*
G03X201970I-530J-530D01*
G37*
G36*
G01X218492Y198280D02*
X218386Y198386D01*
X217562Y197750D01*
X218386Y197114D01*
X218492Y197220D01*
G03Y198280I-530J530D01*
G37*
G36*
G01X218242Y206530D02*
X218136Y206636D01*
X217312Y206000D01*
X218136Y205364D01*
X218242Y205470D01*
G03Y206530I-530J530D01*
G37*
G36*
G01X202646Y258920D02*
X202364Y258636D01*
X203000Y257875D01*
X203636Y258636D01*
X203354Y258920D01*
G03X202646I-354J-354D01*
G37*
G36*
G01X204530Y272258D02*
X204636Y272364D01*
X204000Y273188D01*
X203364Y272364D01*
X203470Y272258D01*
G03X204530I530J530D01*
G37*
G36*
G01X227030Y5758D02*
X227136Y5864D01*
X226500Y6688D01*
X225864Y5864D01*
X225970Y5758D01*
G03X227030I530J530D01*
G37*
G36*
G01X245830Y12800D02*
X242500D01*
X242467Y9974D01*
X245293Y9957D01*
X245994Y12586D01*
G03X245830Y12800I-164J44D01*
G37*
G36*
G01X232650Y24900D02*
X232500D01*
X232367Y23867D01*
X233400Y24000D01*
Y24150D01*
G03X232650Y24900I-750J0D01*
G37*
G36*
G01X235030Y40258D02*
X235136Y40364D01*
X234500Y41188D01*
X233864Y40364D01*
X233970Y40258D01*
G03X235030I530J530D01*
G37*
G36*
G01X227679Y30561D02*
X227868Y31266D01*
X226979Y31537D01*
X226766Y30632D01*
X227471Y30441D01*
G03X227679Y30561I44J164D01*
G37*
G36*
G01X224952Y33661D02*
X224251Y33863D01*
X223963Y32980D01*
X224863Y32749D01*
X225068Y33451D01*
G03X224952Y33661I-163J47D01*
G37*
G36*
G01X224042Y43330D02*
X223936Y43436D01*
X223112Y42800D01*
X223936Y42164D01*
X224042Y42270D01*
G03Y43330I-530J530D01*
G37*
G36*
G01X222242Y50530D02*
X222136Y50636D01*
X221312Y50000D01*
X222136Y49364D01*
X222242Y49470D01*
G03Y50530I-530J530D01*
G37*
G36*
G01Y55530D02*
X222136Y55636D01*
X221312Y55000D01*
X222136Y54364D01*
X222242Y54470D01*
G03Y55530I-530J530D01*
G37*
G36*
G01X229258Y82970D02*
X229364Y82864D01*
X230188Y83500D01*
X229364Y84136D01*
X229258Y84030D01*
G03Y82970I530J-530D01*
G37*
G36*
G01Y78970D02*
X229364Y78864D01*
X230188Y79500D01*
X229364Y80136D01*
X229258Y80030D01*
G03Y78970I530J-530D01*
G37*
G36*
G01X238030Y77258D02*
X238136Y77364D01*
X237500Y78188D01*
X236864Y77364D01*
X236970Y77258D01*
G03X238030I530J530D01*
G37*
G36*
G01X233030D02*
X233136Y77364D01*
X232500Y78188D01*
X231864Y77364D01*
X231970Y77258D01*
G03X233030I530J530D01*
G37*
G36*
G01X231758Y65470D02*
X231864Y65364D01*
X232688Y66000D01*
X231864Y66636D01*
X231758Y66530D01*
G03Y65470I530J-530D01*
G37*
G36*
G01X231970Y66742D02*
X231864Y66636D01*
X232500Y65812D01*
X233136Y66636D01*
X233030Y66742D01*
G03X231970I-530J-530D01*
G37*
G36*
G01X238030Y65258D02*
X238136Y65364D01*
X237500Y66188D01*
X236864Y65364D01*
X236970Y65258D01*
G03X238030I530J530D01*
G37*
G36*
G01X236970Y66742D02*
X236864Y66636D01*
X237500Y65812D01*
X238136Y66636D01*
X238030Y66742D01*
G03X236970I-530J-530D01*
G37*
G36*
G01X221470Y107392D02*
X221364Y107286D01*
X222000Y106462D01*
X222636Y107286D01*
X222530Y107392D01*
G03X221470I-530J-530D01*
G37*
G36*
G01X225177Y116904D02*
X225636Y117364D01*
X225000Y118062D01*
X224364Y117364D01*
X224823Y116904D01*
G03X225177I177J177D01*
G37*
G36*
G01X244002Y129498D02*
X247000Y126500D01*
X247500D01*
Y124500D01*
X255500D01*
Y126500D01*
X258000D01*
Y121000D01*
X257000Y120000D01*
X253669D01*
G03X251331I-1169J-1500D01*
G01X250169D01*
G03X247831I-1169J-1500D01*
G01X242500D01*
X239500Y123000D01*
Y124966D01*
G03X239534Y128084I-2250J1584D01*
G01X239500Y128135D01*
Y129000D01*
X238828Y129672D01*
X238918Y129809D01*
G03X236215Y131867I-1418J942D01*
G02X235631Y131846I-302J262D01*
G01X233238Y134238D01*
G03X231037Y134463I-1239J-1238D01*
G01X230000Y135500D01*
Y137000D01*
X232500Y139500D01*
X236500D01*
X243000Y133000D01*
Y130500D01*
X243998Y129502D01*
Y129498D01*
X244002D01*
G37*
G36*
G01X225174Y128081D02*
X225421Y128328D01*
X224750Y129150D01*
X224079Y128328D01*
X224326Y128081D01*
G03X225174I424J424D01*
G37*
G36*
G01X227100Y118300D02*
Y118000D01*
X228106Y117894D01*
X228000Y118900D01*
X227700D01*
G03X227100Y118300I0J-600D01*
G37*
G36*
G01X221576Y116098D02*
X221364Y115886D01*
X222000Y115100D01*
X222636Y115886D01*
X222424Y116098D01*
G03X221576I-424J-424D01*
G37*
G36*
G01X226970Y122992D02*
X226864Y122886D01*
X227500Y122062D01*
X228136Y122886D01*
X228030Y122992D01*
G03X226970I-530J-530D01*
G37*
G36*
G01X221470D02*
X221364Y122886D01*
X222000Y122062D01*
X222636Y122886D01*
X222530Y122992D01*
G03X221470I-530J-530D01*
G37*
G36*
G01X235470Y115242D02*
X235364Y115136D01*
X236000Y114312D01*
X236636Y115136D01*
X236530Y115242D01*
G03X235470I-530J-530D01*
G37*
G36*
G01X223669Y134831D02*
G03X222700Y137002I-969J869D01*
G02X222500Y137202I0J200D01*
G01Y139000D01*
X223000Y139500D01*
X228000D01*
X228500Y139000D01*
Y136000D01*
X226500Y134000D01*
X224500D01*
X223669Y134831D01*
G37*
G36*
G01X225750Y131800D02*
X225570Y132000D01*
X224617Y132039D01*
X224753Y131102D01*
X225711Y131051D01*
X225750Y131800D01*
G37*
G36*
G01X232950Y132800D02*
Y133000D01*
X231867Y133133D01*
X232000Y132050D01*
X232200D01*
G03X232950Y132800I0J750D01*
G37*
G36*
G01X239596Y148177D02*
X239136Y148636D01*
X238438Y148000D01*
X239136Y147364D01*
X239596Y147823D01*
G03Y148177I-177J177D01*
G37*
G36*
G01X240903Y138326D02*
G03X239505Y141836I-903J1674D01*
G02X239000Y142222I-105J386D01*
G01Y143500D01*
X240000Y144500D01*
X244978D01*
G02X245329Y143909I0J-400D01*
G03X248671I1671J-909D01*
G02X249022Y144500I351J191D01*
G01X250417D01*
G02X250806Y144010I-1J-400D01*
G03X254939Y142355I2194J-510D01*
G02X255566Y142434I344J-204D01*
G01X258000Y140000D01*
Y130500D01*
X255500D01*
Y132500D01*
X247500D01*
Y130500D01*
X245000D01*
Y133500D01*
X244081Y134420D01*
X244218Y134562D01*
G03X241812Y136969I-1218J1188D01*
G02X241531Y136971I-139J143D01*
G01X240811Y137691D01*
G02X240903Y138326I282J283D01*
G37*
G36*
G01X227393Y170026D02*
X226934Y169566D01*
X227570Y168868D01*
X228206Y169566D01*
X227747Y170026D01*
G03X227393I-177J-177D01*
G37*
G36*
G01X237413Y163130D02*
X237272Y163271D01*
X236412Y162600D01*
X237272Y161929D01*
X237413Y162070D01*
G03Y163130I-530J530D01*
G37*
G36*
G01X236120Y161756D02*
X236310Y161696D01*
X236766Y162686D01*
X235694Y162885D01*
X235633Y162695D01*
G03X236120Y161756I716J-225D01*
G37*
G36*
G01X241758Y166970D02*
X241864Y166864D01*
X242688Y167500D01*
X241864Y168136D01*
X241758Y168030D01*
G03Y166970I530J-530D01*
G37*
G36*
G01X236400Y152500D02*
Y153000D01*
X235429Y153071D01*
X235500Y152100D01*
X236000D01*
G03X236400Y152500I0J400D01*
G37*
G36*
G01X223750Y165500D02*
X224500D01*
X224527Y166427D01*
X223600Y166400D01*
Y165650D01*
G03X223750Y165500I150J0D01*
G37*
G36*
G01X233460Y165312D02*
X233313Y165280D01*
X233398Y164243D01*
X234379Y164592D01*
X234348Y164739D01*
G03X233460Y165312I-733J-161D01*
G37*
G36*
G01X230470Y165242D02*
X230364Y165136D01*
X231000Y164312D01*
X231636Y165136D01*
X231530Y165242D01*
G03X230470I-530J-530D01*
G37*
G36*
G01X243150Y184400D02*
X242500D01*
X242456Y183456D01*
X243400Y183500D01*
Y184150D01*
G03X243150Y184400I-250J0D01*
G37*
G36*
G01X233032Y173588D02*
X233179Y173619D01*
X233104Y174656D01*
X232118Y174327D01*
X232146Y174179D01*
G03X233032Y173588I736J144D01*
G37*
G36*
G01X223030Y172187D02*
X223171Y172328D01*
X222500Y173188D01*
X221829Y172328D01*
X221970Y172187D01*
G03X223030I530J530D01*
G37*
G36*
G01X229330Y210258D02*
X229436Y210364D01*
X228800Y211188D01*
X228164Y210364D01*
X228270Y210258D01*
G03X229330I530J530D01*
G37*
G36*
G01X231758Y196470D02*
X231864Y196364D01*
X232688Y197000D01*
X231864Y197636D01*
X231758Y197530D01*
G03Y196470I530J-530D01*
G37*
G36*
G01X223646Y258920D02*
X223364Y258636D01*
X224000Y257875D01*
X224636Y258636D01*
X224354Y258920D01*
G03X223646I-354J-354D01*
G37*
G36*
G01X229030Y269758D02*
X229136Y269864D01*
X228500Y270688D01*
X227864Y269864D01*
X227970Y269758D01*
G03X229030I530J530D01*
G37*
G36*
G01X223030Y272258D02*
X223136Y272364D01*
X222500Y273188D01*
X221864Y272364D01*
X221970Y272258D01*
G03X223030I530J530D01*
G37*
G36*
G01X255020Y-3884D02*
X257319Y-6181D01*
X260812Y-3000D01*
X257319Y181D01*
X255020Y-2116D01*
G03Y-3884I884J-884D01*
G37*
G36*
G01X265980Y-2116D02*
X263681Y181D01*
X260188Y-3000D01*
X263681Y-6181D01*
X265980Y-3884D01*
G03Y-2116I-884J884D01*
G37*
G36*
G01X258677Y42904D02*
X259136Y43364D01*
X258500Y44062D01*
X257864Y43364D01*
X258323Y42904D01*
G03X258677I177J177D01*
G37*
G36*
G01X254500Y36250D02*
Y39000D01*
X251456Y39044D01*
X251500Y36000D01*
X254250D01*
G03X254500Y36250I0J250D01*
G37*
G36*
G01X253030Y61758D02*
X253136Y61864D01*
X252500Y62688D01*
X251864Y61864D01*
X251970Y61758D01*
G03X253030I530J530D01*
G37*
G36*
G01X251970Y63242D02*
X251864Y63136D01*
X252500Y62312D01*
X253136Y63136D01*
X253030Y63242D01*
G03X251970I-530J-530D01*
G37*
G36*
G01X256970D02*
X256864Y63136D01*
X257500Y62312D01*
X258136Y63136D01*
X258030Y63242D01*
G03X256970I-530J-530D01*
G37*
G36*
G01X258242Y63030D02*
X258136Y63136D01*
X257312Y62500D01*
X258136Y61864D01*
X258242Y61970D01*
G03Y63030I-530J530D01*
G37*
G36*
G01X258030Y77258D02*
X258136Y77364D01*
X257500Y78188D01*
X256864Y77364D01*
X256970Y77258D01*
G03X258030I530J530D01*
G37*
G36*
G01X253030D02*
X253136Y77364D01*
X252500Y78188D01*
X251864Y77364D01*
X251970Y77258D01*
G03X253030I530J530D01*
G37*
G36*
G01X243904Y97823D02*
X244364Y97364D01*
X245062Y98000D01*
X244364Y98636D01*
X243904Y98177D01*
G03Y97823I177J-177D01*
G37*
G36*
G01X258470Y103242D02*
X258364Y103136D01*
X259000Y102312D01*
X259636Y103136D01*
X259530Y103242D01*
G03X258470I-530J-530D01*
G37*
G36*
G01X257000Y86500D02*
X256000Y87500D01*
Y94000D01*
X259000Y97000D01*
X261398D01*
Y96766D01*
X262884D01*
X262906Y96761D01*
G03X263339Y96717I392J1707D01*
G02X263748Y96317I9J-400D01*
G01Y93248D01*
X263766D01*
G02X263907Y92907I0J-200D01*
G01X263500Y92500D01*
X261500D01*
X260000Y91000D01*
Y87500D01*
X259000Y86500D01*
X257000D01*
G37*
G36*
G01X259850Y117100D02*
X260000D01*
X260133Y118133D01*
X259100Y118000D01*
Y117850D01*
G03X259850Y117100I750J0D01*
G37*
G36*
G01X251254Y112054D02*
X251018Y109816D01*
X253052Y108320D01*
X254767Y110268D01*
X252530Y112505D01*
G03X251254Y112054I-530J-530D01*
G37*
G36*
G01X248883Y113328D02*
X248738Y113367D01*
X248337Y112407D01*
X249368Y112265D01*
X249408Y112409D01*
G03X248883Y113328I-724J196D01*
G37*
G36*
G01X256258Y146970D02*
X256364Y146864D01*
X257188Y147500D01*
X256364Y148136D01*
X256258Y148030D01*
G03Y146970I530J-530D01*
G37*
G36*
G01X249258D02*
X249364Y146864D01*
X250188Y147500D01*
X249364Y148136D01*
X249258Y148030D01*
G03Y146970I530J-530D01*
G37*
G36*
G01X244985Y168484D02*
X244696Y167902D01*
X245520Y167441D01*
X245902Y168304D01*
X245321Y168596D01*
G03X244985Y168484I-112J-224D01*
G37*
G36*
G01X249258Y151470D02*
X249364Y151364D01*
X250188Y152000D01*
X249364Y152636D01*
X249258Y152530D01*
G03Y151470I530J-530D01*
G37*
G36*
G01X248400Y160900D02*
X248000D01*
X247912Y159912D01*
X248900Y160000D01*
Y160400D01*
G03X248400Y160900I-500J0D01*
G37*
G36*
G01X244646Y158920D02*
X244364Y158636D01*
X245000Y157875D01*
X245636Y158636D01*
X245354Y158920D01*
G03X244646I-354J-354D01*
G37*
G36*
G01X245451Y164089D02*
X245601Y164107D01*
X245617Y165146D01*
X244606Y164903D01*
X244621Y164754D01*
G03X245451Y164089I746J80D01*
G37*
G36*
G01X247650Y184400D02*
X247000D01*
X246956Y183456D01*
X247900Y183500D01*
Y184150D01*
G03X247650Y184400I-250J0D01*
G37*
G36*
G01X246758Y173970D02*
X246864Y173864D01*
X247688Y174500D01*
X246864Y175136D01*
X246758Y175030D01*
G03Y173970I530J-530D01*
G37*
G36*
G01X253542Y182830D02*
X253436Y182936D01*
X252612Y182300D01*
X253436Y181664D01*
X253542Y181770D01*
G03Y182830I-530J530D01*
G37*
G36*
G01X262258Y174170D02*
X262364Y174064D01*
X263188Y174700D01*
X262364Y175336D01*
X262258Y175230D01*
G03Y174170I530J-530D01*
G37*
G36*
G01X258596Y187677D02*
X258136Y188136D01*
X257438Y187500D01*
X258136Y186864D01*
X258596Y187323D01*
G03Y187677I-177J177D01*
G37*
G36*
G01X260470Y202242D02*
X260364Y202136D01*
X261000Y201312D01*
X261636Y202136D01*
X261530Y202242D01*
G03X260470I-530J-530D01*
G37*
G36*
G01X245470Y198242D02*
X245364Y198136D01*
X246000Y197312D01*
X246636Y198136D01*
X246530Y198242D01*
G03X245470I-530J-530D01*
G37*
G36*
G01X246530Y213258D02*
X246636Y213364D01*
X246000Y214188D01*
X245364Y213364D01*
X245470Y213258D01*
G03X246530I530J530D01*
G37*
G36*
G01X256650Y241900D02*
X256000D01*
X255956Y240956D01*
X256900Y241000D01*
Y241650D01*
G03X256650Y241900I-250J0D01*
G37*
G36*
G01X257646Y258920D02*
X257364Y258636D01*
X258000Y257875D01*
X258636Y258636D01*
X258354Y258920D01*
G03X257646I-354J-354D01*
G37*
G36*
G01X259030Y272258D02*
X259136Y272364D01*
X258500Y273188D01*
X257864Y272364D01*
X257970Y272258D01*
G03X259030I530J530D01*
G37*
G36*
G01X253030Y269758D02*
X253136Y269864D01*
X252500Y270688D01*
X251864Y269864D01*
X251970Y269758D01*
G03X253030I530J530D01*
G37*
G36*
G01X275403Y35028D02*
X276048Y34948D01*
X276209Y35878D01*
X275268Y35952D01*
X275186Y35307D01*
G03X275403Y35028I248J-31D01*
G37*
G36*
G01X267970Y30742D02*
X267864Y30636D01*
X268500Y29812D01*
X269136Y30636D01*
X269030Y30742D01*
G03X267970I-530J-530D01*
G37*
G36*
G01X278823Y42096D02*
X278364Y41636D01*
X279000Y40938D01*
X279636Y41636D01*
X279177Y42096D01*
G03X278823I-177J-177D01*
G37*
G36*
G01X279177Y39904D02*
X279636Y40364D01*
X279000Y41062D01*
X278364Y40364D01*
X278823Y39904D01*
G03X279177I177J177D01*
G37*
G36*
G01X277677Y58404D02*
X278136Y58864D01*
X277500Y59562D01*
X276864Y58864D01*
X277323Y58404D01*
G03X277677I177J177D01*
G37*
G36*
G01X267758Y54470D02*
X267864Y54364D01*
X268688Y55000D01*
X267864Y55636D01*
X267758Y55530D01*
G03Y54470I530J-530D01*
G37*
G36*
G01Y49470D02*
X267864Y49364D01*
X268688Y50000D01*
X267864Y50636D01*
X267758Y50530D01*
G03Y49470I530J-530D01*
G37*
G36*
G01X284970Y64742D02*
X284864Y64636D01*
X285500Y63812D01*
X286136Y64636D01*
X286030Y64742D01*
G03X284970I-530J-530D01*
G37*
G36*
G01X282323Y47096D02*
X281864Y46636D01*
X282500Y45938D01*
X283136Y46636D01*
X282677Y47096D01*
G03X282323I-177J-177D01*
G37*
G36*
G01X282677Y44904D02*
X283136Y45364D01*
X282500Y46062D01*
X281864Y45364D01*
X282323Y44904D01*
G03X282677I177J177D01*
G37*
G36*
G01X279470Y75742D02*
X279364Y75636D01*
X280000Y74812D01*
X280636Y75636D01*
X280530Y75742D01*
G03X279470I-530J-530D01*
G37*
G36*
G01X284470D02*
X284364Y75636D01*
X285000Y74812D01*
X285636Y75636D01*
X285530Y75742D01*
G03X284470I-530J-530D01*
G37*
G36*
G01X274258Y80670D02*
X274364Y80564D01*
X275188Y81200D01*
X274364Y81836D01*
X274258Y81730D01*
G03Y80670I530J-530D01*
G37*
G36*
G01X265530Y85258D02*
X265636Y85364D01*
X265000Y86188D01*
X264364Y85364D01*
X264470Y85258D01*
G03X265530I530J530D01*
G37*
G36*
G01X280530Y84258D02*
X280636Y84364D01*
X280000Y85188D01*
X279364Y84364D01*
X279470Y84258D01*
G03X280530I530J530D01*
G37*
G36*
G01X272580Y96146D02*
X272864Y95864D01*
X273625Y96500D01*
X272864Y97136D01*
X272580Y96854D01*
G03Y96146I354J-354D01*
G37*
G36*
G01X265202Y94500D02*
Y100170D01*
X265000D01*
Y103000D01*
X268500Y106500D01*
Y130000D01*
X271000Y132500D01*
X284500D01*
X292500Y124500D01*
Y112000D01*
X298000Y106500D01*
Y100170D01*
X295298D01*
Y94500D01*
X291702D01*
Y100170D01*
X291500D01*
Y100500D01*
X290500Y101500D01*
X285500D01*
X282000Y98000D01*
X274669D01*
G03X273089Y98356I-1168J-1500D01*
G02X272602Y98747I-87J391D01*
G01Y100170D01*
X268798D01*
Y94500D01*
X265202D01*
G37*
G36*
G01X265350Y107600D02*
X266000D01*
X266183Y108542D01*
X265500Y108500D01*
X265350Y108350D01*
Y107600D01*
G37*
G36*
G01X272704Y146523D02*
X273164Y146064D01*
X273862Y146700D01*
X273164Y147336D01*
X272704Y146877D01*
G03Y146523I177J-177D01*
G37*
G36*
G01X273404Y142823D02*
X273864Y142364D01*
X274562Y143000D01*
X273864Y143636D01*
X273404Y143177D01*
G03Y142823I177J-177D01*
G37*
G36*
G01X281500Y150500D02*
X280500Y151500D01*
Y153500D01*
X281500Y154500D01*
X285500D01*
X287000Y156000D01*
Y161000D01*
X288000Y162000D01*
X297000D01*
X298000Y161000D01*
Y151000D01*
X297500Y150500D01*
X295618D01*
G03X293586Y151356I-1618J-1000D01*
G01X293564Y151352D01*
X292002D01*
Y152502D01*
X287998D01*
Y151352D01*
X287048D01*
Y150500D01*
X281500D01*
G37*
G36*
G01X282300Y166595D02*
Y165900D01*
X283236Y165864D01*
X283200Y166800D01*
X282505D01*
G03X282300Y166595I0J-205D01*
G37*
G36*
G01X283345Y169972D02*
X283835Y170465D01*
X283200Y171151D01*
X282565Y170465D01*
X283055Y169972D01*
G03X283345I145J145D01*
G37*
G36*
G01X278742Y175530D02*
X278636Y175636D01*
X277812Y175000D01*
X278636Y174364D01*
X278742Y174470D01*
G03Y175530I-530J530D01*
G37*
G36*
G01X285400Y182350D02*
Y182500D01*
X284367Y182633D01*
X284500Y181600D01*
X284650D01*
G03X285400Y182350I0J750D01*
G37*
G36*
G01X266970Y178242D02*
X266864Y178136D01*
X267500Y177312D01*
X268136Y178136D01*
X268030Y178242D01*
G03X266970I-530J-530D01*
G37*
G36*
G01X284900Y187850D02*
Y188000D01*
X283867Y188133D01*
X284000Y187100D01*
X284150D01*
G03X284900Y187850I0J750D01*
G37*
G36*
G01X285400Y217850D02*
Y218000D01*
X284367Y218133D01*
X284500Y217100D01*
X284650D01*
G03X285400Y217850I0J750D01*
G37*
G36*
G01X287864Y35783D02*
X288324Y35324D01*
X289022Y35960D01*
X288324Y36596D01*
X287864Y36137D01*
G03Y35783I177J-177D01*
G37*
G36*
G01X287050Y26000D02*
X286400D01*
X286356Y25056D01*
X287300Y25100D01*
Y25750D01*
G03X287050Y26000I-250J0D01*
G37*
G36*
G01X290758Y31470D02*
X290864Y31364D01*
X291688Y32000D01*
X290864Y32636D01*
X290758Y32530D01*
G03Y31470I530J-530D01*
G37*
G36*
G01X288970Y64742D02*
X288864Y64636D01*
X289500Y63812D01*
X290136Y64636D01*
X290030Y64742D01*
G03X288970I-530J-530D01*
G37*
G36*
G01X290530Y84758D02*
X290636Y84864D01*
X290000Y85688D01*
X289364Y84864D01*
X289470Y84758D01*
G03X290530I530J530D01*
G37*
G36*
G01X292464Y78262D02*
X292598Y78196D01*
X293178Y79059D01*
X292196Y79402D01*
X292128Y79268D01*
G03X292464Y78262I671J-335D01*
G37*
G36*
G01X286370Y84580D02*
X286520D01*
X286653Y85613D01*
X285620Y85480D01*
Y85330D01*
G03X286370Y84580I750J0D01*
G37*
G36*
G01X286000Y96500D02*
X286226Y96726D01*
X286346Y96682D01*
G03X287849Y96766I654J1786D01*
G01X290248D01*
Y93248D01*
X290500D01*
Y92500D01*
X289500Y91500D01*
X287000D01*
X286000Y92500D01*
Y96500D01*
G37*
G36*
G01X299080Y96146D02*
X299364Y95864D01*
X300125Y96500D01*
X299364Y97136D01*
X299080Y96854D01*
G03Y96146I354J-354D01*
G37*
G36*
G01X287920Y98822D02*
X287636Y99104D01*
X286875Y98468D01*
X287636Y97832D01*
X287920Y98114D01*
G03Y98822I-354J354D01*
G37*
G36*
G01X292900Y86850D02*
Y87500D01*
X291956Y87544D01*
X292000Y86600D01*
X292650D01*
G03X292900Y86850I0J250D01*
G37*
G36*
G01X295970Y144742D02*
X295864Y144636D01*
X296500Y143812D01*
X297136Y144636D01*
X297030Y144742D01*
G03X295970I-530J-530D01*
G37*
G36*
G01X289470D02*
X289364Y144636D01*
X290000Y143812D01*
X290636Y144636D01*
X290530Y144742D01*
G03X289470I-530J-530D01*
G37*
G36*
G01X301030Y155758D02*
X301136Y155864D01*
X300500Y156688D01*
X299864Y155864D01*
X299970Y155758D01*
G03X301030I530J530D01*
G37*
G36*
G01X285450Y173800D02*
Y173150D01*
X286394Y173106D01*
X286350Y174050D01*
X285700D01*
G03X285450Y173800I0J-250D01*
G37*
G36*
G01X287446Y173327D02*
X286986Y173786D01*
X286288Y173150D01*
X286986Y172514D01*
X287446Y172973D01*
G03Y173327I-177J177D01*
G37*
G36*
G01X287258Y191470D02*
X287364Y191364D01*
X288188Y192000D01*
X287364Y192636D01*
X287258Y192530D01*
G03Y191470I530J-530D01*
G37*
G36*
G01X305872Y181768D02*
X305804Y181902D01*
X304822Y181559D01*
X305402Y180696D01*
X305536Y180762D01*
G03X305872Y181768I-335J671D01*
G37*
G36*
G01X304464Y180762D02*
X304598Y180696D01*
X305178Y181559D01*
X304196Y181902D01*
X304128Y181768D01*
G03X304464Y180762I671J-335D01*
G37*
G36*
G01X291850Y194600D02*
X292500D01*
X292544Y195544D01*
X291600Y195500D01*
Y194850D01*
G03X291850Y194600I250J0D01*
G37*
G36*
G01X302077Y197654D02*
X302536Y198114D01*
X301900Y198812D01*
X301264Y198114D01*
X301723Y197654D01*
G03X302077I177J177D01*
G37*
G36*
G01X307500Y218000D02*
Y236000D01*
X287500D01*
Y218000D01*
X307500D01*
G37*
G36*
G01X303400Y269850D02*
Y270500D01*
X302456Y270544D01*
X302500Y269600D01*
X303150D01*
G03X303400Y269850I0J250D01*
G37*
G36*
G01X301600Y271150D02*
Y270500D01*
X302544Y270456D01*
X302500Y271400D01*
X301850D01*
G03X301600Y271150I0J-250D01*
G37*
G36*
G01X306850Y269600D02*
X307500D01*
X307544Y270544D01*
X306600Y270500D01*
Y269850D01*
G03X306850Y269600I250J0D01*
G37*
G36*
G01X306600Y271150D02*
Y270500D01*
X307544Y270456D01*
X307500Y271400D01*
X306850D01*
G03X306600Y271150I0J-250D01*
G37*
G36*
G01X295177Y268904D02*
X295636Y269364D01*
X295000Y270062D01*
X294364Y269364D01*
X294823Y268904D01*
G03X295177I177J177D01*
G37*
G36*
G01X294823Y271096D02*
X294364Y270636D01*
X295000Y269938D01*
X295636Y270636D01*
X295177Y271096D01*
G03X294823I-177J-177D01*
G37*
G36*
G01X295530Y279258D02*
X295636Y279364D01*
X295000Y280188D01*
X294364Y279364D01*
X294470Y279258D01*
G03X295530I530J530D01*
G37*
G36*
G01X300530D02*
X300636Y279364D01*
X300000Y280188D01*
X299364Y279364D01*
X299470Y279258D01*
G03X300530I530J530D01*
G37*
G36*
G01X305530D02*
X305636Y279364D01*
X305000Y280188D01*
X304364Y279364D01*
X304470Y279258D01*
G03X305530I530J530D01*
G37*
G36*
G01X309650Y173900D02*
X309000D01*
X308956Y172956D01*
X309900Y173000D01*
Y173650D01*
G03X309650Y173900I-250J0D01*
G37*
G36*
G01X315970Y184242D02*
X315864Y184136D01*
X316500Y183312D01*
X317136Y184136D01*
X317030Y184242D01*
G03X315970I-530J-530D01*
G37*
G36*
G01X313350Y208650D02*
Y208500D01*
X314383Y208367D01*
X314250Y209400D01*
X314100D01*
G03X313350Y208650I0J-750D01*
G37*
G36*
G01X317030Y256758D02*
X317136Y256864D01*
X316500Y257688D01*
X315864Y256864D01*
X315970Y256758D01*
G03X317030I530J530D01*
G37*
G36*
G01X307900Y257350D02*
Y257500D01*
X306867Y257633D01*
X307000Y256600D01*
X307150D01*
G03X307900Y257350I0J750D01*
G37*
G36*
G01X309742Y287530D02*
X309636Y287636D01*
X308812Y287000D01*
X309636Y286364D01*
X309742Y286470D01*
G03Y287530I-530J530D01*
G37*
G36*
G01X312323Y279596D02*
X311864Y279136D01*
X312500Y278438D01*
X313136Y279136D01*
X312677Y279596D01*
G03X312323I-177J-177D01*
G37*
%LPC*%
G75*
G36*
G01X143519Y251445D02*
X142152Y250076D01*
Y228868D01*
X143118Y227902D01*
X143250D01*
G02X141348Y226000I0J-1902D01*
G01Y226132D01*
X139648Y227832D01*
Y250076D01*
X138281Y251445D01*
X138279Y251446D01*
G02X143521I2621J2754D01*
G01X143519Y251445D01*
G37*
G36*
G01X136248Y227437D02*
Y244482D01*
X127782Y252948D01*
X118224D01*
X116855Y251581D01*
X116854Y251579D01*
G02Y256821I-2754J2621D01*
G01X116855Y256819D01*
X118224Y255452D01*
X128818D01*
X138752Y245518D01*
Y227437D01*
X138813Y227375D01*
X138815Y227374D01*
G02X136185I-1315J-1374D01*
G01X136187Y227375D01*
X136248Y227437D01*
G37*
G36*
G01X201576Y125937D02*
G03Y125363I279J-287D01*
G02X198924I-1326J-1363D01*
G03Y125937I-279J287D01*
G02X201576I1326J1363D01*
G37*
G36*
G01X211895Y133777D02*
G03Y133196I275J-290D01*
G02X210105I-895J-946D01*
G03Y133777I-275J290D01*
G02X211895I895J946D01*
G37*
G36*
G01X215146Y126646D02*
G02X213104Y124604I-146J-1896D01*
G02X215146Y126646I146J1896D01*
G37*
G36*
G01X216022Y180665D02*
G02X214305Y181099I-1271J-1415D01*
G03X214478Y181785I-94J389D01*
G02X216195Y181351I1271J1415D01*
G03X216022Y180665I94J-389D01*
G37*
G54D77*
X219500Y181000D03*
G54D75*
X204700Y133050D03*
X214600Y133100D03*
G54D76*
X214000Y106700D03*
G54D74*
X114100Y264000D03*
X140900D03*
G54D78*
X275000Y119500D03*
%LPD*%
G75*
G36*
G01X117883Y254377D02*
X116079Y256179D01*
X114038Y254200D01*
X116079Y252221D01*
X117883Y254023D01*
G03Y254377I-177J177D01*
G37*
G36*
G01X137323Y227096D02*
X136864Y226636D01*
X137500Y225938D01*
X138136Y226636D01*
X137677Y227096D01*
G03X137323I-177J-177D01*
G37*
G36*
G01X142350Y226650D02*
Y226000D01*
X143294Y225956D01*
X143250Y226900D01*
X142600D01*
G03X142350Y226650I0J-250D01*
G37*
G36*
G01X141077Y250417D02*
X142879Y252221D01*
X140900Y254262D01*
X138921Y252221D01*
X140723Y250417D01*
G03X141077I177J177D01*
G37*
G54D10*
X-7500Y-30000D03*
Y290000D03*
X185000Y261400D03*
Y285000D03*
X240000Y261400D03*
Y285000D03*
X253000Y108500D03*
X247000D03*
X252500Y290000D03*
X287500Y-30000D03*
G54D11*
X0Y0D03*
Y270000D03*
X280000Y0D03*
Y270000D03*
G54D20*
X23500Y108000D03*
X29500D03*
X95500Y139500D03*
X101500D03*
X104500Y172000D03*
X98500D03*
X104500Y164000D03*
X98500D03*
X125500Y181000D03*
X131500D03*
X150000Y35000D03*
X156000D03*
X174500Y170000D03*
X180500D03*
X174500Y162000D03*
X180500D03*
X179500Y199000D03*
X173500D03*
X177000Y206000D03*
X193000Y187500D03*
X187000D03*
X193000Y180000D03*
X187000D03*
X183000Y206000D03*
X210500Y159500D03*
X216500D03*
X252000Y114500D03*
X258000D03*
X302000Y86000D03*
X296000D03*
G54D30*
X106800Y192840D03*
X113200D03*
X106800Y212840D03*
X113200D03*
Y207160D03*
X106800D03*
X113200Y227160D03*
X106800D03*
G54D21*
X32500Y166000D03*
G54D12*
X2500Y37500D03*
Y67500D03*
Y57500D03*
Y47500D03*
Y87500D03*
Y77500D03*
Y107500D03*
Y97500D03*
Y127500D03*
Y117500D03*
Y147500D03*
Y137500D03*
Y157500D03*
X12500Y37500D03*
Y27500D03*
Y67500D03*
Y57500D03*
Y47500D03*
Y87500D03*
Y77500D03*
Y107500D03*
Y97500D03*
Y127500D03*
Y117500D03*
Y147500D03*
Y137500D03*
Y157500D03*
X65074Y128284D03*
X72145Y121213D03*
X58003Y135355D03*
X65074Y142426D03*
X72145Y135355D03*
X93358Y100000D03*
X79216Y128284D03*
Y114142D03*
X86287Y121213D03*
X93358Y114142D03*
X100429Y107071D03*
Y92929D03*
X215100Y-28300D03*
X205100Y-34300D03*
X208500Y39000D03*
X218500D03*
X244900Y-34300D03*
X241500Y39000D03*
X254900Y-28300D03*
X251500Y39000D03*
X300000Y265000D03*
G54D40*
X188800Y150000D03*
X196400D03*
X221700Y27500D03*
X221200Y206000D03*
Y197000D03*
X229300Y27500D03*
X228800Y206000D03*
Y197000D03*
G54D31*
X106800Y195100D03*
Y197060D03*
X113200Y195100D03*
Y197060D03*
X106800Y199020D03*
Y200980D03*
Y202940D03*
Y204900D03*
X113200Y199020D03*
Y200980D03*
Y202940D03*
Y204900D03*
X106800Y215100D03*
Y217060D03*
X113200Y215100D03*
Y217060D03*
X106800Y219020D03*
Y220980D03*
Y222940D03*
Y224900D03*
X113200Y219020D03*
Y220980D03*
Y222940D03*
Y224900D03*
G54D13*
X2500Y27500D03*
X310000Y265000D03*
G54D22*
X20000Y266440D03*
X17600Y285730D03*
X44900Y168500D03*
X97500Y50000D03*
X85000D03*
X77000Y266440D03*
X79400Y285730D03*
X280000Y252500D03*
G54D41*
X195000Y198600D03*
X192440D03*
X197560D03*
Y206400D03*
X195000D03*
X192440D03*
G54D23*
X47500Y232200D03*
Y237800D03*
X88000Y232200D03*
Y237800D03*
G54D50*
X261913Y204638D03*
Y243024D03*
G54D14*
X-1750Y99500D03*
X-4250Y104750D03*
X-1750Y93000D03*
X-8500Y115500D03*
Y119000D03*
Y130000D03*
X-11250Y112000D03*
X-8500Y122500D03*
X-1000Y144000D03*
X-11250Y133250D03*
X250Y164500D03*
X0Y167500D03*
X-8000Y152500D03*
X5500Y194000D03*
X8000Y234500D03*
X5500Y245500D03*
X-3500Y239000D03*
X2500Y241750D03*
Y238250D03*
X17500Y87500D03*
X20000Y85000D03*
Y81500D03*
Y95000D03*
Y90000D03*
Y103500D03*
X15500Y91000D03*
X20099Y106495D03*
X20000Y110000D03*
Y130000D03*
Y125000D03*
Y120000D03*
Y115000D03*
Y145000D03*
Y140000D03*
Y135000D03*
Y150000D03*
Y160000D03*
X16500Y164000D03*
X13000D03*
X20000Y155000D03*
X24750Y175750D03*
X26000Y203500D03*
X28000Y201500D03*
X14000Y234500D03*
X11000Y243000D03*
X14000Y239000D03*
X22500Y238250D03*
Y241750D03*
X35000Y11500D03*
X32000Y43500D03*
X46500Y64545D03*
X42500Y46000D03*
X45750Y74500D03*
X31000Y80000D03*
X34000D03*
Y85000D03*
X33500Y96000D03*
Y105000D03*
Y100000D03*
X31300Y98000D03*
X34000Y90000D03*
X33500Y110000D03*
X34000Y125000D03*
X32000Y130000D03*
X45000Y115000D03*
X34000Y150000D03*
Y146000D03*
X32000Y137500D03*
X31000Y146000D03*
Y142500D03*
X32000Y135000D03*
X34000Y160000D03*
X50250D03*
X47500D03*
X46000Y157500D03*
X34000Y155000D03*
X49000Y152000D03*
X43800Y190300D03*
X49500Y184000D03*
X46500Y176500D03*
X43800Y184700D03*
X39000Y206500D03*
X39500Y195240D03*
Y201144D03*
Y212952D03*
X46000Y227500D03*
X39500Y222500D03*
Y219500D03*
X49500Y252500D03*
X43800Y237800D03*
X35500Y246500D03*
X49500Y268230D03*
X37680D03*
X43590D03*
X31770D03*
X59500Y16000D03*
X61500Y24000D03*
X58000Y53500D03*
X62000Y48000D03*
X54545Y62575D03*
X61000Y53000D03*
X69985Y52045D03*
X61000Y56000D03*
X67045Y54100D03*
X58000Y57500D03*
X61000Y87500D03*
X57000Y76500D03*
X54545Y66515D03*
X56600Y68485D03*
X57000Y71500D03*
X72955Y86955D03*
X67000Y87500D03*
X70985Y80900D03*
X67045D03*
X63105D03*
X72500Y107000D03*
X69000D03*
Y103500D03*
X72500D03*
X54500Y107000D03*
Y97650D03*
Y104300D03*
Y101000D03*
X65300Y111700D03*
X57500Y126500D03*
Y118500D03*
X55500Y141000D03*
X56500Y145500D03*
X59750Y151500D03*
X58500Y141000D03*
X53500Y143500D03*
Y147000D03*
X56500Y149000D03*
X66000Y133600D03*
X53000Y160000D03*
X57500Y160800D03*
X52500Y173000D03*
X53000Y154000D03*
X54708Y182000D03*
X61520Y173500D03*
X67400Y176500D03*
X63480D03*
X65440Y173500D03*
X69660D03*
X59560Y176500D03*
X70452Y182000D03*
X72420Y179080D03*
X60000Y257000D03*
X62580Y240920D03*
X52740Y238000D03*
X59500Y252500D03*
X54500D03*
X64500D03*
X64548Y238000D03*
X72500Y240000D03*
X56500Y257000D03*
X59862Y238000D03*
X69500Y252500D03*
X61320Y268230D03*
X63290Y272500D03*
X87000Y-8500D03*
X80000Y38000D03*
X84500Y42000D03*
X76500Y45000D03*
X73500Y27000D03*
X75500Y38000D03*
X80000Y28000D03*
X86000Y65000D03*
X83500Y63500D03*
Y60500D03*
X73500Y52000D03*
X86000Y72500D03*
X79500Y79500D03*
X93500Y78500D03*
Y87000D03*
X76425Y80900D03*
X83500Y68485D03*
X93000Y68500D03*
X87000D03*
X93500Y91000D03*
X87500Y90000D03*
X86500Y98500D03*
X92500Y127600D03*
X80000Y138900D03*
Y142250D03*
Y150000D03*
X85500Y148500D03*
X74500Y146000D03*
X75500Y171000D03*
X77500Y173000D03*
X79500Y171000D03*
X81500Y173000D03*
X83500Y171000D03*
X74500Y153000D03*
X85500D03*
X85597Y178403D03*
X89500Y191500D03*
X81500Y182000D03*
X78324D03*
X76356Y179080D03*
X74388Y182000D03*
X84500Y235000D03*
X91700Y232200D03*
X85500Y254500D03*
X74388Y238000D03*
X81000D03*
X77500D03*
X88000Y241000D03*
X91500D03*
X74500Y252500D03*
X79500D03*
X96000Y-22500D03*
X115000Y-7500D03*
X100000Y-7000D03*
X98000Y-9000D03*
X113000Y22500D03*
X108000Y29176D03*
X97500Y31500D03*
X100500Y34500D03*
X108000D03*
X110612Y27208D03*
Y39016D03*
X108000Y40984D03*
Y37048D03*
X109500Y31500D03*
X99000Y63000D03*
X109500Y58500D03*
X108000Y46888D03*
X110612Y50824D03*
X108000Y52792D03*
X110612Y54760D03*
X113500Y58500D03*
X110612Y46888D03*
X105500Y73539D03*
X99000Y66500D03*
X100000Y73100D03*
X105500Y70462D03*
X99000Y81000D03*
X96000Y78500D03*
X111000Y89500D03*
X115000Y103000D03*
X116000Y116500D03*
X114250Y118250D03*
X112500Y116500D03*
X101750Y119350D03*
X99500Y121100D03*
X102750Y128000D03*
X110500Y118250D03*
X101750Y116450D03*
X111900Y125500D03*
X94800Y124900D03*
X96300Y122500D03*
X101600Y122700D03*
X109600Y128100D03*
X97500Y125500D03*
Y129600D03*
X102750Y134500D03*
Y131250D03*
X110000Y132000D03*
X95500Y143500D03*
X110500Y135500D03*
Y145500D03*
X99000Y144000D03*
X102500Y143000D03*
X110500Y148500D03*
Y151500D03*
Y139000D03*
Y142500D03*
X97500Y135500D03*
X99500Y149500D03*
X95500D03*
X101500Y155000D03*
X98500Y168000D03*
X98000Y157000D03*
X110500Y165500D03*
X101500Y158000D03*
X110500Y155000D03*
Y158500D03*
Y162000D03*
X98100Y160100D03*
X104500Y168000D03*
Y160000D03*
X98250Y183500D03*
X112500Y184000D03*
X99500Y190500D03*
X95000Y183500D03*
X115000Y185500D03*
X116100Y199400D03*
X116000Y195500D03*
X95500Y209016D03*
X104000Y199020D03*
X101000Y197060D03*
X104000Y207160D03*
X101000Y200980D03*
Y212840D03*
X104000Y202940D03*
X101000Y204900D03*
X104000Y215100D03*
X99000Y209016D03*
X112000Y234500D03*
X95500Y224760D03*
X104000Y219020D03*
X99000Y224760D03*
X101000Y220980D03*
X104000Y222940D03*
X101000Y217060D03*
X109500Y232500D03*
X132000Y14200D03*
X117740Y18112D03*
X119708Y15500D03*
X121676Y18112D03*
X136000Y14200D03*
X125612Y18112D03*
X127580Y15500D03*
X119000Y62000D03*
X129500D03*
X127000D03*
X122000D03*
X134802Y65000D03*
X135452Y61952D03*
X132000Y62000D03*
X137420Y64500D03*
X137500Y86500D03*
X134000D03*
X116500Y69500D03*
X132000Y92000D03*
X129500Y94500D03*
X125500Y90500D03*
X133000Y108700D03*
X119000Y89500D03*
X137500Y94500D03*
X117600Y121300D03*
X130500Y123500D03*
X135300Y117000D03*
Y119600D03*
X120500Y122700D03*
X127400Y120800D03*
X134000Y123500D03*
X120500Y116700D03*
X127450Y134900D03*
X120300Y136450D03*
X121000Y144900D03*
X135750Y133000D03*
X124550Y134450D03*
X133000Y150500D03*
X137000Y144500D03*
X120400Y150300D03*
X122100Y139800D03*
X132300Y134400D03*
X121000Y142000D03*
X120250Y133320D03*
X122650Y132950D03*
X134647Y135203D03*
X122900Y150800D03*
X129797Y142503D03*
X130000Y150500D03*
X129850Y145500D03*
X122973Y157973D03*
X127497Y161303D03*
X120500Y159000D03*
X134500Y152500D03*
X133500Y170850D03*
X116500Y171500D03*
X130000Y162000D03*
X127000Y171000D03*
X122000Y162000D03*
X120500Y156500D03*
X120400Y153500D03*
X136964Y170672D03*
X130500Y172500D03*
X122000Y171000D03*
X119500Y172000D03*
X131750Y159900D03*
X122900Y154000D03*
X116500Y177500D03*
X118000Y194000D03*
X125500Y177000D03*
X133500Y185500D03*
X127500Y187000D03*
X131500D03*
X129500Y185500D03*
X131500Y177000D03*
X137000Y178500D03*
X118000Y183500D03*
X116500Y174500D03*
X122500Y177500D03*
X121000Y185500D03*
X137000Y176000D03*
X122750Y215100D03*
X126500Y207000D03*
X136500Y199000D03*
X131500D03*
X134000Y196500D03*
X118000Y197500D03*
X124000Y223000D03*
X121784Y220852D03*
X126500D03*
Y217060D03*
X137500Y226000D03*
X158500Y23500D03*
X156500Y16500D03*
X153000Y10500D03*
X142500Y8000D03*
X148000Y16500D03*
X143000D03*
X152500D03*
X139388Y18112D03*
X158500Y27500D03*
X155500Y41000D03*
Y30500D03*
X158500D03*
X151500Y62500D03*
X155500Y48000D03*
X154388Y54760D03*
X155500Y57500D03*
X139388Y61888D03*
X141356Y64500D03*
X156000Y62500D03*
X143324D03*
X147260D03*
X142000Y85500D03*
X144300Y69000D03*
X153500Y70500D03*
X158500Y73000D03*
X150958Y108700D03*
X144500Y88500D03*
X146000Y95000D03*
X143800Y105000D03*
X146800D03*
X154600Y108000D03*
X150500Y105000D03*
X148500Y95000D03*
X153000Y88000D03*
X148000Y108500D03*
X156000Y95000D03*
X154500Y105000D03*
X151000Y95000D03*
X142000D03*
X148500Y89000D03*
X139500Y91000D03*
X150850Y114000D03*
X154500Y113500D03*
Y110500D03*
X148800Y123400D03*
X150850Y111600D03*
X158700Y119600D03*
X143500Y122000D03*
X140500Y112500D03*
X139500Y122000D03*
X154500Y119600D03*
X144450Y119000D03*
X140600Y115500D03*
X138120Y118100D03*
X148033Y136504D03*
X158495Y138000D03*
X149500Y138500D03*
X139597Y143003D03*
X149630Y145543D03*
X139500Y146500D03*
Y150500D03*
X144000Y133700D03*
X139250Y134500D03*
X149476Y142612D03*
X147286Y143596D03*
X148150Y140500D03*
X147525Y146790D03*
X146900Y134000D03*
X149100Y133000D03*
X158500Y131000D03*
X147381Y159633D03*
X147191Y156150D03*
X147250Y153050D03*
X139900Y159900D03*
X149200Y162050D03*
X145600Y162049D03*
X142002D03*
X143900Y171000D03*
X154000D03*
X149098Y157955D03*
X144889Y159689D03*
X138870Y162074D03*
X146800Y171000D03*
X139500D03*
X149650Y153950D03*
X144500Y187000D03*
X150850Y179500D03*
X156500D03*
X158500Y175000D03*
X144500Y190500D03*
X139500Y193000D03*
X141500Y190500D03*
X144500Y183500D03*
X141500Y180000D03*
X139000Y185500D03*
X139500Y181500D03*
X143500Y178500D03*
X141000Y183500D03*
X145500Y177000D03*
X139500Y176000D03*
Y203000D03*
X144500Y195000D03*
X157240Y196000D03*
X155280Y198000D03*
X141500Y195500D03*
X143250Y226000D03*
X156500Y222000D03*
X158250Y238250D03*
X162500Y23500D03*
Y17500D03*
X177000Y2500D03*
X171000D03*
Y27500D03*
X177000D03*
X159500Y41000D03*
X161500Y35500D03*
X166500Y38000D03*
X159500Y48000D03*
X168500Y45500D03*
X162500Y69500D03*
X168000Y84500D03*
X167500Y69500D03*
X177000Y70000D03*
X161000Y95000D03*
X168000Y92000D03*
X177500Y97500D03*
X164000Y98000D03*
X173500Y100500D03*
X171500Y88500D03*
X161500Y109000D03*
X177500Y100500D03*
X168000Y88500D03*
X161500Y106000D03*
X170000Y100500D03*
X164000Y88500D03*
X177000Y90500D03*
X160829Y130417D03*
X159500Y128000D03*
X164500Y110250D03*
X161500Y112000D03*
X164500Y114500D03*
X168000Y129500D03*
X167400Y110250D03*
X177500Y119000D03*
X162500Y116000D03*
X173250Y110250D03*
X166250Y124000D03*
X173000Y121250D03*
X170500Y129500D03*
X175500Y123000D03*
X159500Y125000D03*
X174750Y119000D03*
X166500Y137150D03*
X165237Y140355D03*
X167500Y139500D03*
X168000Y142500D03*
X170000Y139500D03*
X172000Y144000D03*
X166700Y145800D03*
X171750Y147000D03*
X161000Y137601D03*
X172000Y141000D03*
X164600Y144100D03*
X172000Y150500D03*
X163950Y137150D03*
X160000Y146250D03*
X160378Y170000D03*
X174500Y158300D03*
X162450Y153000D03*
X167350Y160000D03*
X159500Y159750D03*
X172500Y154300D03*
X175000Y154250D03*
X174500Y166000D03*
X160378Y167072D03*
X162500Y159603D03*
Y163250D03*
X164500Y156000D03*
X164974Y152526D03*
X167104Y153852D03*
X166000Y169000D03*
X164500Y171000D03*
X168500Y171200D03*
X166500Y181000D03*
X162000Y174000D03*
Y177500D03*
X160000Y179500D03*
X159200Y194000D03*
X170000Y175400D03*
X161460Y192000D03*
X166500Y175400D03*
X169000Y209500D03*
X173500Y204500D03*
Y207500D03*
X180000Y210000D03*
X168500Y205500D03*
X175000Y210000D03*
X170000Y222000D03*
X165000D03*
X160000D03*
X169000Y257500D03*
X161500Y240000D03*
X178500D03*
X161500Y244500D03*
X167000Y273000D03*
X173000Y270500D03*
X190500Y11000D03*
X185500Y9000D03*
X188500D03*
X197000Y13500D03*
Y17000D03*
X196500Y10000D03*
X201500Y33500D03*
X186000Y79500D03*
X195500Y87000D03*
X199000D03*
X186000Y95650D03*
X191500Y106000D03*
X181000Y94000D03*
X186000Y99500D03*
Y105000D03*
X181000Y90500D03*
X197500Y89500D03*
X200250Y124000D03*
Y127300D03*
X189500Y126000D03*
X184500Y128000D03*
Y124000D03*
X182500Y110000D03*
X201500Y133050D03*
Y137150D03*
X185250Y140500D03*
Y145150D03*
X198000Y140250D03*
X185250Y137000D03*
X182250Y140500D03*
X185600Y149800D03*
X194000Y145500D03*
X196750Y144750D03*
X195500Y141500D03*
X197000Y172000D03*
X196500Y168000D03*
X199750Y164300D03*
X199700Y166700D03*
X182750Y157750D03*
X186500Y164000D03*
X185850Y154100D03*
X190500Y154500D03*
X188500Y168800D03*
X195000Y156000D03*
X198500Y159500D03*
X195000D03*
Y170000D03*
X190500Y159500D03*
X196500Y164300D03*
X192650Y169050D03*
X195500Y192500D03*
X189000D03*
X188500Y175000D03*
X198000Y177000D03*
X181000Y174000D03*
X192000Y192500D03*
Y175000D03*
X185000Y184000D03*
Y191500D03*
X194500Y175000D03*
X200000Y191500D03*
X183500Y186500D03*
Y195500D03*
X195000Y209440D03*
Y195500D03*
X183000Y201500D03*
Y210000D03*
X191500Y209440D03*
X192440Y201440D03*
X187500Y218000D03*
X185500Y240500D03*
X181500Y238500D03*
X183500Y244000D03*
X193150Y239000D03*
X198000Y270500D03*
X211000Y15000D03*
X207500Y11500D03*
X211000Y26500D03*
X218500Y27500D03*
X221500Y55000D03*
Y50000D03*
X207500Y62500D03*
X203000D03*
X215500Y55000D03*
X203500Y46000D03*
X207500Y73000D03*
Y85000D03*
X202500D03*
X215000Y67000D03*
X212500Y85000D03*
X211500Y70500D03*
X222000Y106650D03*
X214000Y106700D03*
X205800Y93300D03*
X217500Y88100D03*
X214000Y114300D03*
X222000Y115250D03*
X217750Y128750D03*
X213250Y126500D03*
X215000Y124750D03*
X217750Y117250D03*
X207500Y121800D03*
X222000Y122250D03*
X205000Y121750D03*
Y127000D03*
X216001Y144901D03*
X219500Y133000D03*
X214600Y133100D03*
X222700Y135700D03*
X211000Y132250D03*
Y134723D03*
X202200Y149500D03*
X204700Y133050D03*
X216700Y136100D03*
X204800Y141300D03*
X205000Y151301D03*
X202500Y159500D03*
X204000Y168500D03*
X204001Y165251D03*
X219100Y168500D03*
X219700Y172800D03*
X215400Y154600D03*
X202600Y156400D03*
X217251Y163751D03*
X213000Y166500D03*
X211500Y169000D03*
X214750Y179250D03*
X219500Y181000D03*
X217500Y194500D03*
X221000Y191000D03*
X205000Y192500D03*
X215750Y186500D03*
X212000Y191500D03*
X221000Y186500D03*
X209500Y173500D03*
X215750Y183200D03*
X202500Y207500D03*
Y197500D03*
X217500Y206000D03*
X217750Y197750D03*
X214100Y201350D03*
X207500Y236500D03*
X203000Y258000D03*
X222500Y273000D03*
X204000D03*
X210650Y277060D03*
X206150D03*
Y286060D03*
X210650D03*
X231500Y-24000D03*
X228500Y-20500D03*
X237500Y1500D03*
X226500Y6500D03*
X234500Y41000D03*
X232500Y24000D03*
X227000Y31500D03*
X224000Y33000D03*
X223300Y42800D03*
X232500Y66000D03*
X237500D03*
X232500Y78000D03*
X237500D03*
X230000Y79500D03*
Y83500D03*
X242500Y78000D03*
X231000Y102500D03*
Y106000D03*
X242500Y88100D03*
X235500Y106000D03*
X237500Y88100D03*
X225000Y118000D03*
X228000D03*
X239000Y110000D03*
X230500Y120500D03*
X241500Y116000D03*
X230500Y124500D03*
X236000Y114500D03*
X227500Y122250D03*
X233500Y110000D03*
X231000Y117500D03*
X240000Y140000D03*
X237500Y130750D03*
X235500Y133750D03*
X232000Y136000D03*
X225627Y134977D03*
X243000Y135750D03*
X224301Y145701D03*
X224800Y132000D03*
X238500Y148000D03*
X243500Y143500D03*
X240000D03*
X227800Y132600D03*
X227570Y168930D03*
X237500Y170500D03*
X228500Y164000D03*
X238500Y153000D03*
X242500Y167500D03*
X235500Y153000D03*
X224500Y166400D03*
X233500Y164400D03*
X231000Y164500D03*
X236500Y159000D03*
X229500Y174500D03*
X242500Y183500D03*
X227500Y188500D03*
X237500Y174500D03*
X230000Y180500D03*
X232500Y185500D03*
X233000Y174500D03*
X227500Y185500D03*
X225000Y181000D03*
X224000Y175500D03*
X224500Y201000D03*
X232500Y197000D03*
X228800Y211000D03*
X233500Y209500D03*
X242500Y195000D03*
X226000Y223000D03*
X231000Y232000D03*
X237000Y219000D03*
X231000Y227500D03*
X224000Y258000D03*
X241000Y249000D03*
X228500Y270500D03*
X253500Y11000D03*
X256500D03*
X259500D03*
X245000Y5000D03*
X258500Y44000D03*
X260200Y66000D03*
X252500Y62500D03*
X257500D03*
X265000Y86000D03*
X252500Y78000D03*
X257500D03*
X247500D03*
X245000Y98000D03*
X262500Y88100D03*
X259000Y102500D03*
X260000Y109000D03*
X257500Y88100D03*
X252500Y118500D03*
X260000Y118000D03*
X248500Y112500D03*
X263000Y111500D03*
X249000Y118500D03*
X257000Y147500D03*
X260500Y136500D03*
X247000Y143000D03*
X258000Y150500D03*
X250000Y147500D03*
X252000Y137000D03*
X245000Y150000D03*
X260450Y132450D03*
X245500Y167500D03*
X247500Y170500D03*
X250000Y152000D03*
X248000Y160000D03*
X245000Y158000D03*
X259000Y170500D03*
X264500D03*
X245500Y165000D03*
X247000Y183500D03*
X252800Y182300D03*
X247500Y174500D03*
X263000Y174700D03*
X257500Y187500D03*
X251000Y210000D03*
X261000Y201500D03*
X255500Y203000D03*
X246000Y197500D03*
Y214000D03*
X256500Y227500D03*
X258000Y258000D03*
X262000Y248500D03*
X256000Y241000D03*
X252500Y270500D03*
X258500Y273000D03*
X265500Y277000D03*
X261000D03*
X265500Y286000D03*
X261000D03*
X286400Y25100D03*
X276160Y35840D03*
X268500Y30000D03*
X279000Y41000D03*
X277500Y59500D03*
X285500Y64000D03*
X268500Y50000D03*
Y55000D03*
X276160Y48500D03*
X282500Y46000D03*
X275000Y81200D03*
X285000Y75000D03*
X280000D03*
X286520Y85480D03*
X280000Y85000D03*
X273500Y92000D03*
X287000Y96000D03*
Y93000D03*
Y98468D03*
X273500Y96500D03*
X283000Y96000D03*
X266000Y108500D03*
X273800Y146700D03*
X274500Y143000D03*
X266000Y134500D03*
X282500Y153000D03*
X286350Y173150D03*
X283200Y165900D03*
Y171100D03*
X278300Y158300D03*
X275000Y162500D03*
Y152500D03*
X284500Y182500D03*
X278000Y175000D03*
X278073Y178700D03*
X267500Y177500D03*
X284000Y188000D03*
X268500Y193500D03*
Y215500D03*
Y205500D03*
X284500Y214000D03*
X270500Y198500D03*
X279500Y205500D03*
X268500Y219000D03*
Y222500D03*
X280500Y237500D03*
X283500D03*
X268500Y227500D03*
X284500Y218000D03*
X280500Y222500D03*
X284150Y222475D03*
X275000Y222500D03*
X271500D03*
X268500Y232500D03*
X272000Y237500D03*
X276000D03*
X287000Y242000D03*
X272000Y240500D03*
X301000Y-4000D03*
X288960Y35960D03*
X291500Y32000D03*
X289500Y64000D03*
X292000Y76038D03*
X290000Y85500D03*
X293000Y79000D03*
X292000Y72961D03*
Y87500D03*
X300000Y96500D03*
X296000Y102000D03*
X290000Y144000D03*
X296500D03*
X303000Y148000D03*
X294000Y149500D03*
X304000Y163500D03*
X292500Y160500D03*
X289000D03*
X304000D03*
X303000Y153000D03*
X300500Y156500D03*
X305000Y177500D03*
Y187500D03*
X297000Y186500D03*
X294000D03*
X288000Y192000D03*
X292500D03*
X305000Y181500D03*
X301120Y209360D03*
X303680D03*
X304000Y206500D03*
X292500Y195500D03*
X301900Y198750D03*
X308000Y198500D03*
X297000Y199000D03*
X296000Y209300D03*
X300060Y244600D03*
X303500D03*
X298750Y257250D03*
X306500Y244600D03*
X296500Y245500D03*
X288500Y254500D03*
X307000Y257500D03*
X294000Y245500D03*
X289000Y250500D03*
X302500Y270500D03*
X307500D03*
X295000Y270000D03*
X305000Y280000D03*
X300000D03*
X295000D03*
X315000Y148000D03*
X309000D03*
Y173000D03*
X315000Y153000D03*
X309000D03*
X314000Y187500D03*
X310000D03*
X312000Y186000D03*
X316500Y183500D03*
X314250Y208500D03*
X309500Y200500D03*
X312250Y220000D03*
X313500Y257500D03*
X316500D03*
X309750Y244500D03*
X312500Y278500D03*
X309000Y287000D03*
X312500Y291500D03*
G54D32*
X100950Y275800D03*
X154050D03*
G54D60*
X314489Y191168D03*
Y247832D03*
G54D51*
X267000Y96500D03*
X293500D03*
G54D24*
X65000Y62500D03*
X70000Y67500D03*
X65000Y72500D03*
X75000Y62500D03*
Y72500D03*
X125000Y42500D03*
X120000D03*
X135000D03*
X130000D03*
X120000Y37500D03*
X125000D03*
X130000D03*
X135000D03*
X125000Y32500D03*
X120000D03*
X135000D03*
X130000D03*
X120000Y27500D03*
X125000D03*
X130000D03*
X135000D03*
X120000Y52500D03*
X125000D03*
X130000D03*
X135000D03*
X120000Y47500D03*
X125000D03*
X130000D03*
X135000D03*
X145000Y42500D03*
X140000D03*
Y37500D03*
X145000D03*
Y32500D03*
X140000D03*
Y27500D03*
X145000D03*
X140000Y52500D03*
X145000D03*
X140000Y47500D03*
X145000D03*
G54D15*
X2000Y176500D03*
Y181500D03*
X-3000D03*
Y176500D03*
X2000Y186500D03*
X-3000D03*
X2000Y191500D03*
X-3000D03*
Y216500D03*
X2000D03*
X-3000Y211500D03*
X2000D03*
Y196500D03*
X-3000D03*
X2000Y201500D03*
X-3000D03*
X2000Y206500D03*
X-3000D03*
Y221500D03*
X2000D03*
X19500Y176500D03*
Y181500D03*
X14500D03*
Y176500D03*
X19500Y186500D03*
X14500D03*
X19500Y191500D03*
X14500D03*
Y216500D03*
X19500D03*
X14500Y211500D03*
X19500D03*
Y196500D03*
X14500D03*
X19500Y201500D03*
X14500D03*
X19500Y206500D03*
X14500D03*
Y221500D03*
X19500D03*
X190500Y24000D03*
X185500D03*
Y39000D03*
X190500D03*
X185500Y44000D03*
X190500D03*
Y34000D03*
X185500D03*
X190500Y29000D03*
X185500D03*
Y49000D03*
X190500D03*
X185500Y54000D03*
X190500D03*
X185500Y59000D03*
X190500D03*
X185500Y64000D03*
X190500D03*
X185500Y69000D03*
X190500D03*
X207500Y-15000D03*
X217500Y230000D03*
Y225000D03*
X222500D03*
Y230000D03*
X252500Y-15000D03*
G54D33*
X127500Y279000D03*
G54D42*
X222500Y81200D03*
Y68800D03*
X267500Y81200D03*
Y68800D03*
G54D70*
G01X18000Y-172000D02*
X55500Y-209500D01*
X93000Y-172000D01*
G01X18000D02*
X93000D01*
G01X55500Y-134500D02*
X18000Y-172000D01*
G01X43770Y-196630D02*
G03X44234Y-197771I1635J0D01*
G01X43800Y-180430D02*
Y-196630D01*
G01Y-196375D02*
Y-180430D01*
G01X44250Y-197755D02*
X47925Y-201475D01*
G01X47911Y-201489D02*
G03X50325Y-202480I2414J2445D01*
G01X61125Y-197755D02*
X50805D01*
X48480Y-195430D01*
Y-177130D01*
X47055D01*
X43800Y-180430D01*
G01D02*
X47055Y-177130D01*
X48480D01*
Y-195430D01*
X50805Y-197755D01*
X61125D01*
G01X55500Y-183250D02*
X44250Y-172000D01*
G01X55500Y-194500D02*
X48480Y-187450D01*
G01X43305Y-182305D02*
X33000Y-172000D01*
G01X44250D02*
X55500Y-160750D01*
G01X33000Y-172000D02*
X46425Y-158575D01*
G01X43770Y-155380D02*
G03X44234Y-156521I1635J0D01*
G01X43770Y-155380D02*
G03X44234Y-156521I1635J0D01*
G01X49816Y-162114D02*
G03X52230Y-163105I2414J2445D01*
G01X49816Y-162114D02*
G03X52230Y-163105I2414J2445D01*
G01X44250Y-156505D02*
X49830Y-162100D01*
G01X44250Y-156505D02*
X49830Y-162100D01*
G01X52680Y-158380D02*
X48480Y-154180D01*
Y-148555D01*
X52680Y-144325D01*
X59700D01*
G01X43800Y-148075D02*
Y-155380D01*
G01X52680Y-158380D02*
X48480Y-154180D01*
Y-148555D01*
X52680Y-144325D01*
X59700D01*
G01X43800Y-148075D02*
Y-155380D01*
G01X49725Y-155275D02*
X55500Y-149500D01*
G01X49875Y-140575D02*
X44775Y-145675D01*
G01X44761Y-145661D02*
G03X43770Y-148075I2445J-2414D01*
G01X49875Y-140575D02*
X44775Y-145675D01*
G01X44761Y-145661D02*
G03X43770Y-148075I2445J-2414D01*
G01X52125Y-139675D02*
G03X49891Y-140591I-1J-3180D01*
G01X52125Y-139675D02*
G03X49891Y-140591I-1J-3180D01*
G01X50325Y-202450D02*
X61125D01*
G01D02*
X50250D01*
G01X61125Y-202480D02*
G03X63480Y-200125I0J2355D01*
G01D02*
G03X61125Y-197770I-2355J0D01*
G01X55500Y-197755D02*
Y-163555D01*
G01Y-194500D02*
X78000Y-172000D01*
G01X55500Y-209500D02*
Y-202450D01*
G01X66750Y-172000D02*
X55500Y-183250D01*
G01Y-160750D02*
X66750Y-172000D01*
G01X52230Y-163075D02*
X59700D01*
G01X52230D02*
X59700D01*
G01D02*
X57375D01*
G01X59700Y-163105D02*
G03X62055Y-160750I0J2355D01*
G01X59700Y-163105D02*
G03X62055Y-160750I0J2355D01*
G01X59700Y-158380D02*
X52680D01*
G01X62055Y-160750D02*
G03X59700Y-158395I-2355J0D01*
G01Y-158380D02*
X52680D01*
G01X56925D02*
X59700D01*
G01X62055Y-160750D02*
G03X59700Y-158395I-2355J0D01*
G01X55500Y-158380D02*
Y-144325D01*
G01X93000Y-172000D02*
X55500Y-134500D01*
G01X78000Y-172000D02*
X55500Y-149500D01*
G01X59700Y-144355D02*
G03X62055Y-142000I0J2355D01*
G01D02*
G03X59700Y-139645I-2355J0D01*
G01Y-139630D02*
X52125D01*
G01X59700D02*
X52125D01*
G01X55500D02*
Y-134500D01*
G01X112825Y-180767D02*
X113558Y-181225D01*
X114383Y-181500D01*
X115117D01*
X115850Y-181225D01*
X116400Y-180767D01*
X116675Y-180125D01*
X116492Y-179483D01*
X116033Y-178933D01*
X115208Y-178567D01*
X114108Y-178383D01*
X113467Y-178017D01*
X113192Y-177375D01*
X113375Y-176733D01*
X113833Y-176275D01*
X114475Y-176000D01*
X115117D01*
X115758Y-176183D01*
X116308Y-176642D01*
G01X121050Y-181500D02*
X120317Y-181408D01*
X119675Y-181042D01*
X119125Y-180492D01*
X118758Y-179850D01*
X118575Y-179117D01*
Y-178383D01*
X118758Y-177650D01*
X119125Y-177008D01*
X119675Y-176458D01*
X120317Y-176092D01*
X121050Y-176000D01*
X121783Y-176092D01*
X122425Y-176458D01*
X122975Y-177008D01*
X123342Y-177650D01*
X123525Y-178383D01*
Y-179117D01*
X123342Y-179850D01*
X122975Y-180492D01*
X122425Y-181042D01*
X121783Y-181408D01*
X121050Y-181500D01*
G01X125517Y-176000D02*
Y-181500D01*
X129183D01*
G01X131633D02*
Y-176000D01*
X133467D01*
X134200Y-176275D01*
X134750Y-176642D01*
X135208Y-177192D01*
X135575Y-177833D01*
X135667Y-178750D01*
X135575Y-179667D01*
X135208Y-180308D01*
X134750Y-180858D01*
X134200Y-181225D01*
X133467Y-181500D01*
X131633D01*
G01X141783D02*
X138117D01*
Y-176000D01*
X141783D01*
G01X140317Y-178658D02*
X138117D01*
G01X144417Y-181500D02*
Y-176000D01*
X146708D01*
X147442Y-176275D01*
X147900Y-176642D01*
X148083Y-177375D01*
X147900Y-178108D01*
X147350Y-178567D01*
X146708Y-178842D01*
X144417D01*
G01X146708D02*
X148083Y-181500D01*
G01X108417Y-164000D02*
Y-169500D01*
X112083D01*
G01X114258D02*
X116550Y-164000D01*
X118842Y-169500D01*
G01X118017Y-167575D02*
X115083D01*
G01X122850Y-169500D02*
Y-167025D01*
X121017Y-164000D01*
G01X124683D02*
X122850Y-167025D01*
G01X130983Y-169500D02*
X127317D01*
Y-164000D01*
X130983D01*
G01X129517Y-166658D02*
X127317D01*
G01X133617Y-169500D02*
Y-164000D01*
X135908D01*
X136642Y-164275D01*
X137100Y-164642D01*
X137283Y-165375D01*
X137100Y-166108D01*
X136550Y-166567D01*
X135908Y-166842D01*
X133617D01*
G01X135908D02*
X137283Y-169500D01*
G01X146308Y-167208D02*
X146950Y-166567D01*
X147500Y-166200D01*
X148233Y-166017D01*
X148875Y-166200D01*
X149333Y-166567D01*
X149700Y-167117D01*
X149792Y-167758D01*
X149700Y-168308D01*
X149333Y-168858D01*
X148783Y-169317D01*
X148142Y-169500D01*
X147408Y-169317D01*
X146767Y-168767D01*
X146400Y-167942D01*
X146308Y-167025D01*
X146492Y-165833D01*
X146767Y-165192D01*
X147225Y-164550D01*
X147867Y-164092D01*
X148508Y-164000D01*
X149150Y-164183D01*
X149608Y-164642D01*
G01X177100Y290745D02*
X176800Y290470D01*
X176450Y290305D01*
X176000Y290250D01*
X175550Y290360D01*
X175200Y290580D01*
X174950Y290965D01*
X174900Y291405D01*
X175000Y291845D01*
X175250Y292120D01*
X175600Y292340D01*
X175950Y292395D01*
X176300Y292340D01*
X176750Y292120D01*
X176600Y293550D01*
X175250D01*
G01X172200D02*
X172600Y293440D01*
X172900Y293165D01*
X173100Y292835D01*
X173250Y292395D01*
X173300Y291900D01*
X173250Y291405D01*
X173100Y290965D01*
X172900Y290635D01*
X172600Y290360D01*
X172200Y290250D01*
X171800Y290360D01*
X171500Y290635D01*
X171300Y290965D01*
X171150Y291405D01*
X171100Y291900D01*
X171150Y292395D01*
X171300Y292835D01*
X171500Y293165D01*
X171800Y293440D01*
X172200Y293550D01*
G01X168400D02*
X168800Y293440D01*
X169100Y293165D01*
X169300Y292835D01*
X169450Y292395D01*
X169500Y291900D01*
X169450Y291405D01*
X169300Y290965D01*
X169100Y290635D01*
X168800Y290360D01*
X168400Y290250D01*
X168000Y290360D01*
X167700Y290635D01*
X167500Y290965D01*
X167350Y291405D01*
X167300Y291900D01*
X167350Y292395D01*
X167500Y292835D01*
X167700Y293165D01*
X168000Y293440D01*
X168400Y293550D01*
G01X165250Y291350D02*
X163950D01*
G01X161900Y290745D02*
X161600Y290470D01*
X161250Y290305D01*
X160800Y290250D01*
X160350Y290360D01*
X160000Y290580D01*
X159750Y290965D01*
X159700Y291405D01*
X159800Y291845D01*
X160050Y292120D01*
X160400Y292340D01*
X160750Y292395D01*
X161100Y292340D01*
X161550Y292120D01*
X161400Y293550D01*
X160050D01*
G01X157000D02*
X157400Y293440D01*
X157700Y293165D01*
X157900Y292835D01*
X158050Y292395D01*
X158100Y291900D01*
X158050Y291405D01*
X157900Y290965D01*
X157700Y290635D01*
X157400Y290360D01*
X157000Y290250D01*
X156600Y290360D01*
X156300Y290635D01*
X156100Y290965D01*
X155950Y291405D01*
X155900Y291900D01*
X155950Y292395D01*
X156100Y292835D01*
X156300Y293165D01*
X156600Y293440D01*
X157000Y293550D01*
G01X153200Y290250D02*
Y293550D01*
X153800Y292890D01*
G01Y290250D02*
X152600D01*
G01X149400Y293550D02*
X149800Y293440D01*
X150100Y293165D01*
X150300Y292835D01*
X150450Y292395D01*
X150500Y291900D01*
X150450Y291405D01*
X150300Y290965D01*
X150100Y290635D01*
X149800Y290360D01*
X149400Y290250D01*
X149000Y290360D01*
X148700Y290635D01*
X148500Y290965D01*
X148350Y291405D01*
X148300Y291900D01*
X148350Y292395D01*
X148500Y292835D01*
X148700Y293165D01*
X149000Y293440D01*
X149400Y293550D01*
G01X146250Y291350D02*
X144950D01*
G01X141800Y293550D02*
X142200Y293440D01*
X142500Y293165D01*
X142700Y292835D01*
X142850Y292395D01*
X142900Y291900D01*
X142850Y291405D01*
X142700Y290965D01*
X142500Y290635D01*
X142200Y290360D01*
X141800Y290250D01*
X141400Y290360D01*
X141100Y290635D01*
X140900Y290965D01*
X140750Y291405D01*
X140700Y291900D01*
X140750Y292395D01*
X140900Y292835D01*
X141100Y293165D01*
X141400Y293440D01*
X141800Y293550D01*
G01X138000D02*
X138400Y293440D01*
X138700Y293165D01*
X138900Y292835D01*
X139050Y292395D01*
X139100Y291900D01*
X139050Y291405D01*
X138900Y290965D01*
X138700Y290635D01*
X138400Y290360D01*
X138000Y290250D01*
X137600Y290360D01*
X137300Y290635D01*
X137100Y290965D01*
X136950Y291405D01*
X136900Y291900D01*
X136950Y292395D01*
X137100Y292835D01*
X137300Y293165D01*
X137600Y293440D01*
X138000Y293550D01*
G01X134200Y290250D02*
Y293550D01*
X134800Y292890D01*
G01Y290250D02*
X133600D01*
G01X127600D02*
Y293550D01*
X126350D01*
X125950Y293385D01*
X125700Y293165D01*
X125600Y292725D01*
X125700Y292285D01*
X126000Y292010D01*
X126350Y291845D01*
X127600D01*
G01X126350D02*
X125600Y290250D01*
G01X121800D02*
X123800D01*
Y293550D01*
X121800D01*
G01X122600Y291955D02*
X123800D01*
G01X120250Y293550D02*
X119000Y290250D01*
X117750Y293550D01*
G01X110300Y293275D02*
X110600Y293440D01*
X110950Y293550D01*
X111350D01*
X111800Y293385D01*
X112150Y293110D01*
X112400Y292780D01*
X112600Y292230D01*
X112650Y291735D01*
X112550Y291240D01*
X112400Y290910D01*
X112100Y290580D01*
X111750Y290360D01*
X111400Y290250D01*
X111050D01*
X110700Y290360D01*
X110400Y290525D01*
X110150Y290745D01*
G01X107600Y290250D02*
Y293550D01*
X108200Y292890D01*
G01Y290250D02*
X107000D01*
G54D61*
G01X113000Y35000D02*
X110952Y37048D01*
X108000D01*
G01X127500Y152700D02*
Y151700D01*
X128700Y150500D01*
X130000D01*
G01X137420Y64500D02*
Y59080D01*
X137500Y59000D01*
G01X141500Y118500D02*
Y130500D01*
X139250Y132750D01*
G01X155000Y139000D02*
X156000Y138000D01*
X158495D01*
G01X183500Y195500D02*
X181250Y193250D01*
Y178750D01*
X184250Y175750D01*
Y161750D01*
X185500Y160500D01*
Y157000D01*
X183000Y154500D01*
X179000D01*
X176950Y152450D01*
X168700D01*
X166000Y149750D01*
X155000D01*
X153500Y148250D01*
Y147250D01*
G01X148150Y140500D02*
X150750D01*
X152000Y141750D01*
Y145750D01*
X153500Y147250D01*
G01X137586Y157914D02*
X139900Y159900D01*
G01X140414Y155086D02*
Y156499D01*
X140562Y156647D01*
Y156812D01*
X142750Y159000D01*
Y160096D01*
X144703Y162049D01*
X145600D01*
G01X161750Y140250D02*
X159500D01*
X158495Y139245D01*
Y138000D01*
G01X170000Y230400D02*
X172600D01*
X178500Y224500D01*
X207500D01*
X216500Y215500D01*
X231500D01*
X235900Y211100D01*
Y183100D01*
X241000Y178000D01*
X247500D01*
X250000Y175500D01*
Y165500D01*
X245000Y160500D01*
Y158000D01*
G01X173000Y257500D02*
Y263500D01*
G01X169000Y257500D02*
X167000Y259500D01*
Y262300D01*
G01X173000Y253500D02*
Y244600D01*
X170000D01*
G01X167000Y262300D02*
X168200Y263500D01*
X173000D01*
G01X248000Y160000D02*
X252500Y164500D01*
Y176500D01*
X248500Y180500D01*
X242000D01*
X238500Y184000D01*
Y212500D01*
X232500Y218500D01*
X218000D01*
X209000Y227500D01*
X202900D01*
X200000Y230400D01*
G01X198000Y263500D02*
Y257500D01*
G01Y253500D02*
Y244600D01*
X200000D01*
G01X198000Y263500D02*
X202800D01*
X204000Y262300D01*
G01X203000Y258000D02*
Y261300D01*
X204000Y262300D01*
G01X228500Y263500D02*
Y257500D01*
G01X224000Y258000D02*
Y260800D01*
X222500Y262300D01*
G01X228500Y263500D02*
X223700D01*
X222500Y262300D01*
G01X252500Y263500D02*
Y257500D01*
G01X258000Y258000D02*
Y261800D01*
X258500Y262300D01*
G01X252500Y263500D02*
X257300D01*
X258500Y262300D01*
G01X270700Y96500D02*
X273500D01*
G01X297200D02*
X300000D01*
G01X289800Y98468D02*
X287000D01*
G54D43*
X209750Y110500D03*
X210750Y182500D03*
G54D25*
X55340Y170700D03*
Y164300D03*
X69660D03*
Y170700D03*
G54D34*
X141500Y118500D03*
X150500Y117000D03*
X170500Y160000D03*
X199500Y147000D03*
X201000Y143250D03*
X202801Y146251D03*
X222500Y173000D03*
X207000Y164000D03*
X212251Y163751D03*
X206742Y155510D03*
X224750Y129000D03*
X230500D03*
X235500Y150250D03*
X236500Y143500D03*
X232000Y133000D03*
X236600Y162600D03*
G54D16*
G01X20410Y-15970D02*
X72150D01*
G01D02*
Y6430D01*
G01Y-15970D02*
X107910D01*
G01Y6430D02*
Y-15970D01*
G01D02*
X159650D01*
G01Y6430D02*
Y-15970D01*
G01X199500Y-3000D02*
X194000Y2500D01*
X177000D01*
G01D02*
X171000D01*
G01D02*
X167070Y6430D01*
X159650D01*
G01X199500Y-3000D02*
X260500D01*
G01D02*
X277000D01*
X280000Y0D01*
G01X308200Y-27200D02*
X299999Y-18999D01*
Y-11600D01*
X294000Y-5601D01*
X285601D01*
X280000Y0D01*
G01X308200Y71200D02*
X315000Y64400D01*
Y-20400D01*
X308200Y-27200D01*
G01X315000Y148000D02*
Y78000D01*
X308200Y71200D01*
G01X315000Y148000D02*
Y153000D01*
X-3500Y236000D03*
X500D03*
X23000Y87500D03*
Y83500D03*
X28500Y102000D03*
X24500D03*
X22000Y92500D03*
X18000D03*
X27000Y135000D03*
X23000D03*
Y144000D03*
Y140000D03*
X19500Y242000D03*
Y238000D03*
X51250Y135500D03*
Y139500D03*
X51500Y186000D03*
X45500Y215500D03*
X42500Y196000D03*
Y200000D03*
X42000Y207000D03*
Y211000D03*
X45500Y219500D03*
Y224500D03*
X41500D03*
X62500Y16000D03*
Y20000D03*
X70500Y27000D03*
Y31000D03*
X61500Y27000D03*
X65500D03*
X57500Y123500D03*
X61500D03*
X64750Y118500D03*
X60750D03*
X63500Y148250D03*
X59500D03*
X55500Y186000D03*
X52500Y195000D03*
X60000D03*
X67500D03*
Y210000D03*
X60000D03*
X52500D03*
Y202500D03*
X67500D03*
X60000D03*
X60500Y229000D03*
Y233000D03*
X67500Y225000D03*
X60000D03*
X52500D03*
Y217500D03*
X60000D03*
X67500D03*
X64500Y245500D03*
Y249500D03*
X84500Y39000D03*
Y35000D03*
X80000D03*
Y31000D03*
X75500D03*
Y35000D03*
X94500Y65000D03*
X90500D03*
X78500Y83500D03*
X74500D03*
X94500Y72500D03*
X90500D03*
X78500D03*
X82500D03*
X91414Y93586D03*
X88586Y96414D03*
X76500Y107000D03*
X80500D03*
X86250Y111250D03*
Y115250D03*
X90000Y141000D03*
Y137000D03*
X82500Y157000D03*
Y153000D03*
X77500Y157000D03*
Y153000D03*
X95000D03*
Y157000D03*
X89500Y195000D03*
X93500D03*
X75000D03*
X82500D03*
Y210000D03*
X75000D03*
Y202500D03*
X82500D03*
X81500Y229500D03*
Y233500D03*
X82500Y225000D03*
X75000D03*
Y217500D03*
X82500D03*
X74500Y245500D03*
Y249500D03*
X105500Y39000D03*
X101500D03*
X104500Y31500D03*
X100500D03*
X113000Y30500D03*
Y45000D03*
Y35000D03*
Y25500D03*
X96086Y88914D03*
X98914Y86086D03*
X113914Y96414D03*
X111086Y93586D03*
X95500Y127500D03*
X99500D03*
X114514Y127086D03*
X111686Y129914D03*
X97500Y146500D03*
X101500D03*
X115750Y146300D03*
Y150300D03*
X107500Y141500D03*
Y145500D03*
Y133500D03*
Y137500D03*
Y149500D03*
X113500Y134500D03*
Y138750D03*
Y142800D03*
Y157750D03*
X114800Y169200D03*
X113700Y161500D03*
Y165500D03*
X113500Y153750D03*
X107500Y153500D03*
X123500Y20500D03*
X117000Y30500D03*
X123500Y24500D03*
X117000Y45000D03*
Y35000D03*
Y25500D03*
X122500Y59000D03*
Y55000D03*
X137500D03*
Y59000D03*
X132500Y55000D03*
Y59000D03*
X129000Y87500D03*
X118000Y107000D03*
Y103000D03*
X129000Y91500D03*
X134500Y93500D03*
Y89500D03*
X136000Y98000D03*
Y102000D03*
X119500Y125200D03*
Y129200D03*
X133000Y115500D03*
Y111500D03*
X131250Y126500D03*
X135250D03*
X127500Y128000D03*
Y124000D03*
X137500Y115500D03*
Y111500D03*
X123500Y130000D03*
Y126000D03*
Y143000D03*
Y147000D03*
X125914Y139664D03*
X123086Y136836D03*
X127250Y148000D03*
X131250D03*
X130000Y139750D03*
Y135750D03*
X133500Y140750D03*
Y144750D03*
X117500Y134500D03*
Y138750D03*
X137400Y140800D03*
Y136800D03*
X137500Y148500D03*
X117500Y142800D03*
X127500Y152700D03*
X131500D03*
X125000Y156000D03*
Y160000D03*
X133000Y157500D03*
X129000D03*
X117500Y157750D03*
X129750Y169000D03*
Y165000D03*
X118800Y169200D03*
X136914Y167664D03*
X134086Y164836D03*
X117700Y161500D03*
Y165500D03*
X125750D03*
X121750D03*
X137586Y157914D03*
X134200Y173500D03*
X117500Y153750D03*
X137500Y152500D03*
X123500Y174000D03*
X127500D03*
X152500Y19500D03*
X156500D03*
X150000Y14500D03*
Y10500D03*
X145000Y14500D03*
Y10500D03*
X140000Y14500D03*
Y10500D03*
X152000Y57500D03*
X148000D03*
X142500Y55000D03*
Y59000D03*
X158500Y65000D03*
Y69000D03*
Y108000D03*
X146500Y91000D03*
X142500D03*
X141000Y98000D03*
Y102000D03*
X146000Y98000D03*
Y102000D03*
X151000Y98000D03*
Y102000D03*
X138000Y107000D03*
X142000D03*
X156000Y98000D03*
Y102000D03*
X158500Y112000D03*
X144000Y130500D03*
Y126500D03*
X148000Y130500D03*
Y126500D03*
X154700Y116800D03*
X158700D03*
X148000Y115500D03*
X144000D03*
X148000Y111500D03*
X144000D03*
X152000Y126100D03*
Y122100D03*
X139000Y125000D03*
Y129000D03*
X141936Y144736D03*
X144764Y147564D03*
X144500Y151500D03*
X141250Y140000D03*
X145250D03*
X159000Y134000D03*
X151750Y152250D03*
X155750D03*
X141400Y136200D03*
X145400D03*
X157500Y147250D03*
X153500D03*
X155000Y143000D03*
Y139000D03*
X157750Y164000D03*
Y168000D03*
X140000Y165000D03*
X144000D03*
X140414Y155086D03*
X144500Y155500D03*
X138200Y173500D03*
X149000Y165000D03*
Y169000D03*
X153000Y162000D03*
Y166000D03*
X155750Y156250D03*
X151750D03*
X147500Y188000D03*
Y192000D03*
Y174000D03*
X143500D03*
X162000Y42500D03*
Y46500D03*
X161000Y98000D03*
Y102000D03*
X177500Y104000D03*
X173500D03*
X179500Y115500D03*
X175500D03*
X171500Y125750D03*
X175500D03*
X163500Y123450D03*
Y119450D03*
X162250Y127350D03*
X166250D03*
X169500Y132000D03*
Y136000D03*
Y149000D03*
Y145000D03*
X174500Y134000D03*
Y138000D03*
Y147000D03*
Y143000D03*
X161750Y140250D03*
Y144250D03*
X159750Y152250D03*
X163000Y134000D03*
X159750Y156250D03*
X167500Y157000D03*
X171500D03*
X165500Y163700D03*
X169500D03*
X178500Y215000D03*
X174500D03*
X169000Y218750D03*
X165000D03*
X173000Y257500D03*
Y253500D03*
Y267500D03*
Y263500D03*
X182500Y101000D03*
Y105000D03*
X189500Y130000D03*
X193500D03*
X190500Y139000D03*
Y143000D03*
X189500Y134500D03*
X193500D03*
X192500Y166000D03*
X188500D03*
Y172000D03*
X192500D03*
X188500Y157000D03*
X192500D03*
X188500Y161500D03*
X192500D03*
X200800Y161600D03*
X196800D03*
X202000Y194000D03*
X198000D03*
X187500Y215000D03*
X183500D03*
X198000Y257500D03*
Y253500D03*
Y267500D03*
Y263500D03*
X218000Y3500D03*
X214000D03*
X222500D03*
X208000Y22500D03*
Y14500D03*
Y18500D03*
X218500Y45000D03*
X214500D03*
X208000Y26500D03*
X222000Y111500D03*
X218000D03*
X222000Y125000D03*
Y129000D03*
X209000Y149500D03*
X219500Y138500D03*
X205000Y162000D03*
Y158000D03*
X209000Y153500D03*
X217000Y170500D03*
Y166500D03*
X222000Y168500D03*
Y164500D03*
X202500Y204500D03*
Y200500D03*
X226500Y3500D03*
X234500Y38000D03*
Y34000D03*
Y26000D03*
Y30000D03*
X232500Y74500D03*
Y70500D03*
X237500Y74500D03*
Y70500D03*
X226500Y111500D03*
X230500D03*
X227500Y125000D03*
Y129000D03*
X243000Y147500D03*
X227500Y138500D03*
Y142500D03*
X223500Y138500D03*
X243000Y152000D03*
X239500Y167500D03*
X235500D03*
X231000Y171500D03*
Y167500D03*
X239500Y162500D03*
X243500D03*
X244500Y170500D03*
X229500Y161000D03*
X233500D03*
X226500Y174500D03*
Y178500D03*
X224000Y190500D03*
Y186500D03*
X244500Y174500D03*
X228500Y257500D03*
Y253500D03*
Y267500D03*
Y263500D03*
X258500Y36000D03*
Y40000D03*
X257500Y74500D03*
Y70500D03*
X252500Y74500D03*
Y70500D03*
X263000Y106000D03*
X259000D03*
X247000Y147500D03*
X253000D03*
Y143500D03*
X247000Y152000D03*
X246000Y210000D03*
Y206000D03*
X252500Y257500D03*
Y253500D03*
Y267500D03*
Y263500D03*
X277500Y32000D03*
Y28000D03*
X282500Y32000D03*
Y28000D03*
X287500Y32000D03*
Y28000D03*
X268500Y33000D03*
X272500D03*
X282500Y52000D03*
Y56000D03*
X277500Y52000D03*
Y56000D03*
X285000Y78000D03*
Y82000D03*
X280000D03*
Y78000D03*
X285500Y67500D03*
X270000Y143000D03*
Y147000D03*
X287000Y186500D03*
X267500Y181000D03*
Y185000D03*
X290000Y82000D03*
Y78000D03*
X289500Y67500D03*
X296500Y147500D03*
Y151500D03*
X302000Y184500D03*
Y180500D03*
X291000Y186500D03*
X308000Y184500D03*
Y180500D03*
X290000Y222000D03*
X305000D03*
X290000Y232000D03*
X297500Y222000D03*
Y232000D03*
X305000D03*
X300000Y273000D03*
Y277000D03*
X295000Y273000D03*
Y277000D03*
X305000Y273000D03*
Y277000D03*
X312500Y283000D03*
Y287000D03*
G54D52*
X275000Y119500D03*
G54D71*
G01X116000Y116500D02*
Y115000D01*
X111250Y110250D01*
X102554D01*
X101804Y111000D01*
X99000D01*
X91500Y103500D01*
X85500D01*
X75000Y93000D01*
X31500D01*
X27400Y97100D01*
X18100D01*
X14000Y93000D01*
X-1750D01*
G01X2500Y107500D02*
X8250Y101750D01*
X16550D01*
X19900Y98400D01*
X28450D01*
X32500Y94350D01*
X74350D01*
X85000Y105000D01*
X91250D01*
X98500Y112250D01*
X102250D01*
X103000Y111500D01*
X110250D01*
X114250Y115500D01*
Y118250D01*
G01X112500Y116500D02*
Y116000D01*
X109321Y112821D01*
X103429D01*
X102750Y113500D01*
X98020D01*
X91020Y106500D01*
X84500D01*
X77350Y99350D01*
X37400D01*
X35100Y101650D01*
X32150D01*
X30200Y99700D01*
X20950D01*
X17150Y103500D01*
X10250D01*
X7500Y106250D01*
Y108750D01*
X5000Y111250D01*
X0D01*
X-1750Y109500D01*
Y102750D01*
X2500Y98500D01*
G01D02*
Y97500D01*
G01X92500Y127600D02*
X89601Y130499D01*
X87162D01*
X87161Y130500D01*
X87000D01*
X83450Y134050D01*
Y141461D01*
X81011Y143900D01*
X78650D01*
X76750Y142000D01*
X70750D01*
X66750Y138000D01*
X66000D01*
X62125Y134125D01*
Y133375D01*
X59500Y130750D01*
X55500D01*
X51750Y127000D01*
X17500D01*
X14250Y123750D01*
X6250D01*
X2500Y127500D01*
G01X-8500Y115500D02*
X-2500D01*
X-750Y113750D01*
X8500D01*
X9000Y113250D01*
X36250D01*
X37750Y111750D01*
X62500D01*
X64250Y113500D01*
X71500D01*
X84250Y126250D01*
X88219D01*
X95719Y118750D01*
X101150D01*
X101750Y119350D01*
G01X-8500Y119000D02*
X-2250D01*
X0Y121250D01*
X14750D01*
X17750Y118250D01*
X44750D01*
X47750Y115250D01*
X71500D01*
X83750Y127500D01*
X88384D01*
X95384Y120500D01*
X98900D01*
X99500Y121100D01*
G01X-11250Y112000D02*
X-2000D01*
X-1500Y112500D01*
X7000D01*
X7750Y111750D01*
X35250D01*
X37000Y110000D01*
X69750D01*
X84713Y124963D01*
X88091D01*
X98304Y114750D01*
X103250D01*
X104000Y114000D01*
X108250D01*
X110500Y116250D01*
Y118250D01*
G01X96300Y122500D02*
X94799D01*
X88549Y128750D01*
X86750D01*
X82150Y133350D01*
Y139650D01*
X81250Y140550D01*
X71550D01*
X67500Y136500D01*
X66500D01*
X64000Y134000D01*
Y133000D01*
X60125Y129125D01*
X56250D01*
X49575Y122450D01*
X-8450D01*
X-8500Y122500D01*
G01X102750Y128000D02*
X98950Y131800D01*
X87700D01*
X84750Y134750D01*
Y142000D01*
X81550Y145200D01*
X77950D01*
X76250Y143500D01*
X72250D01*
X62500Y153250D01*
X58250D01*
X54000Y149000D01*
X52500D01*
X35250Y131750D01*
X-250D01*
X-2000Y130000D01*
X-8500D01*
G01X102750Y134500D02*
X99500D01*
X98850Y133850D01*
X89650D01*
X87250Y136250D01*
Y143000D01*
X82250Y148000D01*
X77250D01*
X76250Y149000D01*
X70750D01*
X64000Y155750D01*
X57250D01*
X53000Y151500D01*
X51000D01*
X39500Y140000D01*
X27000D01*
X24250Y137250D01*
X19250D01*
X14000Y142500D01*
X500D01*
X-1000Y144000D01*
G01X102750Y131250D02*
X101200Y132800D01*
X88700D01*
X86000Y135500D01*
Y142500D01*
X81875Y146625D01*
X76875D01*
X75750Y147750D01*
X70000D01*
X63250Y154500D01*
X57750D01*
X53500Y150250D01*
X51750D01*
X34500Y133000D01*
X-11000D01*
X-11250Y133250D01*
G01X250Y164500D02*
X10750Y175000D01*
Y202750D01*
X14500Y206500D01*
G01X2000Y211500D02*
X4500D01*
X8250Y207750D01*
Y175750D01*
X0Y167500D01*
G01X5500Y245500D02*
Y215000D01*
X2000Y211500D01*
G01X-3000D02*
X-500Y209000D01*
G01X4000D02*
X5500Y207500D01*
Y194000D01*
G01X20000Y95000D02*
X22000Y92500D01*
G01X23000Y87500D02*
X20000Y90000D01*
G01X28500Y102000D02*
Y104000D01*
X29500Y105000D01*
Y108000D01*
G01X23500D02*
X21995Y106495D01*
X20099D01*
G01X31000Y142500D02*
X28500Y145000D01*
Y161000D01*
X19500Y170000D01*
Y176500D01*
G01X11000Y243000D02*
Y210000D01*
X14500Y206500D01*
G01X19500Y201500D02*
X24000D01*
X26000Y203500D01*
G01X19500Y196500D02*
X23000D01*
X28000Y201500D01*
G01X33500Y110000D02*
X31500D01*
X29500Y108000D01*
G01X64548Y238000D02*
X62500D01*
X56500Y244000D01*
X41500D01*
X33200Y235700D01*
Y190800D01*
X40000Y184000D01*
Y178700D01*
X44900Y173800D01*
X47600D01*
X50250Y171150D01*
Y160000D01*
G01X45500Y219500D02*
X39500D01*
G01X75500Y31000D02*
X70500D01*
G01D02*
Y36400D01*
X69400Y37500D01*
G01X61500Y123500D02*
X66250D01*
X72145Y129395D01*
Y135355D01*
G01X64750Y118500D02*
Y120000D01*
X73034Y128284D01*
X79216D01*
G01X63500Y148250D02*
X65074Y146754D01*
Y142426D01*
G01X58003Y135355D02*
X51395D01*
X51250Y135500D01*
G01X75500Y171000D02*
Y173250D01*
X75000Y173750D01*
X73750D01*
X73250Y173250D01*
Y166250D01*
X71300Y164300D01*
X69660D01*
G01X85597Y178403D02*
X83000D01*
X82500Y177903D01*
Y175500D01*
X82000Y175000D01*
X80858D01*
X80358Y175500D01*
Y177000D01*
X79858Y177500D01*
X78858D01*
X78358Y177000D01*
Y175500D01*
X77858Y175000D01*
X76750D01*
X75750Y176000D01*
X72250D01*
X71750Y175500D01*
Y167750D01*
X71250Y167250D01*
X68250D01*
X67400Y166400D01*
Y164300D01*
G01X77500Y173000D02*
Y168500D01*
X70500Y161500D01*
X65940D01*
X65440Y162000D01*
Y164300D01*
G01X79500Y171000D02*
Y168500D01*
X71250Y160250D01*
X65250D01*
X63480Y162020D01*
Y164300D01*
G01X81500Y173000D02*
Y168500D01*
X72000Y159000D01*
X64500D01*
X61520Y161980D01*
Y164300D01*
G01X83500Y171000D02*
Y168585D01*
X72665Y157750D01*
X63750D01*
X59560Y161940D01*
Y164300D01*
G01X61520Y170700D02*
Y173500D01*
G01X67400Y170700D02*
Y176500D01*
G01X63480Y170700D02*
Y176500D01*
G01X65440Y170700D02*
Y173500D01*
G01X69660Y170700D02*
Y173500D01*
G01X59560Y170700D02*
Y176500D01*
G01X64500Y245500D02*
Y242840D01*
X62580Y240920D01*
G01X80000Y35000D02*
X84500D01*
G01X80000D02*
Y38000D01*
G01X75500Y35000D02*
Y38000D01*
G01X80000Y31000D02*
Y28000D01*
G01X75500Y31000D02*
X80000D01*
G01X74500Y83500D02*
Y85410D01*
X72955Y86955D01*
G01X91414Y93586D02*
X93500Y91000D01*
G01X86287Y121213D02*
Y115287D01*
X86250Y115250D01*
G01X80000Y138900D02*
Y133250D01*
X79216Y132466D01*
Y128284D01*
G01X85500Y148500D02*
Y150000D01*
X82500Y153000D01*
G01X90000Y137000D02*
X92750D01*
X94250Y135500D01*
X97500D01*
G01X82500Y157000D02*
Y159000D01*
X90000Y166500D01*
Y175250D01*
X98250Y183500D01*
G01X77500Y153000D02*
X74500D01*
G01X77500Y157000D02*
X88000Y167500D01*
Y176500D01*
X95000Y183500D01*
G01X89500Y195000D02*
Y191500D01*
G01X81500Y182000D02*
X88250D01*
X95500Y189250D01*
Y191000D01*
X99600Y195100D01*
X106800D01*
G01Y192840D02*
X99340D01*
X97000Y190500D01*
Y188750D01*
X88490Y180240D01*
X80084D01*
X78324Y182000D01*
G01X74500Y245500D02*
Y242000D01*
X72500Y240000D01*
G01X100000Y-7000D02*
Y9500D01*
X113000Y22500D01*
G01X98000Y-9000D02*
Y10500D01*
X108000Y20500D01*
Y29176D01*
G01Y34500D02*
X106500D01*
X105500Y35500D01*
Y39000D01*
G01X104500Y31500D02*
X109500D01*
G01X113000Y30500D02*
X109500Y31500D01*
G01X101500Y155000D02*
X102543Y156043D01*
X103292D01*
X103875Y155460D01*
Y144625D01*
X104400Y144100D01*
Y128600D01*
X112250Y120750D01*
X114142D01*
X117758Y117134D01*
Y113250D01*
X112082Y107574D01*
Y101917D01*
X116350Y97649D01*
Y94750D01*
X114500Y92900D01*
Y88500D01*
X108500Y82500D01*
Y73665D01*
X107335Y72500D01*
X106539D01*
X105500Y73539D01*
G01X98914Y86086D02*
X100429Y87601D01*
Y92929D01*
G01X101500Y158000D02*
X102457Y157043D01*
X103707D01*
X104875Y155875D01*
Y145040D01*
X105400Y144515D01*
Y129015D01*
X112665Y121750D01*
X114557D01*
X118758Y117549D01*
Y112835D01*
X113082Y107159D01*
Y102332D01*
X117350Y98064D01*
Y94335D01*
X115500Y92485D01*
Y88085D01*
X109500Y82085D01*
Y73250D01*
X107750Y71500D01*
X106538D01*
X105500Y70462D01*
G01X93500Y91000D02*
X96000Y93000D01*
Y96000D01*
X100429Y100429D01*
Y107071D01*
G01X107500Y100000D02*
X110328D01*
X113914Y96414D01*
G01X99500Y127500D02*
X97500Y125500D01*
G01X99500Y149500D02*
X101500Y146500D01*
G01X95000Y153000D02*
X95500Y149500D01*
G01X197560Y206400D02*
Y209940D01*
X196000Y211500D01*
X190500D01*
X189000Y210000D01*
Y204000D01*
X180500Y195500D01*
X168000D01*
X157800Y185300D01*
X141900D01*
X139900Y187300D01*
X133534D01*
X132184Y188650D01*
X126816D01*
X121666Y183500D01*
X120193D01*
X118296Y185397D01*
X117553D01*
X115900Y187050D01*
X111550D01*
X108500Y184000D01*
X103000D01*
X95000Y176000D01*
Y163200D01*
X98100Y160100D01*
G01X113200Y192840D02*
X116840D01*
X118000Y194000D01*
G01X105500Y187000D02*
X104500Y188000D01*
X102000D01*
X99500Y190500D01*
G01X126500Y207000D02*
X120660Y212840D01*
X113200D01*
G01X139500Y203000D02*
X159000D01*
X159500Y203500D01*
Y213000D01*
X159000Y213500D01*
X131500D01*
X131000Y213000D01*
Y204500D01*
X130500Y204000D01*
X124500D01*
X119800Y208700D01*
X116000D01*
X115500Y208200D01*
Y207660D01*
X115000Y207160D01*
X113200D01*
G01X136500Y199000D02*
Y205000D01*
X137000Y205500D01*
X155000D01*
X155500Y206000D01*
Y211000D01*
X155000Y211500D01*
X137747D01*
X137161Y210914D01*
Y210086D01*
X137747Y209500D01*
X153000D01*
X153500Y209000D01*
Y208000D01*
X153000Y207500D01*
X135747D01*
X135161Y208086D01*
Y210914D01*
X134575Y211500D01*
X133500D01*
X133000Y211000D01*
Y203000D01*
X132500Y202500D01*
X123500D01*
X121100Y204900D01*
X113200D01*
G01X131500Y199000D02*
Y195000D01*
X131000Y194500D01*
X130000D01*
X129500Y195000D01*
Y200000D01*
X129000Y200500D01*
X128000D01*
X127500Y200000D01*
Y195000D01*
X127000Y194500D01*
X126086D01*
X125586Y195000D01*
Y200000D01*
X125086Y200500D01*
X124086D01*
X123586Y200000D01*
Y195000D01*
X123086Y194500D01*
X122000D01*
X121500Y195000D01*
Y202440D01*
X121000Y202940D01*
X113200D01*
G01X134000Y196500D02*
X137000D01*
X141297Y200797D01*
X142003D01*
X142547Y200253D01*
Y199547D01*
X137500Y194500D01*
Y189900D01*
X137000Y189400D01*
X136000D01*
X135500Y189900D01*
Y191000D01*
X135000Y191500D01*
X134000D01*
X133000Y190500D01*
X132000D01*
X131000Y191500D01*
X130000D01*
X129000Y190500D01*
X128000D01*
X127000Y191500D01*
X126000D01*
X125000Y190500D01*
X122500D01*
X119103Y187103D01*
X118397D01*
X117603Y187897D01*
Y188603D01*
X120020Y191020D01*
Y200480D01*
X119520Y200980D01*
X113200D01*
G01X116100Y199400D02*
X115720Y199020D01*
X113200D01*
G01X118000Y197500D02*
X115440D01*
X115000Y197060D01*
X113200D01*
G01Y195100D02*
X115600D01*
X116000Y195500D01*
G01X106800Y199020D02*
X104000D01*
G01X106800Y197060D02*
X101000D01*
G01X106800Y207160D02*
X104000D01*
G01X106800Y200980D02*
X101000D01*
G01X106800Y212840D02*
X101000D01*
G01X106800Y202940D02*
X104000D01*
G01X106800Y204900D02*
X101000D01*
G01X161460Y192000D02*
X166000Y196540D01*
Y213500D01*
X162500Y217000D01*
X155000D01*
X152500Y219500D01*
X133500D01*
X133000Y219000D01*
Y218000D01*
X133500Y217500D01*
X151000D01*
X151500Y217000D01*
Y216000D01*
X151000Y215500D01*
X131500D01*
X131000Y216000D01*
Y221000D01*
X130500Y221500D01*
X129500D01*
X129000Y221000D01*
Y205850D01*
X128500Y205350D01*
X125650D01*
X121000Y210000D01*
X102000D01*
X101500Y209500D01*
Y207500D01*
X101000Y207000D01*
X99500D01*
X99000Y207500D01*
Y209016D01*
G01X113200Y222940D02*
X123940D01*
X124000Y223000D01*
G01X113200Y220980D02*
X121656D01*
X121784Y220852D01*
G01X113200Y219020D02*
X124668D01*
X126500Y220852D01*
G01Y217060D02*
X113200D01*
G01Y215100D02*
X122750D01*
G01X106800Y219020D02*
X104000D01*
G01X106800Y220980D02*
X101000D01*
G01X106800Y222940D02*
X104000D01*
G01X106800Y215100D02*
X104000D01*
G01X106800Y217060D02*
X101000D01*
G01X137500Y226000D02*
Y245000D01*
X128300Y254200D01*
X114100D01*
G01X115000Y-7500D02*
Y15372D01*
X117740Y18112D01*
G01X122500Y59000D02*
X120500D01*
X119000Y60500D01*
Y62000D01*
G01X129000Y91500D02*
X126500D01*
X125500Y90500D01*
G01X119000Y89500D02*
X120835Y91335D01*
Y109335D01*
X122650Y111150D01*
Y119550D01*
X121700Y120500D01*
X118400D01*
X117600Y121300D01*
G01X115000Y103000D02*
X118000D01*
G01X120500Y116700D02*
Y111100D01*
X118000Y108600D01*
Y107000D01*
G01X134500Y89500D02*
X138000D01*
X139500Y91000D01*
G01X148000Y16500D02*
X150000Y14500D01*
G01X143000Y16500D02*
X145000Y14500D01*
G01X152500Y16500D02*
Y19500D01*
G01X140000Y14500D02*
Y17500D01*
X139388Y18112D01*
G01X141000Y102000D02*
X143800Y105000D01*
G01X136000Y102000D02*
X141000D01*
G01X146800Y105000D02*
X146000Y102000D01*
G01X142000Y107000D02*
X144800D01*
X146800Y105000D01*
G01X162500Y69500D02*
Y86500D01*
X158500Y90500D01*
Y104100D01*
X154600Y108000D01*
G01X151000Y102000D02*
X150500Y105000D01*
G01X156000Y102000D02*
X151000D01*
G01X139500Y91000D02*
X142500D01*
G01X168000Y92000D02*
Y106950D01*
X167375Y107575D01*
G01X158500Y108000D02*
X156000Y110500D01*
X154500D01*
G01X147500Y188000D02*
X145500D01*
X144500Y187000D01*
G01X140900Y254200D02*
Y228350D01*
X143250Y226000D01*
G01X177000Y90500D02*
X177025Y90475D01*
Y70025D01*
X177000Y70000D01*
G01X158500Y108000D02*
Y106300D01*
X161000Y103800D01*
Y102000D01*
G01X174750Y119000D02*
X174900Y118850D01*
Y116100D01*
X175500Y115500D01*
G01X169500Y163700D02*
Y161000D01*
X170500Y160000D01*
G01X185500Y9000D02*
Y11000D01*
X193500Y19000D01*
Y36000D01*
X203500Y46000D01*
G01X188500Y9000D02*
Y11500D01*
X195050Y18050D01*
Y33050D01*
X207000Y45000D01*
X214500D01*
G01X181000Y94000D02*
X182650Y95650D01*
Y100850D01*
X182500Y101000D01*
G01X181200Y138200D02*
X181500Y138500D01*
X183250D01*
X185250Y140500D01*
G01X181200Y143500D02*
X183600D01*
X185250Y145150D01*
G01X192500Y166000D02*
X194500D01*
X196500Y168000D01*
G01X190500Y154500D02*
X191400Y153600D01*
X194100D01*
X194700Y154200D01*
X196250D01*
X198450Y156400D01*
X202600D01*
G01X192500Y157000D02*
X195000Y156000D01*
G01X192500Y161500D02*
X193000D01*
X195000Y159500D01*
G01X196800Y161600D02*
X196500Y164300D01*
G01X194500Y175000D02*
X193000Y172500D01*
X192500Y172000D01*
G01X202000Y194000D02*
Y193500D01*
X200000Y191500D01*
G01X192440Y206400D02*
Y208500D01*
X191500Y209440D01*
G01X192440Y198600D02*
Y201440D01*
G01X197560Y198600D02*
Y194440D01*
X198000Y194000D01*
G01X218000Y3500D02*
X222500D01*
G01X218500Y45000D02*
Y39000D01*
G01X216700Y136100D02*
X219159Y138500D01*
X219500D01*
G01X222500Y3500D02*
Y10000D01*
G01X245000Y98000D02*
X240500D01*
X233000Y105500D01*
Y107000D01*
X230500Y109500D01*
Y111500D01*
G01X226500D02*
X225000Y113000D01*
Y118000D01*
G01X238500Y148000D02*
X240500D01*
X241000Y147500D01*
X243000D01*
G01X226500Y174500D02*
Y172070D01*
X227570Y171000D01*
Y169000D01*
G01X228500Y253500D02*
X241000Y241000D01*
Y199000D01*
X245150Y194850D01*
Y186150D01*
X242500Y183500D01*
G01X258500Y40000D02*
Y44000D01*
G01X251500Y39000D02*
X254500Y36000D01*
X258500D01*
G01X244500Y170500D02*
X245500Y167500D01*
G01X247000Y183500D02*
X249050Y185550D01*
Y213500D01*
X250500Y214950D01*
Y251500D01*
X252500Y253500D01*
G01X257500Y187500D02*
X265000D01*
X267500Y185000D01*
G01X261913Y243024D02*
X258024D01*
X256000Y241000D01*
G01X277500Y28000D02*
X282500D01*
G01X288960Y35960D02*
X286960D01*
X285000Y34000D01*
Y28500D01*
X284500Y28000D01*
X282500D01*
G01X272500Y33000D02*
X276160Y35840D01*
G01X279000Y41000D02*
Y33500D01*
X277500Y32000D01*
G01X279000Y41000D02*
Y50500D01*
X277500Y52000D01*
G01X282500Y46000D02*
Y32000D01*
G01Y56000D02*
X277500D01*
G01Y59500D02*
Y56000D01*
G01X282500Y52000D02*
Y46000D01*
G01X273800Y146700D02*
X270300D01*
X270000Y147000D01*
G01Y143000D02*
X274500D01*
G01X283000Y175000D02*
X284500D01*
X286350Y173150D01*
G01X287500Y28000D02*
Y26200D01*
X286400Y25100D01*
G01X302000Y86000D02*
Y92032D01*
X299500Y94532D01*
X297200D01*
G01X296000Y86000D02*
X293500D01*
X292000Y87500D01*
G01X286350Y173150D02*
X291350D01*
X292000Y173800D01*
G01X301241Y190928D02*
X295428D01*
X291000Y186500D01*
G01X292500Y195500D02*
X290250Y193250D01*
Y187250D01*
X291000Y186500D01*
G01X301900Y198750D02*
Y196100D01*
X303997Y194003D01*
Y190928D01*
G01D02*
X303400Y190331D01*
Y188550D01*
X302000Y187150D01*
Y184500D01*
G01X303997Y248072D02*
Y253003D01*
X302500Y254500D01*
Y261100D01*
X303900Y262500D01*
Y269100D01*
X302500Y270500D01*
G01X306753Y248072D02*
Y253297D01*
X305050Y255000D01*
Y259550D01*
X305700Y260200D01*
Y268700D01*
X307500Y270500D01*
G01X301241Y248072D02*
Y251759D01*
X295000Y258000D01*
Y270000D01*
G01X302500Y270500D02*
X300000Y273000D01*
G01X307500Y270500D02*
X305000Y273000D01*
G01X295000D02*
Y270000D01*
G01X308000Y184500D02*
X309000D01*
X310500Y183000D01*
Y174500D01*
X309000Y173000D01*
G01X309509Y190928D02*
X308900Y190319D01*
Y188800D01*
X308000Y187900D01*
Y184500D01*
G01X312500Y283000D02*
Y278500D01*
G54D62*
G01X275000Y108798D02*
Y119500D01*
G01D02*
Y130202D01*
G01X269798Y119500D02*
X275000D01*
G01D02*
X280202D01*
G54D17*
X20410Y-15970D03*
Y6430D03*
X72150Y-15970D03*
Y6430D03*
X107910Y-15970D03*
Y6430D03*
X159650Y-15970D03*
Y6430D03*
G54D35*
X158250Y234050D03*
Y226450D03*
X201500Y22700D03*
Y8700D03*
Y16300D03*
Y30300D03*
X228000Y42800D03*
Y35200D03*
X236000Y118950D03*
Y126550D03*
X258000Y182300D03*
Y174700D03*
G54D26*
X57600Y170700D03*
X59560D03*
X57600Y164300D03*
X59560D03*
X61520Y170700D03*
X63480D03*
X65440D03*
X67400D03*
X61520Y164300D03*
X63480D03*
X65440D03*
X67400D03*
G54D44*
X226300Y52500D03*
X238700D03*
X263700D03*
X251300D03*
G54D53*
X286800Y138000D03*
G54D72*
G01X197000Y13500D02*
X199800Y16300D01*
X201500D01*
G01X197000Y17000D02*
X198500Y18500D01*
Y20500D01*
X200700Y22700D01*
X201500D01*
G01X212500Y10000D02*
X215700D01*
X216200Y10500D01*
Y13700D01*
X214900Y15000D01*
X214020D01*
X211600Y17420D01*
Y18700D01*
X210500Y19800D01*
X209300D01*
X208000Y18500D01*
G01D02*
X206700Y19800D01*
X205000D01*
X201500Y16300D01*
G01X217500Y20000D02*
Y18200D01*
X215700Y16400D01*
X214600D01*
X213000Y18000D01*
Y19280D01*
X211080Y21200D01*
X209300D01*
X208000Y22500D01*
G01D02*
X206700Y21200D01*
X203000D01*
X201500Y22700D01*
G01X242500Y10000D02*
X243200D01*
X246300Y13100D01*
Y13750D01*
X245800Y14250D01*
X244070D01*
X241600Y16720D01*
Y27020D01*
X237320Y31300D01*
X235800D01*
X234500Y30000D01*
G01X227000Y31500D02*
X229300Y27500D01*
G01D02*
X230000Y28200D01*
Y29500D01*
X231800Y31300D01*
X233200D01*
X234500Y30000D01*
G01X228000Y35200D02*
X230500Y32700D01*
X233200D01*
X234500Y34000D01*
G01X228000Y35200D02*
X224000Y33000D01*
G01X247500Y20000D02*
Y16500D01*
X246650Y15650D01*
X244650D01*
X243000Y17300D01*
Y27600D01*
X237900Y32700D01*
X235800D01*
X234500Y34000D01*
G54D63*
G01X24750Y175750D02*
X30500Y181500D01*
Y241500D01*
X35500Y246500D01*
G01X114100Y259998D02*
Y264000D01*
G01D02*
Y268002D01*
G01X110098Y264000D02*
X114100D01*
G01D02*
X118102D01*
G01X123500Y143000D02*
X121000Y142000D01*
G01X154700Y116800D02*
X156500Y115000D01*
Y114000D01*
X158500Y112000D01*
G01X145250Y140000D02*
Y147078D01*
X144764Y147564D01*
G01X140900Y259998D02*
Y264000D01*
G01D02*
Y268002D01*
G01X136898Y264000D02*
X140900D01*
G01D02*
X144902D01*
G01X203583Y-182500D02*
Y-175000D01*
X206292D01*
X207158Y-175375D01*
X207700Y-175875D01*
X207917Y-176875D01*
X207700Y-177875D01*
X207050Y-178500D01*
X206292Y-178875D01*
X203583D01*
G01X206292D02*
X207917Y-182500D01*
G01X215217D02*
X210883D01*
Y-175000D01*
X215217D01*
G01X213483Y-178625D02*
X210883D01*
G01X217642Y-175000D02*
X220350Y-182500D01*
X223058Y-175000D01*
G01X227650Y-182750D02*
X227433Y-182625D01*
Y-182375D01*
X227650Y-182250D01*
X227867Y-182375D01*
Y-182625D01*
X227650Y-182750D01*
G01X244633Y-175625D02*
X243983Y-175250D01*
X243225Y-175000D01*
X242358D01*
X241383Y-175375D01*
X240625Y-176000D01*
X240083Y-176750D01*
X239650Y-178000D01*
X239542Y-179125D01*
X239758Y-180250D01*
X240083Y-181000D01*
X240733Y-181750D01*
X241492Y-182250D01*
X242250Y-182500D01*
X243008D01*
X243767Y-182250D01*
X244417Y-181875D01*
X244958Y-181375D01*
G01X249550Y-182500D02*
Y-175000D01*
X248250Y-176500D01*
G01Y-182500D02*
X250850D01*
G01X206617Y-166000D02*
X207050Y-165625D01*
X207375Y-165000D01*
X207592Y-164125D01*
X207375Y-163375D01*
X206942Y-162875D01*
X206183Y-162500D01*
X203258D01*
Y-170000D01*
X206833D01*
X207592Y-169500D01*
X208025Y-168750D01*
X208242Y-167875D01*
X208025Y-167000D01*
X207375Y-166250D01*
X206617Y-166000D01*
X203258D01*
G01X215217Y-170000D02*
X210883D01*
Y-162500D01*
X215217D01*
G01X213483Y-166125D02*
X210883D01*
G01X217642Y-170000D02*
X220350Y-162500D01*
X223058Y-170000D01*
G01X222083Y-167375D02*
X218617D01*
G01X228300Y-166250D02*
X230467D01*
Y-168500D01*
X229817Y-169250D01*
X229058Y-169750D01*
X227975Y-170000D01*
X226892Y-169750D01*
X226133Y-169250D01*
X225483Y-168500D01*
X225050Y-167625D01*
X224833Y-166625D01*
Y-165750D01*
X225050Y-165000D01*
X225483Y-164125D01*
X226133Y-163375D01*
X226783Y-162875D01*
X227650Y-162500D01*
X228408D01*
X229275Y-162750D01*
X229925Y-163250D01*
G01X232783Y-162500D02*
Y-170000D01*
X237117D01*
G01X244417D02*
X240083D01*
Y-162500D01*
X244417D01*
G01X242683Y-166125D02*
X240083D01*
G01X254575Y-170000D02*
X259125Y-162500D01*
G01X254575D02*
X259125Y-170000D01*
G01X261333D02*
Y-162500D01*
X264150Y-168750D01*
X266967Y-162500D01*
Y-170000D01*
G01X218000Y109048D02*
Y111500D01*
G01D02*
Y113952D01*
G01X215548Y111500D02*
X218000D01*
G01X222000Y129000D02*
X221250D01*
X219650Y127400D01*
Y121600D01*
X222000Y119250D01*
Y115250D01*
G01X224750Y129000D02*
Y121250D01*
X228000Y118000D01*
G01X253000Y141048D02*
Y143500D01*
G01X250548D02*
X253000D01*
G01X270700Y98468D02*
Y100370D01*
G01X268598Y98468D02*
X270700D01*
G01D02*
X272802D01*
G01X297200D02*
Y100370D01*
G01X295098Y98468D02*
X297200D01*
G54D54*
X280750Y175000D03*
G54D45*
X247500Y20000D03*
G54D18*
X32500Y-5300D03*
Y5000D03*
X29400Y19900D03*
Y37500D03*
X50220Y-5300D03*
X42340D03*
Y5000D03*
X50220D03*
X60060Y-5300D03*
Y5000D03*
X69400Y19900D03*
X55000D03*
X69400Y37500D03*
X55000D03*
X95000Y19900D03*
Y37500D03*
X137720Y-5300D03*
X129840D03*
X120000D03*
X129840Y5000D03*
X120000D03*
X137720D03*
X147560Y-5300D03*
Y5000D03*
G54D27*
X85000Y272500D03*
X95000Y292500D03*
X114100Y254200D03*
Y264000D03*
X140900Y254200D03*
Y264000D03*
X212500Y10000D03*
X217500Y20000D03*
X222500Y10000D03*
X242500D03*
X227500Y20000D03*
X232500Y10000D03*
X237500Y20000D03*
G54D36*
X170000Y230400D03*
Y244600D03*
X200000Y230400D03*
Y244600D03*
G54D73*
G01X111333Y-205500D02*
Y-195500D01*
X114667D01*
X116000Y-196000D01*
X117000Y-196667D01*
X117833Y-197667D01*
X118500Y-198834D01*
X118667Y-200500D01*
X118500Y-202167D01*
X117833Y-203333D01*
X117000Y-204334D01*
X116000Y-205000D01*
X114667Y-205500D01*
X111333D01*
G01X121833D02*
X126000Y-195500D01*
X130167Y-205500D01*
G01X128667Y-202000D02*
X123333D01*
G01X137000Y-195500D02*
Y-205500D01*
G01X133167Y-195500D02*
X140833D01*
G01X151333Y-205500D02*
X144667D01*
Y-195500D01*
X151333D01*
G01X148667Y-200333D02*
X144667D01*
G01X159000Y-205833D02*
X158667Y-205667D01*
Y-205333D01*
X159000Y-205167D01*
X159333Y-205333D01*
Y-205667D01*
X159000Y-205833D01*
G01Y-201334D02*
X158667Y-201167D01*
Y-200833D01*
X159000Y-200667D01*
X159333Y-200833D01*
Y-201167D01*
X159000Y-201334D01*
G01X115000Y-140000D02*
Y-150000D01*
G01X111167Y-140000D02*
X118833D01*
G01X129333Y-150000D02*
X122667D01*
Y-140000D01*
X129333D01*
G01X126667Y-144833D02*
X122667D01*
G01X133500Y-150000D02*
X140500Y-140000D01*
G01X133500D02*
X140500Y-150000D01*
G01X143833D02*
X148000Y-140000D01*
X152167Y-150000D01*
G01X150667Y-146500D02*
X145333D01*
G01X155500Y-148667D02*
X156833Y-149500D01*
X158333Y-150000D01*
X159667D01*
X161000Y-149500D01*
X162000Y-148667D01*
X162500Y-147500D01*
X162167Y-146334D01*
X161333Y-145333D01*
X159833Y-144667D01*
X157833Y-144333D01*
X156667Y-143667D01*
X156167Y-142500D01*
X156500Y-141333D01*
X157333Y-140500D01*
X158500Y-140000D01*
X159667D01*
X160833Y-140333D01*
X161833Y-141167D01*
G01X179000Y-140000D02*
X183000D01*
G01X181000D02*
Y-150000D01*
G01X179000D02*
X183000D01*
G01X188167D02*
Y-140000D01*
X195833Y-150000D01*
Y-140000D01*
G01X199500Y-148667D02*
X200833Y-149500D01*
X202333Y-150000D01*
X203667D01*
X205000Y-149500D01*
X206000Y-148667D01*
X206500Y-147500D01*
X206167Y-146334D01*
X205333Y-145333D01*
X203833Y-144667D01*
X201833Y-144333D01*
X200667Y-143667D01*
X200167Y-142500D01*
X200500Y-141333D01*
X201333Y-140500D01*
X202500Y-140000D01*
X203667D01*
X204833Y-140333D01*
X205833Y-141167D01*
G01X214000Y-140000D02*
Y-150000D01*
G01X210167Y-140000D02*
X217833D01*
G01X221667Y-150000D02*
Y-140000D01*
X225833D01*
X227167Y-140500D01*
X228000Y-141167D01*
X228333Y-142500D01*
X228000Y-143833D01*
X227000Y-144667D01*
X225833Y-145167D01*
X221667D01*
G01X225833D02*
X228333Y-150000D01*
G01X232333Y-140000D02*
Y-147167D01*
X233000Y-148667D01*
X234333Y-149667D01*
X236000Y-150000D01*
X237667Y-149667D01*
X239000Y-148667D01*
X239667Y-147167D01*
Y-140000D01*
G01X242667Y-150000D02*
Y-140000D01*
X247000Y-148333D01*
X251333Y-140000D01*
Y-150000D01*
G01X261333D02*
X254667D01*
Y-140000D01*
X261333D01*
G01X258667Y-144833D02*
X254667D01*
G01X265167Y-150000D02*
Y-140000D01*
X272833Y-150000D01*
Y-140000D01*
G01X280000D02*
Y-150000D01*
G01X276167Y-140000D02*
X283833D01*
G01X287500Y-148667D02*
X288833Y-149500D01*
X290333Y-150000D01*
X291667D01*
X293000Y-149500D01*
X294000Y-148667D01*
X294500Y-147500D01*
X294167Y-146334D01*
X293333Y-145333D01*
X291833Y-144667D01*
X289833Y-144333D01*
X288667Y-143667D01*
X288167Y-142500D01*
X288500Y-141333D01*
X289333Y-140500D01*
X290500Y-140000D01*
X291667D01*
X292833Y-140333D01*
X293833Y-141167D01*
G01X172500Y-195500D02*
X171166Y-195833D01*
X170167Y-196667D01*
X169500Y-197667D01*
X169000Y-199000D01*
X168833Y-200500D01*
X169000Y-202000D01*
X169500Y-203333D01*
X170167Y-204334D01*
X171166Y-205167D01*
X172500Y-205500D01*
X173833Y-205167D01*
X174833Y-204334D01*
X175500Y-203333D01*
X176000Y-202000D01*
X176167Y-200500D01*
X176000Y-199000D01*
X175500Y-197667D01*
X174833Y-196667D01*
X173833Y-195833D01*
X172500Y-195500D01*
G01X183500Y-205500D02*
X184667Y-205333D01*
X186000Y-204833D01*
X186833Y-204000D01*
X187167Y-202833D01*
X186833Y-201667D01*
X185833Y-200667D01*
X184333Y-200167D01*
X182667D01*
X181667Y-199833D01*
X180833Y-199000D01*
X180500Y-197833D01*
X181000Y-196667D01*
X182166Y-195833D01*
X183500Y-195500D01*
X184833Y-195833D01*
X186000Y-196667D01*
X186500Y-197833D01*
X186167Y-199000D01*
X185333Y-199833D01*
X184333Y-200167D01*
X182667D01*
X181167Y-200667D01*
X180167Y-201667D01*
X179833Y-202833D01*
X180167Y-204000D01*
X181000Y-204833D01*
X182333Y-205333D01*
X183500Y-205500D01*
G01X191500Y-205833D02*
X197500Y-195500D01*
G01X205500Y-205500D02*
Y-195500D01*
X203500Y-197500D01*
G01Y-205500D02*
X207500D01*
G01X213333Y-201334D02*
X214500Y-200167D01*
X215500Y-199500D01*
X216833Y-199167D01*
X218000Y-199500D01*
X218833Y-200167D01*
X219500Y-201167D01*
X219667Y-202333D01*
X219500Y-203333D01*
X218833Y-204334D01*
X217833Y-205167D01*
X216667Y-205500D01*
X215333Y-205167D01*
X214167Y-204167D01*
X213500Y-202667D01*
X213333Y-201000D01*
X213667Y-198834D01*
X214167Y-197667D01*
X215000Y-196500D01*
X216167Y-195667D01*
X217333Y-195500D01*
X218500Y-195833D01*
X219333Y-196667D01*
G01X224500Y-205833D02*
X230500Y-195500D01*
G01X238500Y-205500D02*
Y-195500D01*
X236500Y-197500D01*
G01Y-205500D02*
X240500D01*
G01X249500D02*
Y-195500D01*
X247500Y-197500D01*
G01Y-205500D02*
X251500D01*
G01X235500Y153000D02*
X237500Y151000D01*
X240000D01*
X241000Y152000D01*
X243000D01*
G54D64*
G01X107500Y133500D02*
X110500Y135500D01*
G54D37*
X167000Y262300D03*
Y268700D03*
X222500Y262300D03*
Y268700D03*
X204000Y262300D03*
Y268700D03*
X258500Y262300D03*
Y268700D03*
X290000Y148300D03*
X292000Y173800D03*
X290000Y154700D03*
X292000Y180200D03*
G54D46*
X263300Y94532D03*
Y96500D03*
Y98468D03*
X270700D03*
Y94532D03*
Y96500D03*
X289800Y94532D03*
Y96500D03*
Y98468D03*
X297200D03*
Y94532D03*
Y96500D03*
G54D55*
X282250Y175000D03*
G54D28*
X107500Y100000D03*
G54D19*
G01X15000Y-130500D02*
Y-213000D01*
X299000D01*
Y-130500D01*
X15000D01*
G01X97500D02*
Y-213000D01*
G01Y-185500D02*
X299000D01*
G01X97500Y-158000D02*
X298500D01*
G01X175000D02*
Y-185500D01*
G01Y210000D02*
X177000Y208000D01*
Y206000D01*
G01D02*
Y204500D01*
X173500Y201000D01*
Y199000D01*
X32500Y74000D03*
X308200Y-9300D03*
Y53300D03*
G54D65*
G01X115750Y146300D02*
X114606D01*
X112385Y148500D01*
X110500D01*
G54D56*
X276300Y190957D03*
X271182Y248043D03*
G54D29*
X105700Y123000D03*
Y117000D03*
X112500Y174500D03*
Y180500D03*
X105500Y181000D03*
Y187000D03*
X166500Y17500D03*
Y23500D03*
X161000Y58000D03*
Y52000D03*
X169250Y119500D03*
Y113500D03*
X180500Y131500D03*
Y137500D03*
Y149500D03*
Y143500D03*
G54D47*
X251500Y124250D03*
G54D38*
X199500Y-3000D03*
X260500D03*
G54D66*
G01X23000Y144000D02*
Y151000D01*
X21500Y152500D01*
X-8000D01*
G01X-3500Y236000D02*
Y239000D01*
G01X500Y236000D02*
X2250Y238000D01*
X2500Y238250D01*
G01X23000Y83500D02*
X20000Y81500D01*
G01X24500Y102000D02*
X23000Y103500D01*
X20000D01*
G01X18000Y92500D02*
X15500Y91000D01*
G01X27000Y135000D02*
X29500Y137500D01*
X32000D01*
G01X23000Y140000D02*
X20000D01*
G01X23000Y135000D02*
X20000D01*
G01X19500Y238000D02*
X22250D01*
X22500Y238250D01*
G01X19500Y242000D02*
X22250D01*
X22500Y241750D01*
G01X32000Y43500D02*
X70000D01*
X76500Y50000D01*
Y56500D01*
X78000Y58000D01*
Y64000D01*
X72000Y70000D01*
Y74000D01*
X74000Y76000D01*
X100500D01*
X102500Y74000D01*
Y69500D01*
X104000Y68000D01*
X108000D01*
X113000Y73000D01*
X158500D01*
G01X49500Y184000D02*
X46000Y187500D01*
X40500D01*
X36000Y192000D01*
Y234500D01*
X43000Y241500D01*
X53250D01*
X56750Y238000D01*
X59862D01*
G01X51500Y186000D02*
X49500Y184000D01*
G01X46500Y176500D02*
X43800Y179200D01*
Y184700D01*
G01X93500Y195000D02*
Y191500D01*
X89000Y187000D01*
X65500D01*
X55000Y176500D01*
X46500D01*
G01X42000Y207000D02*
X39500D01*
X39000Y206500D01*
G01X42500Y196000D02*
X40260D01*
X39500Y195240D01*
G01X42500Y200000D02*
X40644D01*
X39500Y201144D01*
G01Y212952D02*
Y212000D01*
X40500Y211000D01*
X42000D01*
G01D02*
X44000D01*
X45500Y212500D01*
Y215500D01*
G01Y224500D02*
X46000Y227500D01*
G01X41500Y224500D02*
X39500Y222500D01*
G01X47500Y232200D02*
X46200D01*
X41500Y227500D01*
Y224500D01*
G01X47500Y237800D02*
X43800D01*
G01X62500Y16000D02*
X59500D01*
G01X62500Y20000D02*
X63100Y19900D01*
X69400D01*
G01D02*
X68000Y21300D01*
Y24500D01*
X65500Y27000D01*
G01X70500D02*
X73500D01*
G01X61500D02*
Y24000D01*
G01X57500Y123500D02*
Y126500D01*
G01X60750Y118500D02*
X57500D01*
G01X56500Y145500D02*
X59500Y148250D01*
G01X55500Y141000D02*
X54500Y139500D01*
X51250D01*
G01X55500Y186000D02*
Y182792D01*
X54708Y182000D01*
G01X60500Y233000D02*
Y237362D01*
X59862Y238000D01*
G01X64500Y249500D02*
Y252500D01*
G01X84500Y39000D02*
Y42000D01*
G01X90500Y65000D02*
X86000D01*
G01X90500Y72500D02*
X86000D01*
G01X78500Y83500D02*
X79500Y82500D01*
Y79500D01*
G01X78500Y72500D02*
X75000D01*
G01X94500D02*
Y70000D01*
X93000Y68500D01*
G01X82500Y72500D02*
X83500Y68485D01*
G01X76500Y107000D02*
X72500D01*
G01X96086Y88914D02*
X93500Y87000D01*
G01X88586Y96414D02*
X86500Y98500D01*
G01X80500Y107000D02*
X82500Y109000D01*
X84000D01*
X86250Y111250D01*
G01X93358Y114142D02*
X90466Y111250D01*
X86250D01*
G01X95500Y143500D02*
X93000D01*
X90000Y141000D01*
G01X93500Y195000D02*
Y197500D01*
X91700Y199300D01*
Y232200D01*
G01X81500Y233500D02*
X83000D01*
X84500Y235000D01*
G01X88000Y232200D02*
X91700D01*
G01X88000Y237800D02*
Y241000D01*
G01X74500Y249500D02*
Y252500D01*
G01X100500Y31500D02*
X97500D01*
G01X101500Y39000D02*
X100500Y34500D01*
G01X110612Y27208D02*
X111292D01*
X113000Y25500D01*
G01X99000Y66500D02*
X96000D01*
X94500Y65000D01*
G01X113000Y45000D02*
X112500D01*
X110612Y46888D01*
G01X111000Y89500D02*
Y93500D01*
X111086Y93586D01*
G01X101750Y116450D02*
X101781Y116700D01*
X105400D01*
X105700Y117000D01*
G01X114514Y127086D02*
X111900Y125500D01*
G01X115812Y131627D02*
Y128384D01*
X114514Y127086D01*
G01X95500Y127500D02*
X94800Y126800D01*
Y124900D01*
G01X111686Y129914D02*
X109600Y128100D01*
G01X101600Y122700D02*
X105600Y123100D01*
X105700Y123000D01*
G01X113500Y134500D02*
X110000Y132000D01*
G01X95500Y143500D02*
Y139500D01*
G01X107500Y145500D02*
X110500D01*
G01X107500Y149500D02*
Y145500D01*
G01X110500D02*
X112000D01*
X113500Y142800D01*
G01D02*
Y138750D01*
G01Y134500D02*
X114407Y133032D01*
X115812Y131627D01*
G01X97500Y146500D02*
X99000Y144000D01*
G01X107500Y137500D02*
X110500Y139000D01*
G01X107500Y141500D02*
X110500Y142500D01*
G01X102500Y143000D02*
X101500Y142000D01*
Y139500D01*
G01X116500Y171500D02*
X114800Y170500D01*
Y169200D01*
G01X98500Y172000D02*
Y168000D01*
G01Y164000D02*
Y168000D01*
G01X95000Y157000D02*
X98000D01*
G01X113700Y165500D02*
X110500D01*
G01Y151500D02*
X108969Y152593D01*
X107500Y153500D01*
G01X113500Y153750D02*
X110500Y155000D01*
G01X113500Y157750D02*
X110500Y158500D01*
G01Y162000D02*
X113700Y161500D01*
G01X104500Y172000D02*
Y168000D01*
G01Y164000D02*
Y160000D01*
G01X112500Y184000D02*
Y180500D01*
G01D02*
X106000D01*
X105500Y181000D01*
G01X112500Y174500D02*
X116500D01*
G01X121676Y18112D02*
Y18676D01*
X123500Y20500D01*
G01Y24500D02*
Y26000D01*
X125000Y27500D01*
G01X117000Y25500D02*
X118000D01*
X120000Y27500D01*
G01X117000Y30500D02*
X120000Y32500D01*
G01X117000Y35000D02*
X119500Y37000D01*
X120000Y37500D01*
G01X117000Y45000D02*
X117500D01*
X120000Y47500D01*
G01X122500Y55000D02*
X125000Y52500D01*
G01X132500Y55000D02*
X135000Y52500D01*
G01X132500Y59000D02*
Y61500D01*
X132000Y62000D01*
G01X134500Y93500D02*
X136500D01*
X137500Y94500D01*
G01X136000Y98000D02*
X137500Y96500D01*
Y94500D01*
G01Y111500D02*
X133000D01*
G01X127500Y128000D02*
X123500Y126000D01*
G01X127500Y128000D02*
X129750D01*
X131250Y126500D01*
G01D02*
X130500Y123500D01*
G01X115812Y131627D02*
X115939Y131500D01*
X118400D01*
X119500Y130400D01*
Y129200D01*
G01X123500Y126000D02*
X119500Y129200D01*
G01X137500Y115500D02*
X135300Y117000D01*
G01X133000Y115500D02*
X135300Y117000D01*
G01X120500Y122700D02*
X119500Y125200D01*
G01X127500Y124000D02*
X127400Y120800D01*
G01X134000Y123500D02*
X135250Y126500D01*
G01X117500Y142800D02*
X121000Y144900D01*
G01X139000Y129000D02*
X137100D01*
X135750Y130350D01*
Y133000D01*
G01X131500Y152700D02*
X133000Y150500D01*
G01X123086Y136836D02*
X122100Y139800D01*
G01X131250Y148000D02*
X133000Y150500D01*
G01X137500Y148500D02*
X133500Y144750D01*
G01D02*
X131250Y148000D01*
G01X115750Y150300D02*
X120400D01*
G01X132300Y134400D02*
X130000Y135750D01*
G01X117500Y138750D02*
X121000Y142000D01*
G01X117500Y134500D02*
X120250Y133320D01*
G01X137400Y136800D02*
X134647Y135203D01*
G01X123500Y130000D02*
X122650Y132950D01*
G01X120500Y159000D02*
X117700Y161500D01*
G01X125750Y165500D02*
Y163662D01*
X127497Y161303D01*
G01X137500Y152500D02*
X134500D01*
G01X134200Y173500D02*
X133500Y170850D01*
G01X134086Y164836D02*
X133836Y163250D01*
X132586Y162000D01*
X130000D01*
G01X129750Y165000D02*
X130000Y162000D01*
G01X127500Y174000D02*
X127000Y171000D01*
G01X129000Y157500D02*
X127500Y158500D01*
X125000Y160000D01*
G01X122000Y162000D02*
X121750Y165500D01*
G01X122000Y162000D02*
X125000Y160000D01*
G01X121750Y165500D02*
X117700D01*
G01X117500Y157750D02*
X118750Y156500D01*
X120500D01*
G01X117500Y153750D02*
X120400Y153500D01*
G01X122000Y171000D02*
X123500Y172500D01*
Y174000D01*
G01X118800Y169200D02*
X119500Y170250D01*
Y172000D01*
G01X129750Y169000D02*
Y171750D01*
X130500Y172500D01*
G01X131750Y159900D02*
X133000Y157500D01*
G01X125000Y156000D02*
X122900Y154000D01*
G01X125500Y181000D02*
Y177000D01*
G01X131500Y181000D02*
Y177000D01*
G01X156500Y19500D02*
Y16500D01*
G01X150000Y10500D02*
X153000D01*
G01X145000D02*
X142500Y8000D01*
G01X140000Y10500D02*
X142500Y8000D01*
G01X150000Y35000D02*
X147500D01*
X145000Y32500D01*
G01X156000Y35000D02*
X158500Y32500D01*
Y30500D01*
G01X152000Y57500D02*
Y62000D01*
X151500Y62500D01*
G01X137500Y55000D02*
X140000Y52500D01*
G01X142500Y55000D02*
X145000Y52500D01*
G01X154388Y54760D02*
X157148Y52000D01*
X161000D01*
G01X155500Y57500D02*
X160500D01*
X161000Y58000D01*
G01X143324Y62500D02*
X142500Y61064D01*
Y59000D01*
G01X147260Y62500D02*
X148000Y61148D01*
Y57500D01*
G01X158500Y69000D02*
X155000D01*
X153500Y70500D01*
G01X137500Y111500D02*
Y107500D01*
X138000Y107000D01*
G01X156000Y98000D02*
Y95000D01*
G01X151000Y98000D02*
Y95000D01*
G01X142000D02*
X141000Y98000D01*
G01X146000D02*
X151000D01*
G01X146500Y91000D02*
X148500Y89000D01*
G01X139250Y132750D02*
Y134500D01*
G01X148800Y123400D02*
Y123461D01*
X151439Y126100D01*
X152000D01*
G01X148000Y126500D02*
X144000D01*
G01X143500Y122000D02*
X144000Y126500D01*
G01X137500Y111500D02*
X140500Y112500D01*
G01X148000Y111500D02*
Y108500D01*
G01X152000Y122100D02*
X150500Y120500D01*
Y117000D01*
G01D02*
X148000Y115500D01*
G01X139500Y122000D02*
X139000Y125000D01*
G01X144000Y115500D02*
Y111500D01*
G01X144450Y119000D02*
Y115950D01*
X144000Y115500D01*
G01X154500Y119600D02*
X154700Y119400D01*
Y116800D01*
G01X141250Y140000D02*
X139597Y143003D01*
G01X141936Y144736D02*
X139597Y143003D01*
G01X144500Y151500D02*
X139500Y150500D01*
G01X144000Y133700D02*
Y130500D01*
G01X149630Y145543D02*
Y150130D01*
X151750Y152250D01*
G01X139250Y134500D02*
X141400Y136200D01*
G01X147525Y146790D02*
X144764Y147564D01*
G01X137400Y140800D02*
X137000Y144500D01*
G01X145400Y136200D02*
X146900Y134000D01*
G01X157500Y147250D02*
Y145500D01*
X155000Y143000D01*
G01X160000Y146250D02*
X157500Y147250D01*
G01X148000Y130500D02*
X149100Y133000D01*
G01X149200Y162050D02*
X149000Y165000D01*
G01X155750Y152250D02*
Y156250D01*
G01Y152250D02*
X159750D01*
G01X144500Y155500D02*
X144000Y155000D01*
X140500D01*
X140414Y155086D01*
G01X142002Y162049D02*
X144000Y164439D01*
Y165000D01*
G01X153000Y166000D02*
X154000Y167000D01*
Y171000D01*
G01X143500Y174000D02*
X143900Y173600D01*
Y171000D01*
G01X149000Y169000D02*
X148300Y168300D01*
X144700D01*
X143900Y169100D01*
Y171000D01*
G01X154000D02*
X156500D01*
X157750Y169750D01*
Y168000D01*
G01X149000Y169000D02*
X151000Y171000D01*
X154000D01*
G01X153000Y162000D02*
Y161857D01*
X149098Y157955D01*
G01X153000Y162000D02*
X155250D01*
X157500Y159750D01*
X159500D01*
G01X147500Y174000D02*
X146800Y171000D01*
G01X138200Y173500D02*
X136964Y170672D01*
G01X138870Y162074D02*
X140000Y165000D01*
G01X162500Y163250D02*
X158500D01*
X157750Y164000D01*
G01X136914Y167664D02*
X137750D01*
X139500Y169414D01*
Y171000D01*
G01X149650Y153950D02*
Y155126D01*
X150676Y156250D01*
X151750D01*
G01X144500Y195000D02*
X147500Y192000D01*
G01X158250Y226450D02*
X156500D01*
Y222000D01*
G01X166500Y17500D02*
X162500D01*
G01Y23500D02*
X166500D01*
G01X162000Y42500D02*
X159500Y41000D01*
G01X162000Y46500D02*
Y51000D01*
X161000Y52000D01*
G01Y58000D02*
Y62500D01*
X158500Y65000D01*
G01X161000Y98000D02*
X164000D01*
G01X173500Y104000D02*
Y100500D01*
G01X177500D02*
Y104000D01*
G01X162250Y127350D02*
X159500Y128000D01*
G01X158700Y116800D02*
Y119600D01*
G01X179500Y115500D02*
Y117000D01*
X177500Y119000D01*
G01X163500Y119450D02*
Y117000D01*
X162500Y116000D01*
G01X173250Y110250D02*
Y112250D01*
X172000Y113500D01*
X169250D01*
G01X166250Y124000D02*
Y127350D01*
G01D02*
X165750Y127750D01*
Y131250D01*
X163000Y134000D01*
G01X173000Y121250D02*
X171000D01*
X169250Y119500D01*
G01X175500Y123000D02*
X175474Y124026D01*
X175500Y125750D01*
G01X163500Y123450D02*
X161050D01*
X159500Y125000D01*
G01X161750Y144250D02*
X160000Y146250D01*
G01X158500Y131000D02*
Y133500D01*
X159000Y134000D01*
G01X174500Y158300D02*
Y162000D01*
G01X159750Y152250D02*
X162450Y153000D01*
G01X167500Y157000D02*
X167350Y157150D01*
Y160000D01*
G01X165500Y163700D02*
Y161850D01*
X167350Y160000D01*
G01X159750Y156250D02*
X160250D01*
X162500Y158500D01*
Y159603D01*
G01X174500Y170000D02*
Y166000D01*
G01X180000Y210000D02*
X178500Y211500D01*
Y215000D01*
G01X174500D02*
Y210500D01*
X175000Y210000D01*
G01X158250Y234050D02*
Y238250D01*
G01X169000Y218750D02*
Y221000D01*
X170000Y222000D01*
G01X158250Y226450D02*
X160000D01*
Y222000D01*
G01X165000Y218750D02*
Y222000D01*
G01X178500Y215000D02*
X183500D01*
G01X167000Y268700D02*
Y273000D01*
G01X173000Y267500D02*
Y270500D01*
G01X201500Y8700D02*
X197800D01*
X196500Y10000D01*
G01X185500Y69000D02*
X181000Y73500D01*
Y90500D01*
G01X186000Y105000D02*
X182500D01*
G01X189500Y126000D02*
Y130000D01*
G01X184500Y128000D02*
X186500Y130000D01*
Y132950D01*
X188050Y134500D01*
X189500D01*
G01X188800Y150000D02*
Y151150D01*
X185850Y154100D01*
G01X196400Y150000D02*
Y151000D01*
X197400Y152000D01*
X204301D01*
X205000Y151301D01*
G01X190500Y143000D02*
X192100Y144600D01*
X193100D01*
X194000Y145500D01*
G01X193500Y134500D02*
Y130000D01*
G01Y134500D02*
X195500Y136500D01*
Y141500D01*
G01X190500Y139000D02*
X191500D01*
X194000Y141500D01*
X195500D01*
G01X188500Y172000D02*
Y175000D01*
G01X200800Y161600D02*
X199750Y164300D01*
G01X188500Y161500D02*
X188300D01*
X186500Y163750D01*
Y164000D01*
G01X182750Y157750D02*
X180500Y160000D01*
Y162000D01*
G01X181000Y174000D02*
Y170500D01*
X180500Y170000D01*
G01X188500Y157000D02*
Y156650D01*
X185850Y154100D01*
G01X188500Y166000D02*
Y168800D01*
G01X192000Y192500D02*
Y188500D01*
X193000Y187500D01*
G01X192000Y175000D02*
Y179000D01*
X193000Y180000D01*
G01X187000D02*
Y182000D01*
X185000Y184000D01*
G01Y191500D02*
Y189500D01*
X187000Y187500D01*
G01X195000Y206400D02*
Y209440D01*
G01Y198600D02*
Y195500D01*
G01X183000Y206000D02*
Y210000D01*
G01X179500Y199000D02*
X180500Y200000D01*
X181500D01*
X183000Y201500D01*
G01X187500Y215000D02*
Y218000D01*
G01X198000Y267500D02*
Y270500D01*
G01X208000Y14500D02*
X211000Y15000D01*
G01X207500Y11500D02*
Y7500D01*
X211500Y3500D01*
X214000D01*
G01X208000Y26500D02*
X211000D01*
G01X221700Y27500D02*
X218500D01*
G01X201500Y30300D02*
Y33500D01*
G01X226300Y52500D02*
Y50000D01*
X221500D01*
G01X226300Y52500D02*
Y55000D01*
X221500D01*
G01X219500Y133000D02*
Y131500D01*
X222000Y129000D01*
G01X202200Y149500D02*
X202800Y148900D01*
X208400D01*
X209000Y149500D01*
G01X222000Y168500D02*
X222500Y169000D01*
Y173000D01*
G01X217000Y170500D02*
X219700Y172800D01*
G01X205000Y162000D02*
X207000Y164000D01*
G01X216500Y159500D02*
Y155700D01*
X215400Y154600D01*
G01X205000Y158000D02*
X206742Y155510D01*
G01X210500Y159500D02*
Y159268D01*
X206742Y155510D01*
G01X217000Y166500D02*
X217251Y163751D01*
G01X209000Y153500D02*
X208000D01*
X205801Y151301D01*
X205000D01*
G01X221000Y191000D02*
X223500D01*
X224000Y190500D01*
G01X202500Y204500D02*
Y207500D01*
G01Y200500D02*
Y197500D01*
G01X221200Y206000D02*
X217500D01*
G01X217750Y197750D02*
X220450D01*
X221200Y197000D01*
G01X204000Y268700D02*
Y273000D01*
G01X226500Y3500D02*
Y6500D01*
G01X234500Y38000D02*
Y41000D01*
G01Y26000D02*
X232500Y24000D01*
G01X228000Y42800D02*
X223300D01*
G01X237500Y66000D02*
Y53700D01*
X238700Y52500D01*
G01X232500Y74500D02*
Y78000D01*
G01X237500Y74500D02*
Y78000D01*
G01X230000Y83500D02*
X222500D01*
Y81200D01*
G01D02*
Y79500D01*
X230000D01*
G01X232500Y66000D02*
X225300D01*
X222500Y68800D01*
G01X232500Y70500D02*
Y66000D01*
G01X237500Y70500D02*
Y66000D01*
G01X222000Y111500D02*
Y106650D01*
G01X236000Y114500D02*
Y118950D01*
G01X222000Y122250D02*
Y125000D01*
G01X227500Y122250D02*
Y125000D01*
G01X236000Y126550D02*
X234400Y126700D01*
Y130600D01*
X232000Y133000D01*
G01X224800Y132000D02*
X225570D01*
X226470Y131000D01*
X227500Y129856D01*
Y129000D01*
G01Y142500D02*
X224301Y145701D01*
G01X239500Y167500D02*
X242500D01*
G01X231000Y171500D02*
X233000Y174500D01*
G01X236600Y162600D02*
X239400D01*
X239500Y162500D01*
G01X236600Y162600D02*
X233500Y161000D01*
G01X235500Y167500D02*
X233500Y164400D01*
G01X231000Y164500D02*
Y167500D01*
G01X243500Y162500D02*
X245500Y165000D01*
G01X228800Y197000D02*
X232500D01*
G01X228800Y206000D02*
Y211000D01*
G01X222500Y268700D02*
Y273000D01*
G01X228500Y267500D02*
Y270500D01*
G01X263700Y52500D02*
Y55000D01*
X268500D01*
G01X263700Y52500D02*
Y50000D01*
X268500D01*
G01X251300Y52500D02*
X252500Y53700D01*
Y62500D01*
G01D02*
Y70500D01*
G01X257500D02*
Y62500D01*
G01D02*
X265500D01*
X267500Y64500D01*
Y68800D01*
G01X252500Y74500D02*
Y78000D01*
G01X257500Y74500D02*
Y78000D01*
G01X259000Y106000D02*
Y102500D01*
G01X263000Y106000D02*
Y98768D01*
X263300Y98468D01*
G01X266000Y108500D02*
X265500D01*
X263000Y106000D01*
G01X260000Y118000D02*
X258000Y116000D01*
Y114500D01*
G01X252000D02*
X248500Y112500D01*
G01X253000Y108500D02*
X252000Y109500D01*
Y114500D01*
G01X253000Y147500D02*
X257000D01*
G01X247000D02*
X250000D01*
G01X247000Y152000D02*
X250000D01*
G01X258000Y182300D02*
X252800D01*
G01X244500Y174500D02*
X247500D01*
G01X258000Y174700D02*
X263000D01*
G01X261913Y204638D02*
X261000D01*
Y201500D01*
G01X259950Y209363D02*
X254000Y215313D01*
Y230984D01*
X256000Y232984D01*
X259950D01*
G01X246000Y206000D02*
Y197500D01*
G01Y210000D02*
Y214000D01*
G01X259950Y232984D02*
X263484D01*
X268500Y238000D01*
Y248043D01*
X271182D01*
G01X252500Y267500D02*
Y270500D01*
G01X258500Y268700D02*
Y273000D01*
G01X268500Y33000D02*
Y30000D01*
G01X285500Y67500D02*
Y64000D01*
G01X267500Y81200D02*
X265000D01*
Y86000D01*
G01X275000Y81200D02*
X267500D01*
G01X285000Y78000D02*
Y75000D01*
G01X280000Y78000D02*
Y75000D01*
G01X285000Y82000D02*
Y83960D01*
X286520Y85480D01*
G01X280000Y82000D02*
Y85000D01*
G01X292000Y180200D02*
X286800D01*
X284500Y182500D01*
G01X280000Y175000D02*
X278000D01*
G01X267500Y181000D02*
Y177500D01*
G01X276300Y190957D02*
X277343Y192000D01*
X288000D01*
G01X284000Y188000D02*
X285500Y186500D01*
X287000D01*
G01X284500Y218000D02*
X287500Y215000D01*
X307750D01*
X314250Y208500D01*
G01X271182Y248043D02*
Y261182D01*
X280000Y270000D01*
G01X287500Y32000D02*
X291500D01*
G01X289500Y67500D02*
Y64000D01*
G01X290000Y82000D02*
Y85500D01*
G01Y78000D02*
X293000Y79000D01*
G01X290000Y148300D02*
Y144000D01*
G01X296500Y147500D02*
Y144000D01*
G01X286800Y138000D02*
X297500D01*
X300500Y141000D01*
Y156500D01*
G01X306753Y190928D02*
Y195747D01*
X305050Y197450D01*
Y205450D01*
X304000Y206500D01*
G01X308000Y180500D02*
X305000Y181500D01*
G01X302000Y180500D02*
X305000Y181500D01*
G01X309509Y248072D02*
Y254991D01*
X307000Y257500D01*
G01X305000Y277000D02*
Y280000D01*
G01X300000Y277000D02*
Y280000D01*
G01X295000Y277000D02*
Y280000D01*
G01X314489Y191168D02*
X316500Y189157D01*
Y183500D01*
G01X314489Y247832D02*
X316500Y250189D01*
Y257500D01*
G01X312500Y287000D02*
X309000D01*
G54D48*
X251500Y132750D03*
G54D57*
X308200Y-27200D03*
Y71200D03*
G54D39*
X201250Y110500D03*
X202250Y182500D03*
G54D67*
G01X25500Y-175750D02*
X31125Y-181375D01*
X38625D01*
G01X31125Y-162625D02*
X25500Y-168250D01*
G01D02*
Y-175750D01*
G01X46125Y-181375D02*
Y-172000D01*
G01X33000Y-181375D02*
X46125D01*
G01Y-175750D02*
X64875D01*
G01X46125Y-172000D02*
X55500Y-162625D01*
G01X38625D02*
X31125D01*
G01X64875Y-172000D02*
Y-181375D01*
G01D02*
X76125D01*
G01X72375Y-162625D02*
Y-181375D01*
G01D02*
X79875D01*
G01X55500Y-162625D02*
X64875Y-172000D01*
G01X74250Y-162625D02*
X68625D01*
G01X79875D02*
X72375D01*
G01X79875Y-181375D02*
X85500Y-175750D01*
G01D02*
Y-168250D01*
G01D02*
X79875Y-162625D01*
G54D49*
X259950Y209363D03*
Y232984D03*
G54D58*
X298600Y119500D03*
G54D68*
G01X-500Y209000D02*
X4000D01*
G01X122900Y150800D02*
X123500Y147000D01*
G01X148033Y136504D02*
X149996D01*
X154000Y132500D01*
Y121500D01*
X152300Y119800D01*
Y110042D01*
X150958Y108700D01*
G01X167375Y107575D02*
X165950Y109000D01*
Y111550D01*
X165150Y112350D01*
X163850D01*
X160800Y115400D01*
Y120400D01*
X155200Y126000D01*
Y133000D01*
X149700Y138500D01*
X149500D01*
G01X164500Y114500D02*
X165900Y115900D01*
Y120900D01*
X168800Y123800D01*
X169550D01*
X171500Y125750D01*
G01X169500Y136000D02*
X172500D01*
X174500Y134000D01*
G01X166500Y137150D02*
X167650Y136000D01*
X169500D01*
G01Y145000D02*
X169000Y144500D01*
X167750D01*
X166450Y143200D01*
Y141355D01*
X165450Y140355D01*
X165237D01*
G01X169500Y145000D02*
X170000Y145500D01*
X173000D01*
X174500Y147000D01*
G01X167500Y139500D02*
X169000Y138000D01*
X174500D01*
G01X180500Y137500D02*
X178000D01*
X177500Y138000D01*
X174500D01*
G01X168000Y142500D02*
X174000D01*
X174500Y143000D01*
G01X180500Y143500D02*
X177500D01*
X177000Y143000D01*
X174500D01*
G01X180500Y131500D02*
X170000D01*
X169500Y132000D01*
G01X180500Y149500D02*
X177500D01*
X177000Y149000D01*
X169500D01*
G01X171500Y157000D02*
Y155300D01*
X172500Y154300D01*
G01X180500Y137500D02*
X181200Y138200D01*
G01X180500Y143500D02*
X181200D01*
G01X227570Y169000D02*
Y168930D01*
G01X229500Y161000D02*
X228500Y164000D01*
G01X222000Y164500D02*
X222600D01*
X224500Y166400D01*
G54D59*
X306753Y190928D03*
X301241D03*
X303997D03*
X306753Y248072D03*
X303997D03*
X301241D03*
X309509Y190928D03*
Y248072D03*
G54D69*
G01X108000Y46888D02*
Y48400D01*
X107500Y48900D01*
X106700D01*
X106200Y48400D01*
Y45700D01*
X102000Y41500D01*
X92198D01*
X90100Y39402D01*
Y30902D01*
X72998Y13800D01*
X69498D01*
X66198Y10500D01*
X58798D01*
X55705Y7407D01*
Y2607D01*
X52698Y-400D01*
X47860D01*
X47160Y-1100D01*
Y-2240D01*
X50220Y-5300D01*
G01X42340D02*
X42700D01*
X45960Y-2040D01*
Y-602D01*
X47362Y800D01*
X52200D01*
X54505Y3105D01*
Y7905D01*
X58300Y11700D01*
X65700D01*
X69000Y15000D01*
X72500D01*
X88900Y31400D01*
Y39900D01*
X91700Y42700D01*
X101502D01*
X105000Y46198D01*
Y48898D01*
X106202Y50100D01*
X108176D01*
X108900Y50824D01*
X110612D01*
G01X283200Y165900D02*
X282174Y166926D01*
X266324D01*
X254399Y155001D01*
X234000D01*
X227500Y148501D01*
X212599D01*
X209799Y145701D01*
X205001D01*
X203800Y144500D01*
X202250D01*
X201000Y143250D01*
G01X283200Y171100D02*
Y168926D01*
X282400Y168126D01*
X265826D01*
X253901Y156201D01*
X233502D01*
X227002Y149701D01*
X212101D01*
X209301Y146901D01*
X204503D01*
X203853Y146251D01*
X202801D01*
M02*
