G04 ================== begin FILE IDENTIFICATION RECORD ==================*
G04 Layout Name:  BeagleBoard_xM_RevC1_nologo.brd*
G04 Film Name:    xM_RevC1_lyr5*
G04 File Format:  Gerber RS274X*
G04 File Origin:  Cadence Allegro 16.5-S022*
G04 Origin Date:  Fri Oct 12 17:26:56 2012*
G04 *
G04 Layer:  VIA CLASS/LYR5-PWR*
G04 Layer:  PIN/LYR5-PWR*
G04 Layer:  ETCH/LYR5-PWR*
G04 Layer:  DRAWING FORMAT/TITLE_BLOCK*
G04 *
G04 Offset:    (0.00 0.00)*
G04 Mirror:    No*
G04 Mode:      Positive*
G04 Rotation:  0*
G04 FullContactRelief:  No*
G04 UndefLineWidth:     6.00*
G04 ================== end FILE IDENTIFICATION RECORD ====================*
%FSLAX35Y35*MOIN*%
%IR0*IPPOS*OFA0.00000B0.00000*MIA0B0*SFA1.00000B1.00000*%
%ADD12C,.04*%
%ADD10C,.06*%
%ADD11C,.018*%
%ADD13C,.019*%
%ADD14C,.02*%
%ADD15C,.012*%
%ADD16C,.015*%
%ADD17C,.045*%
%ADD18C,.006*%
%ADD19C,.008*%
%ADD22O,.09004X.20004*%
%ADD21O,.16004X.08004*%
%ADD20O,.09004X.17004*%
%ADD31C,.03404*%
%ADD26C,.07004*%
%ADD32C,.03504*%
%ADD28C,.02604*%
%ADD34C,.02704*%
%ADD30C,.09004*%
%ADD27C,.02804*%
%ADD40C,.02904*%
%ADD24O,.12604X.06804*%
%ADD23O,.06804X.12604*%
%ADD33C,.06604*%
%ADD29C,.07504*%
%ADD39C,.10004*%
%ADD35C,.11004*%
%ADD38C,.13004*%
%ADD36C,.15004*%
%ADD25C,.24004*%
%ADD37C,.16206*%
G75*
%LPD*%
G75*
G36*
G01X223626Y129920D02*
G03X226168Y129312I1124J-920D01*
G02X226426Y129776I391J87D01*
G01X228824D01*
G02X229082Y129312I-133J-377D01*
G03X231863Y129500I1418J-312D01*
G01X231819Y129620D01*
X231974Y129776D01*
X232007D01*
X234848Y132617D01*
X234953Y132568D01*
G03X235386Y135047I547J1182D01*
G02X234974Y135313I-35J398D01*
G01Y142309D01*
G02X235614Y142479I378J-132D01*
G03Y144521I886J1021D01*
G02X234974Y144691I-262J302D01*
G01Y149257D01*
X234724Y149507D01*
Y151493D01*
X235007Y151776D01*
X235053D01*
X235109Y151758D01*
G03X235943Y151776I390J1242D01*
G01X237817D01*
G03X239183I683J1224D01*
G01X242493D01*
X243710Y150558D01*
X243677Y150464D01*
G03X245464Y148677I1323J-464D01*
G01X245558Y148710D01*
X248993Y145276D01*
X260507D01*
X266224Y150993D01*
Y163493D01*
X267007Y164276D01*
X273996D01*
G02X274116Y163588I-132J-378D01*
G03X275884I884J-1088D01*
G02X276004Y164276I252J310D01*
G01X278993D01*
X280493Y162776D01*
X285798D01*
Y147002D01*
X287502Y145298D01*
X288438D01*
G02X288785Y144699I0J-400D01*
G03X291215I1215J-699D01*
G02X291562Y145298I347J199D01*
G01X294938D01*
G02X295285Y144699I0J-400D01*
G03X297715I1215J-699D01*
G02X298062Y145298I347J199D01*
G01X317500D01*
Y-37000D01*
X267602D01*
Y-3138D01*
G02X268388Y-3036I400J-1D01*
G03Y3036I11612J3036D01*
G02X267602Y3138I-386J103D01*
G01Y28268D01*
G02X268112Y28653I400J1D01*
G03Y31347I388J1347D01*
G02X267602Y31732I-110J384D01*
G01Y48268D01*
G02X268112Y48653I400J1D01*
G03Y51347I388J1347D01*
G02X267602Y51732I-110J384D01*
G01Y53268D01*
G02X268112Y53653I400J1D01*
G03Y56347I388J1347D01*
G02X267602Y56732I-110J384D01*
G01Y86298D01*
X262298Y91602D01*
X207049D01*
G02X206772Y92290I0J400D01*
G03X204828I-972J1010D01*
G02X204551Y91602I-277J-288D01*
G01X195702D01*
X176029Y71928D01*
X166172D01*
X165548Y71297D01*
X164353Y70102D01*
G02X163721Y70188I-283J283D01*
G03X161812Y68279I-1221J-688D01*
G02X161898Y67647I-197J-349D01*
G01X161352Y67102D01*
X151748D01*
X147748Y71102D01*
X139748D01*
X138748Y72102D01*
X113252D01*
X108252Y67102D01*
X103748D01*
X99830Y71019D01*
G02X100088Y71701I283J283D01*
G03X98678Y72634I-88J1399D01*
G02X98300Y72102I-377J-132D01*
G01X87802D01*
G02X87402Y72501I0J400D01*
G03X84598I-1402J-1D01*
G02X84198Y72102I-400J1D01*
G01X83202D01*
X80898Y69798D01*
Y58698D01*
X77398Y55198D01*
Y46732D01*
G02X76888Y46347I-400J-1D01*
G03Y43653I-388J-1347D01*
G02X77398Y43268I110J-384D01*
G01Y24298D01*
X73946Y20845D01*
X73718Y20612D01*
G02X73043Y20796I-286J279D01*
G03X67000Y17016I-3643J-896D01*
G02X67027Y16426I-256J-307D01*
G01X64702Y14102D01*
X16902D01*
X12898Y10098D01*
Y-37000D01*
X-12500D01*
Y110411D01*
G02X-11911Y110764I400J0D01*
G03Y113236I661J1236D01*
G02X-12500Y113589I-189J353D01*
G01Y131661D01*
G02X-11911Y132014I400J0D01*
G03Y134486I661J1236D01*
G02X-12500Y134839I-189J353D01*
G01Y295000D01*
X91951D01*
G02X92281Y294373I0J-400D01*
G03X97719I2719J-1873D01*
G02X98049Y295000I330J227D01*
G01X291298D01*
Y275919D01*
G02X290547Y275728I-400J0D01*
G03X268031Y270887I-10547J-5728D01*
G01X268019Y270724D01*
X261993D01*
X241558Y250290D01*
X241464Y250323D01*
G03X239677Y248536I-464J-1323D01*
G01X239710Y248442D01*
X231493Y240224D01*
X214493D01*
X206993Y232724D01*
X155993D01*
X153776Y230507D01*
Y220493D01*
X155993Y218276D01*
X185833D01*
G02X186100Y217921I-132J-377D01*
G03X188900I1400J79D01*
G02X189167Y218276I399J-22D01*
G01X229993D01*
X234776Y213493D01*
Y207007D01*
X232276Y204507D01*
Y198390D01*
X232149Y198357D01*
G03Y195643I351J-1357D01*
G01X232276Y195610D01*
Y186890D01*
X232149Y186857D01*
G03Y184143I351J-1357D01*
G01X232276Y184110D01*
Y182257D01*
X231439Y181420D01*
G02X230986Y181497I-172J361D01*
G03X229003Y179514I-986J-997D01*
G02X229080Y179061I-284J-281D01*
G01X225840Y175821D01*
G02X225298Y176031I-172J361D01*
G03X222694Y174989I-1298J-531D01*
G02X222360Y174445I-372J-146D01*
G03X221312Y173834I140J-1445D01*
G02X220699Y173783I-328J230D01*
G03X220829Y171969I-999J-983D01*
G02X221442Y172005I322J-238D01*
G03X221467Y171979I1059J994D01*
G02X221544Y171526I-284J-281D01*
G01X219760Y169742D01*
X219658Y169786D01*
G03X217814Y167942I-558J-1286D01*
G01X217858Y167840D01*
X215026Y165007D01*
Y160757D01*
X212243Y157974D01*
X205743D01*
X204376Y156607D01*
G02X203827Y156835I-172J362D01*
G03X202165Y155173I-1227J-435D01*
G02X202393Y154624I-134J-377D01*
G01X201993Y154224D01*
X197993D01*
X191776Y148007D01*
Y144493D01*
X192993Y143276D01*
X194496D01*
G02X194616Y142588I-132J-378D01*
G03X196077Y140222I884J-1088D01*
G02X196632Y139945I165J-365D01*
G03X197423Y141528I1368J305D01*
G02X196868Y141805I-165J365D01*
G03X196384Y142588I-1368J-305D01*
G02X196504Y143276I252J310D01*
G01X199493D01*
X199544Y143224D01*
X199554Y143117D01*
G03X200928Y141800I1446J133D01*
G01X200971Y141798D01*
X203493Y139276D01*
X206507D01*
X207007Y139776D01*
X217993D01*
X219526Y138243D01*
Y134312D01*
X219369Y134295D01*
G03X220658Y132405I131J-1295D01*
G02X221187Y132582I355J-183D01*
G01X223662Y130106D01*
G02X223671Y130047I-191J-59D01*
G01X223626Y129920D01*
G37*
G36*
G01X14100Y-37000D02*
Y-19535D01*
G02X14842Y-19328I400J0D01*
G03Y-12612I5568J3358D01*
G02X14100Y-12405I-342J207D01*
G01Y2865D01*
G02X14842Y3072I400J0D01*
G03X23505Y12148I5568J3358D01*
G02X23695Y12900I190J352D01*
G01X65200D01*
X67700Y15400D01*
X70300D01*
X74800Y20000D01*
X78600Y23800D01*
Y26501D01*
G02X79222Y26834I400J0D01*
G03Y29166I778J1166D01*
G02X78600Y29499I-222J333D01*
G01Y36501D01*
G02X79222Y36834I400J0D01*
G03Y39166I778J1166D01*
G02X78600Y39499I-222J333D01*
G01Y54700D01*
X82100Y58200D01*
Y59001D01*
G02X82722Y59334I400J0D01*
G03X84277Y61667I778J1166D01*
G02Y62333I222J333D01*
G03X84897Y63377I-777J1167D01*
G02X85451Y63710I398J-35D01*
G03X84603Y65123I549J1290D01*
G02X84049Y64790I-398J35D01*
G03X82722Y64666I-549J-1290D01*
G02X82100Y64999I-222J333D01*
G01Y69300D01*
X83700Y70900D01*
X98250D01*
X103250Y65900D01*
X108750D01*
X113750Y70900D01*
X115001D01*
G02X115334Y70278I0J-400D01*
G03X117666I1166J-778D01*
G02X117999Y70900I333J222D01*
G01X138250D01*
X139250Y69900D01*
X142569D01*
G02X142953Y69389I0J-400D01*
G03X145647I1347J-389D01*
G02X146031Y69900I384J111D01*
G01X147250D01*
X151250Y65900D01*
X161850D01*
X166400Y70450D01*
X166674Y70727D01*
X175228D01*
G02X175621Y70254I0J-400D01*
G03X177713Y71207I1379J-254D01*
G02X177634Y71834I204J344D01*
G01X184378Y78578D01*
G02X184958Y78562I282J-283D01*
G03X186938Y80542I1042J938D01*
G02X186922Y81122I267J298D01*
G01X196200Y90400D01*
X261800D01*
X262135Y90065D01*
G02X261996Y89408I-282J-283D01*
G03X263808Y87596I504J-1308D01*
G02X264465Y87735I374J-143D01*
G01X264706Y87494D01*
X264534Y87323D01*
X264495Y87308D01*
G03X265778Y84834I505J-1308D01*
G02X266400Y84501I222J-333D01*
G01Y-37000D01*
X248052D01*
G02X247729Y-36364I0J400D01*
G03X242071I-2829J2064D01*
G02X241748Y-37000I-323J-236D01*
G01X208252D01*
G02X207929Y-36364I0J400D01*
G03X202271I-2829J2064D01*
G02X201948Y-37000I-323J-236D01*
G01X14100D01*
G37*
G36*
G01X224500Y131000D02*
X220750Y134750D01*
Y138750D01*
X218500Y141000D01*
X206500D01*
X206000Y140500D01*
X204000D01*
X202144Y142356D01*
G03X200235Y144484I-1144J894D01*
G01X200100Y144400D01*
X200000Y144500D01*
X198546D01*
G02X198147Y144867I0J400D01*
G03X195353I-1397J-117D01*
G02X194954Y144500I-399J33D01*
G01X193500D01*
X193000Y145000D01*
Y147500D01*
X198500Y153000D01*
X202500D01*
X206250Y156750D01*
X212750D01*
X216250Y160250D01*
Y164500D01*
X218865Y167115D01*
X218959Y167105D01*
G03X220495Y168641I141J1395D01*
G01X220485Y168735D01*
X233500Y181750D01*
Y184517D01*
G03Y186483I-1000J983D01*
G01Y196017D01*
G03Y197983I-1000J983D01*
G01Y204000D01*
X236000Y206500D01*
Y214000D01*
X230500Y219500D01*
X156500D01*
X155000Y221000D01*
Y230000D01*
X156500Y231500D01*
X207500D01*
X215000Y239000D01*
X232000D01*
X240641Y247641D01*
X240744Y247622D01*
G03X242378Y249256I256J1378D01*
G01X242359Y249359D01*
X262500Y269500D01*
X268007D01*
X268018Y269311D01*
G03X291982I11982J689D01*
G01X291993Y269500D01*
X293684D01*
X293739Y269387D01*
G03X296261I1261J613D01*
G01X296316Y269500D01*
X301517D01*
G03X302756Y269122I982J1000D01*
G01X302859Y269141D01*
X304500Y267500D01*
Y262500D01*
X302500Y260500D01*
Y251500D01*
X307500Y246500D01*
Y222500D01*
X307342Y222342D01*
G02X306677Y222509I-282J283D01*
G03X304820Y220257I-1677J-509D01*
G01X305000Y220239D01*
Y210909D01*
G02X304396Y210565I-400J0D01*
G03X302684Y210347I-716J-1205D01*
G02X302116I-284J281D01*
G03Y208373I-996J-987D01*
G02X302684I284J-281D01*
G03X302966Y208154I994J989D01*
G02X303037Y207519I-204J-344D01*
G03X303441Y205214I963J-1019D01*
G02X303565Y204565I-159J-367D01*
G01X303500Y204500D01*
X289000D01*
X280500Y196000D01*
Y186000D01*
X282000Y184500D01*
X285000D01*
X285517Y183983D01*
X285266Y183674D01*
G03X285199Y181285I-766J-1174D01*
G02X285798Y180938I199J-347D01*
G01Y174445D01*
X285692Y174388D01*
G03Y171912I658J-1238D01*
G01X285798Y171855D01*
Y164000D01*
X281000D01*
X279500Y165500D01*
X266500D01*
X265000Y164000D01*
Y151500D01*
X260000Y146500D01*
X258699D01*
G02X258322Y147033I0J400D01*
G03X255678I-1322J467D01*
G02X255301Y146500I-377J-133D01*
G01X249500D01*
X246359Y149641D01*
X246378Y149744D01*
G03X244744Y151378I-1378J256D01*
G01X244641Y151359D01*
X243000Y153000D01*
X239913D01*
X239891Y153175D01*
G03X237288Y153704I-1391J-175D01*
G02X236603Y153692I-346J201D01*
G03X234210Y152822I-1103J-692D01*
G01X234224Y152724D01*
X233500Y152000D01*
Y149000D01*
X233750Y148750D01*
Y133250D01*
X231500Y131000D01*
X229007D01*
G02X228723Y131682I0J400D01*
G03X226877I-923J918D01*
G02X226593Y131000I-284J-282D01*
G01X224500D01*
G37*
G36*
G01X282498Y185702D02*
X281702Y186498D01*
Y195502D01*
X289498Y203298D01*
X303998D01*
X306202Y205502D01*
Y219502D01*
X308702Y222002D01*
Y246998D01*
X303702Y251998D01*
Y260002D01*
X305702Y262002D01*
Y267998D01*
X303782Y269918D01*
X303823Y270036D01*
G03X301143Y270851I-1322J465D01*
G01X301104Y270702D01*
X296214D01*
G03X293786I-1214J-702D01*
G01X293298D01*
X292500Y271500D01*
Y295000D01*
X317500D01*
Y294001D01*
X317499Y294000D01*
Y259200D01*
G02X316966Y258822I-400J-1D01*
G03X315333Y258277I-466J-1322D01*
G02X314667I-333J222D01*
G03Y256723I-1167J-777D01*
G02X315333I333J-222D01*
G03X316966Y256178I1167J777D01*
G02X317499Y255800I133J-377D01*
G01Y242100D01*
X315200Y239801D01*
Y210216D01*
G02X314678Y209835I-400J0D01*
G03Y207165I-428J-1335D01*
G02X315200Y206784I122J-381D01*
G01Y196202D01*
X293714D01*
G03X291286I-1214J-702D01*
G01X288502D01*
X285798Y193498D01*
Y186298D01*
X285202Y185702D01*
X282498D01*
G37*
G36*
G01X288000Y146500D02*
X287000Y147500D01*
Y171908D01*
G03Y174392I-650J1242D01*
G01Y193000D01*
X289000Y195000D01*
X291184D01*
X291239Y194887D01*
G03X293761I1261J613D01*
G01X293816Y195000D01*
X316000D01*
X317500Y193500D01*
Y146500D01*
X288000D01*
G37*
%LPC*%
G75*
G36*
G01X160601Y194040D02*
G03X161089Y193661I400J11D01*
G02X159766Y192167I371J-1661D01*
G03X159331Y192604I-398J39D01*
G02X157807Y194160I-131J1396D01*
G03X157372Y194604I-397J46D01*
G02X155847Y196160I-132J1396D01*
G03X155412Y196604I-397J46D01*
G02X156673Y197840I-132J1396D01*
G03X157108Y197396I397J-46D01*
G02X158633Y195840I132J-1396D01*
G03X159068Y195396I397J-46D01*
G02X160601Y194040I132J-1396D01*
G37*
G36*
G01X200765Y165788D02*
G03X200776Y165255I304J-260D01*
G02X198685Y165212I-1026J-955D01*
G03X198674Y165745I-304J260D01*
G02X200765Y165788I1026J955D01*
G37*
G36*
G01X173474Y155164D02*
G03X174061Y155152I299J266D01*
G02X174026Y153386I939J-902D01*
G03X173439Y153398I-299J-266D01*
G02X173474Y155164I-939J902D01*
G37*
G36*
G01X166754Y152598D02*
G03X166254Y152286I-107J-385D01*
G02X163851Y151867I-1280J240D01*
G03X163258Y151979I-345J-202D01*
G02X163573Y153659I-808J1021D01*
G03X164166Y153547I345J202D01*
G02X165324Y153780I808J-1021D01*
G03X165824Y154092I107J385D01*
G02X166754Y152598I1280J-240D01*
G37*
G36*
G01X33010Y136527D02*
G03Y135973I288J-277D01*
G02X30990I-1010J-973D01*
G03Y136527I-288J277D01*
G02X33010I1010J973D01*
G37*
G36*
G01X211895Y133777D02*
G03Y133196I275J-290D01*
G02X210105I-895J-946D01*
G03Y133777I-275J290D01*
G02X211895I895J946D01*
G37*
G36*
G01X214651Y126540D02*
G03X215040Y126151I400J11D01*
G02X213599Y124710I-40J-1401D01*
G03X213210Y125099I-400J-11D01*
G02X214651Y126540I40J1401D01*
G37*
G36*
G01X205889Y122834D02*
G03X206172Y122864I127J155D01*
G02X206215Y120684I1328J-1064D01*
G03X205931Y120702I-151J-131D01*
G02X205889Y122834I-931J1048D01*
G37*
G36*
G01X163795Y116133D02*
G03X164265Y115781I398J41D01*
G02X163205Y114367I235J-1281D01*
G03X162735Y114719I-398J-41D01*
G02X163795Y116133I-235J1281D01*
G37*
G36*
G01X249186Y111277D02*
G03X249102Y110643I196J-349D01*
G02X249647Y109916I-2102J-2143D01*
G03X250353I353J188D01*
G02Y107084I2647J-1416D01*
G03X249647I-353J-188D01*
G02X246825Y111497I-2647J1416D01*
G03X247179Y112030I-23J399D01*
G02X249186Y111277I1321J470D01*
G37*
G36*
G01X55429Y105950D02*
G03Y105350I265J-300D01*
G02X53571I-929J-1050D01*
G03Y105950I-265J300D01*
G02X55429I929J1050D01*
G37*
G36*
G01X-996Y97709D02*
G03X-1474Y98125I-399J24D01*
G02X-515Y100163I-276J1375D01*
G03X110Y100060I352J190D01*
G02X-996Y97709I2390J-2560D01*
G37*
G36*
G01X146910Y96067D02*
G03X147193Y96091I130J152D01*
G02Y93909I1307J-1091D01*
G03X146910Y93933I-153J-128D01*
G02Y96067I-910J1067D01*
G37*
G36*
G01X95027Y77490D02*
G03X94473I-277J-288D01*
G02Y79510I-973J1010D01*
G03X95027I277J288D01*
G02Y77490I973J-1010D01*
G37*
G36*
G01X75599Y237293D02*
G02X72995Y238156I-1211J707D01*
G03X72576Y238600I-398J45D01*
G02X73893Y239844I-76J1400D01*
G03X74312Y239400I398J-45D01*
G02X75599Y238707I76J-1400D01*
G03X76289I345J202D01*
G02Y237293I1211J-707D01*
G03X75599I-345J-202D01*
G37*
G36*
G01X110875Y232775D02*
G02X110070Y233781I-1375J-275D01*
G03X110625Y234225I163J365D01*
G02X111430Y233219I1375J275D01*
G03X110875Y232775I-163J-365D01*
G37*
G36*
G01X123150Y221168D02*
G02X122142Y222207I-1366J-316D01*
G03X122634Y222684I102J387D01*
G02X123642Y221645I1366J316D01*
G03X123150Y221168I-102J-387D01*
G37*
G36*
G01X40277Y220667D02*
G02X38723I-777J-1167D01*
G03Y221333I-222J333D01*
G02X40277I777J1167D01*
G03Y220667I222J-333D01*
G37*
G36*
G01X27836Y202892D02*
G02X26608Y201664I164J-1392D01*
G03X26164Y202108I-398J46D01*
G02X27392Y203336I-164J1392D01*
G03X27836Y202892I398J-46D01*
G37*
G36*
G01X228277Y186667D02*
G02X226723I-777J-1167D01*
G03Y187333I-222J333D01*
G02X228277I777J1167D01*
G03Y186667I222J-333D01*
G37*
G36*
G01X79560Y181337D02*
G02Y182663I-1236J663D01*
G03X80264I352J189D01*
G02Y181337I1236J-663D01*
G03X79560I-352J-189D01*
G37*
G36*
G01X16643Y175415D02*
G02X13415Y178643I-2143J1085D01*
G03Y179357I-180J357D01*
G02Y183643I1085J2143D01*
G03Y184357I-180J357D01*
G02Y188643I1085J2143D01*
G03Y189357I-180J357D01*
G02Y193643I1085J2143D01*
G03Y194357I-180J357D01*
G02Y198643I1085J2143D01*
G03Y199357I-180J357D01*
G02Y203643I1085J2143D01*
G03Y204357I-180J357D01*
G02Y208643I1085J2143D01*
G03Y209357I-180J357D01*
G02Y213643I1085J2143D01*
G03Y214357I-180J357D01*
G02Y218643I1085J2143D01*
G03Y219357I-180J357D01*
G02X16643Y222585I1085J2143D01*
G03X17357I357J180D01*
G02X20585Y219357I2143J-1085D01*
G03Y218643I180J-357D01*
G02Y214357I-1085J-2143D01*
G03Y213643I180J-357D01*
G02Y209357I-1085J-2143D01*
G03Y208643I180J-357D01*
G02Y204357I-1085J-2143D01*
G03Y203643I180J-357D01*
G02Y199357I-1085J-2143D01*
G03Y198643I180J-357D01*
G02Y194357I-1085J-2143D01*
G03Y193643I180J-357D01*
G02Y189357I-1085J-2143D01*
G03Y188643I180J-357D01*
G02Y184357I-1085J-2143D01*
G03Y183643I180J-357D01*
G02Y179357I-1085J-2143D01*
G03Y178643I180J-357D01*
G02X17357Y175415I-1085J-2143D01*
G03X16643I-357J-180D01*
G37*
G36*
G01X-857D02*
G02X-4085Y178643I-2143J1085D01*
G03Y179357I-180J357D01*
G02Y183643I1085J2143D01*
G03Y184357I-180J357D01*
G02Y188643I1085J2143D01*
G03Y189357I-180J357D01*
G02Y193643I1085J2143D01*
G03Y194357I-180J357D01*
G02Y198643I1085J2143D01*
G03Y199357I-180J357D01*
G02Y203643I1085J2143D01*
G03Y204357I-180J357D01*
G02Y208643I1085J2143D01*
G03Y209357I-180J357D01*
G02Y213643I1085J2143D01*
G03Y214357I-180J357D01*
G02Y218643I1085J2143D01*
G03Y219357I-180J357D01*
G02X-857Y222585I1085J2143D01*
G03X-143I357J180D01*
G02X3085Y219357I2143J-1085D01*
G03Y218643I180J-357D01*
G02Y214357I-1085J-2143D01*
G03Y213643I180J-357D01*
G02Y209357I-1085J-2143D01*
G03Y208643I180J-357D01*
G02Y204357I-1085J-2143D01*
G03Y203643I180J-357D01*
G02Y199357I-1085J-2143D01*
G03Y198643I180J-357D01*
G02Y194357I-1085J-2143D01*
G03Y193643I180J-357D01*
G02Y189357I-1085J-2143D01*
G03Y188643I180J-357D01*
G02Y184357I-1085J-2143D01*
G03Y183643I180J-357D01*
G02Y179357I-1085J-2143D01*
G03Y178643I180J-357D01*
G02X-143Y175415I-1085J-2143D01*
G03X-857I-357J-180D01*
G37*
G36*
G01X76892Y171164D02*
G02X75664Y172392I-1392J-164D01*
G03X76108Y172836I46J398D01*
G02X78892I1392J164D01*
G03X79336Y172392I398J-46D01*
G02X79664I164J-1392D01*
G03X80108Y172836I46J398D01*
G02X82892I1392J164D01*
G03X83336Y172392I398J-46D01*
G02X82108Y171164I164J-1392D01*
G03X81664Y171608I-398J46D01*
G02X81336I-164J1392D01*
G03X80892Y171164I-46J-398D01*
G02X78108I-1392J-164D01*
G03X77664Y171608I-398J46D01*
G02X77336I-164J1392D01*
G03X76892Y171164I-46J-398D01*
G37*
G36*
G01X196724Y169384D02*
G02X195109Y168172I-224J-1384D01*
G03X194776Y168616I-397J49D01*
G02X194459Y168706I222J1385D01*
G03X193938Y168496I-154J-369D01*
G02X193191Y170344I-1288J554D01*
G03X193712Y170554I154J369D01*
G02X195164Y171392I1288J-554D01*
G03X195608Y171836I46J398D01*
G02X196836Y170608I1392J164D01*
G03X196392Y170164I-46J-398D01*
G02X196391Y169828I-1392J-164D01*
G03X196724Y169384I397J-49D01*
G37*
G36*
G01X213087Y167799D02*
G02X211813Y167035I-87J-1299D01*
G03X211460Y167599I-365J164D01*
G02X212756Y168376I41J1401D01*
G03X213087Y167799I358J-178D01*
G37*
G36*
G01X921Y165731D02*
G02X-615Y165603I-671J-1231D01*
G03X-671Y166269I-247J315D01*
G02X865Y166397I671J1231D01*
G03X921Y165731I247J-315D01*
G37*
G36*
G01X14948Y164698D02*
G02Y163302I1552J-698D01*
G03X14231Y163330I-365J-163D01*
G02Y164670I-1231J670D01*
G03X14948Y164698I352J191D01*
G37*
G36*
G01X34780Y161165D02*
G02X32763Y160660I-780J-1165D01*
G03X32417Y161249I-353J189D01*
G02X34809Y161847I83J4751D01*
G03X34780Y161165I194J-350D01*
G37*
G36*
G01X47290Y158049D02*
G02X45877Y158897I-1290J-549D01*
G03X46210Y159451I-35J398D01*
G02X48570Y160906I1290J549D01*
G03X49180I305J259D01*
G02X51320I1070J-906D01*
G03X51930I305J259D01*
G02Y159094I1070J-906D01*
G03X51320I-305J-259D01*
G02X49180I-1070J906D01*
G03X48570I-305J-259D01*
G02X47623Y158603I-1070J906D01*
G03X47290Y158049I35J-398D01*
G37*
G36*
G01X32167Y145223D02*
G02Y146777I-1167J777D01*
G03X32833I333J222D01*
G02Y145223I1167J-777D01*
G03X32167I-333J-222D01*
G37*
G36*
G01X165902Y144135D02*
G02X164905Y145366I-1302J-35D01*
G03X165398Y145765I93J389D01*
G02X166395Y144534I1302J35D01*
G03X165902Y144135I-93J-389D01*
G37*
G36*
G01X402Y143990D02*
G02X-1010Y145402I-1402J10D01*
G03X-653Y145976I-3J400D01*
G02X976Y144347I3153J1524D01*
G03X402Y143990I-174J-360D01*
G37*
G36*
G01X164925Y136288D02*
G02X162727Y136703I-975J862D01*
G03X162034Y136809I-376J-137D01*
G02X159905Y136896I-1034J792D01*
G03X159317Y136990I-336J-216D01*
G02X159590Y138705I-822J1010D01*
G03X160178Y138611I336J216D01*
G02X162223Y138048I822J-1010D01*
G03X162916Y137942I376J137D01*
G02X164925Y138012I1033J-792D01*
G03X165525I300J265D01*
G02X166090Y138386I976J-861D01*
G03X166325Y138938I-126J379D01*
G02X166311Y138970I1186J538D01*
G03X165779Y139171I-365J-163D01*
G02X166426Y140885I-542J1184D01*
G03X166958Y140684I365J163D01*
G02X168456Y140384I542J-1184D01*
G03X169044I294J271D01*
G02X170235Y140781I956J-884D01*
G03X170705Y141133I72J393D01*
G02X171385Y142147I1295J-133D01*
G03Y142853I-189J353D01*
G02X172615I615J1147D01*
G03Y142147I189J-353D01*
G02X171765Y139719I-615J-1147D01*
G03X171295Y139367I-72J-393D01*
G02X169044Y138616I-1295J133D01*
G03X168456I-294J-271D01*
G02X167910Y138264I-956J884D01*
G03X167675Y137712I126J-379D01*
G02X165525Y136288I-1175J-562D01*
G03X164925I-300J-265D01*
G37*
G36*
G01X185948Y138552D02*
G02X184552I-698J-1552D01*
G03X184580Y139269I-163J365D01*
G02X184083Y139723I669J1232D01*
G03X183417I-333J-222D01*
G02Y141277I-1167J777D01*
G03X184083I333J222D01*
G02X185920Y139269I1167J-777D01*
G03X185948Y138552I191J-352D01*
G37*
G36*
G01X160115Y126147D02*
G02X158885I-615J-1147D01*
G03Y126853I-189J353D01*
G02X159624Y129296I616J1147D01*
G03X159801Y129618I19J199D01*
G02X159714Y129745I1029J798D01*
G03X159167Y129882I-342J-207D01*
G02X159615Y131672I-667J1118D01*
G03X160162Y131535I342J207D01*
G02X160989Y129125I667J-1118D01*
G03X160677Y128557I50J-397D01*
G02X160115Y126853I-1177J-557D01*
G03Y126147I189J-353D01*
G37*
G36*
G01X176381Y119844D02*
G02Y118156I1119J-844D01*
G03X175753Y118170I-320J-241D01*
G02Y119830I-1003J830D01*
G03X176381Y119844I308J255D01*
G37*
G36*
G01X231547Y118791D02*
G02X229709Y116953I-547J-1291D01*
G03X229043Y117064I-368J-156D01*
G02X226833Y117223I-1043J936D01*
G03X226167I-333J-222D01*
G02Y118777I-1167J777D01*
G03X226833I333J222D01*
G02X229291Y118547I1167J-777D01*
G03X229957Y118436I368J156D01*
G02X230064Y118543I1043J-936D01*
G03X229953Y119209I-267J298D01*
G02X231436Y119457I546J1291D01*
G03X231547Y118791I267J-298D01*
G37*
G36*
G01X140589Y113799D02*
G02X139925Y113668I-89J-1299D01*
G03X139949Y114373I-177J359D01*
G02X141167Y116671I651J1127D01*
G01X141208Y116652D01*
X143373D01*
X145348Y118627D01*
Y122723D01*
X140148Y127923D01*
Y132873D01*
G03X139631Y133255I-400J0D01*
G02X138787Y135717I-381J1245D01*
G03X138927Y136373I-143J373D01*
G01X138002Y137298D01*
X131998D01*
X126998Y132298D01*
X124002D01*
X122298Y134002D01*
Y138298D01*
G03X122099Y138498I-200J0D01*
G02Y141102I1J1302D01*
G03X122298Y141302I-1J200D01*
G01Y143455D01*
G03X121687Y143794I-400J0D01*
G02X119755Y145281I-687J1106D01*
G03X119373Y145798I-382J117D01*
G01X117002D01*
X115884Y146917D01*
G03X115201Y146634I-283J-283D01*
G01X115202Y129498D01*
X119498Y125202D01*
X120998D01*
X122702Y123498D01*
Y120002D01*
X120998Y118298D01*
X120848D01*
Y117962D01*
X120975Y117912D01*
G02X119576Y117617I-475J-1212D01*
G03X119292Y118298I-284J281D01*
G01X117136D01*
G03X116884Y117588I0J-400D01*
G02X114599Y116460I-884J-1088D01*
G03X114210Y116849I-400J-11D01*
G02X114114Y116855I39J1401D01*
G03X113895Y116636I-20J-199D01*
G02X111098Y116468I-1395J-136D01*
G03X110654Y116857I-400J-9D01*
G02X109420Y119144I-154J1393D01*
G03X109111Y119798I-309J254D01*
G01X103551D01*
G03X103151Y119388I0J-400D01*
G02X102582Y118222I-1401J-38D01*
G03Y117578I238J-322D01*
G02X100918I-832J-1128D01*
G03Y118222I-238J322D01*
G02X100365Y119567I832J1128D01*
G01X100367Y119583D01*
Y119798D01*
X100022D01*
X99989Y119786D01*
G02X98198Y120580I-489J1314D01*
G01X98183Y120618D01*
X97292Y121509D01*
G02X94980Y122974I-992J991D01*
G03X94647Y123506I-376J135D01*
G02X95655Y126011I153J1394D01*
G03X96255Y126144I245J317D01*
G02X97149Y126857I1245J-644D01*
G01X97298Y126896D01*
Y128204D01*
X97149Y128243D01*
G02Y130957I351J1357D01*
G01X97298Y130996D01*
Y134104D01*
X97149Y134143D01*
G02Y136857I351J1357D01*
G01X97298Y136896D01*
Y142364D01*
G03X96588Y142616I-400J0D01*
G02Y144384I-1088J884D01*
G03X97298Y144636I310J252D01*
G01Y152498D01*
X99502Y154702D01*
X99801D01*
G03X100200Y155078I0J400D01*
G02X100885Y156147I1300J-79D01*
G03Y156853I-189J353D01*
G02X100587Y158928I615J1147D01*
G01X100730Y159071D01*
X100298Y159502D01*
Y173998D01*
X118316Y192016D01*
G03X118026Y192698I-283J282D01*
G02X116705Y193867I-26J1302D01*
G03X116235Y194219I-398J-41D01*
G02X116253Y196777I-235J1281D01*
G03X116723Y197247I77J393D01*
G02X116708Y197662I1277J254D01*
G03X116262Y198108I-397J49D01*
G02X117392Y199238I-162J1292D01*
G03X117838Y198792I397J-49D01*
G02X117747Y196223I162J-1292D01*
G03X117277Y195753I-77J-393D01*
G02X117295Y195633I-1277J-253D01*
G03X117765Y195281I398J41D01*
G02X119162Y193413I235J-1281D01*
G01X119097Y193284D01*
X119341Y193040D01*
X119502Y193202D01*
X138104D01*
X138143Y193351D01*
G02X139775Y194375I1357J-351D01*
G03X140219Y194930I79J392D01*
G02X141225Y194125I1281J570D01*
G03X140781Y193570I-79J-392D01*
G02X140857Y193351I-1282J-568D01*
G01X140896Y193202D01*
X146998D01*
X151998Y188202D01*
X162502D01*
X174798Y200498D01*
Y202938D01*
G03X174199Y203285I-400J0D01*
G02X172723Y205667I-698J1216D01*
G03Y206333I-222J333D01*
G02X173377Y208897I777J1167D01*
G03X173710Y209451I-35J398D01*
G02X175123Y208603I1290J549D01*
G03X174790Y208049I35J-398D01*
G02X173992Y206187I-1290J-549D01*
G03Y205813I70J-187D01*
G02X174199Y205715I-494J-1312D01*
G03X174792Y205991I199J347D01*
G01X178608Y209807D01*
X178602Y209899D01*
G02X180101Y211398I1398J101D01*
G01X180193Y211392D01*
X181502Y212702D01*
X214998D01*
X220202Y207498D01*
Y196002D01*
X218892Y194693D01*
X218898Y194601D01*
G02X216143Y194149I-1398J-100D01*
G01X216104Y194298D01*
X215502D01*
X211002Y198798D01*
X190498D01*
X187702Y196002D01*
Y194062D01*
G03X188301Y193715I400J0D01*
G02Y191285I699J-1215D01*
G03X187702Y190938I-199J-347D01*
G01Y183502D01*
X185998Y181798D01*
X178498D01*
X178202Y181502D01*
Y166502D01*
X175498Y163798D01*
X170998D01*
X168335Y161135D01*
G03X168326Y160862I141J-141D01*
G02X166488Y159024I-976J-862D01*
G03X166215Y159015I-132J-150D01*
G01X164996Y157796D01*
G03X165095Y157158I283J-283D01*
G02X163394Y156687I-595J-1158D01*
G03X163055Y157298I-339J211D01*
G01X161502D01*
X160298Y158502D01*
Y164002D01*
X155502Y168798D01*
X151702D01*
Y161502D01*
X148202Y158002D01*
Y156971D01*
G02X148240Y155379I-1011J-821D01*
G01X148202Y155326D01*
Y154998D01*
X148531Y154669D01*
X148680Y154818D01*
G02X150632Y153095I970J-868D01*
G03X150650Y152549I301J-263D01*
G01X150702Y152498D01*
Y147998D01*
X151702Y146998D01*
Y144502D01*
X150702Y143502D01*
Y143053D01*
X150712Y143022D01*
G02Y142202I-1236J-410D01*
G01X150702Y142171D01*
Y139003D01*
X150715Y138968D01*
G02Y138032I-1215J-468D01*
G01X150702Y137997D01*
Y136502D01*
X148204Y134005D01*
X148200Y133929D01*
G02X146971Y132700I-1300J71D01*
G01X146895Y132696D01*
X145748Y131548D01*
X142452D01*
Y128877D01*
X147171Y124158D01*
G03X147770Y124196I283J283D01*
G02X148227Y122231I1030J-796D01*
G03X147652Y121871I-175J-359D01*
G01Y117673D01*
X144327Y114348D01*
X141208D01*
X141167Y114329D01*
G02X140602Y114199I-567J1171D01*
G03X140589Y113799I0J-200D01*
G37*
G36*
G01X166225Y111015D02*
G02Y109485I1175J-765D01*
G03X165563Y109498I-335J-218D01*
G02Y111002I-1063J752D01*
G03X166225Y111015I327J231D01*
G37*
G36*
G01X149175Y107938D02*
G02X149088Y109215I-1175J561D01*
G03X149783Y109262I334J219D01*
G02X150237Y109784I1174J-563D01*
G03X150211Y110465I-222J333D01*
G02X149927Y112518I639J1135D01*
G03Y113082I-284J282D01*
G02X150082Y115052I923J918D01*
G03X149996Y115746I-236J323D01*
G02X151280Y115895I505J1254D01*
G03X151355Y115200I231J-327D01*
G02X151773Y113082I-505J-1200D01*
G03Y112518I284J-282D01*
G02X151571Y110516I-923J-918D01*
G03X151597Y109835I222J-333D01*
G02X149870Y107985I-639J-1135D01*
G03X149175Y107938I-334J-219D01*
G37*
G36*
G01X155152Y106127D02*
G02X153925Y106168I-652J-1127D01*
G03X153948Y106873I-177J359D01*
G02X153680Y108921I652J1127D01*
G03X153656Y109508I-283J282D01*
G02X153885Y111647I844J991D01*
G03Y112353I-189J353D01*
G02X155115I615J1147D01*
G03Y111647I189J-353D01*
G02X155420Y109579I-615J-1147D01*
G03X155444Y108992I283J-282D01*
G02X155175Y106832I-844J-992D01*
G03X155152Y106127I177J-359D01*
G37*
G36*
G01X144947Y104385D02*
G02Y105615I-1147J615D01*
G03X145653I353J189D01*
G02Y104385I1147J-615D01*
G03X144947I-353J-189D01*
G37*
G36*
G01X33177Y97364D02*
G02X32111Y96192I323J-1364D01*
G03X31623Y96636I-396J55D01*
G02Y99364I-323J1364D01*
G03X32111Y99808I92J389D01*
G02X33177Y98636I1389J192D01*
G03X32689Y98192I-92J-389D01*
G02Y97808I-1389J-192D01*
G03X33177Y97364I396J-55D01*
G37*
G36*
G01X287777Y94167D02*
G02X286223I-777J-1167D01*
G03Y94833I-222J333D01*
G02X285978Y96960I777J1167D01*
G03Y97508I-291J274D01*
G02X288022I1022J960D01*
G03Y96960I291J-274D01*
G02X287777Y94833I-1022J-960D01*
G03Y94167I222J-333D01*
G37*
G36*
G01X169948Y89198D02*
G02Y87802I1552J-698D01*
G03X169231Y87830I-365J-163D01*
G02Y89170I-1231J670D01*
G03X169948Y89198I352J191D01*
G37*
G36*
G01X291392Y85664D02*
G02X290164Y86892I-1392J-164D01*
G03X290608Y87336I46J398D01*
G02X291836Y86108I1392J164D01*
G03X291392Y85664I-46J-398D01*
G37*
G36*
G01X15819Y86382D02*
G02Y88618I-3319J1118D01*
G03X16487Y88469I379J128D01*
G02Y86531I1013J-969D01*
G03X15819Y86382I-289J-277D01*
G37*
G36*
G01X292730Y74158D02*
G02X291270I-730J-1197D01*
G03Y74841I-208J342D01*
G02X292730I730J1197D01*
G03Y74158I208J-341D01*
G37*
G36*
G01X34560Y78003D02*
G02X30440I-2060J-4003D01*
G03X30422Y78723I-183J356D01*
G02X32167Y80777I578J1277D01*
G03X32833I333J222D01*
G02X34578Y78723I1167J-777D01*
G03X34560Y78003I165J-364D01*
G37*
G36*
G01X106230Y71659D02*
G02X104770I-730J-1197D01*
G03Y72342I-208J341D01*
G02X106230I730J1197D01*
G03Y71659I208J-341D01*
G37*
G36*
G01X55939Y66661D02*
G02X54749Y67902I-1394J-146D01*
G03X55206Y68339I59J396D01*
G02X56010Y69757I1394J146D01*
G03X56099Y70426I-168J363D01*
G02X57590Y70228I901J1074D01*
G03X57501Y69559I168J-363D01*
G02X56396Y67098I-901J-1074D01*
G03X55939Y66661I-59J-396D01*
G37*
G36*
G01X61777Y54167D02*
G02X59709Y52453I-777J-1167D01*
G03X59043Y52564I-368J-156D01*
G02X59291Y54047I-1043J937D01*
G03X59957Y53936I368J156D01*
G02X60223Y54167I1045J-934D01*
G03Y54833I-222J333D01*
G02X61777I777J1167D01*
G03Y54167I222J-333D01*
G37*
G36*
G01X122130Y-2210D02*
G02X117049Y-7619I-2130J-3090D01*
G03X116368Y-7807I-291J-275D01*
G02X115698Y-6284I-1368J307D01*
G03X116295Y-5895I199J347D01*
G02X116282Y-4787I3705J598D01*
G02X122130Y-2210I3717J-511D01*
G37*
G36*
G01X128527Y60990D02*
G03X127973I-277J-288D01*
G02Y63010I-973J1010D01*
G03X128527I277J288D01*
G02X130473I973J-1010D01*
G03X131027I277J288D01*
G02Y60990I973J-1010D01*
G03X130473I-277J-288D01*
G02X128527I-973J1010D01*
G37*
G36*
G01X109596Y45922D02*
G03X109016I-290J-276D01*
G02Y47854I-1016J966D01*
G03X109596I290J276D01*
G02Y45922I1016J-966D01*
G37*
G36*
G01X108992Y36057D02*
G03Y35491I282J-283D01*
G02X107008I-992J-991D01*
G03Y36057I-282J283D01*
G02X108992I992J991D01*
G37*
G36*
G01X109672Y30109D02*
G03X109339Y29593I49J-397D01*
G02X107828Y30567I-1338J-417D01*
G03X108161Y31083I-49J397D01*
G02X109672Y30109I1338J417D01*
G37*
G36*
G01X231951Y79290D02*
G02X231103Y77877I549J-1290D01*
G03X230549Y78210I-398J-35D01*
G02X231397Y79623I-549J1290D01*
G03X231951Y79290I398J35D01*
G37*
G36*
G01X143186Y63895D02*
G02X141931Y62661I138J-1395D01*
G03X141494Y63105I-397J46D01*
G02X142749Y64339I-138J1395D01*
G03X143186Y63895I397J-46D01*
G37*
G36*
G01X120167Y61223D02*
G02Y62777I-1167J777D01*
G03X120833I333J222D01*
G02Y61223I1167J-777D01*
G03X120167I-333J-222D01*
G37*
G36*
G01X135486Y63354D02*
G02X134511Y62991I-33J-1402D01*
G03X134366Y63667I-269J296D01*
G02X135997Y65732I436J1333D01*
G03X136579Y65621I341J209D01*
G02X136225Y63768I841J-1121D01*
G03X135643Y63879I-341J-209D01*
G02X135405Y63734I-845J1119D01*
G03X135486Y63354I86J-180D01*
G37*
G36*
G01X155563Y55525D02*
G02X154078Y56127I-1175J-765D01*
G03X154325Y56735I-89J390D01*
G02X155810Y56133I1175J765D01*
G03X155563Y55525I89J-390D01*
G37*
G36*
G01X159277Y28667D02*
G02X157723I-777J-1167D01*
G03Y29333I-222J333D01*
G02X157333Y29723I777J1167D01*
G03X156667I-333J-222D01*
G02Y31277I-1167J777D01*
G03X157333I333J222D01*
G02X159277Y29333I1167J-777D01*
G03Y28667I222J-333D01*
G37*
G36*
G01X187655Y22730D02*
G02X184317Y26205I-2155J1270D01*
G03X184324Y26906I-189J352D01*
G02X184415Y31143I1176J2094D01*
G03Y31857I-180J357D01*
G02Y36143I1085J2143D01*
G03Y36857I-180J357D01*
G02Y41143I1085J2143D01*
G03Y41857I-180J357D01*
G02Y46143I1085J2143D01*
G03Y46857I-180J357D01*
G02Y51143I1085J2143D01*
G03Y51857I-180J357D01*
G02Y56143I1085J2143D01*
G03Y56857I-180J357D01*
G02Y61143I1085J2143D01*
G03Y61857I-180J357D01*
G02Y66143I1085J2143D01*
G03Y66857I-180J357D01*
G02X187643Y70085I1085J2143D01*
G03X188357I357J180D01*
G02X191585Y66857I2143J-1085D01*
G03Y66143I180J-357D01*
G02Y61857I-1085J-2143D01*
G03Y61143I180J-357D01*
G02Y56857I-1085J-2143D01*
G03Y56143I180J-357D01*
G02Y51857I-1085J-2143D01*
G03Y51143I180J-357D01*
G02Y46857I-1085J-2143D01*
G03Y46143I180J-357D01*
G02Y41857I-1085J-2143D01*
G03Y41143I180J-357D01*
G02Y36857I-1085J-2143D01*
G03Y36143I180J-357D01*
G02Y31857I-1085J-2143D01*
G03Y31143I180J-357D01*
G02X191676Y26906I-1085J-2143D01*
G03X191683Y26205I196J-349D01*
G02X188345Y22730I-1183J-2205D01*
G03X187655I-345J-204D01*
G37*
G36*
G01X254667Y10223D02*
G02Y11777I-1167J777D01*
G03X255333I333J222D01*
G02X257667I1167J-777D01*
G03X258333I333J222D01*
G02Y10223I1167J-777D01*
G03X257667I-333J-222D01*
G02X255333I-1167J777D01*
G03X254667I-333J-222D01*
G37*
G36*
G01X186667Y8223D02*
G02Y9777I-1167J777D01*
G03X187333I333J222D01*
G02X188664Y10392I1167J-777D01*
G03X189108Y10836I46J398D01*
G02X190336Y9608I1392J164D01*
G03X189892Y9164I-46J-398D01*
G02X187333Y8223I-1392J-164D01*
G03X186667I-333J-222D01*
G37*
G36*
G01X133400Y3816D02*
G02Y6184I-3560J1184D01*
G03X134160I380J126D01*
G02Y3816I3560J-1184D01*
G03X133400I-380J-126D01*
G37*
G36*
G01X45900D02*
G02Y6184I-3560J1184D01*
G03X46660I380J126D01*
G02Y3816I3560J-1184D01*
G03X45900I-380J-126D01*
G37*
G36*
G01X133400Y-6484D02*
G02Y-4116I-3560J1184D01*
G03X134160I380J126D01*
G02Y-6484I3560J-1184D01*
G03X133400I-380J-126D01*
G37*
G36*
G01X45900D02*
G02Y-4116I-3560J1184D01*
G03X46660I380J126D01*
G02Y-6484I3560J-1184D01*
G03X45900I-380J-126D01*
G37*
G36*
G01X99392Y-8836D02*
G02X98164Y-7608I-1392J-164D01*
G03X98608Y-7164I46J398D01*
G02X99836Y-8392I1392J164D01*
G03X99392Y-8836I-46J-398D01*
G37*
G36*
G01X230213Y163463D02*
G03X229625Y163345I-242J-319D01*
G02X229287Y165037I-1125J655D01*
G03X229875Y165155I242J319D01*
G02X230213Y163463I1125J-655D01*
G37*
G36*
G01X281667Y236723D02*
G02Y238277I-1167J777D01*
G03X282333I333J222D01*
G02Y236723I1167J-777D01*
G03X281667I-333J-222D01*
G37*
G36*
G01X272777Y238667D02*
G02X271223I-777J-1167D01*
G03Y239333I-222J333D01*
G02X272777I777J1167D01*
G03Y238667I222J-333D01*
G37*
G36*
G01X225522Y224318D02*
G02X224622Y222743I478J-1318D01*
G03X223990Y222990I-393J-74D01*
G02X220295Y223817I-1490J2010D01*
G03X219594Y223824I-352J-189D01*
G02X216415Y227143I-2094J1176D01*
G03Y227857I-180J357D01*
G02X219594Y231176I1085J2143D01*
G03X220295Y231183I349J196D01*
G02X223770Y227845I2205J-1183D01*
G03Y227155I204J-345D01*
G02X224988Y224736I-1270J-2156D01*
G03X225522Y224318I398J-42D01*
G37*
G36*
G01X246510Y165973D02*
G02X244490I-1010J-973D01*
G03Y166527I-288J277D01*
G02X244333Y166723I1012J971D01*
G03X243667I-333J-222D01*
G02Y168277I-1167J777D01*
G03X244333I333J222D01*
G02X246510Y166527I1167J-778D01*
G03Y165973I288J-277D01*
G37*
G36*
G01X304777Y161667D02*
G02X303223I-777J-1167D01*
G03Y162333I-222J333D01*
G02X304777I777J1167D01*
G03Y161667I222J-333D01*
G37*
G54D22*
X275000Y119500D03*
G54D21*
X286800Y138000D03*
G54D20*
X298600Y119500D03*
G54D31*
X65000Y72500D03*
Y62500D03*
X70000Y67500D03*
X75000Y62500D03*
Y72500D03*
X177500Y97500D03*
X185600Y149800D03*
X235500Y106000D03*
X243000Y135750D03*
X237500Y130750D03*
X219500Y181000D03*
X274500Y143000D03*
X125000Y32500D03*
Y37500D03*
X120000D03*
X125000Y42500D03*
X120000Y27500D03*
Y42500D03*
Y32500D03*
X125000Y27500D03*
X120000Y52500D03*
Y47500D03*
X125000Y52500D03*
Y47500D03*
X140000Y27500D03*
Y37500D03*
Y32500D03*
X130000D03*
X135000D03*
Y37500D03*
X130000Y42500D03*
X135000Y27500D03*
X130000Y37500D03*
X140000Y42500D03*
X130000Y27500D03*
X145000Y42500D03*
Y37500D03*
X135000Y42500D03*
X145000Y32500D03*
Y27500D03*
X130000Y47500D03*
X145000Y52500D03*
X140000Y47500D03*
X130000Y52500D03*
X135000Y47500D03*
X140000Y52500D03*
X135000D03*
X145000Y47500D03*
X309000Y173000D03*
G54D26*
X2500Y37500D03*
Y47500D03*
Y27500D03*
Y57500D03*
Y67500D03*
Y77500D03*
Y87500D03*
Y107500D03*
Y127500D03*
Y137500D03*
Y117500D03*
Y157500D03*
X12500Y37500D03*
Y47500D03*
Y27500D03*
Y57500D03*
Y77500D03*
Y67500D03*
Y107500D03*
Y97500D03*
Y117500D03*
Y127500D03*
Y137500D03*
Y157500D03*
Y147500D03*
X65074Y128284D03*
X58003Y135355D03*
X65074Y142426D03*
X100429Y92929D03*
Y107071D03*
X93358Y100000D03*
X72145Y121213D03*
Y135355D03*
X93358Y114142D03*
X86287Y121213D03*
X79216Y114142D03*
Y128284D03*
X107500Y100000D03*
X215100Y-28300D03*
X208500Y39000D03*
X218500D03*
X241500D03*
X254900Y-28300D03*
X251500Y39000D03*
X300000Y265000D03*
X310000D03*
G54D32*
X60000Y195000D03*
X52500D03*
X60000Y202500D03*
Y217500D03*
X52500D03*
Y225000D03*
X60000D03*
X52500Y202500D03*
Y210000D03*
X60000D03*
X82500Y195000D03*
X75000D03*
X67500D03*
Y202500D03*
X82500D03*
X75000D03*
Y210000D03*
X82500D03*
Y217500D03*
X75000D03*
X67500D03*
Y225000D03*
X75000D03*
X82500D03*
X67500Y210000D03*
X297500Y222000D03*
X290000D03*
X305000Y232000D03*
X297500D03*
X290000D03*
G54D28*
X5500Y194000D03*
X95500Y149500D03*
X95000Y183500D03*
X89500Y191500D03*
X95500Y209016D03*
X120300Y136450D03*
X98100Y160100D03*
X98000Y157000D03*
X98500Y168000D03*
X98250Y183500D03*
X99500Y190500D03*
X101000Y204900D03*
Y197060D03*
X104000Y199020D03*
X101000Y200980D03*
X104000Y202940D03*
X99000Y209016D03*
X101000Y212840D03*
X104000Y207160D03*
X150500Y105000D03*
X138120Y118100D03*
X135300Y119600D03*
X130500Y123500D03*
X133000Y108700D03*
X135750Y133000D03*
X139500Y122000D03*
X134000Y123500D03*
X132300Y134400D03*
X143500Y122000D03*
X127400Y120800D03*
X161500Y106000D03*
X158700Y119600D03*
X168000Y129500D03*
X161500Y112000D03*
X166250Y124000D03*
X172000Y150500D03*
X171750Y147000D03*
X174500Y158300D03*
X168000Y142500D03*
X160000Y146250D03*
X204700Y133050D03*
X214600Y133100D03*
X201500Y133050D03*
X216700Y136100D03*
X204001Y165251D03*
X201500Y137150D03*
X202500Y159500D03*
X215400Y154600D03*
X216001Y144901D03*
X222700Y135700D03*
X225627Y134977D03*
X232000Y136000D03*
X224500Y166400D03*
X236500Y159000D03*
G54D34*
X141500Y118500D03*
X170500Y160000D03*
X207000Y164000D03*
X202801Y146251D03*
X236600Y162600D03*
G54D30*
X17600Y285730D03*
X20000Y266440D03*
X79400Y285730D03*
X77000Y266440D03*
X308200Y-9300D03*
Y53300D03*
G54D27*
X-1750Y93000D03*
X-4250Y104750D03*
X-8500Y115500D03*
Y130000D03*
Y119000D03*
Y122500D03*
X-8000Y152500D03*
X2500Y238250D03*
X5500Y245500D03*
X-3500Y239000D03*
X32000Y43500D03*
X34000Y85000D03*
Y90000D03*
X33500Y105000D03*
X20099Y106495D03*
X20000Y90000D03*
Y95000D03*
Y85000D03*
Y115000D03*
Y120000D03*
Y135000D03*
X34000Y125000D03*
X32000Y130000D03*
X20000Y125000D03*
Y130000D03*
X33500Y110000D03*
X20000D03*
Y140000D03*
Y155000D03*
Y150000D03*
X31000Y142500D03*
X20000Y160000D03*
X34000Y155000D03*
X20000Y145000D03*
X34000Y150000D03*
X24750Y175750D03*
X35500Y246500D03*
X14000Y234500D03*
X8000D03*
X22500Y238250D03*
X11000Y243000D03*
X14000Y239000D03*
X31770Y268230D03*
X59500Y16000D03*
X42500Y46000D03*
X58000Y57500D03*
X57000Y76500D03*
X54545Y62575D03*
X45750Y74500D03*
X46500Y64545D03*
X62000Y48000D03*
X61000Y87500D03*
X63105Y80900D03*
X54500Y101000D03*
Y97650D03*
X66000Y133600D03*
X45000Y115000D03*
X65300Y111700D03*
X53500Y147000D03*
X53000Y154000D03*
X49000Y152000D03*
X56500Y149000D03*
X58500Y141000D03*
X53500Y143500D03*
X57500Y160800D03*
X59750Y151500D03*
X52500Y173000D03*
X61520Y173500D03*
X46500Y176500D03*
X54708Y182000D03*
X65440Y173500D03*
X59560Y176500D03*
X63480D03*
X49500Y184000D03*
X43800Y184700D03*
Y190300D03*
X39500Y195240D03*
Y201144D03*
X39000Y206500D03*
X39500Y212952D03*
X43800Y237800D03*
X49500Y252500D03*
X59500D03*
X59862Y238000D03*
X54500Y252500D03*
X52740Y238000D03*
X46000Y227500D03*
X62580Y240920D03*
X64548Y238000D03*
X63290Y272500D03*
X61320Y268230D03*
X43590D03*
X49500D03*
X37680D03*
X60000Y257000D03*
X56500D03*
X75500Y38000D03*
X67045Y54100D03*
X69985Y52045D03*
X73500Y52000D03*
X79500Y79500D03*
X93500Y91000D03*
X69000Y103500D03*
X72500D03*
X93500Y87000D03*
X87500Y90000D03*
X67000Y87500D03*
X72955Y86955D03*
X70985Y80900D03*
X76425D03*
X67045D03*
X72500Y107000D03*
X92500Y127600D03*
X69000Y107000D03*
X74500Y153000D03*
X80000Y142250D03*
X85500Y153000D03*
X80000Y150000D03*
X85500Y148500D03*
X74500Y146000D03*
X80000Y138900D03*
X85597Y178403D03*
X70452Y182000D03*
X69660Y173500D03*
X74388Y182000D03*
X72420Y179080D03*
X67400Y176500D03*
X76356Y179080D03*
X95500Y224760D03*
X91500Y241000D03*
X74500Y252500D03*
X79500D03*
X91700Y232200D03*
X69500Y252500D03*
X88000Y241000D03*
X84500Y235000D03*
X81000Y238000D03*
X99000Y81000D03*
X125500Y90500D03*
X119000Y89500D03*
X115000Y103000D03*
X99000Y224760D03*
X126500Y207000D03*
X122750Y215100D03*
X126500Y220852D03*
Y217060D03*
X104000Y222940D03*
X101000Y217060D03*
X104000Y219020D03*
Y215100D03*
X101000Y220980D03*
X153500Y70500D03*
X132000Y92000D03*
X129500Y94500D03*
X156000Y95000D03*
X137500Y86500D03*
X144500Y88500D03*
X139500Y91000D03*
X137500Y94500D03*
X142000Y85500D03*
X134000Y86500D03*
X153000Y88000D03*
X134000Y196500D03*
X143250Y226000D03*
X136500Y199000D03*
X131500D03*
X139500Y203000D03*
X137500Y226000D03*
X158500Y73000D03*
X164000Y88500D03*
Y98000D03*
X186000Y95650D03*
X168000Y84500D03*
X177000Y90500D03*
X168000Y92000D03*
X161000Y95000D03*
X186000Y99500D03*
X170000Y100500D03*
X173500D03*
X181000Y94000D03*
X184500Y128000D03*
X182500Y110000D03*
X173250Y110250D03*
X184500Y124000D03*
X185250Y145150D03*
X186500Y164000D03*
X182750Y157750D03*
X185850Y154100D03*
X181000Y174000D03*
X168500Y205500D03*
X169000Y209500D03*
X183500Y244000D03*
X185500Y240500D03*
X158250Y238250D03*
X181500Y238500D03*
X178500Y240000D03*
X161500D03*
Y244500D03*
X167000Y273000D03*
X173000Y270500D03*
X169000Y257500D03*
X214000Y106700D03*
X191500Y106000D03*
X214000Y114300D03*
X200250Y124000D03*
X189500Y126000D03*
X200250Y127300D03*
X205000Y127000D03*
X196500Y164300D03*
X190500Y159500D03*
X195000D03*
X198500D03*
X190500Y154500D03*
X195000Y156000D03*
X215750Y183200D03*
X200000Y191500D03*
X205000Y192500D03*
X214750Y179250D03*
X188500Y175000D03*
X194500D03*
X195500Y192500D03*
X198000Y177000D03*
X204000Y168500D03*
X207500Y236500D03*
X193150Y239000D03*
X206150Y277060D03*
Y286060D03*
X210650Y277060D03*
Y286060D03*
X198000Y270500D03*
X204000Y273000D03*
X203000Y258000D03*
X245000Y98000D03*
X231000Y102500D03*
X222000Y106650D03*
X231000Y106000D03*
X217750Y128750D03*
X222000Y115250D03*
X233500Y110000D03*
X239000D03*
X241500Y116000D03*
X217750Y117250D03*
X222000Y122250D03*
X230500Y124500D03*
X236000Y114500D03*
X227500Y122250D03*
X240000Y140000D03*
Y143500D03*
X243500D03*
X238500Y148000D03*
X221000Y191000D03*
X228800Y211000D03*
X224500Y201000D03*
X222500Y273000D03*
X228500Y270500D03*
X224000Y258000D03*
X276160Y35840D03*
Y48500D03*
X273500Y96500D03*
X275000Y81200D03*
X273500Y92000D03*
X266000Y108500D03*
X263000Y111500D03*
X260500Y136500D03*
X266000Y134500D03*
X260000Y109000D03*
X260450Y132450D03*
X249000Y118500D03*
X260000Y118000D03*
X252500Y118500D03*
X273800Y146700D03*
X252000Y137000D03*
X252500Y270500D03*
X261000Y277000D03*
Y286000D03*
X265500D03*
Y277000D03*
X258500Y273000D03*
X301000Y-4000D03*
X288960Y35960D03*
X279000Y41000D03*
X282500Y46000D03*
X286400Y25100D03*
X291500Y32000D03*
X285500Y64000D03*
X285000Y75000D03*
X277500Y59500D03*
X280000Y75000D03*
X300000Y96500D03*
X296000Y102000D03*
X280000Y85000D03*
X286520Y85480D03*
X283000Y96000D03*
X282500Y153000D03*
X278300Y158300D03*
X87000Y-8500D03*
X84500Y42000D03*
X119708Y15500D03*
X108000Y40984D03*
X113000Y22500D03*
X110612Y27208D03*
Y39016D03*
X125612Y18112D03*
X117740D03*
X99000Y63000D03*
X113500Y58500D03*
X110612Y54760D03*
X109500Y58500D03*
X99000Y66500D03*
X110612Y50824D03*
X108000Y52792D03*
X127580Y15500D03*
X148000Y16500D03*
X143000D03*
X132000Y14200D03*
X152500Y16500D03*
X139388Y18112D03*
X156000Y62500D03*
X147260D03*
X139388Y61888D03*
X151500Y62500D03*
X177000Y2500D03*
X171000D03*
Y27500D03*
X177000D03*
X168500Y45500D03*
X159500Y41000D03*
X162500Y23500D03*
X161500Y35500D03*
X159500Y48000D03*
X211000Y15000D03*
X197000Y13500D03*
X207500Y11500D03*
X196500Y10000D03*
X203500Y46000D03*
X211000Y26500D03*
X201500Y33500D03*
X197000Y17000D03*
X211500Y70500D03*
X215000Y67000D03*
X215500Y55000D03*
X203000Y62500D03*
X207500D03*
Y73000D03*
X212500Y85000D03*
X207500D03*
X228500Y-20500D03*
X231500Y-24000D03*
X245000Y5000D03*
X237500Y1500D03*
X226500Y6500D03*
X232500Y24000D03*
X224000Y33000D03*
X227000Y31500D03*
X234500Y41000D03*
X223300Y42800D03*
X218500Y27500D03*
X232500Y66000D03*
X237500D03*
X221500Y50000D03*
Y55000D03*
X237500Y88100D03*
X217500D03*
X237500Y78000D03*
X242500D03*
Y88100D03*
X230000Y83500D03*
X258500Y44000D03*
X257500Y62500D03*
X260200Y66000D03*
X252500Y62500D03*
X257500Y88100D03*
X252500Y78000D03*
X247500D03*
X257500D03*
X170000Y222000D03*
X202200Y149500D03*
X245000Y158000D03*
X242500Y195000D03*
Y183500D03*
X227570Y168930D03*
X237500Y174500D03*
Y170500D03*
X229500Y174500D03*
X233000D03*
X246000Y197500D03*
Y214000D03*
X237000Y219000D03*
X231000Y227500D03*
Y232000D03*
X248000Y160000D03*
X250000Y152000D03*
X268500Y193500D03*
X257500Y187500D03*
X267500Y177500D03*
X252800Y182300D03*
X264500Y170500D03*
X259000D03*
X247000Y183500D03*
X247500Y174500D03*
Y170500D03*
X261000Y201500D03*
X268500Y205500D03*
X251000Y210000D03*
X255500Y203000D03*
X270500Y198500D03*
X268500Y222500D03*
Y215500D03*
Y219000D03*
X256000Y241000D03*
X268500Y227500D03*
X262000Y248500D03*
X276000Y237500D03*
X256500Y227500D03*
X268500Y232500D03*
X258000Y258000D03*
X283200Y165900D03*
X278000Y175000D03*
X278073Y178700D03*
X283200Y171100D03*
X279500Y205500D03*
X296000Y209300D03*
X284500Y214000D03*
X287000Y242000D03*
X294000Y245500D03*
X300060Y244600D03*
X303500D03*
X289000Y250500D03*
X298750Y257250D03*
X297000Y199000D03*
X301900Y198750D03*
X312250Y220000D03*
X309500Y200500D03*
X307500Y270500D03*
X312500Y278500D03*
X309000Y287000D03*
X312500Y291500D03*
X300500Y156500D03*
X289000Y160500D03*
X292500D03*
X305000Y181500D03*
Y177500D03*
G54D40*
X199500Y147000D03*
G54D24*
X127500Y279000D03*
G54D23*
X154050Y275800D03*
X100950D03*
G54D33*
X85000Y272500D03*
X114100Y254200D03*
Y264000D03*
X140900Y254200D03*
Y264000D03*
X212500Y10000D03*
X217500Y20000D03*
X232500Y10000D03*
X222500D03*
X242500D03*
X227500Y20000D03*
X237500D03*
X247500D03*
G54D29*
X29400Y37500D03*
Y19900D03*
X55000Y37500D03*
Y19900D03*
X44900Y168500D03*
X69400Y37500D03*
X32500Y5000D03*
Y-5300D03*
X60060D03*
Y5000D03*
X95000Y37500D03*
Y19900D03*
X85000Y50000D03*
X97500D03*
X120000Y5000D03*
X147560Y-5300D03*
Y5000D03*
X280000Y252500D03*
G54D39*
X199500Y-3000D03*
X260500D03*
G54D35*
X185000Y261400D03*
Y285000D03*
X240000Y261400D03*
Y285000D03*
G54D38*
X72150Y-15970D03*
Y6430D03*
X107910Y-15970D03*
Y6430D03*
X159650Y-15970D03*
Y6430D03*
G54D36*
X308200Y-27200D03*
Y71200D03*
G54D25*
X0Y0D03*
Y270000D03*
G54D37*
X207500Y-15000D03*
X252500D03*
%LPD*%
G75*
G36*
G01X116500Y119500D02*
X115000Y121000D01*
X100911D01*
X100899Y121188D01*
G03X99033Y122422I-1399J-88D01*
G02X98500Y122799I-133J377D01*
G01Y124517D01*
G03Y126483I-1000J983D01*
G01Y128617D01*
G03Y130583I-1000J983D01*
G01Y134517D01*
G03Y136483I-1000J983D01*
G01Y142301D01*
G02X98923Y142700I400J0D01*
G03Y145300I77J1300D01*
G02X98500Y145699I-23J399D01*
G01Y147907D01*
G02X99041Y148282I400J1D01*
G03Y150718I459J1218D01*
G02X98500Y151093I-141J374D01*
G01Y152000D01*
X100000Y153500D01*
X102000D01*
X103000Y154500D01*
Y158500D01*
X101500Y160000D01*
Y173500D01*
X111047Y183047D01*
G02X111605Y183055I283J-283D01*
G03X113802Y183997I895J945D01*
G02X114390Y184350I400J0D01*
G03X115491Y186706I610J1150D01*
G02X115359Y187359I151J370D01*
G01X120000Y192000D01*
X138517D01*
G03X139775Y191625I983J1000D01*
G02X140219Y191070I79J-392D01*
G03X142667Y189723I1281J-570D01*
G02X143333I333J-222D01*
G03X145610Y191356I1168J776D01*
G02X145927Y192000I317J244D01*
G01X146500D01*
X151500Y187000D01*
X163000D01*
X176000Y200000D01*
Y205500D01*
X179286Y208786D01*
X179412Y208727D01*
G03X181273Y210588I588J1273D01*
G01X181214Y210714D01*
X182000Y211500D01*
X214500D01*
X219000Y207000D01*
Y196500D01*
X218214Y195714D01*
X218088Y195773D01*
G03X216517Y195500I-588J-1273D01*
G01X216000D01*
X211500Y200000D01*
X193912D01*
G02X193585Y200631I0J400D01*
G03X191295I-1145J809D01*
G02X190968Y200000I-327J-231D01*
G01X190000D01*
X186500Y196500D01*
Y184000D01*
X185500Y183000D01*
X178000D01*
X177000Y182000D01*
Y167000D01*
X175000Y165000D01*
X170500D01*
X164000Y158500D01*
X162000D01*
X161500Y159000D01*
Y164500D01*
X156000Y170000D01*
X155593D01*
G02X155218Y170541I-1J400D01*
G03X152782I-1218J459D01*
G02X152407Y170000I-374J-141D01*
G01X145493D01*
G02X145118Y170541I-1J400D01*
G03X142682I-1218J459D01*
G02X142307Y170000I-374J-141D01*
G01X135141D01*
G02X134756Y170506I1J400D01*
G03X132244I-1256J344D01*
G02X131859Y170000I-386J-106D01*
G01X131416D01*
X129502Y171915D01*
Y176415D01*
X126665Y179252D01*
X124335D01*
X123541Y178457D01*
X123400Y178575D01*
G03X122577Y176100I-900J-1075D01*
G02X122998Y175701I21J-399D01*
G01Y168498D01*
X121502Y167002D01*
X116835D01*
X116834Y167000D01*
X116500D01*
X114000Y164500D01*
Y129000D01*
X119000Y124000D01*
X120500D01*
X121500Y123000D01*
Y120500D01*
X120500Y119500D01*
X116500D01*
G37*
G36*
G01X142452Y132750D02*
Y136277D01*
X138377Y140352D01*
X133577D01*
X131042Y142886D01*
X131027Y142930D01*
G03X130969Y143071I-1231J-424D01*
G01X130948Y143112D01*
Y144801D01*
G03X128633Y145039I-1098J699D01*
G01X128646Y145004D01*
Y143112D01*
X128625Y143071D01*
G03X129370Y141273I1172J-568D01*
G01X129414Y141258D01*
X131830Y138841D01*
G02X131689Y138500I-142J-141D01*
G01X131500D01*
X128877Y135877D01*
G02X128325Y135864I-283J283D01*
G03X126605Y133910I-875J-964D01*
G01X126611Y133905D01*
X126758Y133758D01*
X126500Y133500D01*
X124500D01*
X123500Y134500D01*
Y146000D01*
X122500Y147000D01*
X117500D01*
X115250Y149250D01*
Y164000D01*
X117250Y166000D01*
X122000D01*
X124000Y168000D01*
Y177500D01*
X124750Y178250D01*
X126250D01*
X128500Y176000D01*
Y172299D01*
G02X127842Y171994I-400J0D01*
G03X128288Y170809I-842J-993D01*
G02X128966Y171034I396J-58D01*
G01X131250Y168750D01*
X150500D01*
Y162000D01*
X148957Y160457D01*
G02X148370Y160480I-283J283D01*
G03X147194Y160922I-989J-847D01*
G02X146776Y161489I-57J396D01*
G03X144468Y161405I-1176J560D01*
G02X144301Y160851I-348J-197D01*
G03X145822Y158781I588J-1162D01*
G02X146408Y158768I287J-279D01*
G03X146877Y158432I974J864D01*
G01X147000Y158381D01*
Y157447D01*
X146852Y157407D01*
G03Y154893I339J-1257D01*
G01X147000Y154853D01*
Y154336D01*
X146860Y154292D01*
G03X148381Y152405I390J-1242D01*
G02X149011Y152489I347J-199D01*
G01X149500Y152000D01*
Y147500D01*
X150500Y146500D01*
Y145000D01*
X149414Y143914D01*
X149344Y143907D01*
G03X149017Y143830I132J-1295D01*
G02X148502Y144062I-141J374D01*
G03X147745Y142378I-1216J-466D01*
G02X148260Y142146I141J-374D01*
G03X148286Y142083I1216J465D01*
G02X148110Y141801I-182J-82D01*
G03X147905Y139221I40J-1301D01*
G02X148222Y138751I-75J-393D01*
G03X148219Y138265I1278J-251D01*
G02X147875Y137796I-393J-72D01*
G03X146900Y135863I158J-1292D01*
G02X146634Y135274I-348J-197D01*
G03X145732Y133424I266J-1274D01*
G01X145796Y133296D01*
X145250Y132750D01*
X142452D01*
G37*
G36*
G01X141342Y116030D02*
X141236Y116136D01*
X140412Y115500D01*
X141236Y114864D01*
X141342Y114970D01*
G03Y116030I-530J530D01*
G37*
%LPC*%
G75*
G36*
G01X128116Y185276D02*
G03X127672Y185609I-395J-64D01*
G02X128884Y187224I-172J1391D01*
G03X129328Y186891I395J64D01*
G02X129588Y186899I173J-1391D01*
G03X129800Y187088I12J200D01*
G02X133200I1700J-88D01*
G03X133412Y186899I200J11D01*
G02X132132Y185193I88J-1399D01*
G03X131891Y185344I-195J-44D01*
G02X131109I-391J1656D01*
G03X130868Y185193I-46J-195D01*
G02X128116Y185276I-1368J307D01*
G37*
G36*
G01X138527Y174990D02*
G03X137973I-277J-288D01*
G02X135990Y176973I-973J1010D01*
G03Y177527I-288J277D01*
G02X138010I1010J973D01*
G03Y176973I288J-277D01*
G02X138094Y176877I-1012J-970D01*
G03X138406I156J125D01*
G02X138527Y174990I1094J-877D01*
G37*
G36*
G01X164719Y169235D02*
G03X164367Y169705I-393J72D01*
G02X165781Y170765I133J1295D01*
G03X166133Y170295I393J-72D01*
G02X164719Y169235I-133J-1295D01*
G37*
G36*
G01X145328Y178391D02*
G02X144116Y176776I172J-1391D01*
G03X143672Y177109I-395J-64D01*
G02X142116Y178276I-172J1391D01*
G03X141672Y178609I-395J-64D01*
G02X140116Y179776I-172J1391D01*
G03X139672Y180109I-395J-64D01*
G02X139276Y182884I-172J1391D01*
G03X139609Y183328I-64J395D01*
G02X139608Y183664I1391J172D01*
G03X139164Y184108I-398J46D01*
G02X140392Y185336I-164J1392D01*
G03X140836Y184892I398J-46D01*
G02X141224Y182116I164J-1392D01*
G03X140891Y181672I64J-395D01*
G02X140901Y181545I-1391J-173D01*
G03X141151Y181358I200J7D01*
G02X142884Y180224I349J-1358D01*
G03X143328Y179891I395J64D01*
G02X144884Y178724I172J-1391D01*
G03X145328Y178391I395J64D01*
G37*
G36*
G01X162670Y175231D02*
G02X161330I-670J-1231D01*
G03X161302Y175948I-191J352D01*
G02X160306Y177662I698J1552D01*
G03X159928Y178100I-398J38D01*
G02X161400Y179572I72J1400D01*
G03X161838Y179194I400J20D01*
G02X162698Y175948I161J-1694D01*
G03X162670Y175231I163J-365D01*
G37*
G36*
G01X122113Y149763D02*
G03X121525Y149645I-242J-319D01*
G02X121187Y151337I-1125J655D01*
G03X121775Y151455I242J319D01*
G02X122113Y149763I1125J-655D01*
G37*
G36*
G01X131677Y161200D02*
G02X130485Y160207I73J-1300D01*
G03X130073Y160700I-389J94D01*
G02X131265Y161693I-73J1300D01*
G03X131677Y161200I389J-94D01*
G37*
G36*
G01X121525Y152845D02*
G02X119825Y154668I-1125J655D01*
G03X119848Y155373I-177J359D01*
G02X121090Y157661I652J1127D01*
G03X121671Y158007I181J356D01*
G02X122383Y156812I1302J-34D01*
G03X121802Y156466I-181J-356D01*
G02X121075Y155332I-1302J34D01*
G03X121052Y154627I177J-359D01*
G02X121187Y154537I-653J-1126D01*
G03X121775Y154655I242J319D01*
G02X122113Y152963I1125J-655D01*
G03X121525Y152845I-242J-319D01*
G37*
G36*
G01X131147Y149885D02*
G02Y151115I-1147J615D01*
G03X131853I353J189D01*
G02X132867Y151795I1147J-615D01*
G03X133219Y152265I-41J398D01*
G02X134633Y151205I1281J235D01*
G03X134281Y150735I41J-398D01*
G02X131853Y149885I-1281J-235D01*
G03X131147I-353J-189D01*
G37*
G54D31*
X166500Y181000D03*
G54D28*
X117600Y121300D03*
X110500Y135500D03*
X110000Y132000D03*
X111900Y125500D03*
X104500Y160000D03*
X110500Y165500D03*
Y145500D03*
X104500Y168000D03*
X116500Y177500D03*
X118000Y183500D03*
X116500Y171500D03*
X168500Y171200D03*
X160378Y170000D03*
X137000Y144500D03*
X122000Y162000D03*
X147525Y146790D03*
X142002Y162049D03*
X138870Y162074D03*
G54D27*
X102750Y128000D03*
Y134500D03*
Y131250D03*
X121000Y185500D03*
X144500Y187000D03*
Y183500D03*
X156500Y179500D03*
X150850D03*
X131500Y177000D03*
X183500Y195500D03*
Y186500D03*
X170000Y175400D03*
X166500D03*
X158500Y175000D03*
X214100Y201350D03*
X191500Y209440D03*
X195000D03*
X202500Y207500D03*
%LPD*%
G75*
G54D10*
X2500Y27500D03*
X93358Y114142D03*
X205100Y-34300D03*
X208500Y39000D03*
X241500D03*
X254900Y-28300D03*
X300000Y265000D03*
G54D11*
X2500Y241750D03*
X20000Y81500D03*
Y103500D03*
X15500Y91000D03*
X22500Y241750D03*
X35000Y11500D03*
X61500Y24000D03*
X57500Y126500D03*
Y118500D03*
X55500Y141000D03*
X56500Y145500D03*
X64500Y252500D03*
X73500Y27000D03*
X83500Y68485D03*
X93000Y68500D03*
X87000D03*
X86500Y98500D03*
X85500Y254500D03*
X96000Y-22500D03*
X97500Y31500D03*
X100500Y34500D03*
X111000Y89500D03*
X101600Y122700D03*
X109600Y128100D03*
X102500Y143000D03*
X110500Y148500D03*
Y151500D03*
Y139000D03*
Y142500D03*
Y155000D03*
Y158500D03*
Y162000D03*
X121676Y18112D03*
X136000Y14200D03*
X135300Y117000D03*
X120500Y122700D03*
X124550Y134450D03*
X121000Y142000D03*
X120250Y133320D03*
X122650Y132950D03*
X134647Y135203D03*
X129797Y142503D03*
X129850Y145500D03*
X127497Y161303D03*
X120500Y159000D03*
X136964Y170672D03*
X130500Y172500D03*
X122000Y171000D03*
X119500Y172000D03*
X125500Y177000D03*
X116500Y174500D03*
X158500Y23500D03*
X156500Y16500D03*
X153000Y10500D03*
X142500Y8000D03*
X155500Y41000D03*
Y48000D03*
X151000Y95000D03*
X142000D03*
X148500Y89000D03*
X154500Y119600D03*
X144450Y119000D03*
X140600Y115500D03*
X139597Y143003D03*
X149630Y145543D03*
X139500Y146500D03*
Y150500D03*
X144000Y133700D03*
X149100Y133000D03*
X139900Y159900D03*
X149200Y162050D03*
X149098Y157955D03*
X146800Y171000D03*
X139500D03*
X144500Y195000D03*
X156500Y222000D03*
X162500Y17500D03*
X166500Y38000D03*
X167500Y69500D03*
X161500Y109000D03*
X177500Y100500D03*
X173000Y121250D03*
X170500Y129500D03*
X175500Y123000D03*
X159500Y159750D03*
X174500Y166000D03*
X160378Y167072D03*
X162500Y159603D03*
Y163250D03*
X165000Y222000D03*
X160000D03*
X195500Y87000D03*
X199000D03*
X186000Y105000D03*
X181000Y90500D03*
X197500Y89500D03*
X194000Y145500D03*
X188500Y168800D03*
X192000Y192500D03*
Y175000D03*
X185000Y184000D03*
Y191500D03*
X195000Y195500D03*
X183000Y201500D03*
Y210000D03*
X202500Y85000D03*
X204800Y141300D03*
X205000Y151301D03*
X217251Y163751D03*
X215750Y186500D03*
X212000Y191500D03*
X221000Y186500D03*
X209500Y173500D03*
X202500Y197500D03*
X217500Y206000D03*
X217750Y197750D03*
X224301Y145701D03*
X224800Y132000D03*
X233500Y164400D03*
X225000Y181000D03*
X233500Y209500D03*
X259000Y102500D03*
X247000Y143000D03*
X258000Y150500D03*
X250000Y147500D03*
X263000Y174700D03*
X275000Y152500D03*
X284000Y188000D03*
X284500Y218000D03*
X280500Y222500D03*
X284150Y222475D03*
X275000Y222500D03*
X271500D03*
X289500Y64000D03*
X293000Y79000D03*
X303000Y148000D03*
X294000Y149500D03*
X303000Y153000D03*
X305000Y187500D03*
X297000Y186500D03*
X294000D03*
X288000Y192000D03*
X292500D03*
X308000Y198500D03*
X306500Y244600D03*
X296500Y245500D03*
X288500Y254500D03*
X307000Y257500D03*
X305000Y280000D03*
X300000D03*
X295000D03*
X315000Y148000D03*
X309000D03*
X315000Y153000D03*
X309000D03*
X314000Y187500D03*
X310000D03*
X312000Y186000D03*
X316500Y183500D03*
X309750Y244500D03*
G54D12*
X14500Y176500D03*
G54D13*
X212251Y163751D03*
X206742Y155510D03*
X235500Y150250D03*
X232000Y133000D03*
G54D14*
G01X15000Y-130500D02*
Y-213000D01*
X299000D01*
Y-130500D01*
X15000D01*
G01X97500D02*
Y-213000D01*
G01Y-185500D02*
X299000D01*
G01X97500Y-158000D02*
X298500D01*
G01X175000D02*
Y-185500D01*
G54D15*
G01X2500Y23798D02*
Y27500D01*
G01D02*
Y31202D01*
G01X-1202Y27500D02*
X2500D01*
G01D02*
X6202D01*
G01X14500Y173898D02*
Y176500D01*
G01X11898D02*
X14500D01*
G01X93358Y110440D02*
Y114142D01*
G01D02*
Y117844D01*
G01X89656Y114142D02*
X93358D01*
G01D02*
X97060D01*
G01X203583Y-182500D02*
Y-175000D01*
X206292D01*
X207158Y-175375D01*
X207700Y-175875D01*
X207917Y-176875D01*
X207700Y-177875D01*
X207050Y-178500D01*
X206292Y-178875D01*
X203583D01*
G01X206292D02*
X207917Y-182500D01*
G01X215217D02*
X210883D01*
Y-175000D01*
X215217D01*
G01X213483Y-178625D02*
X210883D01*
G01X217642Y-175000D02*
X220350Y-182500D01*
X223058Y-175000D01*
G01X227650Y-182750D02*
X227433Y-182625D01*
Y-182375D01*
X227650Y-182250D01*
X227867Y-182375D01*
Y-182625D01*
X227650Y-182750D01*
G01X244633Y-175625D02*
X243983Y-175250D01*
X243225Y-175000D01*
X242358D01*
X241383Y-175375D01*
X240625Y-176000D01*
X240083Y-176750D01*
X239650Y-178000D01*
X239542Y-179125D01*
X239758Y-180250D01*
X240083Y-181000D01*
X240733Y-181750D01*
X241492Y-182250D01*
X242250Y-182500D01*
X243008D01*
X243767Y-182250D01*
X244417Y-181875D01*
X244958Y-181375D01*
G01X249550Y-182500D02*
Y-175000D01*
X248250Y-176500D01*
G01Y-182500D02*
X250850D01*
G01X206617Y-166000D02*
X207050Y-165625D01*
X207375Y-165000D01*
X207592Y-164125D01*
X207375Y-163375D01*
X206942Y-162875D01*
X206183Y-162500D01*
X203258D01*
Y-170000D01*
X206833D01*
X207592Y-169500D01*
X208025Y-168750D01*
X208242Y-167875D01*
X208025Y-167000D01*
X207375Y-166250D01*
X206617Y-166000D01*
X203258D01*
G01X215217Y-170000D02*
X210883D01*
Y-162500D01*
X215217D01*
G01X213483Y-166125D02*
X210883D01*
G01X217642Y-170000D02*
X220350Y-162500D01*
X223058Y-170000D01*
G01X222083Y-167375D02*
X218617D01*
G01X228300Y-166250D02*
X230467D01*
Y-168500D01*
X229817Y-169250D01*
X229058Y-169750D01*
X227975Y-170000D01*
X226892Y-169750D01*
X226133Y-169250D01*
X225483Y-168500D01*
X225050Y-167625D01*
X224833Y-166625D01*
Y-165750D01*
X225050Y-165000D01*
X225483Y-164125D01*
X226133Y-163375D01*
X226783Y-162875D01*
X227650Y-162500D01*
X228408D01*
X229275Y-162750D01*
X229925Y-163250D01*
G01X232783Y-162500D02*
Y-170000D01*
X237117D01*
G01X244417D02*
X240083D01*
Y-162500D01*
X244417D01*
G01X242683Y-166125D02*
X240083D01*
G01X254575Y-170000D02*
X259125Y-162500D01*
G01X254575D02*
X259125Y-170000D01*
G01X261333D02*
Y-162500D01*
X264150Y-168750D01*
X266967Y-162500D01*
Y-170000D01*
G01X205100Y-34300D02*
Y-30598D01*
G01X201398Y-34300D02*
X205100D01*
G01D02*
X208802D01*
G01X208500Y35298D02*
Y39000D01*
G01D02*
Y42702D01*
G01X204798Y39000D02*
X208500D01*
G01D02*
X212202D01*
G01X241500Y35298D02*
Y39000D01*
G01D02*
Y42702D01*
G01X237798Y39000D02*
X241500D01*
G01D02*
X245202D01*
G01X254900Y-32002D02*
Y-28300D01*
G01D02*
Y-24598D01*
G01X251198Y-28300D02*
X254900D01*
G01D02*
X258602D01*
G01X300000Y261298D02*
Y265000D01*
G01D02*
Y268702D01*
G01X296298Y265000D02*
X300000D01*
G01D02*
X303702D01*
G54D16*
G01X129797Y142503D02*
Y145447D01*
X129850Y145500D01*
G01X129797Y142503D02*
X133100Y139200D01*
X137900D01*
X141300Y135800D01*
Y128400D01*
X146500Y123200D01*
Y118150D01*
X143850Y115500D01*
X140600D01*
G54D17*
G01X25500Y-175750D02*
X31125Y-181375D01*
X38625D01*
G01X31125Y-162625D02*
X25500Y-168250D01*
G01D02*
Y-175750D01*
G01X46125Y-181375D02*
Y-172000D01*
G01X33000Y-181375D02*
X46125D01*
G01Y-175750D02*
X64875D01*
G01X46125Y-172000D02*
X55500Y-162625D01*
G01X38625D02*
X31125D01*
G01X64875Y-172000D02*
Y-181375D01*
G01D02*
X76125D01*
G01X72375Y-162625D02*
Y-181375D01*
G01D02*
X79875D01*
G01X55500Y-162625D02*
X64875Y-172000D01*
G01X74250Y-162625D02*
X68625D01*
G01X79875D02*
X72375D01*
G01X79875Y-181375D02*
X85500Y-175750D01*
G01D02*
Y-168250D01*
G01D02*
X79875Y-162625D01*
G54D18*
G01X18000Y-172000D02*
X55500Y-209500D01*
X93000Y-172000D01*
G01X18000D02*
X93000D01*
G01X55500Y-134500D02*
X18000Y-172000D01*
G01X43770Y-196630D02*
G03X44234Y-197771I1635J0D01*
G01X43800Y-180430D02*
Y-196630D01*
G01Y-196375D02*
Y-180430D01*
G01X44250Y-197755D02*
X47925Y-201475D01*
G01X47911Y-201489D02*
G03X50325Y-202480I2414J2445D01*
G01X61125Y-197755D02*
X50805D01*
X48480Y-195430D01*
Y-177130D01*
X47055D01*
X43800Y-180430D01*
G01D02*
X47055Y-177130D01*
X48480D01*
Y-195430D01*
X50805Y-197755D01*
X61125D01*
G01X55500Y-183250D02*
X44250Y-172000D01*
G01X55500Y-194500D02*
X48480Y-187450D01*
G01X43305Y-182305D02*
X33000Y-172000D01*
G01X44250D02*
X55500Y-160750D01*
G01X33000Y-172000D02*
X46425Y-158575D01*
G01X43770Y-155380D02*
G03X44234Y-156521I1635J0D01*
G01X43770Y-155380D02*
G03X44234Y-156521I1635J0D01*
G01X49816Y-162114D02*
G03X52230Y-163105I2414J2445D01*
G01X49816Y-162114D02*
G03X52230Y-163105I2414J2445D01*
G01X44250Y-156505D02*
X49830Y-162100D01*
G01X44250Y-156505D02*
X49830Y-162100D01*
G01X52680Y-158380D02*
X48480Y-154180D01*
Y-148555D01*
X52680Y-144325D01*
X59700D01*
G01X43800Y-148075D02*
Y-155380D01*
G01X52680Y-158380D02*
X48480Y-154180D01*
Y-148555D01*
X52680Y-144325D01*
X59700D01*
G01X43800Y-148075D02*
Y-155380D01*
G01X49725Y-155275D02*
X55500Y-149500D01*
G01X49875Y-140575D02*
X44775Y-145675D01*
G01X44761Y-145661D02*
G03X43770Y-148075I2445J-2414D01*
G01X49875Y-140575D02*
X44775Y-145675D01*
G01X44761Y-145661D02*
G03X43770Y-148075I2445J-2414D01*
G01X52125Y-139675D02*
G03X49891Y-140591I-1J-3180D01*
G01X52125Y-139675D02*
G03X49891Y-140591I-1J-3180D01*
G01X50325Y-202450D02*
X61125D01*
G01D02*
X50250D01*
G01X61125Y-202480D02*
G03X63480Y-200125I0J2355D01*
G01D02*
G03X61125Y-197770I-2355J0D01*
G01X55500Y-197755D02*
Y-163555D01*
G01Y-194500D02*
X78000Y-172000D01*
G01X55500Y-209500D02*
Y-202450D01*
G01X66750Y-172000D02*
X55500Y-183250D01*
G01Y-160750D02*
X66750Y-172000D01*
G01X52230Y-163075D02*
X59700D01*
G01X52230D02*
X59700D01*
G01D02*
X57375D01*
G01X59700Y-163105D02*
G03X62055Y-160750I0J2355D01*
G01X59700Y-163105D02*
G03X62055Y-160750I0J2355D01*
G01X59700Y-158380D02*
X52680D01*
G01X62055Y-160750D02*
G03X59700Y-158395I-2355J0D01*
G01Y-158380D02*
X52680D01*
G01X56925D02*
X59700D01*
G01X62055Y-160750D02*
G03X59700Y-158395I-2355J0D01*
G01X55500Y-158380D02*
Y-144325D01*
G01X93000Y-172000D02*
X55500Y-134500D01*
G01X78000Y-172000D02*
X55500Y-149500D01*
G01X59700Y-144355D02*
G03X62055Y-142000I0J2355D01*
G01D02*
G03X59700Y-139645I-2355J0D01*
G01Y-139630D02*
X52125D01*
G01X59700D02*
X52125D01*
G01X55500D02*
Y-134500D01*
G01X109917Y-165000D02*
Y-170500D01*
X113583D01*
G01X115758D02*
X118050Y-165000D01*
X120342Y-170500D01*
G01X119517Y-168575D02*
X116583D01*
G01X124350Y-170500D02*
Y-168025D01*
X122517Y-165000D01*
G01X126183D02*
X124350Y-168025D01*
G01X132483Y-170500D02*
X128817D01*
Y-165000D01*
X132483D01*
G01X131017Y-167658D02*
X128817D01*
G01X135117Y-170500D02*
Y-165000D01*
X137408D01*
X138142Y-165275D01*
X138600Y-165642D01*
X138783Y-166375D01*
X138600Y-167108D01*
X138050Y-167567D01*
X137408Y-167842D01*
X135117D01*
G01X137408D02*
X138783Y-170500D01*
G01X147533Y-169675D02*
X148083Y-170133D01*
X148725Y-170408D01*
X149550Y-170500D01*
X150375Y-170317D01*
X151017Y-169950D01*
X151475Y-169308D01*
X151567Y-168575D01*
X151383Y-167842D01*
X150925Y-167383D01*
X150283Y-167017D01*
X149642Y-166925D01*
X149000Y-167017D01*
X148175Y-167383D01*
X148450Y-165000D01*
X150925D01*
G01X116417Y-181500D02*
Y-176000D01*
X118617D01*
X119350Y-176275D01*
X119900Y-176917D01*
X120083Y-177650D01*
X119900Y-178383D01*
X119442Y-178933D01*
X118617Y-179208D01*
X116417D01*
G01X124550Y-181500D02*
X123817Y-181408D01*
X123175Y-181042D01*
X122625Y-180492D01*
X122258Y-179850D01*
X122075Y-179117D01*
Y-178383D01*
X122258Y-177650D01*
X122625Y-177008D01*
X123175Y-176458D01*
X123817Y-176092D01*
X124550Y-176000D01*
X125283Y-176092D01*
X125925Y-176458D01*
X126475Y-177008D01*
X126842Y-177650D01*
X127025Y-178383D01*
Y-179117D01*
X126842Y-179850D01*
X126475Y-180492D01*
X125925Y-181042D01*
X125283Y-181408D01*
X124550Y-181500D01*
G01X128100Y-176000D02*
X129383Y-181500D01*
X130850Y-176000D01*
X132317Y-181500D01*
X133600Y-176000D01*
G01X138983Y-181500D02*
X135317D01*
Y-176000D01*
X138983D01*
G01X137517Y-178658D02*
X135317D01*
G01X141617Y-181500D02*
Y-176000D01*
X143908D01*
X144642Y-176275D01*
X145100Y-176642D01*
X145283Y-177375D01*
X145100Y-178108D01*
X144550Y-178567D01*
X143908Y-178842D01*
X141617D01*
G01X143908D02*
X145283Y-181500D01*
G54D19*
G01X111333Y-205500D02*
Y-195500D01*
X114667D01*
X116000Y-196000D01*
X117000Y-196667D01*
X117833Y-197667D01*
X118500Y-198834D01*
X118667Y-200500D01*
X118500Y-202167D01*
X117833Y-203333D01*
X117000Y-204334D01*
X116000Y-205000D01*
X114667Y-205500D01*
X111333D01*
G01X121833D02*
X126000Y-195500D01*
X130167Y-205500D01*
G01X128667Y-202000D02*
X123333D01*
G01X137000Y-195500D02*
Y-205500D01*
G01X133167Y-195500D02*
X140833D01*
G01X151333Y-205500D02*
X144667D01*
Y-195500D01*
X151333D01*
G01X148667Y-200333D02*
X144667D01*
G01X159000Y-205833D02*
X158667Y-205667D01*
Y-205333D01*
X159000Y-205167D01*
X159333Y-205333D01*
Y-205667D01*
X159000Y-205833D01*
G01Y-201334D02*
X158667Y-201167D01*
Y-200833D01*
X159000Y-200667D01*
X159333Y-200833D01*
Y-201167D01*
X159000Y-201334D01*
G01X115000Y-140000D02*
Y-150000D01*
G01X111167Y-140000D02*
X118833D01*
G01X129333Y-150000D02*
X122667D01*
Y-140000D01*
X129333D01*
G01X126667Y-144833D02*
X122667D01*
G01X133500Y-150000D02*
X140500Y-140000D01*
G01X133500D02*
X140500Y-150000D01*
G01X143833D02*
X148000Y-140000D01*
X152167Y-150000D01*
G01X150667Y-146500D02*
X145333D01*
G01X155500Y-148667D02*
X156833Y-149500D01*
X158333Y-150000D01*
X159667D01*
X161000Y-149500D01*
X162000Y-148667D01*
X162500Y-147500D01*
X162167Y-146334D01*
X161333Y-145333D01*
X159833Y-144667D01*
X157833Y-144333D01*
X156667Y-143667D01*
X156167Y-142500D01*
X156500Y-141333D01*
X157333Y-140500D01*
X158500Y-140000D01*
X159667D01*
X160833Y-140333D01*
X161833Y-141167D01*
G01X179000Y-140000D02*
X183000D01*
G01X181000D02*
Y-150000D01*
G01X179000D02*
X183000D01*
G01X188167D02*
Y-140000D01*
X195833Y-150000D01*
Y-140000D01*
G01X199500Y-148667D02*
X200833Y-149500D01*
X202333Y-150000D01*
X203667D01*
X205000Y-149500D01*
X206000Y-148667D01*
X206500Y-147500D01*
X206167Y-146334D01*
X205333Y-145333D01*
X203833Y-144667D01*
X201833Y-144333D01*
X200667Y-143667D01*
X200167Y-142500D01*
X200500Y-141333D01*
X201333Y-140500D01*
X202500Y-140000D01*
X203667D01*
X204833Y-140333D01*
X205833Y-141167D01*
G01X214000Y-140000D02*
Y-150000D01*
G01X210167Y-140000D02*
X217833D01*
G01X221667Y-150000D02*
Y-140000D01*
X225833D01*
X227167Y-140500D01*
X228000Y-141167D01*
X228333Y-142500D01*
X228000Y-143833D01*
X227000Y-144667D01*
X225833Y-145167D01*
X221667D01*
G01X225833D02*
X228333Y-150000D01*
G01X232333Y-140000D02*
Y-147167D01*
X233000Y-148667D01*
X234333Y-149667D01*
X236000Y-150000D01*
X237667Y-149667D01*
X239000Y-148667D01*
X239667Y-147167D01*
Y-140000D01*
G01X242667Y-150000D02*
Y-140000D01*
X247000Y-148333D01*
X251333Y-140000D01*
Y-150000D01*
G01X261333D02*
X254667D01*
Y-140000D01*
X261333D01*
G01X258667Y-144833D02*
X254667D01*
G01X265167Y-150000D02*
Y-140000D01*
X272833Y-150000D01*
Y-140000D01*
G01X280000D02*
Y-150000D01*
G01X276167Y-140000D02*
X283833D01*
G01X287500Y-148667D02*
X288833Y-149500D01*
X290333Y-150000D01*
X291667D01*
X293000Y-149500D01*
X294000Y-148667D01*
X294500Y-147500D01*
X294167Y-146334D01*
X293333Y-145333D01*
X291833Y-144667D01*
X289833Y-144333D01*
X288667Y-143667D01*
X288167Y-142500D01*
X288500Y-141333D01*
X289333Y-140500D01*
X290500Y-140000D01*
X291667D01*
X292833Y-140333D01*
X293833Y-141167D01*
G01X172500Y-195500D02*
X171166Y-195833D01*
X170167Y-196667D01*
X169500Y-197667D01*
X169000Y-199000D01*
X168833Y-200500D01*
X169000Y-202000D01*
X169500Y-203333D01*
X170167Y-204334D01*
X171166Y-205167D01*
X172500Y-205500D01*
X173833Y-205167D01*
X174833Y-204334D01*
X175500Y-203333D01*
X176000Y-202000D01*
X176167Y-200500D01*
X176000Y-199000D01*
X175500Y-197667D01*
X174833Y-196667D01*
X173833Y-195833D01*
X172500Y-195500D01*
G01X183500Y-205500D02*
X184667Y-205333D01*
X186000Y-204833D01*
X186833Y-204000D01*
X187167Y-202833D01*
X186833Y-201667D01*
X185833Y-200667D01*
X184333Y-200167D01*
X182667D01*
X181667Y-199833D01*
X180833Y-199000D01*
X180500Y-197833D01*
X181000Y-196667D01*
X182166Y-195833D01*
X183500Y-195500D01*
X184833Y-195833D01*
X186000Y-196667D01*
X186500Y-197833D01*
X186167Y-199000D01*
X185333Y-199833D01*
X184333Y-200167D01*
X182667D01*
X181167Y-200667D01*
X180167Y-201667D01*
X179833Y-202833D01*
X180167Y-204000D01*
X181000Y-204833D01*
X182333Y-205333D01*
X183500Y-205500D01*
G01X191500Y-205833D02*
X197500Y-195500D01*
G01X205500Y-205500D02*
Y-195500D01*
X203500Y-197500D01*
G01Y-205500D02*
X207500D01*
G01X213333Y-201334D02*
X214500Y-200167D01*
X215500Y-199500D01*
X216833Y-199167D01*
X218000Y-199500D01*
X218833Y-200167D01*
X219500Y-201167D01*
X219667Y-202333D01*
X219500Y-203333D01*
X218833Y-204334D01*
X217833Y-205167D01*
X216667Y-205500D01*
X215333Y-205167D01*
X214167Y-204167D01*
X213500Y-202667D01*
X213333Y-201000D01*
X213667Y-198834D01*
X214167Y-197667D01*
X215000Y-196500D01*
X216167Y-195667D01*
X217333Y-195500D01*
X218500Y-195833D01*
X219333Y-196667D01*
G01X224500Y-205833D02*
X230500Y-195500D01*
G01X238500Y-205500D02*
Y-195500D01*
X236500Y-197500D01*
G01Y-205500D02*
X240500D01*
G01X249500D02*
Y-195500D01*
X247500Y-197500D01*
G01Y-205500D02*
X251500D01*
M02*
