M48
INCH
T01C.006
T02C.008
T03C.012
T04C.028
T05C.03
T06C.038
T07C.04
T08C.043
T09C.051
T10C.07
T11C.09
T12C.12
T13C.156
T14C.035
T15C.06
T16C.063
T17C.128
;LEADER: 12 
;HEADER: 
;CODE  : ASCII 
;FILE  : ctc070_RevC1-1-6.drl for board ctc070_RevC1.brd ... layers TOP and BOTTOM
;T02 Holesize 1. = 8.000000 Tolerance = +0.000000/-8.000000 PLATED MILS Quantity = 1030
;T03 Holesize 2. = 12.000000 Tolerance = +3.000000/-3.000000 PLATED MILS Quantity = 72
;T04 Holesize 3. = 28.000000 Tolerance = +3.000000/-3.000000 PLATED MILS Quantity = 64
;T05 Holesize 4. = 30.000000 Tolerance = +3.000000/-3.000000 PLATED MILS Quantity = 2
;T06 Holesize 5. = 38.000000 Tolerance = +3.000000/-3.000000 PLATED MILS Quantity = 14
;T07 Holesize 6. = 40.000000 Tolerance = +3.000000/-3.000000 PLATED MILS Quantity = 71
;T08 Holesize 7. = 43.000000 Tolerance = +3.000000/-3.000000 PLATED MILS Quantity = 8
;T09 Holesize 8. = 51.000000 Tolerance = +3.000000/-3.000000 PLATED MILS Quantity = 5
;T10 Holesize 9. = 70.000000 Tolerance = +3.000000/-3.000000 PLATED MILS Quantity = 2
;T11 Holesize 10. = 90.000000 Tolerance = +3.000000/-3.000000 PLATED MILS Quantity = 8
;T12 Holesize 11. = 120.000000 Tolerance = +3.000000/-3.000000 PLATED MILS Quantity = 2
;T13 Holesize 12. = 156.000000 Tolerance = +3.000000/-3.000000 PLATED MILS Quantity = 4
;T14 Holesize 13. = 35.000000 Tolerance = +3.000000/-3.000000 NON_PLATED MILS Quantity = 1
;T15 Holesize 14. = 60.000000 Tolerance = +3.000000/-3.000000 NON_PLATED MILS Quantity = 2
;T16 Holesize 15. = 63.000000 Tolerance = +3.000000/-3.000000 NON_PLATED MILS Quantity = 4
;T17 Holesize 16. = 128.000000 Tolerance = +3.000000/-3.000000 NON_PLATED MILS Quantity = 2
%
G90
T02
X00246000Y00214000
X00292000Y00087500
X00231000Y00117500
X00266000Y00108500
X00214100Y00201350
X00183500Y00186500
X00215750Y00183200
X00174750Y00119000
X00097500Y00129600
X00020000Y00155000
X00020000Y00150000
X00158500Y00073000
X00211500Y00070500
X00227800Y00132600
X00260450Y00132450
X00032000Y00043500
X00020000Y00115000
X00020000Y00120000
X00024750Y00175750
X00245500Y00165000
X00241000Y00249000
X00035500Y00246500
X00066000Y00133600
X00096000Y00078500
X00168500Y00171200
X00192650Y00169050
X00217500Y00088100
X00212500Y00085000
X00237500Y00088100
X00257500Y00088100
X00196500Y00164300
X00109500Y00031500
X00177000Y00090500
X00177000Y00070000
X00200000Y00191500
X00020000Y00135000
X00020000Y00140000
X00246000Y00197500
X00268500Y00193500
X00296000Y00102000
X00080000Y00028000
X00289000Y00250500
X00192440Y00201440
X00193150Y00239000
X00294000Y00245500
X00300500Y00156500
X00014000Y00234500
X00215000Y00067000
X00236500Y00159000
X00205000Y00127000
X00255500Y00203000
X00191500Y00209440
X00266000Y00134500
X00043800Y00237800
X00043800Y00184700
X00046500Y00176500
X00091700Y00232200
X00079500Y00252500
R02X-00005000
X00049500Y00252500
X00091500Y00241000
X00296000Y00209300
X00312500Y00291500
X00280000Y00085000
X00286520Y00085480
X00297000Y00199000
X00095500Y00149500
X00099500Y00149500
X00312500Y00278500
X00139500Y00091000
X00099000Y00081000
X00075500Y00038000
X00256000Y00241000
X00245000Y00150000
X00264500Y00170500
X00257500Y00187500
X00175000Y00210000
X00049000Y00152000
X00139500Y00176000
X00045000Y00115000
X00137000Y00176000
X00053000Y00154000
X00052500Y00173000
X00121000Y00185500
X00237500Y00066000
X00245000Y00005000
X00164500Y00171000
X00056500Y00149000
X00053500Y00147000
X00166000Y00169000
X00167104Y00153852
X00053500Y00143500
X00164974Y00152526
X00058500Y00141000
X00034000Y00090000
X00207500Y00011500
X00196500Y00010000
X00108000Y00037048
X00110612Y00046888
X00201500Y00033500
X00218500Y00027500
X00223300Y00042800
X00113500Y00058500
X00137420Y00064500
X00147260Y00062500
X00143324Y00062500
X00132000Y00062000
X00156000Y00062500
X00145500Y00177000
X00059750Y00151500
X00034000Y00085000
X00057500Y00160800
X00141000Y00183500
X00034000Y00080000
X00138120Y00118100
X00032000Y00135000
X00031300Y00098000
X00020099Y00106495
X00240000Y00143500
X00243500Y00143500
X00252000Y00137000
X00249000Y00118500
X00140600Y00115500
X00104500Y00160000
X00122900Y00154000
X00129850Y00145500
X00130000Y00150500
X00129797Y00142503
X00104500Y00168000
X00131750Y00159900
X00231000Y00164500
X00242500Y00195000
X00168500Y00205500
X00284000Y00188000
X00164500Y00156000
X00149650Y00153950
X00307000Y00257500
X00295000Y00280000
R02X00005000
X00309750Y00244500
X00308000Y00198500
X00305000Y00181500
X00211500Y00169000
X00259000Y00170500
X00054500Y00101000
X00054500Y00104300
X00054500Y00097650
X00054500Y00107000
X00042500Y00046000
X00263000Y00111500
X00257500Y00062500
X00252500Y00062500
X00197000Y00017000
X00141356Y00064500
X00224000Y00033000
X00135452Y00061952
X00232500Y00066000
X00237500Y00001500
X00058000Y00057500
X00073500Y00052000
X00067045Y00054100
X00063105Y00080900
R02X00003940
X00067000Y00087500
X00110612Y00054760
X00108000Y00052792
X00227000Y00031500
X00134802Y00065000
X00108000Y00040984
X00110612Y00039016
X00110612Y00050824
X00108000Y00046888
X00197000Y00013500
X00139388Y00061888
X00316500Y00183500
X00171000Y00002500
X00177000Y00002500
X00294000Y00149500
X00309000Y00148000
X00309000Y00153000
X00303000Y00153000
X00303000Y00148000
X00315000Y00148000
X00315000Y00153000
X00292500Y00192000
X00288000Y00192000
X00294000Y00186500
X00297000Y00186500
X00312000Y00186000
X00305000Y00187500
X00310000Y00187500
X00314000Y00187500
X00316500Y00257500
X00097500Y00125500
X00097500Y00135500
X00158500Y00030500
X00110612Y00027208
X00155500Y00030500
X00120500Y00116700
X00155500Y00057500
X00122000Y00062000
X00154388Y00054760
X00108000Y00034500
X00139388Y00018112
X00152500Y00016500
X00143000Y00016500
X00098100Y00160100
X00213000Y00166500
X00194500Y00175000
X00031000Y00142500
X00148000Y00016500
X00282500Y00046000
X00228500Y-00020500
X00279000Y00041000
X00127580Y00015500
X00188500Y00009000
X00231500Y-00024000
X00125612Y00018112
X00258500Y00044000
X00185500Y00009000
X00203500Y00046000
X00122500Y00177500
X00158500Y00131000
X00134000Y00123500
X00127400Y00120800
X00120500Y00122700
X00109600Y00128100
X00101600Y00122700
X00110500Y00162000
X00110500Y00158500
X00110500Y00142500
X00110500Y00155000
X00110500Y00139000
X00110500Y00151500
X00110500Y00148500
X00162500Y00163250
X00162500Y00159603
X00119500Y00172000
X00122000Y00171000
X00130500Y00172500
X00139500Y00171000
X00136964Y00170672
X00146800Y00171000
X00160378Y00167072
X00185000Y00191500
X00183000Y00210000
X00183000Y00201500
X00217750Y00197750
X00217500Y00206000
X00138870Y00162074
X00102500Y00143000
X00116500Y00174500
X00159500Y00125000
X00174500Y00166000
X00185000Y00184000
X00248500Y00112500
X00135300Y00119600
X00032000Y00130000
X00033500Y00100000
X00180000Y00210000
X00034000Y00125000
X00143500Y00178500
X00031000Y00146000
X00139500Y00181500
X00031000Y00080000
X00053000Y00160000
X00207500Y00236500
X00190500Y00159500
X00276000Y00237500
X00272000Y00237500
X00268500Y00232500
X00272000Y00240500
X00032000Y00137500
X00035000Y00011500
X00096000Y-00022500
X00142500Y00008000
X00153000Y00010500
X00156500Y00016500
X00136000Y00014200
X00100500Y00034500
X00097500Y00031500
X00121676Y00018112
X00155500Y00041000
X00158500Y00023500
X00166500Y00038000
X00162500Y00017500
X00087000Y00068500
X00093000Y00068500
X00083500Y00068485
X00155500Y00048000
X00167500Y00069500
X00202500Y00085000
X00199000Y00087000
X00195500Y00087000
X00197500Y00089500
X00139000Y00185500
X00034000Y00146000
X00083500Y00060500
X00127000Y00062000
X00118000Y00183500
X00034000Y00155000
X00083500Y00063500
X00129500Y00062000
X00115000Y00185500
X00034000Y00150000
X00137000Y00178500
X00033500Y00105000
X00046000Y00157500
X00141500Y00180000
X00033500Y00110000
X00047500Y00160000
X00119708Y00015500
X00190500Y00011000
X00108000Y00029176
X00260200Y00066000
X00098000Y-00009000
X00259500Y00011000
X00113000Y00022500
X00247500Y00078000
X00100000Y-00007000
X00256500Y00011000
X00117740Y00018112
X00242500Y00078000
X00115000Y-00007500
X00253500Y00011000
X00119000Y00062000
X00072955Y00086955
X00164000Y00088500
X00057000Y00071500
X00061000Y00056000
X00072500Y00103500
X00069985Y00052045
X00056600Y00068485
X00054545Y00066515
X00057000Y00076500
X00061000Y00053000
X00115000Y00103000
X00076425Y00080900
X00054545Y00062575
X00046500Y00064545
X00069000Y00103500
X00195500Y00141500
X00196750Y00144750
X00122900Y00150800
X00095000Y00183500
X00109500Y00232500
X00309500Y00200500
X00238500Y00148000
X00195000Y00170000
X00144500Y00183500
X00166500Y00175400
X00141500Y00190500
X00074388Y00182000
X00101500Y00158000
X00144889Y00159689
X00292000Y00072961
X00105500Y00070462
X00099000Y00209016
X00161460Y00192000
X00101000Y00217060
X00139500Y00193000
X00072420Y00179080
X00295000Y00270000
X00183500Y00244000
X00141500Y00195500
X00070452Y00182000
X00144500Y00190500
X00076356Y00179080
X00301900Y00198750
X00173500Y00207500
X00059862Y00238000
X00049500Y00184000
X00088000Y00241000
X00084500Y00235000
X00104000Y00215100
X00307500Y00270500
X00181500Y00238500
X00104000Y00222940
X00175000Y00154250
X00302500Y00270500
X00185500Y00240500
X00245000Y00158000
X00077500Y00238000
X00155280Y00198000
X00059560Y00176500
X00078324Y00182000
X00039500Y00219500
X00157240Y00196000
X00081000Y00238000
X00172500Y00154300
X00224000Y00175500
X00170000Y00175400
X00101000Y00220980
X00159200Y00194000
X00074388Y00238000
X00056500Y00257000
X00008000Y00234500
X00069660Y00173500
X00043800Y00190300
X00039500Y00212952
X00039500Y00201144
X00072500Y00240000
X00065440Y00173500
X00101000Y00204900
X00028000Y00201500
X00104000Y00202940
X00026000Y00203500
X00063480Y00176500
X00248000Y00160000
X00063290Y00272500
X00002500Y00238250
X00101000Y00212840
X00101000Y00200980
X00170000Y00100500
X00064548Y00238000
X00050250Y00160000
X00033500Y00096000
X00292500Y00195500
X00173500Y00204500
X00039500Y00222500
X00067400Y00176500
X00061520Y00173500
X00104000Y00207160
X00224800Y00132000
X00283000Y00096000
X00314250Y00208500
X00263000Y00174700
X00232000Y00133000
X00205000Y00151301
X00217251Y00163751
X00224301Y00145701
X00233500Y00164400
X00250000Y00147500
X00156500Y00222000
X00160000Y00222000
X00165000Y00222000
X00271500Y00222500
X00275000Y00222500
X00284150Y00222475
X00280500Y00222500
X00284500Y00218000
X00288500Y00254500
X00296500Y00245500
X00194000Y00145500
X00206742Y00155510
X00204800Y00141300
X00306500Y00244600
X00258000Y00150500
X00260000Y00109000
X00081500Y00182000
X00101000Y00197060
X00005500Y00194000
X00185600Y00149800
X00243000Y00135750
X00099500Y00190500
X00099000Y00224760
X00216700Y00136100
X00236500Y00143500
X00233500Y00110000
X00182500Y00110000
X00224500Y00166400
X00161500Y00106000
X00235500Y00106000
X00104000Y00199020
X00195000Y00159500
X00104000Y00219020
X00198500Y00159500
X00195000Y00156000
X00235500Y00153000
X00168000Y00088500
X00259000Y00102500
X00020000Y00081500
X00015500Y00091000
X00192000Y00175000
X00181000Y00090500
X00020000Y00103500
X00061500Y00024000
X00148500Y00089000
X00202500Y00197500
X00195000Y00195500
X00056500Y00145500
X00057500Y00118500
X00057500Y00126500
X00289500Y00064000
X00086500Y00098500
X00111000Y00089500
X00142000Y00095000
X00151000Y00095000
X00177500Y00100500
X00293000Y00079000
X00149100Y00133000
X00135300Y00117000
X00134647Y00135203
X00144450Y00119000
X00175500Y00123000
X00170500Y00129500
X00173000Y00121250
X00161500Y00109000
X00186000Y00105000
X00055500Y00141000
X00209500Y00173500
X00212251Y00163751
X00221000Y00186500
X00247000Y00143000
X00275000Y00152500
X00188500Y00168800
X00192000Y00192500
X00212000Y00191500
X00002500Y00241750
X00022500Y00241750
X00085500Y00254500
X00122650Y00132950
X00144500Y00195000
X00120250Y00133320
X00154500Y00119600
X00121000Y00142000
X00159500Y00159750
X00149098Y00157955
X00215750Y00186500
X00225000Y00181000
X00235500Y00150250
X00073500Y00027000
X00064500Y00252500
X00267500Y00177500
X00233500Y00209500
X00096300Y00122500
X-00008500Y00122500
X00171500Y00088500
X00168000Y00084500
X00186000Y00099500
X00202600Y00156400
X00190500Y00154500
X00154500Y00105000
X00013000Y00164000
X00016500Y00164000
X00300000Y00096500
X00273500Y00096500
X00261000Y00201500
X00279500Y00205500
X00059500Y00016000
X00087000Y-00008500
X00132000Y00014200
X00211000Y00015000
X00226500Y00006500
X00301000Y-00004000
X00076500Y00045000
X00084500Y00042000
X00168500Y00045500
X00161500Y00035500
X00158500Y00027500
X00159500Y00041000
X00177000Y00027500
X00171000Y00027500
X00162500Y00023500
X00211000Y00026500
X00232500Y00024000
X00234500Y00041000
X00268500Y00030000
X00291500Y00032000
X00062000Y00048000
X00058000Y00053500
X00045750Y00074500
X00100000Y00073100
X00109500Y00058500
X00116500Y00069500
X00099000Y00063000
X00099000Y00066500
X00153500Y00070500
X00151500Y00062500
X00144300Y00069000
X00159500Y00048000
X00207500Y00085000
X00207500Y00073000
X00205800Y00093300
X00215500Y00055000
X00203000Y00062500
X00207500Y00062500
X00221500Y00050000
X00221500Y00055000
X00276160Y00048500
X00268500Y00055000
X00268500Y00050000
X00280000Y00075000
X00285500Y00064000
X00285000Y00075000
X00020000Y00085000
X00061000Y00087500
X00093500Y00087000
X00087500Y00090000
X00093500Y00078500
X00079500Y00079500
X00137500Y00094500
X00156000Y00095000
X00173500Y00100500
X00186000Y00079500
X00164000Y00098000
X00214000Y00106700
X00230000Y00083500
X00230000Y00079500
X00242500Y00088100
X00237500Y00078000
X00232500Y00078000
X00222000Y00106650
X00257500Y00078000
X00252500Y00078000
X00262500Y00088100
X00275000Y00081200
X00265000Y00086000
X00020000Y00125000
X00020000Y00130000
X00020000Y00110000
X00065300Y00111700
X00069000Y00107000
X00099000Y00144000
X00094800Y00124900
X00111900Y00125500
X00146900Y00134000
X00110500Y00145500
X00110500Y00135500
X00132300Y00134400
X00095500Y00143500
X00122100Y00139800
X00120400Y00150300
X00137000Y00144500
X00133000Y00150500
X00110000Y00132000
X00101750Y00116450
X00120400Y00153500
X00160000Y00146250
X00130500Y00123500
X00072500Y00107000
X00147525Y00146790
X00139500Y00122000
X00150500Y00117000
X00148000Y00108500
X00140500Y00112500
X00143500Y00122000
X00166250Y00124000
X00173250Y00110250
X00162500Y00116000
X00177500Y00119000
X00184500Y00124000
X00184500Y00128000
X00158700Y00119600
X00205000Y00121750
X00189500Y00126000
X00204700Y00133050
X00227500Y00122250
X00225627Y00134977
X00222000Y00122250
X00236000Y00114500
X00260500Y00136500
X00260000Y00118000
X00252500Y00118500
X00020000Y00145000
X00020000Y00160000
X00034000Y00160000
X00085500Y00153000
X00074500Y00146000
X00110500Y00165500
X00120500Y00156500
X00122000Y00162000
X00098000Y00157000
X00154000Y00171000
X00143900Y00171000
X00142002Y00162049
X00127000Y00171000
X00130000Y00162000
X00145600Y00162049
X00167350Y00160000
X00162450Y00153000
X00185850Y00154100
X00186500Y00164000
X00181000Y00174000
X00182750Y00157750
X00182250Y00140500
X00215400Y00154600
X00199700Y00166700
X00199750Y00164300
X00207000Y00164000
X00202200Y00149500
X00236600Y00162600
X00257000Y00147500
X00250000Y00152000
X00275000Y00162500
X00278300Y00158300
X00296500Y00144000
X00290000Y00144000
X00054708Y00182000
X00039500Y00195240
X00098500Y00168000
X00116500Y00171500
X00112500Y00184000
X00131500Y00177000
X00133500Y00170850
X00198000Y00177000
X00188500Y00175000
X00205000Y00192500
X00221000Y00191000
X00219700Y00172800
X00227500Y00185500
X00233000Y00174500
X00232500Y00185500
X00242500Y00167500
X00222500Y00173000
X00247500Y00170500
X00247500Y00174500
X00252800Y00182300
X00278073Y00178700
X00278000Y00175000
X00284500Y00182500
X00039000Y00206500
X00095500Y00209016
X00095500Y00224760
X00169000Y00209500
X00170000Y00222000
X00187500Y00218000
X00195000Y00209440
X00202500Y00207500
X00228800Y00211000
X00232500Y00197000
X00231000Y00227500
X00237000Y00219000
X00231000Y00232000
X00224500Y00201000
X00270500Y00198500
X00251000Y00210000
X00304000Y00206500
X00284500Y00214000
X-00003500Y00239000
X00022500Y00238250
X00054500Y00252500
X00059500Y00252500
X00052740Y00238000
X00046000Y00227500
X00161500Y00244500
X00178500Y00240000
X00161500Y00240000
X00158250Y00238250
X00262000Y00248500
X00268500Y00227500
X00256500Y00227500
X00283500Y00237500
X00280500Y00237500
X00287000Y00242000
X00031770Y00268230
X00061320Y00268230
X00043590Y00268230
X00037680Y00268230
X00049500Y00268230
X00173000Y00270500
X00167000Y00273000
X00198000Y00270500
X00210650Y00286060
X00206150Y00286060
X00206150Y00277060
X00210650Y00277060
X00204000Y00273000
X00228500Y00270500
X00222500Y00273000
X00298750Y00257250
X00313500Y00257500
X00261000Y00277000
X00261000Y00286000
X00265500Y00277000
X00265500Y00286000
X00309000Y00287000
X00258500Y00273000
X00252500Y00270500
X00268500Y00205500
X00287000Y00098468
X00238500Y00153000
X00148150Y00140500
X00219100Y00168500
X00217500Y00194500
X00183500Y00195500
X00085500Y00148500
X00080000Y00150000
X00074500Y00153000
X00080000Y00142250
X00150850Y00111600
X00017500Y00087500
X00153000Y00088000
X00181000Y00094000
X00129500Y00185500
X00230000Y00180500
X00169000Y00257500
X00237500Y00174500
X00219500Y00181000
X00131500Y00187000
X00200250Y00127300
X00202801Y00146251
X00283200Y00171100
X00201000Y00143250
X00283200Y00165900
X00258000Y00258000
X00224000Y00258000
X00227500Y00188500
X00127500Y00187000
X00226000Y00223000
X00203000Y00258000
X00110500Y00118250
X-00011250Y00112000
X00102750Y00131250
X-00011250Y00133250
X00102750Y00134500
X-00001000Y00144000
X00102750Y00128000
X-00008500Y00130000
X00148500Y00095000
X00185250Y00137000
X00177500Y00097500
X00274500Y00143000
X00199500Y00147000
X00286350Y00173150
X00247000Y00183500
X00191500Y00106000
X00167400Y00110250
X00211000Y00134723
X00228500Y00164000
X00062580Y00240920
X00163950Y00137150
X00207500Y00121800
X00198000Y00140250
X00172000Y00150500
X00245500Y00167500
X00164600Y00144100
X00230500Y00124500
X00242500Y00183500
X00217750Y00117250
X00168000Y00129500
X00147286Y00143596
X00211000Y00132250
X00241500Y00116000
X00164500Y00114500
X00172000Y00141000
X00215000Y00124750
X00161000Y00137601
X00230500Y00120500
X00149476Y00142612
X00222700Y00135700
X00171750Y00147000
X00214600Y00133100
X00161500Y00112000
X00231000Y00106000
X00239000Y00110000
X00164500Y00110250
X00020000Y00090000
X00142000Y00085500
X00290000Y00085500
X00020000Y00095000
X00134000Y00086500
X00196500Y00168000
X00119000Y00089500
X00117600Y00121300
X00186000Y00095650
X00160000Y00179500
X00158500Y00175000
X00273800Y00146700
X00166700Y00145800
X00213250Y00126500
X00156500Y00179500
X00237500Y00170500
X00172000Y00144000
X00217750Y00128750
X00162000Y00177500
X00150500Y00105000
X00080000Y00038000
X00154600Y00108000
X00162500Y00069500
X00159500Y00128000
X00148800Y00123400
X00222000Y00115250
X00219500Y00133000
X00170000Y00139500
X00230500Y00129000
X00146800Y00105000
X00224750Y00129000
X00139250Y00134500
X00141500Y00118500
X00134500Y00152500
X00228000Y00118000
X00214750Y00179250
X00133500Y00185500
X00168000Y00142500
X00185250Y00145150
X00143250Y00226000
X00143800Y00105000
X00214000Y00114300
X00216001Y00144901
X00174500Y00158300
X00124550Y00134450
X00144000Y00133700
X00120500Y00159000
X00139500Y00150500
X00149200Y00162050
X00139500Y00146500
X00127497Y00161303
X00149630Y00145543
X00139597Y00143003
X00139900Y00159900
X00125500Y00177000
X00137500Y00226000
X00167500Y00139500
X00185250Y00140500
X00154500Y00110500
X00154500Y00113500
X00060000Y00257000
X00014000Y00239000
X00162000Y00174000
X00150850Y00179500
X00089500Y00191500
X00200250Y00124000
X00118000Y00194000
X00116000Y00195500
X00118000Y00197500
X00276160Y00035840
X00116100Y00199400
X00286400Y00025100
X00134000Y00196500
X00131500Y00199000
X00136500Y00199000
X00086000Y00072500
X00139500Y00203000
X00126500Y00207000
X00083500Y00171000
X00160829Y00130417
X00122750Y00215100
X00081500Y00173000
X00086000Y00065000
X00126500Y00217060
X00079500Y00171000
X00160378Y00170000
X00126500Y00220852
X00077500Y00173000
X00121784Y00220852
X00085597Y00178403
X00124000Y00223000
X00075500Y00171000
X00133000Y00108700
X00150850Y00114000
X00197000Y00172000
X00232000Y00136000
X00235500Y00133750
X00201500Y00137150
X00201500Y00133050
X00204001Y00165251
X00204000Y00168500
X00225000Y00118000
X00287000Y00093000
X00287000Y00096000
X00268500Y00215500
X00268500Y00222500
X00268500Y00219000
X00303680Y00209360
X00301120Y00209360
X-00008000Y00152500
X00202500Y00159500
X00146000Y00095000
X00135750Y00133000
X00121000Y00144900
X00237500Y00130750
X00147250Y00153050
X00170500Y00160000
X00125500Y00090500
X00245000Y00098000
X00273500Y00092000
X00098250Y00183500
X00312250Y00220000
X00112000Y00234500
X00227570Y00168930
X00147191Y00156150
X00149500Y00138500
X00093500Y00091000
X00168000Y00092000
X00116500Y00177500
X00122973Y00157973
X00229500Y00174500
X00144500Y00187000
X-00008500Y00119000
X00099500Y00121100
X00101750Y00119350
X-00008500Y00115500
X00112500Y00116500
X00114250Y00118250
X00116000Y00116500
X-00001750Y00093000
X00092500Y00127600
X00080000Y00138900
X00240000Y00140000
X00231000Y00102500
X00161000Y00095000
X00129500Y00094500
X00120300Y00136450
X00165237Y00140355
X00144500Y00088500
X00166500Y00137150
X00158495Y00138000
X00148033Y00136504
X00150958Y00108700
X00127450Y00134900
X00005500Y00245500
X-00004250Y00104750
X00000000Y00167500
X00132000Y00092000
X00011000Y00243000
X-00001750Y00099500
X00000250Y00164500
X00137500Y00086500
X00277500Y00059500
X00303500Y00244600
X00304000Y00160500
X00189000Y00192500
X00195500Y00192500
X00305000Y00177500
X00289000Y00160500
X00292500Y00160500
X00282500Y00153000
X00304000Y00163500
X00300060Y00244600
X00288960Y00035960
X00101500Y00155000
X00147381Y00159633
X00292000Y00076038
X00105500Y00073539
X00166500Y00181000
X00309000Y00173000
T03
X00145000Y00027500
R05X-00005000
X00130000Y00032500
R03X00005000
X00120000Y00032500
X00125000Y00032500
X00145000Y00037500
R05X-00005000
X00130000Y00042500
R03X00005000
X00120000Y00042500
X00125000Y00042500
X00145000Y00047500
R05X-00005000
X00145000Y00052500
R05X-00005000
X00075000Y00062500
X00075000Y00072500
X00065000Y00072500
X00065000Y00062500
X00070000Y00067500
X00060000Y00202500
X00067500Y00202500
X00082500Y00202500
X00075000Y00202500
X00075000Y00210000
X00082500Y00210000
X00082500Y00217500
R04X-00007500
X00052500Y00225000
R04X00007500
X00082500Y00195000
R04X-00007500
X00052500Y00202500
X00052500Y00210000
X00060000Y00210000
X00067500Y00210000
X00305000Y00232000
X00297500Y00232000
X00297500Y00222000
X00290000Y00232000
X00305000Y00222000
X00290000Y00222000
T04
X00002000Y00176500
X-00003000Y00176500
X00002000Y00181500
X-00003000Y00181500
X00002000Y00186500
X-00003000Y00186500
X00002000Y00191500
X-00003000Y00191500
X00002000Y00196500
X-00003000Y00196500
X00002000Y00201500
X-00003000Y00201500
X00002000Y00206500
X-00003000Y00206500
X00002000Y00211500
X-00003000Y00211500
X00002000Y00216500
X-00003000Y00216500
X00002000Y00221500
X-00003000Y00221500
X00019500Y00176500
X00014500Y00176500
X00019500Y00181500
X00014500Y00181500
X00019500Y00186500
X00014500Y00186500
X00019500Y00191500
X00014500Y00191500
X00019500Y00196500
X00014500Y00196500
X00019500Y00201500
X00014500Y00201500
X00019500Y00206500
X00014500Y00206500
X00019500Y00211500
X00014500Y00211500
X00019500Y00216500
X00014500Y00216500
X00019500Y00221500
X00014500Y00221500
X00185500Y00069000
X00190500Y00069000
X00185500Y00064000
X00190500Y00064000
X00185500Y00059000
X00190500Y00059000
X00185500Y00054000
X00190500Y00054000
X00185500Y00049000
X00190500Y00049000
X00185500Y00044000
X00190500Y00044000
X00185500Y00039000
X00190500Y00039000
X00185500Y00034000
X00190500Y00034000
X00185500Y00029000
X00190500Y00029000
X00185500Y00024000
X00190500Y00024000
X00217500Y00230000
X00222500Y00230000
X00217500Y00225000
X00222500Y00225000
T05
X00253000Y00108500
X00247000Y00108500
T06
X00095000Y00292500
X00085000Y00272500
X00114100Y00264000
X00140900Y00264000
X00114100Y00254200
X00140900Y00254200
X00247500Y00020000
X00242500Y00010000
X00237500Y00020000
X00232500Y00010000
X00227500Y00020000
X00222500Y00010000
X00217500Y00020000
X00212500Y00010000
T07
X00002500Y00027500
X00012500Y00027500
X00002500Y00037500
X00012500Y00037500
X00002500Y00047500
X00012500Y00047500
X00002500Y00057500
X00012500Y00057500
X00002500Y00067500
X00012500Y00067500
X00002500Y00077500
X00012500Y00077500
X00002500Y00087500
X00012500Y00087500
X00002500Y00097500
X00012500Y00097500
X00002500Y00107500
X00012500Y00107500
X00002500Y00117500
X00012500Y00117500
X00002500Y00127500
X00012500Y00127500
X00002500Y00137500
X00012500Y00137500
X00002500Y00147500
X00012500Y00147500
X00002500Y00157500
X00012500Y00157500
X00060060Y00005000
X00050220Y00005000
X00032500Y00005000
X00042340Y00005000
X00032500Y-00005300
X00042340Y-00005300
X00060060Y-00005300
X00050220Y-00005300
X00097500Y00050000
X00085000Y00050000
X00107500Y00100000
X00100429Y00092929
X00100429Y00107071
X00093358Y00100000
X00093358Y00114142
X00086287Y00121213
X00079216Y00114142
X00079216Y00128284
X00072145Y00121213
X00072145Y00135355
X00065074Y00128284
X00065074Y00142426
X00058003Y00135355
X00044900Y00168500
X00147560Y00005000
X00137720Y00005000
X00120000Y00005000
X00129840Y00005000
X00120000Y-00005300
X00129840Y-00005300
X00147560Y-00005300
X00137720Y-00005300
X00251500Y00039000
X00241500Y00039000
X00218500Y00039000
X00208500Y00039000
X00205100Y-00034300
X00215100Y-00028300
X00244900Y-00034300
X00254900Y-00028300
X00310000Y00265000
X00300000Y00265000
X00280000Y00252500
T08
X00095000Y00037500
X00069400Y00037500
X00095000Y00019900
X00069400Y00019900
X00055000Y00037500
X00029400Y00037500
X00055000Y00019900
X00029400Y00019900
T09
X00032500Y00166000
X00020000Y00266440
X00077000Y00266440
X00017600Y00285730
X00079400Y00285730
T10
X00199500Y-00003000
X00260500Y-00003000
T11
X00072150Y00006430
X00020410Y00006430
X00020410Y-00015970
X00072150Y-00015970
X00159650Y00006430
X00107910Y00006430
X00107910Y-00015970
X00159650Y-00015970
T12
X00308200Y00071200
X00308200Y-00027200
T13
X00000000Y00270000
X00000000Y00000000
X00280000Y00000000
X00280000Y00270000
T14
X00032500Y00074000
T15
X00308200Y-00009300
X00308200Y00053300
T16
X00185000Y00261400
X00185000Y00285000
X00240000Y00261400
X00240000Y00285000
T17
X00252500Y-00015000
X00207500Y-00015000
M30
