G04 ================== begin FILE IDENTIFICATION RECORD ==================*
G04 Layout Name:  BeagleBoard_xM_RevC1_nologo.brd*
G04 Film Name:    xM_RevC1_lyr4*
G04 File Format:  Gerber RS274X*
G04 File Origin:  Cadence Allegro 16.5-S022*
G04 Origin Date:  Fri Oct 12 17:26:56 2012*
G04 *
G04 Layer:  VIA CLASS/LYR4-SIG*
G04 Layer:  PIN/LYR4-SIG*
G04 Layer:  ETCH/LYR4-SIG*
G04 Layer:  DRC ERROR CLASS/LYR4-SIG*
G04 Layer:  DRAWING FORMAT/TITLE_BLOCK*
G04 *
G04 Offset:    (0.00 0.00)*
G04 Mirror:    No*
G04 Mode:      Positive*
G04 Rotation:  0*
G04 FullContactRelief:  No*
G04 UndefLineWidth:     6.00*
G04 ================== end FILE IDENTIFICATION RECORD ====================*
%FSLAX35Y35*MOIN*%
%IR0*IPPOS*OFA0.00000B0.00000*MIA0B0*SFA1.00000B1.00000*%
%ADD11C,.04*%
%ADD12C,.06*%
%ADD10C,.018*%
%ADD15C,.019*%
%ADD14C,.056*%
%ADD13C,.065*%
%ADD16C,.01*%
%ADD17C,.02*%
%ADD18C,.012*%
%ADD19C,.015*%
%ADD20C,.045*%
%ADD21C,.003*%
%ADD22C,.006*%
%ADD23C,.005*%
%ADD24C,.008*%
%ADD28C,.03404*%
%ADD25C,.07004*%
%ADD27C,.02604*%
%ADD26C,.02804*%
G75*
%LPD*%
G75*
G36*
G01X-1100Y100400D02*
X-1750D01*
X-1794Y99456D01*
X-850Y99500D01*
Y100150D01*
G03X-1100Y100400I-250J0D01*
G37*
G36*
G01X-3350Y104100D02*
Y104750D01*
X-4294Y104794D01*
X-4250Y103850D01*
X-3600D01*
G03X-3350Y104100I0J250D01*
G37*
G36*
G01X-8530Y153242D02*
X-8636Y153136D01*
X-8000Y152312D01*
X-7364Y153136D01*
X-7470Y153242D01*
G03X-8530I-530J-530D01*
G37*
G36*
G01X-7100Y152350D02*
Y152500D01*
X-8133Y152633D01*
X-8000Y151600D01*
X-7850D01*
G03X-7100Y152350I0J750D01*
G37*
G36*
G01X-4250Y174500D02*
X-3000D01*
X-2867Y176633D01*
X-5000Y176500D01*
Y175250D01*
G03X-4250Y174500I750J0D01*
G37*
G36*
G01X-5652Y186323D02*
X-4414Y185087D01*
X-2938Y186500D01*
X-4414Y187913D01*
X-5652Y186677D01*
G03Y186323I177J-177D01*
G37*
G36*
G01X0Y193350D02*
Y191500D01*
X2027Y191473D01*
X2000Y193500D01*
X150D01*
G03X0Y193350I0J-150D01*
G37*
G36*
G01Y183350D02*
Y181500D01*
X2027Y181473D01*
X2000Y183500D01*
X150D01*
G03X0Y183350I0J-150D01*
G37*
G36*
G01X-5652Y181323D02*
X-4414Y180087D01*
X-2938Y181500D01*
X-4414Y182913D01*
X-5652Y181677D01*
G03Y181323I177J-177D01*
G37*
G36*
G01X-5606Y191394D02*
X-4413Y190203D01*
X-2962Y191500D01*
X-4413Y192797D01*
X-5606Y191606D01*
G03Y191394I106J-106D01*
G37*
G36*
G01X0Y188350D02*
Y186500D01*
X2027Y186473D01*
X2000Y188500D01*
X150D01*
G03X0Y188350I0J-150D01*
G37*
G36*
G01X-1150Y198500D02*
X-3000D01*
X-3027Y196473D01*
X-1000Y196500D01*
Y198350D01*
G03X-1150Y198500I-150J0D01*
G37*
G36*
G01X6250Y194900D02*
X5500D01*
X5473Y193973D01*
X6400Y194000D01*
Y194750D01*
G03X6250Y194900I-150J0D01*
G37*
G36*
G01X3242Y238780D02*
X3136Y238886D01*
X2312Y238250D01*
X3136Y237614D01*
X3242Y237720D01*
G03Y238780I-530J530D01*
G37*
G36*
G01X9500Y29750D02*
Y27500D01*
X12633Y27367D01*
X12500Y30500D01*
X10250D01*
G03X9500Y29750I0J-750D01*
G37*
G36*
G01X15250Y40500D02*
X12500D01*
X12456Y37456D01*
X15500Y37500D01*
Y40250D01*
G03X15250Y40500I-250J0D01*
G37*
G36*
G01X16566Y47677D02*
X14621Y49620D01*
X12438Y47500D01*
X14621Y45380D01*
X16566Y47323D01*
G03Y47677I-177J177D01*
G37*
G36*
G01X15500Y64750D02*
Y67500D01*
X12456Y67544D01*
X12500Y64500D01*
X15250D01*
G03X15500Y64750I0J250D01*
G37*
G36*
G01X20900Y94350D02*
Y95000D01*
X19956Y95044D01*
X20000Y94100D01*
X20650D01*
G03X20900Y94350I0J250D01*
G37*
G36*
G01X21096Y90177D02*
X20636Y90636D01*
X19938Y90000D01*
X20636Y89364D01*
X21096Y89823D01*
G03Y90177I-177J177D01*
G37*
G36*
G01X18596Y87677D02*
X18136Y88136D01*
X17438Y87500D01*
X18136Y86864D01*
X18596Y87323D01*
G03Y87677I-177J177D01*
G37*
G36*
G01X19100Y120300D02*
Y120000D01*
X20106Y119894D01*
X20000Y120900D01*
X19700D01*
G03X19100Y120300I0J-600D01*
G37*
G36*
G01X16500Y179650D02*
Y181500D01*
X14473Y181527D01*
X14500Y179500D01*
X16350D01*
G03X16500Y179650I0J150D01*
G37*
G36*
G01X22222Y181606D02*
X20913Y182913D01*
X19462Y181500D01*
X20913Y180087D01*
X22222Y181394D01*
G03Y181606I-106J106D01*
G37*
G36*
G01X16500Y184650D02*
Y186500D01*
X14473Y186527D01*
X14500Y184500D01*
X16350D01*
G03X16500Y184650I0J150D01*
G37*
G36*
G01X22222Y186606D02*
X20913Y187913D01*
X19462Y186500D01*
X20913Y185087D01*
X22222Y186394D01*
G03Y186606I-106J106D01*
G37*
G36*
G01X16500Y189650D02*
Y191500D01*
X14473Y191527D01*
X14500Y189500D01*
X16350D01*
G03X16500Y189650I0J150D01*
G37*
G36*
G01X22222Y191606D02*
X20913Y192913D01*
X19462Y191500D01*
X20913Y190087D01*
X22222Y191394D01*
G03Y191606I-106J106D01*
G37*
G36*
G01X24450Y174850D02*
X24750D01*
X24856Y175856D01*
X23850Y175750D01*
Y175450D01*
G03X24450Y174850I600J0D01*
G37*
G36*
G01X22152Y211677D02*
X20914Y212913D01*
X19438Y211500D01*
X20914Y210087D01*
X22152Y211323D01*
G03Y211677I-177J177D01*
G37*
G36*
G01Y206677D02*
X20914Y207913D01*
X19438Y206500D01*
X20914Y205087D01*
X22152Y206323D01*
G03Y206677I-177J177D01*
G37*
G36*
G01X26177Y202404D02*
X26636Y202864D01*
X26000Y203562D01*
X25364Y202864D01*
X25823Y202404D01*
G03X26177I177J177D01*
G37*
G36*
G01X28650Y202400D02*
X28000D01*
X27956Y201456D01*
X28900Y201500D01*
Y202150D01*
G03X28650Y202400I-250J0D01*
G37*
G36*
G01X16500Y194650D02*
Y196500D01*
X14473Y196527D01*
X14500Y194500D01*
X16350D01*
G03X16500Y194650I0J150D01*
G37*
G36*
G01X16350Y213500D02*
X14500D01*
X14473Y211473D01*
X16500Y211500D01*
Y213350D01*
G03X16350Y213500I-150J0D01*
G37*
G36*
G01X7823Y235596D02*
X7364Y235136D01*
X8000Y234438D01*
X8636Y235136D01*
X8177Y235596D01*
G03X7823I-177J-177D01*
G37*
G36*
G01X14742Y235030D02*
X14636Y235136D01*
X13812Y234500D01*
X14636Y233864D01*
X14742Y233970D01*
G03Y235030I-530J530D01*
G37*
G36*
G01X14650Y239900D02*
X14000D01*
X13956Y238956D01*
X14900Y239000D01*
Y239650D01*
G03X14650Y239900I-250J0D01*
G37*
G36*
G01X43400Y45850D02*
Y46000D01*
X42367Y46133D01*
X42500Y45100D01*
X42650D01*
G03X43400Y45850I0J750D01*
G37*
G36*
G01X34596Y96177D02*
X34136Y96636D01*
X33438Y96000D01*
X34136Y95364D01*
X34596Y95823D01*
G03Y96177I-177J177D01*
G37*
G36*
G01Y100177D02*
X34136Y100636D01*
X33438Y100000D01*
X34136Y99364D01*
X34596Y99823D01*
G03Y100177I-177J177D01*
G37*
G36*
G01X32396Y98177D02*
X31936Y98636D01*
X31238Y98000D01*
X31936Y97364D01*
X32396Y97823D01*
G03Y98177I-177J177D01*
G37*
G36*
G01X32904Y149823D02*
X33364Y149364D01*
X34062Y150000D01*
X33364Y150636D01*
X32904Y150177D01*
G03Y149823I177J-177D01*
G37*
G36*
G01X34900Y145350D02*
Y146000D01*
X33956Y146044D01*
X34000Y145100D01*
X34650D01*
G03X34900Y145350I0J250D01*
G37*
G36*
G01X31900D02*
Y146000D01*
X30956Y146044D01*
X31000Y145100D01*
X31650D01*
G03X31900Y145350I0J250D01*
G37*
G36*
G01Y141850D02*
Y142500D01*
X30956Y142544D01*
X31000Y141600D01*
X31650D01*
G03X31900Y141850I0J250D01*
G37*
G36*
G01X47677Y158904D02*
X48136Y159364D01*
X47500Y160062D01*
X46864Y159364D01*
X47323Y158904D01*
G03X47677I177J177D01*
G37*
G36*
G01X46900Y156850D02*
Y157500D01*
X45956Y157544D01*
X46000Y156600D01*
X46650D01*
G03X46900Y156850I0J250D01*
G37*
G36*
G01X32904Y154823D02*
X33364Y154364D01*
X34062Y155000D01*
X33364Y155636D01*
X32904Y155177D01*
G03Y154823I177J-177D01*
G37*
G36*
G01X48100Y152650D02*
Y152000D01*
X49044Y151956D01*
X49000Y152900D01*
X48350D01*
G03X48100Y152650I0J-250D01*
G37*
G36*
G01X35800Y247400D02*
X35500D01*
X35394Y246394D01*
X36400Y246500D01*
Y246800D01*
G03X35800Y247400I-600J0D01*
G37*
G36*
G01X68500Y106000D02*
X60750Y113750D01*
Y128750D01*
X60904Y128904D01*
G02X61585Y128586I283J-283D01*
G03X67892Y130363I3489J-302D01*
G02X68214Y131000I322J237D01*
G01X71000D01*
X71863Y131863D01*
X71952Y131858D01*
G03X75502Y134357I193J3497D01*
G01X75544Y134500D01*
X93000D01*
X95000Y132500D01*
X100000D01*
X101104Y133604D01*
G02X101690Y133583I283J-283D01*
G03X104125Y134772I1060J917D01*
G02X104518Y135250I392J78D01*
G01X105750D01*
X107000Y136500D01*
X111500D01*
X113500Y138500D01*
X115000D01*
X118750Y134750D01*
X118895D01*
G02X119214Y134108I0J-400D01*
G03X121029Y132277I1037J-788D01*
G02X121593Y132190I239J-321D01*
G03X123944Y132805I1057J760D01*
G02X124390Y133158I398J-44D01*
G03X125694Y133829I160J1292D01*
G02X126329Y133921I352J-191D01*
G01X127250Y133000D01*
X128500D01*
X129500Y134000D01*
Y136000D01*
X126500Y139000D01*
X119000D01*
X116500Y141500D01*
X112093D01*
G02X111718Y142041I-1J400D01*
G03X109282I-1218J459D01*
G02X108907Y141500I-374J-141D01*
G01X107500D01*
X104500Y138500D01*
X91000D01*
X89500Y140000D01*
Y145500D01*
X93534Y149534D01*
G02X94212Y149309I282J-283D01*
G03X95298Y150786I1288J191D01*
G01X95197Y150770D01*
X94984Y150984D01*
X95500Y151500D01*
X109186D01*
X109210Y151327D01*
G03X109885Y150353I1290J173D01*
G02Y149647I-189J-353D01*
G03X111115I615J-1147D01*
G02Y150353I189J353D01*
G03X111790Y151327I-615J1147D01*
G01X111814Y151500D01*
X116000D01*
X118500Y154000D01*
X121586D01*
X121610Y153827D01*
G03X123552Y155127I1290J173D01*
G01X123452Y155185D01*
Y155500D01*
X124000D01*
X126000Y157500D01*
X129000D01*
X130000Y156500D01*
X134000D01*
X137750Y152750D01*
X142750D01*
X146000Y149500D01*
Y148500D01*
X146500Y148000D01*
X148000D01*
X148500Y147500D01*
Y146500D01*
X146807Y144807D01*
X146772Y144792D01*
G03X146090Y144110I514J-1196D01*
G01X146075Y144075D01*
X146000Y144000D01*
Y143800D01*
X145998Y143786D01*
G03Y143406I1288J-190D01*
G01X146000Y143392D01*
Y143000D01*
X147126Y141874D01*
G02X147151Y141334I-282J-284D01*
G03X147905Y139221I999J-834D01*
G02X148222Y138751I-75J-393D01*
G03X148219Y138265I1278J-251D01*
G02X147875Y137796I-393J-72D01*
G03X149314Y136739I158J-1292D01*
G02X149658Y137208I393J72D01*
G03X149745Y139779I-158J1292D01*
G02X149428Y140249I75J393D01*
G03X149450Y140577I-1278J250D01*
G02X149849Y141000I399J23D01*
G01X151000D01*
X153500Y143500D01*
Y145500D01*
X155250Y147250D01*
X162500D01*
X163000Y146750D01*
Y139250D01*
X162374Y138624D01*
G02X161835Y138600I-283J283D01*
G03X160179Y138611I-835J-999D01*
G02X159590Y138704I-253J310D01*
G03X158958Y136783I-1095J-704D01*
G02X159500Y136409I142J-374D01*
G01Y133750D01*
X159000Y133250D01*
X156750D01*
X152000Y128500D01*
X116000D01*
X114000Y130500D01*
X109000D01*
X107600Y129100D01*
Y124900D01*
X113000Y119500D01*
Y118615D01*
X112993Y118590D01*
G03X112949Y118289I1257J-338D01*
G02X112538Y117901I-400J12D01*
G03X112346Y117893I-38J-1401D01*
G02X111902Y118282I-44J398D01*
G03X110654Y116857I-1402J-31D01*
G02X111098Y116468I44J-398D01*
G03X111264Y115839I1402J33D01*
G02X110911Y115250I-353J-189D01*
G01X99500D01*
X89250Y125500D01*
X84000D01*
X82000Y123500D01*
Y118500D01*
X84000Y116500D01*
Y111000D01*
X79000Y106000D01*
X68500D01*
G37*
G36*
G01X60648Y138250D02*
X58108Y138249D01*
X57959Y135311D01*
X60897Y135460D01*
X60898Y138000D01*
G03X60648Y138250I-250J0D01*
G37*
G36*
G01X58323Y142096D02*
X57864Y141636D01*
X58500Y140938D01*
X59136Y141636D01*
X58677Y142096D01*
G03X58323I-177J-177D01*
G37*
G36*
G01X53677Y142404D02*
X54136Y142864D01*
X53500Y143562D01*
X52864Y142864D01*
X53323Y142404D01*
G03X53677I177J177D01*
G37*
G36*
G01X54682Y147373D02*
X54073Y147682D01*
X53438Y146991D01*
X54136Y146365D01*
X54746Y146973D01*
G03X54682Y147373I-177J177D01*
G37*
G36*
G01X57400Y148350D02*
Y149000D01*
X56456Y149044D01*
X56500Y148100D01*
X57150D01*
G03X57400Y148350I0J250D01*
G37*
G36*
G01X53900Y159350D02*
Y160000D01*
X52956Y160044D01*
X53000Y159100D01*
X53650D01*
G03X53900Y159350I0J250D01*
G37*
G36*
G01X58150Y161700D02*
X57500D01*
X57456Y160756D01*
X58400Y160800D01*
Y161450D01*
G03X58150Y161700I-250J0D01*
G37*
G36*
G01X60996Y151527D02*
X60386Y152135D01*
X59688Y151509D01*
X60323Y150818D01*
X60932Y151127D01*
G03X60996Y151527I-113J223D01*
G37*
G36*
G01X53650Y154900D02*
X53000D01*
X52956Y153956D01*
X53900Y154000D01*
Y154650D01*
G03X53650Y154900I-250J0D01*
G37*
G36*
G01X62580Y177150D02*
Y176500D01*
X63524Y176456D01*
X63480Y177400D01*
X62830D01*
G03X62580Y177150I0J-250D01*
G37*
G36*
G01X65263Y174596D02*
X64804Y174136D01*
X65440Y173438D01*
X66076Y174136D01*
X65617Y174596D01*
G03X65263I-177J-177D01*
G37*
G36*
G01X69483D02*
X69024Y174136D01*
X69660Y173438D01*
X70296Y174136D01*
X69837Y174596D01*
G03X69483I-177J-177D01*
G37*
G36*
G01X69552Y182650D02*
Y182000D01*
X70496Y181956D01*
X70452Y182900D01*
X69802D01*
G03X69552Y182650I0J-250D01*
G37*
G36*
G01X53596Y173177D02*
X53136Y173636D01*
X52438Y173000D01*
X53136Y172364D01*
X53596Y172823D01*
G03Y173177I-177J177D01*
G37*
G36*
G01X59350Y256100D02*
X60000D01*
X60044Y257044D01*
X59100Y257000D01*
Y256350D01*
G03X59350Y256100I250J0D01*
G37*
G36*
G01X55404Y256823D02*
X55864Y256364D01*
X56562Y257000D01*
X55864Y257636D01*
X55404Y257177D01*
G03Y256823I177J-177D01*
G37*
G36*
G01X59332Y238742D02*
X59226Y238636D01*
X59862Y237812D01*
X60498Y238636D01*
X60392Y238742D01*
G03X59332I-530J-530D01*
G37*
G36*
G01X62548Y271970D02*
X62654Y271864D01*
X63478Y272500D01*
X62654Y273136D01*
X62548Y273030D01*
G03Y271970I530J-530D01*
G37*
G36*
G01X64032Y273030D02*
X63926Y273136D01*
X63102Y272500D01*
X63926Y271864D01*
X64032Y271970D01*
G03Y273030I-530J530D01*
G37*
G36*
G01X81096Y38177D02*
X80636Y38636D01*
X79938Y38000D01*
X80636Y37364D01*
X81096Y37823D01*
G03Y38177I-177J177D01*
G37*
G36*
G01X80650Y28900D02*
X80000D01*
X79956Y27956D01*
X80900Y28000D01*
Y28650D01*
G03X80650Y28900I-250J0D01*
G37*
G36*
G01X90580Y37323D02*
X92702Y35203D01*
X95062Y37500D01*
X92702Y39797D01*
X90580Y37677D01*
G03Y37323I177J-177D01*
G37*
G36*
G01X74051Y87132D02*
X73591Y87591D01*
X72892Y86955D01*
X73591Y86319D01*
X74051Y86778D01*
G03Y87132I-177J177D01*
G37*
G36*
G01X90353Y121390D02*
X88408Y123333D01*
X86224Y121213D01*
X88408Y119093D01*
X90353Y121036D01*
G03Y121390I-177J177D01*
G37*
G36*
G01X75323Y172096D02*
X74864Y171636D01*
X75500Y170938D01*
X76136Y171636D01*
X75677Y172096D01*
G03X75323I-177J-177D01*
G37*
G36*
G01X79323D02*
X78864Y171636D01*
X79500Y170938D01*
X80136Y171636D01*
X79677Y172096D01*
G03X79323I-177J-177D01*
G37*
G36*
G01X84596Y171177D02*
X84136Y171636D01*
X83438Y171000D01*
X84136Y170364D01*
X84596Y170823D01*
G03Y171177I-177J177D01*
G37*
G36*
G01X85491Y179570D02*
X84962Y179039D01*
X85597Y178366D01*
X86232Y179039D01*
X85703Y179570D01*
G03X85491I-106J-106D01*
G37*
G36*
G01X77323Y174096D02*
X76864Y173636D01*
X77500Y172938D01*
X78136Y173636D01*
X77677Y174096D01*
G03X77323I-177J-177D01*
G37*
G36*
G01X82596Y173177D02*
X82136Y173636D01*
X81438Y173000D01*
X82136Y172364D01*
X82596Y172823D01*
G03Y173177I-177J177D01*
G37*
G36*
G01X77424Y182650D02*
Y182000D01*
X78368Y181956D01*
X78324Y182900D01*
X77674D01*
G03X77424Y182650I0J-250D01*
G37*
G36*
G01X72323Y180256D02*
X71784Y179716D01*
X72415Y179018D01*
X73084Y179683D01*
X72704Y180223D01*
G03X72323Y180256I-204J-144D01*
G37*
G36*
G01X74211Y183096D02*
X73752Y182636D01*
X74388Y181938D01*
X75024Y182636D01*
X74565Y183096D01*
G03X74211I-177J-177D01*
G37*
G36*
G01X84650Y235900D02*
X84500D01*
X84367Y234867D01*
X85400Y235000D01*
Y235150D01*
G03X84650Y235900I-750J0D01*
G37*
G36*
G01X73292Y237823D02*
X73752Y237364D01*
X74450Y238000D01*
X73752Y238636D01*
X73292Y238177D01*
G03Y237823I177J-177D01*
G37*
G36*
G01X81177Y236904D02*
X81636Y237364D01*
X81000Y238062D01*
X80364Y237364D01*
X80823Y236904D01*
G03X81177I177J177D01*
G37*
G36*
G01X77677D02*
X78136Y237364D01*
X77500Y238062D01*
X76864Y237364D01*
X77323Y236904D01*
G03X77677I177J177D01*
G37*
G36*
G01X87100Y241150D02*
Y241000D01*
X88133Y240867D01*
X88000Y241900D01*
X87850D01*
G03X87100Y241150I0J-750D01*
G37*
G36*
G01X88530Y240258D02*
X88636Y240364D01*
X88000Y241188D01*
X87364Y240364D01*
X87470Y240258D01*
G03X88530I530J530D01*
G37*
G36*
G01X92400Y240850D02*
Y241000D01*
X91367Y241133D01*
X91500Y240100D01*
X91650D01*
G03X92400Y240850I0J750D01*
G37*
G36*
G01X81570Y271970D02*
X83020Y270521D01*
X85188Y272500D01*
X83020Y274479D01*
X81570Y273030D01*
G03Y271970I531J-530D01*
G37*
G36*
G01X101096Y-6823D02*
X100636Y-6364D01*
X99938Y-7000D01*
X100636Y-7636D01*
X101096Y-7177D01*
G03Y-6823I-177J177D01*
G37*
G36*
G01X99096Y-8823D02*
X98636Y-8364D01*
X97938Y-9000D01*
X98636Y-9636D01*
X99096Y-9177D01*
G03Y-8823I-177J177D01*
G37*
G36*
G01X111512Y27058D02*
Y27208D01*
X110479Y27341D01*
X110612Y26308D01*
X110762D01*
G03X111512Y27058I0J750D01*
G37*
G36*
G01X179500Y4500D02*
X162553Y21447D01*
G02X162761Y22123I283J283D01*
G03X162228Y24875I-261J1377D01*
G02X161750Y25268I-78J392D01*
G01Y31250D01*
X160000Y33000D01*
X153000D01*
X148250Y28250D01*
X146528D01*
G03X143472I-1528J-750D01*
G01X141528D01*
G03X138472I-1528J-750D01*
G01X136528D01*
G03X133472I-1528J-750D01*
G01X131528D01*
G03X128472I-1528J-750D01*
G01X126528D01*
G03X123472I-1528J-750D01*
G01X121528D01*
G03X118472I-1528J-750D01*
G01X115250D01*
X109359Y34141D01*
X109378Y34244D01*
G03X107744Y35878I-1378J256D01*
G01X107641Y35859D01*
X107000Y36500D01*
Y39285D01*
G02X107533Y39662I400J0D01*
G03Y42306I467J1322D01*
G02X107000Y42683I-133J377D01*
G01Y45189D01*
G02X107533Y45566I400J0D01*
G03Y48210I467J1322D01*
G02X107000Y48587I-133J377D01*
G01Y51093D01*
G02X107533Y51470I400J0D01*
G03Y54114I467J1322D01*
G02X107000Y54491I-133J377D01*
G01Y55500D01*
X108786Y57286D01*
X108912Y57227D01*
G03X110773Y59088I588J1273D01*
G01X110714Y59214D01*
X111000Y59500D01*
X113500D01*
X119500Y65500D01*
X133003D01*
G02X133402Y65078I0J-400D01*
G03X134366Y63667I1400J-78D01*
G02X134511Y62991I-124J-380D01*
G03X135888Y63285I942J-1039D01*
G02X135743Y63961I124J380D01*
G03X136202Y65078I-941J1039D01*
G02X136601Y65500I399J22D01*
G01X139657D01*
G02X140034Y64967I0J-400D01*
G03X142650Y63960I1322J-468D01*
G01X142665Y63996D01*
X142834Y64166D01*
X143000Y64000D01*
X150073D01*
G02X150390Y63356I0J-400D01*
G03X152610I1110J-856D01*
G02X152927Y64000I317J244D01*
G01X161500D01*
X182000Y43500D01*
Y23500D01*
X184500Y21000D01*
X192500D01*
X194000Y22500D01*
Y31500D01*
X207000Y44500D01*
X223500D01*
X225500Y42500D01*
Y34427D01*
G02X224856Y34110I-400J0D01*
G03Y31890I-856J-1110D01*
G02X225500Y31573I244J-317D01*
G01Y23500D01*
X221477Y19477D01*
G02X220795Y19786I-283J283D01*
G03X217714Y16705I-3295J214D01*
G02X218023Y16023I26J-399D01*
G01X214575Y12575D01*
X214436Y12675D01*
G03X209242Y9465I-1936J-2675D01*
G02X208847Y9000I-395J-65D01*
G01X194000D01*
X189500Y4500D01*
X179500D01*
G37*
G36*
G01X108404Y31323D02*
X108864Y30864D01*
X109562Y31500D01*
X108864Y32136D01*
X108404Y31677D01*
G03Y31323I177J-177D01*
G37*
G36*
G01X106400Y72889D02*
Y73539D01*
X105456Y73583D01*
X105500Y72639D01*
X106150D01*
G03X106400Y72889I0J250D01*
G37*
G36*
G01X106150Y71362D02*
X105500D01*
X105456Y70418D01*
X106400Y70462D01*
Y71112D01*
G03X106150Y71362I-250J0D01*
G37*
G36*
G01X104495Y93106D02*
X102550Y95049D01*
X100366Y92929D01*
X102550Y90809D01*
X104495Y92752D01*
G03Y93106I-177J177D01*
G37*
G36*
G01X93677Y89904D02*
X94136Y90364D01*
X93500Y91062D01*
X92864Y90364D01*
X93323Y89904D01*
G03X93677I177J177D01*
G37*
G36*
G01X111427Y100177D02*
X109620Y101982D01*
X107438Y100000D01*
X109620Y98018D01*
X111427Y99823D01*
G03Y100177I-177J177D01*
G37*
G36*
G01X143394Y119762D02*
G02X142787Y119713I-324J234D01*
G01X142000Y120500D01*
X140799D01*
G02X140494Y121158I0J400D01*
G03X138210Y122173I-994J842D01*
G01X138186Y122000D01*
X131799D01*
G02X131494Y122658I0J400D01*
G03X129761Y122428I-993J842D01*
G02X129816Y121816I-228J-329D01*
G01X127750Y119750D01*
X118855D01*
G02X118560Y120420I0J400D01*
G03X116640I-960J880D01*
G02X116345Y119750I-295J-270D01*
G01X114250D01*
X108602Y125398D01*
Y128602D01*
X109498Y129498D01*
X113502D01*
X115500Y127500D01*
X115584D01*
X115585Y127498D01*
X152415D01*
X152416Y127500D01*
X152500D01*
X157000Y132000D01*
X159000D01*
X159500Y131500D01*
Y129500D01*
X159285Y129285D01*
X159227Y129273D01*
G03X158227Y128273I273J-1273D01*
G01X158215Y128215D01*
X155500Y125500D01*
X149000D01*
X147000Y123500D01*
Y121000D01*
X145928Y119928D01*
G02X145365Y119927I-282J283D01*
G03X143394Y119762I-915J-927D01*
G37*
G36*
G01X102150Y155900D02*
X101500D01*
X101456Y154956D01*
X102400Y155000D01*
Y155650D01*
G03X102150Y155900I-250J0D01*
G37*
G36*
G01X102400Y157350D02*
Y158000D01*
X101456Y158044D01*
X101500Y157100D01*
X102150D01*
G03X102400Y157350I0J250D01*
G37*
G36*
G01X100150Y191400D02*
X99500D01*
X99456Y190456D01*
X100400Y190500D01*
Y191150D01*
G03X100150Y191400I-250J0D01*
G37*
G36*
G01X102904Y198843D02*
X103364Y198384D01*
X104062Y199020D01*
X103364Y199656D01*
X102904Y199197D01*
G03Y198843I177J-177D01*
G37*
G36*
G01X99904Y196883D02*
X100364Y196424D01*
X101062Y197060D01*
X100364Y197696D01*
X99904Y197237D01*
G03Y196883I177J-177D01*
G37*
G36*
G01X102904Y206983D02*
X103364Y206524D01*
X104062Y207160D01*
X103364Y207796D01*
X102904Y207337D01*
G03Y206983I177J-177D01*
G37*
G36*
G01X99904Y200803D02*
X100364Y200344D01*
X101062Y200980D01*
X100364Y201616D01*
X99904Y201157D01*
G03Y200803I177J-177D01*
G37*
G36*
G01Y212663D02*
X100364Y212204D01*
X101062Y212840D01*
X100364Y213476D01*
X99904Y213017D01*
G03Y212663I177J-177D01*
G37*
G36*
G01X102904Y202763D02*
X103364Y202304D01*
X104062Y202940D01*
X103364Y203576D01*
X102904Y203117D01*
G03Y202763I177J-177D01*
G37*
G36*
G01X99904Y204723D02*
X100364Y204264D01*
X101062Y204900D01*
X100364Y205536D01*
X99904Y205077D01*
G03Y204723I177J-177D01*
G37*
G36*
G01X98100Y209666D02*
Y209016D01*
X99044Y208972D01*
X99000Y209916D01*
X98350D01*
G03X98100Y209666I0J-250D01*
G37*
G36*
G01X113096Y234677D02*
X112636Y235136D01*
X111938Y234500D01*
X112636Y233864D01*
X113096Y234323D01*
G03Y234677I-177J177D01*
G37*
G36*
G01X102904Y218843D02*
X103364Y218384D01*
X104062Y219020D01*
X103364Y219656D01*
X102904Y219197D01*
G03Y218843I177J-177D01*
G37*
G36*
G01X100096Y224937D02*
X99636Y225396D01*
X98938Y224760D01*
X99636Y224124D01*
X100096Y224583D01*
G03Y224937I-177J177D01*
G37*
G36*
G01X99884Y220823D02*
X100364Y220344D01*
X101062Y220979D01*
X100372Y221623D01*
X99892Y221184D01*
G03X99884Y220823I169J-184D01*
G37*
G36*
G01X102904Y222763D02*
X103364Y222304D01*
X104062Y222940D01*
X103364Y223576D01*
X102904Y223117D01*
G03Y222763I177J-177D01*
G37*
G36*
G01Y214923D02*
X103364Y214464D01*
X104062Y215100D01*
X103364Y215736D01*
X102904Y215277D01*
G03Y214923I177J-177D01*
G37*
G36*
G01X99904Y216883D02*
X100364Y216424D01*
X101062Y217060D01*
X100364Y217696D01*
X99904Y217237D01*
G03Y216883I177J-177D01*
G37*
G36*
G01X110596Y232677D02*
X110136Y233136D01*
X109438Y232500D01*
X110136Y231864D01*
X110596Y232323D01*
G03Y232677I-177J177D01*
G37*
G36*
G01X115900Y-8150D02*
Y-7500D01*
X114956Y-7456D01*
X115000Y-8400D01*
X115650D01*
G03X115900Y-8150I0J250D01*
G37*
G36*
G01X123250Y-7800D02*
Y-5300D01*
X119867Y-5167D01*
X120000Y-8550D01*
X122500D01*
G03X123250Y-7800I0J750D01*
G37*
G36*
G01Y2500D02*
Y5000D01*
X119867Y5133D01*
X120000Y1750D01*
X122500D01*
G03X123250Y2500I0J750D01*
G37*
G36*
G01X133350Y85600D02*
X134000D01*
X134044Y86544D01*
X133100Y86500D01*
Y85850D01*
G03X133350Y85600I250J0D01*
G37*
G36*
G01X130904Y91823D02*
X131364Y91364D01*
X132062Y92000D01*
X131364Y92636D01*
X130904Y92177D01*
G03Y91823I177J-177D01*
G37*
G36*
G01X130596Y94677D02*
X130136Y95136D01*
X129438Y94500D01*
X130136Y93864D01*
X130596Y94323D01*
G03Y94677I-177J177D01*
G37*
G36*
G01X119650Y90400D02*
X119000D01*
X118956Y89456D01*
X119900Y89500D01*
Y90150D01*
G03X119650Y90400I-250J0D01*
G37*
G36*
G01X134167Y108806D02*
X133636Y109335D01*
X132962Y108700D01*
X133636Y108065D01*
X134167Y108594D01*
G03Y108806I-106J106D01*
G37*
G36*
G01X134550Y118700D02*
X135300D01*
X135327Y119627D01*
X134400Y119600D01*
Y118850D01*
G03X134550Y118700I150J0D01*
G37*
G36*
G01X133323Y186596D02*
X132864Y186136D01*
X133500Y185438D01*
X134136Y186136D01*
X133677Y186596D01*
G03X133323I-177J-177D01*
G37*
G36*
G01X127323Y188096D02*
X126864Y187636D01*
X127500Y186938D01*
X128136Y187636D01*
X127677Y188096D01*
G03X127323I-177J-177D01*
G37*
G36*
G01X131323D02*
X130864Y187636D01*
X131500Y186938D01*
X132136Y187636D01*
X131677Y188096D01*
G03X131323I-177J-177D01*
G37*
G36*
G01X129323Y186596D02*
X128864Y186136D01*
X129500Y185438D01*
X130136Y186136D01*
X129677Y186596D01*
G03X129323I-177J-177D01*
G37*
G36*
G01X116167Y185606D02*
X115636Y186135D01*
X114962Y185500D01*
X115636Y184865D01*
X116167Y185394D01*
G03Y185606I-106J106D01*
G37*
G36*
G01X117894Y184667D02*
X117365Y184136D01*
X118000Y183462D01*
X118635Y184136D01*
X118106Y184667D01*
G03X117894I-106J-106D01*
G37*
G36*
G01X122096Y185677D02*
X121636Y186136D01*
X120938Y185500D01*
X121636Y184864D01*
X122096Y185323D01*
G03Y185677I-177J177D01*
G37*
G36*
G01X122100Y214200D02*
X122750D01*
X122794Y215144D01*
X121850Y215100D01*
Y214450D01*
G03X122100Y214200I250J0D01*
G37*
G36*
G01X125850Y206100D02*
X126500D01*
X126544Y207044D01*
X125600Y207000D01*
Y206350D01*
G03X125850Y206100I250J0D01*
G37*
G36*
G01X122868Y222742D02*
X123388Y222343D01*
X124062Y223004D01*
X123364Y223636D01*
X122844Y223117D01*
G03X122868Y222742I177J-177D01*
G37*
G36*
G01X121134Y219952D02*
X121784D01*
X121828Y220896D01*
X120884Y220852D01*
Y220202D01*
G03X121134Y219952I250J0D01*
G37*
G36*
G01X125850D02*
X126500D01*
X126544Y220896D01*
X125600Y220852D01*
Y220202D01*
G03X125850Y219952I250J0D01*
G37*
G36*
G01X125404Y216883D02*
X125864Y216424D01*
X126562Y217060D01*
X125864Y217696D01*
X125404Y217237D01*
G03Y216883I177J-177D01*
G37*
G36*
G01X156242Y31030D02*
X156136Y31136D01*
X155312Y30500D01*
X156136Y29864D01*
X156242Y29970D01*
G03Y31030I-530J530D01*
G37*
G36*
G01X155350Y29600D02*
X155500D01*
X155633Y30633D01*
X154600Y30500D01*
Y30350D01*
G03X155350Y29600I750J0D01*
G37*
G36*
G01X141350Y84600D02*
X142000D01*
X142044Y85544D01*
X141100Y85500D01*
Y84850D01*
G03X141350Y84600I250J0D01*
G37*
G36*
G01X136600Y87150D02*
Y86500D01*
X137544Y86456D01*
X137500Y87400D01*
X136850D01*
G03X136600Y87150I0J-250D01*
G37*
G36*
G01X143600Y89150D02*
Y88500D01*
X144544Y88456D01*
X144500Y89400D01*
X143850D01*
G03X143600Y89150I0J-250D01*
G37*
G36*
G01X145100Y95650D02*
Y95000D01*
X146044Y94956D01*
X146000Y95900D01*
X145350D01*
G03X145100Y95650I0J-250D01*
G37*
G36*
G01X149150Y95900D02*
X148500D01*
X148456Y94956D01*
X149400Y95000D01*
Y95650D01*
G03X149150Y95900I-250J0D01*
G37*
G36*
G01X153650Y88900D02*
X153000D01*
X152956Y87956D01*
X153900Y88000D01*
Y88650D01*
G03X153650Y88900I-250J0D01*
G37*
G36*
G01X152350Y87100D02*
X153000D01*
X153044Y88044D01*
X152100Y88000D01*
Y87350D01*
G03X152350Y87100I250J0D01*
G37*
G36*
G01X155400Y104350D02*
Y105000D01*
X154456Y105044D01*
X154500Y104100D01*
X155150D01*
G03X155400Y104350I0J250D01*
G37*
G36*
G01X150058Y109450D02*
Y108700D01*
X150985Y108673D01*
X150958Y109600D01*
X150208D01*
G03X150058Y109450I0J-150D01*
G37*
G36*
G01X151750Y113250D02*
Y114000D01*
X150823Y114027D01*
X150850Y113100D01*
X151600D01*
G03X151750Y113250I0J150D01*
G37*
G36*
G01X142450Y118150D02*
Y118500D01*
X141394Y118606D01*
X141500Y117550D01*
X141850D01*
G03X142450Y118150I0J600D01*
G37*
G36*
G01X149648Y123824D02*
X149436Y124036D01*
X148650Y123400D01*
X149436Y122764D01*
X149648Y122976D01*
G03Y123824I-424J424D01*
G37*
G36*
G01X141500Y115200D02*
Y115500D01*
X140494Y115606D01*
X140600Y114600D01*
X140900D01*
G03X141500Y115200I0J600D01*
G37*
G36*
G01X137370Y117200D02*
X138120D01*
X138147Y118127D01*
X137220Y118100D01*
Y117350D01*
G03X137370Y117200I150J0D01*
G37*
G36*
G01X145400Y186350D02*
Y187000D01*
X144456Y187044D01*
X144500Y186100D01*
X145150D01*
G03X145400Y186350I0J250D01*
G37*
G36*
G01X140404Y179823D02*
X140864Y179364D01*
X141562Y180000D01*
X140864Y180636D01*
X140404Y180177D01*
G03Y179823I177J-177D01*
G37*
G36*
G01X135904Y178323D02*
X136364Y177864D01*
X137062Y178500D01*
X136364Y179136D01*
X135904Y178677D01*
G03Y178323I177J-177D01*
G37*
G36*
G01X138350Y184600D02*
X139000D01*
X139044Y185544D01*
X138100Y185500D01*
Y184850D01*
G03X138350Y184600I250J0D01*
G37*
G36*
G01X138260Y181010D02*
X138969Y180801D01*
X139561Y181513D01*
X138864Y182135D01*
X138154Y181427D01*
G03X138260Y181010I177J-177D01*
G37*
G36*
G01X143677Y177404D02*
X144136Y177864D01*
X143500Y178562D01*
X142864Y177864D01*
X143323Y177404D01*
G03X143677I177J177D01*
G37*
G36*
G01X139904Y183323D02*
X140364Y182864D01*
X141062Y183500D01*
X140364Y184136D01*
X139904Y183677D01*
G03Y183323I177J-177D01*
G37*
G36*
G01X144850Y176100D02*
X145500D01*
X145544Y177044D01*
X144600Y177000D01*
Y176350D01*
G03X144850Y176100I250J0D01*
G37*
G36*
G01X136100Y176650D02*
Y176000D01*
X137044Y175956D01*
X137000Y176900D01*
X136350D01*
G03X136100Y176650I0J-250D01*
G37*
G36*
G01X138850Y175100D02*
X139500D01*
X139544Y176044D01*
X138600Y176000D01*
Y175350D01*
G03X138850Y175100I250J0D01*
G37*
G36*
G01X157063Y197096D02*
X156604Y196636D01*
X157240Y195938D01*
X157876Y196636D01*
X157417Y197096D01*
G03X157063I-177J-177D01*
G37*
G36*
G01X155103Y199096D02*
X154644Y198636D01*
X155280Y197938D01*
X155916Y198636D01*
X155457Y199096D01*
G03X155103I-177J-177D01*
G37*
G36*
G01X157758Y29970D02*
X157864Y29864D01*
X158688Y30500D01*
X157864Y31136D01*
X157758Y31030D01*
G03Y29970I530J-530D01*
G37*
G36*
G01X161850Y68600D02*
X162500D01*
X162544Y69544D01*
X161600Y69500D01*
Y68850D01*
G03X161850Y68600I250J0D01*
G37*
G36*
G01X167350Y83600D02*
X168000D01*
X168044Y84544D01*
X167100Y84500D01*
Y83850D01*
G03X167350Y83600I250J0D01*
G37*
G36*
G01X176350Y69100D02*
X177000D01*
X177044Y70044D01*
X176100Y70000D01*
Y69350D01*
G03X176350Y69100I250J0D01*
G37*
G36*
G01X159242Y73530D02*
X159136Y73636D01*
X158312Y73000D01*
X159136Y72364D01*
X159242Y72470D01*
G03Y73530I-530J530D01*
G37*
G36*
G01X161650Y95900D02*
X161000D01*
X160956Y94956D01*
X161900Y95000D01*
Y95650D01*
G03X161650Y95900I-250J0D01*
G37*
G36*
G01X160350Y94100D02*
X161000D01*
X161044Y95044D01*
X160100Y95000D01*
Y94350D01*
G03X160350Y94100I250J0D01*
G37*
G36*
G01X166904Y91823D02*
X167364Y91364D01*
X168062Y92000D01*
X167364Y92636D01*
X166904Y92177D01*
G03Y91823I177J-177D01*
G37*
G36*
G01X176404Y97323D02*
X176864Y96864D01*
X177562Y97500D01*
X176864Y98136D01*
X176404Y97677D01*
G03Y97323I177J-177D01*
G37*
G36*
G01X170850Y87600D02*
X171500D01*
X171544Y88544D01*
X170600Y88500D01*
Y87850D01*
G03X170850Y87600I250J0D01*
G37*
G36*
G01X166904Y88323D02*
X167364Y87864D01*
X168062Y88500D01*
X167364Y89136D01*
X166904Y88677D01*
G03Y88323I177J-177D01*
G37*
G36*
G01X162400Y105350D02*
Y106000D01*
X161456Y106044D01*
X161500Y105100D01*
X162150D01*
G03X162400Y105350I0J250D01*
G37*
G36*
G01X168904Y100323D02*
X169364Y99864D01*
X170062Y100500D01*
X169364Y101136D01*
X168904Y100677D01*
G03Y100323I177J-177D01*
G37*
G36*
G01X163350Y87600D02*
X164000D01*
X164044Y88544D01*
X163100Y88500D01*
Y87850D01*
G03X163350Y87600I250J0D01*
G37*
G36*
G01X159200Y127100D02*
X159500D01*
X159606Y128106D01*
X158600Y128000D01*
Y127700D01*
G03X159200Y127100I600J0D01*
G37*
G36*
G01X160348Y128424D02*
X160136Y128636D01*
X159350Y128000D01*
X160136Y127364D01*
X160348Y127576D01*
G03Y128424I-424J424D01*
G37*
G36*
G01X165400Y109600D02*
Y110250D01*
X164456Y110294D01*
X164500Y109350D01*
X165150D01*
G03X165400Y109600I0J250D01*
G37*
G36*
G01X162400Y111250D02*
Y112000D01*
X161473Y112027D01*
X161500Y111100D01*
X162250D01*
G03X162400Y111250I0J150D01*
G37*
G36*
G01X165400Y113850D02*
Y114500D01*
X164456Y114544D01*
X164500Y113600D01*
X165150D01*
G03X165400Y113850I0J250D01*
G37*
G36*
G01X168900Y128850D02*
Y129500D01*
X167956Y129544D01*
X168000Y128600D01*
X168650D01*
G03X168900Y128850I0J250D01*
G37*
G36*
G01X168300Y109600D02*
Y110250D01*
X167356Y110294D01*
X167400Y109350D01*
X168050D01*
G03X168300Y109600I0J250D01*
G37*
G36*
G01X171096Y139677D02*
X170636Y140136D01*
X169938Y139500D01*
X170636Y138864D01*
X171096Y139323D01*
G03Y139677I-177J177D01*
G37*
G36*
G01X173167Y144106D02*
X172636Y144635D01*
X171962Y144000D01*
X172636Y143365D01*
X173167Y143894D01*
G03Y144106I-106J106D01*
G37*
G36*
G01X167796Y145977D02*
X167336Y146436D01*
X166638Y145800D01*
X167336Y145164D01*
X167796Y145623D01*
G03Y145977I-177J177D01*
G37*
G36*
G01X172846Y147177D02*
X172386Y147636D01*
X171688Y147000D01*
X172386Y146364D01*
X172846Y146823D01*
G03Y147177I-177J177D01*
G37*
G36*
G01X161177Y136505D02*
X161636Y136965D01*
X161000Y137664D01*
X160364Y136965D01*
X160823Y136505D01*
G03X161177I177J177D01*
G37*
G36*
G01X173096Y141177D02*
X172636Y141636D01*
X171938Y141000D01*
X172636Y140364D01*
X173096Y140823D01*
G03Y141177I-177J177D01*
G37*
G36*
G01X164777Y143004D02*
X165236Y143464D01*
X164600Y144162D01*
X163964Y143464D01*
X164423Y143004D01*
G03X164777I177J177D01*
G37*
G36*
G01X173649Y149750D02*
X172899Y150500D01*
X171966Y150516D01*
X172000Y149600D01*
X173649D01*
Y149750D01*
G37*
G36*
G01X164850Y136500D02*
Y137150D01*
X163906Y137194D01*
X163950Y136250D01*
X164600D01*
G03X164850Y136500I0J250D01*
G37*
G36*
G01X170606Y158763D02*
X171170Y159329D01*
X170500Y160038D01*
X169830Y159329D01*
X170394Y158763D01*
G03X170606I106J106D01*
G37*
G36*
G01X174650Y159200D02*
X174500D01*
X174367Y158167D01*
X175400Y158300D01*
Y158450D01*
G03X174650Y159200I-750J0D01*
G37*
G36*
G01X173600Y158450D02*
Y158300D01*
X174633Y158167D01*
X174500Y159200D01*
X174350D01*
G03X173600Y158450I0J-750D01*
G37*
G36*
G01X163580Y155646D02*
X163864Y155364D01*
X164625Y156000D01*
X163864Y156636D01*
X163580Y156354D01*
G03Y155646I354J-354D01*
G37*
G36*
G01X164224Y151626D02*
X164974D01*
X165001Y152553D01*
X164074Y152526D01*
Y151776D01*
G03X164224Y151626I150J0D01*
G37*
G36*
G01X167210Y152685D02*
X167739Y153216D01*
X167104Y153890D01*
X166469Y153216D01*
X166998Y152685D01*
G03X167210I106J106D01*
G37*
G36*
G01X164833Y168894D02*
X165364Y168365D01*
X166038Y169000D01*
X165364Y169635D01*
X164833Y169106D01*
G03Y168894I106J-106D01*
G37*
G36*
G01X163600Y171750D02*
Y171000D01*
X164527Y170973D01*
X164500Y171900D01*
X163750D01*
G03X163600Y171750I0J-150D01*
G37*
G36*
G01X169596Y171377D02*
X169136Y171836D01*
X168438Y171200D01*
X169136Y170564D01*
X169596Y171023D01*
G03Y171377I-177J177D01*
G37*
G36*
G01X167746Y181027D02*
X167136Y181635D01*
X166438Y181009D01*
X167073Y180318D01*
X167682Y180627D01*
G03X167746Y181027I-113J223D01*
G37*
G36*
G01X170650Y176300D02*
X170000D01*
X169956Y175356D01*
X170900Y175400D01*
Y176050D01*
G03X170650Y176300I-250J0D01*
G37*
G36*
G01X167400Y174750D02*
Y175400D01*
X166456Y175444D01*
X166500Y174500D01*
X167150D01*
G03X167400Y174750I0J250D01*
G37*
G36*
G01X174596Y204677D02*
X174136Y205136D01*
X173438Y204500D01*
X174136Y203864D01*
X174596Y204323D01*
G03Y204677I-177J177D01*
G37*
G36*
G01X158104Y193823D02*
X158564Y193364D01*
X159262Y194000D01*
X158564Y194636D01*
X158104Y194177D01*
G03Y193823I177J-177D01*
G37*
G36*
G01X174596Y207677D02*
X174136Y208136D01*
X173438Y207500D01*
X174136Y206864D01*
X174596Y207323D01*
G03Y207677I-177J177D01*
G37*
G36*
G01X169400Y205350D02*
Y205500D01*
X168367Y205633D01*
X168500Y204600D01*
X168650D01*
G03X169400Y205350I0J750D01*
G37*
G36*
G01X192798Y69530D02*
X191914Y70414D01*
X190312Y69000D01*
X191914Y67586D01*
X192798Y68470D01*
G03Y69530I-530J530D01*
G37*
G36*
G01X184904Y95473D02*
X185364Y95014D01*
X186062Y95650D01*
X185364Y96286D01*
X184904Y95827D01*
G03Y95473I177J-177D01*
G37*
G36*
G01X190600Y106650D02*
Y106000D01*
X191544Y105956D01*
X191500Y106900D01*
X190850D01*
G03X190600Y106650I0J-250D01*
G37*
G36*
G01X180350Y93100D02*
X181000D01*
X181044Y94044D01*
X180100Y94000D01*
Y93350D01*
G03X180350Y93100I250J0D01*
G37*
G36*
G01X184904Y99323D02*
X185364Y98864D01*
X186062Y99500D01*
X185364Y100136D01*
X184904Y99677D01*
G03Y99323I177J-177D01*
G37*
G36*
G01X183596Y110177D02*
X183136Y110636D01*
X182438Y110000D01*
X183136Y109364D01*
X183596Y109823D01*
G03Y110177I-177J177D01*
G37*
G36*
G01X197350Y139350D02*
X198000D01*
X198044Y140294D01*
X197100Y140250D01*
Y139600D01*
G03X197350Y139350I250J0D01*
G37*
G36*
G01X200200Y147950D02*
X199500D01*
X199456Y146956D01*
X200450Y147000D01*
Y147700D01*
G03X200200Y147950I-250J0D01*
G37*
G36*
G01X186696Y149977D02*
X186236Y150436D01*
X185538Y149800D01*
X186236Y149164D01*
X186696Y149623D01*
G03Y149977I-177J177D01*
G37*
G36*
G01X194100Y170650D02*
Y170000D01*
X195044Y169956D01*
X195000Y170900D01*
X194350D01*
G03X194100Y170650I0J-250D01*
G37*
G36*
G01X191750Y169700D02*
Y169050D01*
X192694Y169006D01*
X192650Y169950D01*
X192000D01*
G03X191750Y169700I0J-250D01*
G37*
G36*
G01X196400Y192350D02*
Y192500D01*
X195367Y192633D01*
X195500Y191600D01*
X195650D01*
G03X196400Y192350I0J750D01*
G37*
G36*
G01X195350Y191600D02*
X195500D01*
X195633Y192633D01*
X194600Y192500D01*
Y192350D01*
G03X195350Y191600I750J0D01*
G37*
G36*
G01X193600Y175650D02*
Y175000D01*
X194544Y174956D01*
X194500Y175900D01*
X193850D01*
G03X193600Y175650I0J-250D01*
G37*
G36*
G01X184596Y186677D02*
X184136Y187136D01*
X183438Y186500D01*
X184136Y185864D01*
X184596Y186323D01*
G03Y186677I-177J177D01*
G37*
G36*
G01X183900Y196400D02*
X183500D01*
X183412Y195412D01*
X184400Y195500D01*
Y195900D01*
G03X183900Y196400I-500J0D01*
G37*
G36*
G01X192150Y210340D02*
X191500D01*
X191456Y209396D01*
X192400Y209440D01*
Y210090D01*
G03X192150Y210340I-250J0D01*
G37*
G36*
G01X186596Y240677D02*
X186136Y241136D01*
X185438Y240500D01*
X186136Y239864D01*
X186596Y240323D01*
G03Y240677I-177J177D01*
G37*
G36*
G01X182596Y238677D02*
X182136Y239136D01*
X181438Y238500D01*
X182136Y237864D01*
X182596Y238323D01*
G03Y238677I-177J177D01*
G37*
G36*
G01X184596Y244177D02*
X184136Y244636D01*
X183438Y244000D01*
X184136Y243364D01*
X184596Y243823D01*
G03Y244177I-177J177D01*
G37*
G36*
G01X194246Y239177D02*
X193786Y239636D01*
X193088Y239000D01*
X193786Y238364D01*
X194246Y238823D01*
G03Y239177I-177J177D01*
G37*
G36*
G01X217850Y-25300D02*
X215100D01*
X215056Y-28344D01*
X218100Y-28300D01*
Y-25550D01*
G03X217850Y-25300I-250J0D01*
G37*
G36*
G01X204596Y46177D02*
X204136Y46636D01*
X203438Y46000D01*
X204136Y45364D01*
X204596Y45823D01*
G03Y46177I-177J177D01*
G37*
G36*
G01X214258Y66470D02*
X214364Y66364D01*
X215188Y67000D01*
X214364Y67636D01*
X214258Y67530D01*
G03Y66470I530J-530D01*
G37*
G36*
G01X212650Y85900D02*
X212500D01*
X212367Y84867D01*
X213400Y85000D01*
Y85150D01*
G03X212650Y85900I-750J0D01*
G37*
G36*
G01X210758Y69970D02*
X210864Y69864D01*
X211688Y70500D01*
X210864Y71136D01*
X210758Y71030D01*
G03Y69970I530J-530D01*
G37*
G36*
G01X218242Y88630D02*
X218136Y88736D01*
X217312Y88100D01*
X218136Y87464D01*
X218242Y87570D01*
G03Y88630I-530J530D01*
G37*
G36*
G01X216758Y87570D02*
X216864Y87464D01*
X217688Y88100D01*
X216864Y88736D01*
X216758Y88630D01*
G03Y87570I530J-530D01*
G37*
G36*
G01X221152Y114826D02*
X221364Y114614D01*
X222150Y115250D01*
X221364Y115886D01*
X221152Y115674D01*
G03Y114826I424J-424D01*
G37*
G36*
G01X218650Y128100D02*
Y128750D01*
X217706Y128794D01*
X217750Y127850D01*
X218400D01*
G03X218650Y128100I0J250D01*
G37*
G36*
G01X212600Y125600D02*
X213250D01*
X213294Y126544D01*
X212350Y126500D01*
Y125850D01*
G03X212600Y125600I250J0D01*
G37*
G36*
G01X214350Y123850D02*
X215000D01*
X215044Y124794D01*
X214100Y124750D01*
Y124100D01*
G03X214350Y123850I250J0D01*
G37*
G36*
G01X216654Y117073D02*
X217114Y116614D01*
X217812Y117250D01*
X217114Y117886D01*
X216654Y117427D01*
G03Y117073I177J-177D01*
G37*
G36*
G01X206850Y120900D02*
X207500D01*
X207544Y121844D01*
X206600Y121800D01*
Y121150D01*
G03X206850Y120900I250J0D01*
G37*
G36*
G01X205900Y126350D02*
Y127000D01*
X204956Y127044D01*
X205000Y126100D01*
X205650D01*
G03X205900Y126350I0J250D01*
G37*
G36*
G01X214777Y132004D02*
X215236Y132464D01*
X214600Y133162D01*
X213964Y132464D01*
X214423Y132004D01*
G03X214777I177J177D01*
G37*
G36*
G01X210100Y132900D02*
Y132250D01*
X211044Y132206D01*
X211000Y133150D01*
X210350D01*
G03X210100Y132900I0J-250D01*
G37*
G36*
G01X212242Y169530D02*
X212136Y169636D01*
X211312Y169000D01*
X212136Y168364D01*
X212242Y168470D01*
G03Y169530I-530J530D01*
G37*
G36*
G01X213850Y179900D02*
Y179250D01*
X214794Y179206D01*
X214750Y180150D01*
X214100D01*
G03X213850Y179900I0J-250D01*
G37*
G36*
G01X219323Y182096D02*
X218864Y181636D01*
X219500Y180938D01*
X220136Y181636D01*
X219677Y182096D01*
G03X219323I-177J-177D01*
G37*
G36*
G01X214654Y183023D02*
X215114Y182564D01*
X215812Y183200D01*
X215114Y183836D01*
X214654Y183377D01*
G03Y183023I177J-177D01*
G37*
G36*
G01X216600Y194900D02*
Y194500D01*
X217588Y194412D01*
X217500Y195400D01*
X217100D01*
G03X216600Y194900I0J-500D01*
G37*
G36*
G01X219500Y223250D02*
Y225000D01*
X217456Y225044D01*
X217500Y223000D01*
X219250D01*
G03X219500Y223250I0J250D01*
G37*
G36*
G01X208242Y237030D02*
X208136Y237136D01*
X207312Y236500D01*
X208136Y235864D01*
X208242Y235970D01*
G03Y237030I-530J530D01*
G37*
G36*
G01X230404Y-24177D02*
X230864Y-24636D01*
X231562Y-24000D01*
X230864Y-23364D01*
X230404Y-23823D01*
G03Y-24177I177J-177D01*
G37*
G36*
G01X241900Y-31550D02*
Y-34300D01*
X244944Y-34344D01*
X244900Y-31300D01*
X242150D01*
G03X241900Y-31550I0J-250D01*
G37*
G36*
G01X229596Y-20323D02*
X229136Y-19864D01*
X228438Y-20500D01*
X229136Y-21136D01*
X229596Y-20677D01*
G03Y-20323I-177J177D01*
G37*
G36*
G01X237350Y600D02*
X237500D01*
X237633Y1633D01*
X236600Y1500D01*
Y1350D01*
G03X237350Y600I750J0D01*
G37*
G36*
G01X229904Y102323D02*
X230364Y101864D01*
X231062Y102500D01*
X230364Y103136D01*
X229904Y102677D01*
G03Y102323I177J-177D01*
G37*
G36*
G01Y105823D02*
X230364Y105364D01*
X231062Y106000D01*
X230364Y106636D01*
X229904Y106177D01*
G03Y105823I177J-177D01*
G37*
G36*
G01X234850Y105100D02*
X235500D01*
X235544Y106044D01*
X234600Y106000D01*
Y105350D01*
G03X234850Y105100I250J0D01*
G37*
G36*
G01X236758Y87570D02*
X236864Y87464D01*
X237688Y88100D01*
X236864Y88736D01*
X236758Y88630D01*
G03Y87570I530J-530D01*
G37*
G36*
G01X238400Y87950D02*
Y88100D01*
X237367Y88233D01*
X237500Y87200D01*
X237650D01*
G03X238400Y87950I0J750D01*
G37*
G36*
G01X227700Y117100D02*
X228000D01*
X228106Y118106D01*
X227100Y118000D01*
Y117700D01*
G03X227700Y117100I600J0D01*
G37*
G36*
G01X231667Y129177D02*
X231171Y129671D01*
X230438Y129000D01*
X231171Y128329D01*
X231667Y128823D01*
G03Y129177I-177J177D01*
G37*
G36*
G01X238350Y109100D02*
X239000D01*
X239044Y110044D01*
X238100Y110000D01*
Y109350D01*
G03X238350Y109100I250J0D01*
G37*
G36*
G01X229404Y120323D02*
X229864Y119864D01*
X230562Y120500D01*
X229864Y121136D01*
X229404Y120677D01*
G03Y120323I177J-177D01*
G37*
G36*
G01X240404Y115823D02*
X240864Y115364D01*
X241562Y116000D01*
X240864Y116636D01*
X240404Y116177D01*
G03Y115823I177J-177D01*
G37*
G36*
G01X229404Y124323D02*
X229864Y123864D01*
X230562Y124500D01*
X229864Y125136D01*
X229404Y124677D01*
G03Y124323I177J-177D01*
G37*
G36*
G01X232404Y109823D02*
X232864Y109364D01*
X233562Y110000D01*
X232864Y110636D01*
X232404Y110177D01*
G03Y109823I177J-177D01*
G37*
G36*
G01X231150Y118400D02*
X231000D01*
X230867Y117367D01*
X231900Y117500D01*
Y117650D01*
G03X231150Y118400I-750J0D01*
G37*
G36*
G01X232920Y136354D02*
X232636Y136636D01*
X231875Y136000D01*
X232636Y135364D01*
X232920Y135646D01*
G03Y136354I-354J354D01*
G37*
G36*
G01X234600Y134150D02*
Y133750D01*
X235588Y133662D01*
X235500Y134650D01*
X235100D01*
G03X234600Y134150I0J-500D01*
G37*
G36*
G01X222050Y134800D02*
X222700D01*
X222744Y135744D01*
X221800Y135700D01*
Y135050D01*
G03X222050Y134800I250J0D01*
G37*
G36*
G01X241904Y135573D02*
X242364Y135114D01*
X243062Y135750D01*
X242364Y136386D01*
X241904Y135927D01*
G03Y135573I177J-177D01*
G37*
G36*
G01X240742Y144030D02*
X240636Y144136D01*
X239812Y143500D01*
X240636Y142864D01*
X240742Y142970D01*
G03Y144030I-530J530D01*
G37*
G36*
G01X242758Y142970D02*
X242864Y142864D01*
X243688Y143500D01*
X242864Y144136D01*
X242758Y144030D01*
G03Y142970I530J-530D01*
G37*
G36*
G01X227270Y133342D02*
X227164Y133236D01*
X227800Y132412D01*
X228436Y133236D01*
X228330Y133342D01*
G03X227270I-530J-530D01*
G37*
G36*
G01X226670Y169580D02*
Y168930D01*
X227614Y168886D01*
X227570Y169830D01*
X226920D01*
G03X226670Y169580I0J-250D01*
G37*
G36*
G01X228600Y175150D02*
Y174500D01*
X229544Y174456D01*
X229500Y175400D01*
X228850D01*
G03X228600Y175150I0J-250D01*
G37*
G36*
G01X226404Y188323D02*
X226864Y187864D01*
X227562Y188500D01*
X226864Y189136D01*
X226404Y188677D01*
G03Y188323I177J-177D01*
G37*
G36*
G01X229100Y181150D02*
Y180500D01*
X230044Y180456D01*
X230000Y181400D01*
X229350D01*
G03X229100Y181150I0J-250D01*
G37*
G36*
G01X222904Y175323D02*
X223364Y174864D01*
X224062Y175500D01*
X223364Y176136D01*
X222904Y175677D01*
G03Y175323I177J-177D01*
G37*
G36*
G01X243242Y195530D02*
X243136Y195636D01*
X242312Y195000D01*
X243136Y194364D01*
X243242Y194470D01*
G03Y195530I-530J530D01*
G37*
G36*
G01X241600Y195150D02*
Y195000D01*
X242633Y194867D01*
X242500Y195900D01*
X242350D01*
G03X241600Y195150I0J-750D01*
G37*
G36*
G01X225350Y222100D02*
X226000D01*
X226044Y223044D01*
X225100Y223000D01*
Y222350D01*
G03X225350Y222100I250J0D01*
G37*
G36*
G01X240152Y248576D02*
X240364Y248364D01*
X241150Y249000D01*
X240364Y249636D01*
X240152Y249424D01*
G03Y248576I424J-424D01*
G37*
G36*
G01X253677Y9904D02*
X254136Y10364D01*
X253500Y11062D01*
X252864Y10364D01*
X253323Y9904D01*
G03X253677I177J177D01*
G37*
G36*
G01X256677D02*
X257136Y10364D01*
X256500Y11062D01*
X255864Y10364D01*
X256323Y9904D01*
G03X256677I177J177D01*
G37*
G36*
G01X258850Y10100D02*
X259500D01*
X259544Y11044D01*
X258600Y11000D01*
Y10350D01*
G03X258850Y10100I250J0D01*
G37*
G36*
G01X244258Y4470D02*
X244364Y4364D01*
X245188Y5000D01*
X244364Y5636D01*
X244258Y5530D01*
G03Y4470I530J-530D01*
G37*
G36*
G01X257600Y44650D02*
Y44000D01*
X258544Y43956D01*
X258500Y44900D01*
X257850D01*
G03X257600Y44650I0J-250D01*
G37*
G36*
G01X245900Y97350D02*
Y98000D01*
X244956Y98044D01*
X245000Y97100D01*
X245650D01*
G03X245900Y97350I0J250D01*
G37*
G36*
G01X257350Y87200D02*
X257500D01*
X257633Y88233D01*
X256600Y88100D01*
Y87950D01*
G03X257350Y87200I750J0D01*
G37*
G36*
G01X260900Y108850D02*
Y109000D01*
X259867Y109133D01*
X260000Y108100D01*
X260150D01*
G03X260900Y108850I0J750D01*
G37*
G36*
G01X262100Y111650D02*
Y111500D01*
X263133Y111367D01*
X263000Y112400D01*
X262850D01*
G03X262100Y111650I0J-750D01*
G37*
G36*
G01X248258Y117970D02*
X248364Y117864D01*
X249188Y118500D01*
X248364Y119136D01*
X248258Y119030D01*
G03Y117970I530J-530D01*
G37*
G36*
G01X244823Y151096D02*
X244364Y150636D01*
X245000Y149938D01*
X245636Y150636D01*
X245177Y151096D01*
G03X244823I-177J-177D01*
G37*
G36*
G01X259708Y131920D02*
X259814Y131814D01*
X260638Y132450D01*
X259814Y133086D01*
X259708Y132980D01*
G03Y131920I530J-530D01*
G37*
G36*
G01X258100Y170650D02*
Y170500D01*
X259133Y170367D01*
X259000Y171400D01*
X258850D01*
G03X258100Y170650I0J-750D01*
G37*
G36*
G01X264677Y169404D02*
X265136Y169864D01*
X264500Y170562D01*
X263864Y169864D01*
X264323Y169404D01*
G03X264677I177J177D01*
G37*
G36*
G01X254404Y202823D02*
X254864Y202364D01*
X255562Y203000D01*
X254864Y203636D01*
X254404Y203177D01*
G03Y202823I177J-177D01*
G37*
G36*
G01X246742Y198030D02*
X246636Y198136D01*
X245812Y197500D01*
X246636Y196864D01*
X246742Y196970D01*
G03Y198030I-530J530D01*
G37*
G36*
G01X272600Y92650D02*
Y92000D01*
X273544Y91956D01*
X273500Y92900D01*
X272850D01*
G03X272600Y92650I0J-250D01*
G37*
G36*
G01X282100Y96150D02*
Y96000D01*
X283133Y95867D01*
X283000Y96900D01*
X282850D01*
G03X282100Y96150I0J-750D01*
G37*
G36*
G01X265470Y109242D02*
X265364Y109136D01*
X266000Y108312D01*
X266636Y109136D01*
X266530Y109242D01*
G03X265470I-530J-530D01*
G37*
G36*
G01X265350Y133600D02*
X266000D01*
X266044Y134544D01*
X265100Y134500D01*
Y133850D01*
G03X265350Y133600I250J0D01*
G37*
G36*
G01X285254Y172973D02*
X285714Y172514D01*
X286412Y173150D01*
X285714Y173786D01*
X285254Y173327D01*
G03Y172973I177J-177D01*
G37*
G36*
G01X283258Y187470D02*
X283364Y187364D01*
X284188Y188000D01*
X283364Y188636D01*
X283258Y188530D01*
G03Y187470I530J-530D01*
G37*
G36*
G01X284742Y188530D02*
X284636Y188636D01*
X283812Y188000D01*
X284636Y187364D01*
X284742Y187470D01*
G03Y188530I-530J530D01*
G37*
G36*
G01X267758Y192970D02*
X267864Y192864D01*
X268688Y193500D01*
X267864Y194136D01*
X267758Y194030D01*
G03Y192970I530J-530D01*
G37*
G36*
G01X267500Y238000D02*
X271000Y241500D01*
X276500D01*
X277000Y241000D01*
Y233000D01*
X275000Y231000D01*
X268500D01*
X267500Y232000D01*
Y238000D01*
G37*
G36*
G01X266242Y286530D02*
X266136Y286636D01*
X265312Y286000D01*
X266136Y285364D01*
X266242Y285470D01*
G03Y286530I-530J530D01*
G37*
G36*
G01X291350Y75138D02*
X292000D01*
X292044Y76082D01*
X291100Y76038D01*
Y75388D01*
G03X291350Y75138I250J0D01*
G37*
G36*
G01X291100Y73611D02*
Y72961D01*
X292044Y72917D01*
X292000Y73861D01*
X291350D01*
G03X291100Y73611I0J-250D01*
G37*
G36*
G01X304258Y176970D02*
X304364Y176864D01*
X305188Y177500D01*
X304364Y178136D01*
X304258Y178030D01*
G03Y176970I530J-530D01*
G37*
G36*
G01Y180970D02*
X304364Y180864D01*
X305188Y181500D01*
X304364Y182136D01*
X304258Y182030D01*
G03Y180970I530J-530D01*
G37*
G36*
G01X291404Y195323D02*
X291864Y194864D01*
X292562Y195500D01*
X291864Y196136D01*
X291404Y195677D01*
G03Y195323I177J-177D01*
G37*
G36*
G01X300804Y198573D02*
X301264Y198114D01*
X301962Y198750D01*
X301264Y199386D01*
X300804Y198927D01*
G03Y198573I177J-177D01*
G37*
G36*
G01X295258Y208770D02*
X295364Y208664D01*
X296188Y209300D01*
X295364Y209936D01*
X295258Y209830D01*
G03Y208770I530J-530D01*
G37*
G36*
G01X299650Y257100D02*
Y257250D01*
X298617Y257383D01*
X298750Y256350D01*
X298900D01*
G03X299650Y257100I0J750D01*
G37*
G36*
G01X294530Y244758D02*
X294636Y244864D01*
X294000Y245688D01*
X293364Y244864D01*
X293470Y244758D01*
G03X294530I530J530D01*
G37*
G36*
G01X289177Y249404D02*
X289636Y249864D01*
X289000Y250562D01*
X288364Y249864D01*
X288823Y249404D01*
G03X289177I177J177D01*
G37*
G36*
G01X301404Y270323D02*
X301864Y269864D01*
X302562Y270500D01*
X301864Y271136D01*
X301404Y270677D01*
G03Y270323I177J-177D01*
G37*
G36*
G01X306850Y269600D02*
X307500D01*
X307544Y270544D01*
X306600Y270500D01*
Y269850D01*
G03X306850Y269600I250J0D01*
G37*
G36*
G01X294350Y269100D02*
X295000D01*
X295044Y270044D01*
X294100Y270000D01*
Y269350D01*
G03X294350Y269100I250J0D01*
G37*
G36*
G01X307904Y172823D02*
X308364Y172364D01*
X309062Y173000D01*
X308364Y173636D01*
X307904Y173177D01*
G03Y172823I177J-177D01*
G37*
G36*
G01X308600Y201150D02*
Y200500D01*
X309544Y200456D01*
X309500Y201400D01*
X308850D01*
G03X308600Y201150I0J-250D01*
G37*
G36*
G01X311154Y219823D02*
X311614Y219364D01*
X312312Y220000D01*
X311614Y220636D01*
X311154Y220177D01*
G03Y219823I177J-177D01*
G37*
G36*
G01X313350Y256600D02*
X313500D01*
X313633Y257633D01*
X312600Y257500D01*
Y257350D01*
G03X313350Y256600I750J0D01*
G37*
G36*
G01X308000Y262000D02*
X310000D01*
X310177Y265177D01*
X307000Y265000D01*
Y263000D01*
G03X308000Y262000I1000J0D01*
G37*
%LPC*%
G75*
G36*
G01X134525Y133440D02*
G03X134266Y133958I-376J136D01*
G02X135872Y134763I381J1245D01*
G03X136131Y134245I376J-136D01*
G02X134525Y133440I-381J-1245D01*
G37*
G36*
G01X130434Y143638D02*
G02X129200Y143660I-637J-1135D01*
G03X129213Y144365I-183J356D01*
G02X130447Y144343I637J1135D01*
G03X130434Y143638I183J-356D01*
G37*
G36*
G01X121682Y143109D02*
G02X120318I-682J-1109D01*
G03Y143791I-209J341D01*
G02X121682I682J1109D01*
G03Y143109I209J-341D01*
G37*
G36*
G01X101158Y120621D02*
G02X100348Y119354I592J-1271D01*
G03X99849Y119742I-400J1D01*
G02X99739Y122482I-348J1358D01*
G03X100205Y122837I68J394D01*
G02X101361Y121318I1395J-138D01*
G03X100895Y120963I-68J-394D01*
G02X100878Y120840I-1396J130D01*
G03X101158Y120621I196J-38D01*
G37*
G36*
G01X128527Y60990D02*
G03X127973I-277J-288D01*
G02Y63010I-973J1010D01*
G03X128527I277J288D01*
G02Y60990I973J-1010D01*
G37*
G36*
G01X120167Y61223D02*
G02Y62777I-1167J777D01*
G03X120833I333J222D01*
G02Y61223I1167J-777D01*
G03X120167I-333J-222D01*
G37*
G36*
G01X155563Y55525D02*
G02X154078Y56127I-1175J-765D01*
G03X154325Y56735I-89J390D01*
G02X155810Y56133I1175J765D01*
G03X155563Y55525I89J-390D01*
G37*
G36*
G01X186667Y8223D02*
G02Y9777I-1167J777D01*
G03X187333I333J222D01*
G02X188664Y10392I1167J-777D01*
G03X189108Y10836I46J398D01*
G02X190336Y9608I1392J164D01*
G03X189892Y9164I-46J-398D01*
G02X187333Y8223I-1392J-164D01*
G03X186667I-333J-222D01*
G37*
G54D28*
X125000Y32500D03*
Y37500D03*
X120000D03*
X125000Y42500D03*
X120000D03*
Y32500D03*
Y52500D03*
Y47500D03*
X125000Y52500D03*
Y47500D03*
X140000Y37500D03*
Y32500D03*
X130000D03*
X135000D03*
Y37500D03*
X130000Y42500D03*
Y37500D03*
X140000Y42500D03*
X145000D03*
Y37500D03*
X135000Y42500D03*
X145000Y32500D03*
X130000Y47500D03*
X145000Y52500D03*
X140000Y47500D03*
X130000Y52500D03*
X135000Y47500D03*
X140000Y52500D03*
X135000D03*
X145000Y47500D03*
G54D25*
X72145Y121213D03*
X79216Y128284D03*
Y114142D03*
X208500Y39000D03*
X218500D03*
G54D27*
X102500Y143000D03*
X99500Y149500D03*
X122900Y150800D03*
X130000Y150500D03*
X134500Y152500D03*
X139597Y143003D03*
X139500Y146500D03*
Y150500D03*
X144000Y133700D03*
X139250Y134500D03*
X149100Y133000D03*
X111900Y125500D03*
X143500Y122000D03*
G54D26*
X92500Y127600D03*
X102750Y128000D03*
X96300Y122500D03*
X97500Y125500D03*
Y129600D03*
X102750Y131250D03*
X110612Y39016D03*
Y54760D03*
Y50824D03*
X155500Y41000D03*
X139388Y61888D03*
X155500Y48000D03*
X171000Y27500D03*
X177000D03*
X168500Y45500D03*
X159500Y41000D03*
X161500Y35500D03*
X166500Y38000D03*
X159500Y48000D03*
X211000Y15000D03*
X197000Y13500D03*
X211000Y26500D03*
X197000Y17000D03*
%LPD*%
G75*
G54D10*
X-1750Y99500D03*
X-4250Y104750D03*
X-8000Y152500D03*
X5500Y194000D03*
X8000Y234500D03*
X2500Y238250D03*
X17500Y87500D03*
X20000Y95000D03*
Y90000D03*
Y120000D03*
X24750Y175750D03*
X26000Y203500D03*
X28000Y201500D03*
X14000Y234500D03*
Y239000D03*
X42500Y46000D03*
X33500Y96000D03*
Y100000D03*
X31300Y98000D03*
X34000Y150000D03*
Y146000D03*
X31000D03*
Y142500D03*
X47500Y160000D03*
X46000Y157500D03*
X34000Y155000D03*
X49000Y152000D03*
X35500Y246500D03*
X72955Y86955D03*
X72500Y107000D03*
X69000D03*
X65300Y111700D03*
X59750Y151500D03*
X58500Y141000D03*
X53500Y143500D03*
Y147000D03*
X56500Y149000D03*
X53000Y160000D03*
X57500Y160800D03*
X52500Y173000D03*
X53000Y154000D03*
X63480Y176500D03*
X65440Y173500D03*
X69660D03*
X70452Y182000D03*
X72420Y179080D03*
X60000Y257000D03*
X56500D03*
X59862Y238000D03*
X63290Y272500D03*
X80000Y38000D03*
Y28000D03*
X93500Y91000D03*
X75500Y171000D03*
X77500Y173000D03*
X79500Y171000D03*
X81500Y173000D03*
X83500Y171000D03*
X85597Y178403D03*
X78324Y182000D03*
X74388D03*
X84500Y235000D03*
X74388Y238000D03*
X81000D03*
X77500D03*
X88000Y241000D03*
X91500D03*
X115000Y-7500D03*
X100000Y-7000D03*
X98000Y-9000D03*
X110612Y27208D03*
X108000Y37048D03*
X109500Y31500D03*
X113500Y58500D03*
X110612Y46888D03*
X105500Y73539D03*
Y70462D03*
X101750Y116450D03*
X94800Y124900D03*
X109600Y128100D03*
X110000Y132000D03*
X95500Y143500D03*
X110500Y135500D03*
Y145500D03*
X99000Y144000D03*
X101500Y155000D03*
Y158000D03*
X99500Y190500D03*
X115000Y185500D03*
X104000Y199020D03*
X101000Y197060D03*
X104000Y207160D03*
X101000Y200980D03*
Y212840D03*
X104000Y202940D03*
X101000Y204900D03*
X104000Y215100D03*
X99000Y209016D03*
X112000Y234500D03*
X104000Y219020D03*
X99000Y224760D03*
X101000Y220980D03*
X104000Y222940D03*
X101000Y217060D03*
X109500Y232500D03*
X132000Y62000D03*
X137420Y64500D03*
X137500Y86500D03*
X134000D03*
X132000Y92000D03*
X129500Y94500D03*
X133000Y108700D03*
X119000Y89500D03*
X135300Y119600D03*
X120500Y122700D03*
X127400Y120800D03*
X134000Y123500D03*
X127450Y134900D03*
X120300Y136450D03*
X133000Y150500D03*
X137000Y144500D03*
X120400Y150300D03*
X122100Y139800D03*
X132300Y134400D03*
X120400Y153500D03*
X133500Y185500D03*
X127500Y187000D03*
X131500D03*
X129500Y185500D03*
X137000Y178500D03*
X118000Y183500D03*
X121000Y185500D03*
X137000Y176000D03*
X122750Y215100D03*
X126500Y207000D03*
X124000Y223000D03*
X121784Y220852D03*
X126500D03*
Y217060D03*
X155500Y30500D03*
X158500D03*
X156000Y62500D03*
X143324D03*
X147260D03*
X142000Y85500D03*
X158500Y73000D03*
X150958Y108700D03*
X144500Y88500D03*
X146000Y95000D03*
X148500D03*
X153000Y88000D03*
X154500Y105000D03*
X150850Y114000D03*
X148800Y123400D03*
X140600Y115500D03*
X138120Y118100D03*
X149476Y142612D03*
X147286Y143596D03*
X147525Y146790D03*
X146900Y134000D03*
X158500Y131000D03*
X147381Y159633D03*
X147191Y156150D03*
X147250Y153050D03*
X149200Y162050D03*
X144889Y159689D03*
X149650Y153950D03*
X144500Y187000D03*
X141500Y180000D03*
X139000Y185500D03*
X139500Y181500D03*
X143500Y178500D03*
X141000Y183500D03*
X145500Y177000D03*
X139500Y176000D03*
X157240Y196000D03*
X155280Y198000D03*
X162500Y69500D03*
X168000Y84500D03*
X177000Y70000D03*
X161000Y95000D03*
X168000Y92000D03*
X177500Y97500D03*
X171500Y88500D03*
X168000D03*
X161500Y106000D03*
X170000Y100500D03*
X164000Y88500D03*
X159500Y128000D03*
X164500Y110250D03*
X161500Y112000D03*
X164500Y114500D03*
X168000Y129500D03*
X167400Y110250D03*
X170000Y139500D03*
X172000Y144000D03*
X166700Y145800D03*
X171750Y147000D03*
X161000Y137601D03*
X172000Y141000D03*
X164600Y144100D03*
X172000Y150500D03*
X163950Y137150D03*
X160000Y146250D03*
X174500Y158300D03*
X164500Y156000D03*
X164974Y152526D03*
X167104Y153852D03*
X166000Y169000D03*
X164500Y171000D03*
X168500Y171200D03*
X166500Y181000D03*
X159200Y194000D03*
X170000Y175400D03*
X166500D03*
X173500Y204500D03*
Y207500D03*
X168500Y205500D03*
X196500Y10000D03*
X201500Y33500D03*
X186000Y95650D03*
X191500Y106000D03*
X181000Y94000D03*
X186000Y99500D03*
X182500Y110000D03*
X198000Y140250D03*
X185600Y149800D03*
X195000Y170000D03*
X192650Y169050D03*
X195500Y192500D03*
X189000D03*
X194500Y175000D03*
X183500Y186500D03*
Y195500D03*
X191500Y209440D03*
X185500Y240500D03*
X181500Y238500D03*
X183500Y244000D03*
X193150Y239000D03*
X207500Y11500D03*
X218500Y27500D03*
X203500Y46000D03*
X215000Y67000D03*
X212500Y85000D03*
X211500Y70500D03*
X217500Y88100D03*
X222000Y115250D03*
X217750Y128750D03*
X213250Y126500D03*
X215000Y124750D03*
X217750Y117250D03*
X207500Y121800D03*
X205000Y127000D03*
X216001Y144901D03*
X214600Y133100D03*
X222700Y135700D03*
X211000Y132250D03*
X211500Y169000D03*
X214750Y179250D03*
X219500Y181000D03*
X217500Y194500D03*
X215750Y183200D03*
X207500Y236500D03*
X231500Y-24000D03*
X228500Y-20500D03*
X237500Y1500D03*
X223300Y42800D03*
X231000Y102500D03*
Y106000D03*
X235500D03*
X237500Y88100D03*
X228000Y118000D03*
X239000Y110000D03*
X230500Y120500D03*
X241500Y116000D03*
X230500Y124500D03*
X233500Y110000D03*
X231000Y117500D03*
X235500Y133750D03*
X232000Y136000D03*
X243000Y135750D03*
X243500Y143500D03*
X240000D03*
X227800Y132600D03*
X227570Y168930D03*
X229500Y174500D03*
X227500Y188500D03*
X230000Y180500D03*
X224000Y175500D03*
X242500Y195000D03*
X226000Y223000D03*
X241000Y249000D03*
X253500Y11000D03*
X256500D03*
X259500D03*
X245000Y5000D03*
X258500Y44000D03*
X245000Y98000D03*
X260000Y109000D03*
X257500Y88100D03*
X263000Y111500D03*
X249000Y118500D03*
X245000Y150000D03*
X260450Y132450D03*
X259000Y170500D03*
X264500D03*
X255500Y203000D03*
X246000Y197500D03*
X265500Y286000D03*
X273500Y92000D03*
X283000Y96000D03*
X266000Y108500D03*
Y134500D03*
X286350Y173150D03*
X284000Y188000D03*
X268500Y193500D03*
Y232500D03*
X272000Y237500D03*
X276000D03*
X272000Y240500D03*
X292000Y76038D03*
Y72961D03*
X305000Y177500D03*
Y181500D03*
X292500Y195500D03*
X301900Y198750D03*
X296000Y209300D03*
X298750Y257250D03*
X294000Y245500D03*
X289000Y250500D03*
X302500Y270500D03*
X307500D03*
X295000Y270000D03*
X309000Y173000D03*
X309500Y200500D03*
X312250Y220000D03*
X313500Y257500D03*
X309000Y287000D03*
G54D20*
G01X25500Y-175750D02*
X31125Y-181375D01*
X38625D01*
G01X31125Y-162625D02*
X25500Y-168250D01*
G01D02*
Y-175750D01*
G01X46125Y-181375D02*
Y-172000D01*
G01X33000Y-181375D02*
X46125D01*
G01Y-175750D02*
X64875D01*
G01X46125Y-172000D02*
X55500Y-162625D01*
G01X38625D02*
X31125D01*
G01X64875Y-172000D02*
Y-181375D01*
G01D02*
X76125D01*
G01X72375Y-162625D02*
Y-181375D01*
G01D02*
X79875D01*
G01X55500Y-162625D02*
X64875Y-172000D01*
G01X74250Y-162625D02*
X68625D01*
G01X79875D02*
X72375D01*
G01X79875Y-181375D02*
X85500Y-175750D01*
G01D02*
Y-168250D01*
G01D02*
X79875Y-162625D01*
G54D11*
X2000Y181500D03*
X-3000D03*
Y176500D03*
X2000Y186500D03*
X-3000D03*
X2000Y191500D03*
X-3000D03*
Y196500D03*
X19500Y181500D03*
X14500D03*
X19500Y186500D03*
X14500D03*
X19500Y191500D03*
X14500D03*
Y211500D03*
X19500D03*
X14500Y196500D03*
X19500Y206500D03*
X190500Y69000D03*
X217500Y225000D03*
G54D21*
G01X24000Y224500D02*
X-4000D01*
X-6000Y222500D01*
Y195050D01*
X-5000Y194050D01*
X-550D01*
X2000Y191500D01*
G01Y181500D02*
X-500Y184000D01*
X-6000D01*
G01X-6500Y224500D02*
X-7200Y223800D01*
Y193200D01*
X-5500Y191500D01*
X-3000D01*
G01X2000Y186500D02*
X-500Y189000D01*
X-5500D01*
X-8300Y191800D01*
Y224700D01*
G01X24000Y199000D02*
X22600Y200400D01*
Y202400D01*
X21000Y204000D01*
X9800D01*
X4800Y199000D01*
X-500D01*
X-3000Y196500D01*
G01X21000Y199000D02*
X10500D01*
X5500Y194000D01*
G01X115000Y185500D02*
X116250D01*
X116750Y185000D01*
Y184301D01*
X115449Y183000D01*
X113551D01*
X111551Y181000D01*
X110951D01*
X110600Y181351D01*
Y185149D01*
X110249Y185500D01*
X109751D01*
X109400Y185149D01*
Y181351D01*
X109049Y181000D01*
X108300D01*
X107007Y182293D01*
X106393D01*
X105957Y181857D01*
Y181243D01*
X106650Y180550D01*
Y180150D01*
X106269Y179769D01*
X105773D01*
X105019Y180523D01*
X104523D01*
X104170Y180170D01*
Y179674D01*
X104924Y178920D01*
Y178424D01*
X104571Y178071D01*
X104075D01*
X103321Y178825D01*
X102825D01*
X102472Y178472D01*
Y177976D01*
X103226Y177222D01*
Y176726D01*
X102412Y175912D01*
X95987D01*
X85725Y165650D01*
X85100D01*
G01X118000Y183500D02*
Y186400D01*
X117400Y187000D01*
X109500D01*
X108300Y185800D01*
Y184000D01*
X107900Y183600D01*
X106100D01*
X101500Y179000D01*
Y177300D01*
X101075Y176875D01*
X100475D01*
X100124Y177226D01*
Y178149D01*
X99773Y178500D01*
X99275D01*
X98924Y178149D01*
Y177226D01*
X98573Y176875D01*
X95775D01*
X85550Y166650D01*
X85100D01*
G01X24000Y179000D02*
X17000D01*
X14500Y181500D01*
G01X19500D02*
X24000D01*
G01X14500Y186500D02*
X17000Y184000D01*
X24000D01*
G01Y193000D02*
X23000Y194000D01*
X17000D01*
X14500Y196500D01*
G01X23500Y186500D02*
X19500D01*
G01X24000Y188750D02*
X23750Y189000D01*
X17000D01*
X14500Y191500D01*
G01X24000Y191000D02*
X23500Y191500D01*
X19500D01*
G01X24000Y218950D02*
X17700D01*
X17000Y218250D01*
Y214000D01*
X14500Y211500D01*
G01X135300Y119600D02*
X132950Y117250D01*
X123750D01*
X119350Y112850D01*
G01X120850Y111350D02*
X124625Y115125D01*
X136375D01*
X137250Y116000D01*
Y117230D01*
X138120Y118100D01*
G01X119650Y182600D02*
X119100Y182050D01*
X114050D01*
X112000Y180000D01*
X108000D01*
X103000Y175000D01*
X96250D01*
X85900Y164650D01*
X85100D01*
G01X140300Y173600D02*
X139400Y172700D01*
X136100D01*
X135500Y172100D01*
Y169800D01*
X134800Y169100D01*
X109400D01*
X105800Y165500D01*
X96000D01*
X92900Y162400D01*
Y159100D01*
X92500Y158700D01*
X90700D01*
X87600Y155600D01*
X85100D01*
G01X84716Y151450D02*
X86143D01*
X91443Y156750D01*
X94500D01*
X94875Y157125D01*
Y161375D01*
X96950Y163450D01*
X106200D01*
X110250Y167500D01*
X136250D01*
X138000Y165750D01*
X145000D01*
X152850Y173600D01*
G01X119650Y179100D02*
X115600D01*
X113500Y177000D01*
X109400D01*
X108100Y175700D01*
Y173600D01*
X106500Y172000D01*
X96750D01*
X88800Y164050D01*
Y162500D01*
X85900Y159600D01*
X85100D01*
G01X119650Y175850D02*
X119550Y175950D01*
X110000D01*
X109000Y174950D01*
Y173000D01*
X107000Y171000D01*
X97000D01*
X89750Y163750D01*
Y162000D01*
X86350Y158600D01*
X85100D01*
G01X132450Y173600D02*
X132050Y173200D01*
Y170500D01*
X131550Y170000D01*
X129100D01*
X128600Y170500D01*
Y172600D01*
X128100Y173100D01*
X125352D01*
X125001Y172749D01*
Y170351D01*
X124650Y170000D01*
X124152D01*
X123801Y170351D01*
Y172749D01*
X123450Y173100D01*
X121600D01*
X121250Y173450D01*
X118899D01*
X117950Y172501D01*
Y170500D01*
X117500Y170050D01*
X115014D01*
X114663Y170401D01*
Y171749D01*
X114312Y172100D01*
X113814D01*
X113463Y171749D01*
Y170401D01*
X113112Y170050D01*
X112614D01*
X112263Y170401D01*
Y171749D01*
X111912Y172100D01*
X111414D01*
X111063Y171749D01*
Y170401D01*
X110712Y170050D01*
X109050D01*
X105500Y166500D01*
X103050D01*
X102699Y166851D01*
Y168649D01*
X102348Y169000D01*
X101850D01*
X101499Y168649D01*
Y166851D01*
X101148Y166500D01*
X95500D01*
X91800Y162800D01*
Y160300D01*
X91200Y159700D01*
X90300D01*
X87200Y156600D01*
X85100D01*
G01X127450Y134900D02*
X124350Y138000D01*
X118519D01*
X116019Y140500D01*
X108050D01*
X106100Y138550D01*
G01X120300Y136450D02*
X118550D01*
X115500Y139500D01*
X113051D01*
X111101Y137550D01*
X106900D01*
X106100Y136750D01*
G01X87225Y145975D02*
X94800Y153550D01*
X113350D01*
X118500Y158700D01*
Y159500D01*
X119800Y160800D01*
X121000D01*
X121947Y159853D01*
X129746D01*
X131149Y158450D01*
X135050D01*
X138500Y155000D01*
X142900D01*
X146300Y151600D01*
X148300D01*
X149000Y150900D01*
X152800D01*
X154000Y152100D01*
X160900D01*
X161500Y151500D01*
X163948D01*
X164974Y152526D01*
G01X167104Y153852D02*
Y152000D01*
X165704Y150600D01*
X161100D01*
X160700Y151000D01*
X154200D01*
X153200Y150000D01*
X148851D01*
X148051Y150800D01*
X146000D01*
X142800Y154000D01*
X138000D01*
X134500Y157500D01*
X130500D01*
X129400Y158600D01*
X125900D01*
X123800Y156500D01*
X122600D01*
X121150Y155050D01*
X117750D01*
X115300Y152600D01*
X111451D01*
X111101Y152950D01*
X109899D01*
X109549Y152600D01*
X95150D01*
X88300Y145750D01*
Y144900D01*
G01X166000Y169000D02*
X163600D01*
X161100Y171500D01*
X159750D01*
X154250Y166000D01*
X148250D01*
X146000Y163750D01*
X137000D01*
X134750Y166000D01*
X118500D01*
X113050Y160550D01*
X109899D01*
X108999Y161450D01*
X101500D01*
X99700Y159650D01*
Y156200D01*
X98125Y154625D01*
X94375D01*
X86475Y146725D01*
G01X164500Y171000D02*
X163050Y172450D01*
X159200D01*
X154250Y167500D01*
X148250D01*
X145500Y164750D01*
X137500D01*
X135500Y166750D01*
X115750D01*
X114750Y165750D01*
X114000D01*
X113293Y166457D01*
X112797D01*
X112444Y166104D01*
Y165608D01*
X113653Y164399D01*
Y163903D01*
X113200Y163450D01*
X109899D01*
X108949Y162500D01*
X97500D01*
X96000Y161000D01*
Y156500D01*
X95250Y155750D01*
X92000D01*
X86375Y150125D01*
X85100D01*
G01X119650Y180100D02*
X115100D01*
X113000Y178000D01*
X109000D01*
X104000Y173000D01*
X96500D01*
X86150Y162650D01*
X85100D01*
G01Y163650D02*
X86000D01*
X96350Y174000D01*
X103500D01*
X108500Y179000D01*
X112500D01*
X114600Y181100D01*
X119650D01*
G01X142100Y173600D02*
X141550Y173050D01*
Y168900D01*
X140900Y168250D01*
X109750D01*
X106000Y164500D01*
X96500D01*
X94000Y162000D01*
Y158250D01*
X93500Y157750D01*
X91000D01*
X87850Y154600D01*
X85100D01*
G01X119650Y188000D02*
X109000D01*
X100500Y179500D01*
X98400D01*
X97900Y179000D01*
Y178200D01*
X97550Y177850D01*
X95550D01*
X85350Y167650D01*
X85100D01*
G01X119650Y174850D02*
X119000D01*
X117200Y173050D01*
X115050D01*
X114699Y173401D01*
Y174649D01*
X114348Y175000D01*
X113850D01*
X113499Y174649D01*
Y173401D01*
X113148Y173050D01*
X112650D01*
X112299Y173401D01*
Y174649D01*
X111948Y175000D01*
X110500D01*
X110000Y174500D01*
Y171500D01*
X109500Y171000D01*
X108600D01*
X106600Y169000D01*
X105800D01*
X104800Y170000D01*
X101400D01*
X100500Y169100D01*
X99700D01*
X98800Y170000D01*
X97500D01*
X90750Y163250D01*
Y161450D01*
X86900Y157600D01*
X85100D01*
G01X115600Y114000D02*
X120350Y118750D01*
X132150D01*
X134476Y121076D01*
X137624D01*
X140000Y118700D01*
Y117300D01*
X138500Y115800D01*
Y112250D01*
X139700Y111050D01*
X148608D01*
X150958Y108700D01*
G01X107500Y196250D02*
X100250Y189000D01*
X91029D01*
X85100Y183071D01*
G01X111250Y195500D02*
X101750Y186000D01*
X93250D01*
X88250Y181000D01*
Y176750D01*
X86600Y175100D01*
X85100D01*
G01Y171000D02*
X85500D01*
X90250Y175750D01*
Y179750D01*
X92250Y181750D01*
X100500D01*
X113750Y195000D01*
G01X108750Y196000D02*
X100750Y188000D01*
X91750D01*
X85597Y181847D01*
Y178403D01*
G01X110000Y195750D02*
X101250Y187000D01*
X92500D01*
X87250Y181750D01*
Y177500D01*
X86350Y176600D01*
X85100D01*
G01X112500Y195250D02*
X102250Y185000D01*
X94000D01*
X89250Y180250D01*
Y176250D01*
X86000Y173000D01*
X85100D01*
G01X108500Y156250D02*
X108575D01*
X108775Y156450D01*
X112725D01*
X112925Y156250D01*
X113000D01*
G01X108500Y157250D02*
X108575D01*
X108775Y157050D01*
X112725D01*
X112925Y157250D01*
X113000D01*
G01X133000Y108700D02*
X145300D01*
X146950Y107050D01*
X151550D01*
X152750Y108250D01*
Y112100D01*
X150850Y114000D01*
G01X149476Y142612D02*
X151312D01*
X152800Y144100D01*
Y146050D01*
X154850Y148100D01*
X163200D01*
X164000Y147300D01*
X165100D01*
X165900Y148100D01*
X169100D01*
X169500Y147700D01*
Y146900D01*
X170850Y145550D01*
X173950D01*
X175000Y144500D01*
G01X177100Y148100D02*
X174100D01*
X173150Y149050D01*
X154550D01*
X151900Y146400D01*
Y144700D01*
X151262Y144062D01*
X148875D01*
X148409Y143596D01*
X147286D01*
G01X227570Y168930D02*
X227500Y169000D01*
G01X167700Y167500D02*
X163722D01*
X162700Y168522D01*
X159522D01*
X155500Y164500D01*
X149000D01*
X147500Y163000D01*
Y161604D01*
X150548Y158556D01*
Y157354D01*
X149699Y156505D01*
X148805D01*
X148450Y156150D01*
X147191D01*
G01X147250Y153050D02*
X147950D01*
X149200Y151800D01*
X152700D01*
X153800Y152900D01*
X159900D01*
X161450Y154450D01*
X165601D01*
X166651Y155500D01*
X169000D01*
X170500Y157000D01*
Y160000D01*
G01X163000Y108500D02*
Y110500D01*
X161500Y112000D01*
G01X163787Y141500D02*
Y139038D01*
X162500Y137751D01*
Y136100D01*
X163150Y135450D01*
G01X172000Y144000D02*
X173750D01*
G01X171000Y142500D02*
X173350D01*
G01X203500Y136700D02*
X202500Y135700D01*
X200000D01*
G01X176500Y157250D02*
Y149500D01*
X176000Y149000D01*
X174399D01*
X172899Y150500D01*
X172000D01*
G01X201000Y145200D02*
X201600D01*
X202350Y144450D01*
X204250D01*
X209450Y139250D01*
X237250D01*
X239000Y137500D01*
G54D12*
X12500Y37500D03*
Y27500D03*
Y67500D03*
Y47500D03*
X65074Y128284D03*
X72145Y121213D03*
X58003Y135355D03*
X65074Y142426D03*
X79216Y114142D03*
X86287Y121213D03*
X100429Y92929D03*
X107500Y100000D03*
X215100Y-28300D03*
X244900Y-34300D03*
X310000Y265000D03*
G54D22*
G01X18000Y-172000D02*
X55500Y-209500D01*
X93000Y-172000D01*
G01X18000D02*
X93000D01*
G01X55500Y-134500D02*
X18000Y-172000D01*
G01X43770Y-196630D02*
G03X44234Y-197771I1635J0D01*
G01X43800Y-180430D02*
Y-196630D01*
G01Y-196375D02*
Y-180430D01*
G01X44250Y-197755D02*
X47925Y-201475D01*
G01X47911Y-201489D02*
G03X50325Y-202480I2414J2445D01*
G01X61125Y-197755D02*
X50805D01*
X48480Y-195430D01*
Y-177130D01*
X47055D01*
X43800Y-180430D01*
G01D02*
X47055Y-177130D01*
X48480D01*
Y-195430D01*
X50805Y-197755D01*
X61125D01*
G01X55500Y-183250D02*
X44250Y-172000D01*
G01X55500Y-194500D02*
X48480Y-187450D01*
G01X43305Y-182305D02*
X33000Y-172000D01*
G01X44250D02*
X55500Y-160750D01*
G01X33000Y-172000D02*
X46425Y-158575D01*
G01X43770Y-155380D02*
G03X44234Y-156521I1635J0D01*
G01X43770Y-155380D02*
G03X44234Y-156521I1635J0D01*
G01X49816Y-162114D02*
G03X52230Y-163105I2414J2445D01*
G01X49816Y-162114D02*
G03X52230Y-163105I2414J2445D01*
G01X44250Y-156505D02*
X49830Y-162100D01*
G01X44250Y-156505D02*
X49830Y-162100D01*
G01X52680Y-158380D02*
X48480Y-154180D01*
Y-148555D01*
X52680Y-144325D01*
X59700D01*
G01X43800Y-148075D02*
Y-155380D01*
G01X52680Y-158380D02*
X48480Y-154180D01*
Y-148555D01*
X52680Y-144325D01*
X59700D01*
G01X43800Y-148075D02*
Y-155380D01*
G01X49725Y-155275D02*
X55500Y-149500D01*
G01X49875Y-140575D02*
X44775Y-145675D01*
G01X44761Y-145661D02*
G03X43770Y-148075I2445J-2414D01*
G01X49875Y-140575D02*
X44775Y-145675D01*
G01X44761Y-145661D02*
G03X43770Y-148075I2445J-2414D01*
G01X52125Y-139675D02*
G03X49891Y-140591I-1J-3180D01*
G01X52125Y-139675D02*
G03X49891Y-140591I-1J-3180D01*
G01X50325Y-202450D02*
X61125D01*
G01D02*
X50250D01*
G01X61125Y-202480D02*
G03X63480Y-200125I0J2355D01*
G01D02*
G03X61125Y-197770I-2355J0D01*
G01X55500Y-197755D02*
Y-163555D01*
G01Y-194500D02*
X78000Y-172000D01*
G01X55500Y-209500D02*
Y-202450D01*
G01X66750Y-172000D02*
X55500Y-183250D01*
G01Y-160750D02*
X66750Y-172000D01*
G01X52230Y-163075D02*
X59700D01*
G01X52230D02*
X59700D01*
G01D02*
X57375D01*
G01X59700Y-163105D02*
G03X62055Y-160750I0J2355D01*
G01X59700Y-163105D02*
G03X62055Y-160750I0J2355D01*
G01X59700Y-158380D02*
X52680D01*
G01X62055Y-160750D02*
G03X59700Y-158395I-2355J0D01*
G01Y-158380D02*
X52680D01*
G01X56925D02*
X59700D01*
G01X62055Y-160750D02*
G03X59700Y-158395I-2355J0D01*
G01X55500Y-158380D02*
Y-144325D01*
G01X93000Y-172000D02*
X55500Y-134500D01*
G01X78000Y-172000D02*
X55500Y-149500D01*
G01X59700Y-144355D02*
G03X62055Y-142000I0J2355D01*
G01D02*
G03X59700Y-139645I-2355J0D01*
G01Y-139630D02*
X52125D01*
G01X59700D02*
X52125D01*
G01X55500D02*
Y-134500D01*
G01X121825Y-178267D02*
X122558Y-178725D01*
X123383Y-179000D01*
X124117D01*
X124850Y-178725D01*
X125400Y-178267D01*
X125675Y-177625D01*
X125492Y-176983D01*
X125033Y-176433D01*
X124208Y-176067D01*
X123108Y-175883D01*
X122467Y-175517D01*
X122192Y-174875D01*
X122375Y-174233D01*
X122833Y-173775D01*
X123475Y-173500D01*
X124117D01*
X124758Y-173683D01*
X125308Y-174142D01*
G01X128950Y-173500D02*
X131150D01*
G01X130050D02*
Y-179000D01*
G01X128950D02*
X131150D01*
G01X136900Y-176250D02*
X138733D01*
Y-177900D01*
X138183Y-178450D01*
X137542Y-178817D01*
X136625Y-179000D01*
X135708Y-178817D01*
X135067Y-178450D01*
X134517Y-177900D01*
X134150Y-177258D01*
X133967Y-176525D01*
Y-175883D01*
X134150Y-175333D01*
X134517Y-174692D01*
X135067Y-174142D01*
X135617Y-173775D01*
X136350Y-173500D01*
X136992D01*
X137725Y-173683D01*
X138275Y-174050D01*
G01X140542Y-179000D02*
Y-173500D01*
X144758Y-179000D01*
Y-173500D01*
G01X146658Y-179000D02*
X148950Y-173500D01*
X151242Y-179000D01*
G01X150417Y-177075D02*
X147483D01*
G01X153417Y-173500D02*
Y-179000D01*
X157083D01*
G01X118417Y-162500D02*
Y-168000D01*
X122083D01*
G01X124258D02*
X126550Y-162500D01*
X128842Y-168000D01*
G01X128017Y-166075D02*
X125083D01*
G01X132850Y-168000D02*
Y-165525D01*
X131017Y-162500D01*
G01X134683D02*
X132850Y-165525D01*
G01X140983Y-168000D02*
X137317D01*
Y-162500D01*
X140983D01*
G01X139517Y-165158D02*
X137317D01*
G01X143617Y-168000D02*
Y-162500D01*
X145908D01*
X146642Y-162775D01*
X147100Y-163142D01*
X147283Y-163875D01*
X147100Y-164608D01*
X146550Y-165067D01*
X145908Y-165342D01*
X143617D01*
G01X145908D02*
X147283Y-168000D01*
G01X159150D02*
Y-162500D01*
X155758Y-166442D01*
X160342D01*
G54D13*
X95000Y37500D03*
X120000Y-5300D03*
Y5000D03*
G54D23*
G01X137500Y86500D02*
X135850Y88150D01*
X128000D01*
X126450Y86600D01*
X111000D01*
X108784Y88816D01*
X98363D01*
X96679Y90500D01*
Y92421D01*
X95350Y93750D01*
X57750D01*
X56000Y92000D01*
X25500D01*
X15900Y101600D01*
X350D01*
X-1750Y99500D01*
G01X132000Y92000D02*
X129200D01*
X126400Y94800D01*
X104200D01*
X101000Y98000D01*
X98500D01*
X95400Y94900D01*
X56900D01*
X55750Y93750D01*
X26100D01*
X16450Y103400D01*
X-2900D01*
X-4250Y104750D01*
G01X104000Y219020D02*
X84980D01*
X84000Y220000D01*
X45500D01*
X36500Y229000D01*
X-6000D01*
X-9600Y225400D01*
Y189600D01*
X-6500Y186500D01*
X-3000D01*
G01X101000Y212840D02*
X86240D01*
X85800Y212400D01*
X49100D01*
X46500Y215000D01*
X37500D01*
X28000Y224500D01*
X24000D01*
G01X-6000Y184000D02*
X-10800Y188800D01*
Y226200D01*
X-6500Y230500D01*
X37000D01*
X46000Y221500D01*
X85500D01*
X86000Y221000D01*
X100980D01*
X101000Y220980D01*
G01X-3000Y181500D02*
X-5500D01*
X-12000Y188000D01*
Y227000D01*
X-7000Y232000D01*
X37500D01*
X46560Y222940D01*
X104000D01*
G01Y215100D02*
X85600D01*
X84500Y214000D01*
X50000D01*
X47500Y216500D01*
X38000D01*
X28500Y226000D01*
X-5000D01*
X-6500Y224500D01*
G01X-8300Y224700D02*
X-5500Y227500D01*
X29000D01*
X38650Y217850D01*
X48650D01*
X51000Y215500D01*
X84000D01*
X85560Y217060D01*
X101000D01*
G01X104000Y199020D02*
X88620D01*
X87100Y197500D01*
X39000D01*
X38000Y196500D01*
X26500D01*
X24000Y199000D01*
G01X101000Y197060D02*
X93060D01*
X89000Y193000D01*
X28000D01*
X22000Y199000D01*
X21000D01*
G01X168000Y84500D02*
X166900Y83400D01*
X156900D01*
X153000Y79500D01*
X146500D01*
X145000Y78000D01*
X102166D01*
X98316Y74150D01*
X84260D01*
X76950Y66840D01*
Y61100D01*
X71850Y56000D01*
Y50350D01*
X67850Y46350D01*
X61050D01*
X58900Y48500D01*
X23500D01*
X12500Y37500D01*
G01Y47500D02*
X20000D01*
X22500Y50000D01*
X65279D01*
X69500Y54221D01*
Y61229D01*
X83771Y75500D01*
X97827D01*
X101627Y79300D01*
X144300D01*
X146000Y81000D01*
X152500D01*
X156200Y84700D01*
X165700D01*
X167500Y86500D01*
X169500D01*
X171500Y88500D01*
G01X168000D02*
X166500D01*
X164000Y86000D01*
X155500D01*
X152000Y82500D01*
X145500D01*
X143600Y80600D01*
X101088D01*
X97338Y76850D01*
X83282D01*
X64500Y58068D01*
Y53500D01*
X62350Y51350D01*
X28650D01*
X12500Y67500D01*
G01X17500Y87500D02*
X21500D01*
X25650Y83350D01*
X35950D01*
X39350Y86750D01*
X57250D01*
X60000Y89500D01*
X74750D01*
X80450Y83800D01*
X105800D01*
X107000Y82600D01*
X141600D01*
X144500Y85500D01*
X150500D01*
X153000Y88000D01*
G01X134000Y86500D02*
X133100Y85600D01*
X110000D01*
X108200Y87400D01*
X97750D01*
X95500Y89650D01*
Y91834D01*
X94634Y92700D01*
X58700D01*
X56250Y90250D01*
X38050D01*
X36150Y88350D01*
X26650D01*
X20000Y95000D01*
G01Y90000D02*
X22000D01*
X25350Y86650D01*
X36950D01*
X38800Y88500D01*
X56500D01*
X59000Y91000D01*
X76000D01*
X82000Y85000D01*
X106600D01*
X108000Y83600D01*
X140100D01*
X142000Y85500D01*
G01X85100Y165650D02*
X69650D01*
X69250Y165250D01*
X59000D01*
X58500Y165750D01*
Y169250D01*
X58000Y169750D01*
X57200D01*
X56700Y169250D01*
Y165750D01*
X56200Y165250D01*
X55300D01*
X54800Y165750D01*
Y169250D01*
X54300Y169750D01*
X49400D01*
X48900Y170250D01*
Y173100D01*
X48400Y173600D01*
X42900D01*
X40400Y171100D01*
X30100D01*
X27200Y168200D01*
Y163300D01*
X32900Y157600D01*
X35200D01*
X35700Y157100D01*
Y152800D01*
X35200Y152300D01*
X32400D01*
X31900Y151800D01*
Y150500D01*
X32400Y150000D01*
X34000D01*
G01X85100Y166650D02*
X60500D01*
X60000Y167150D01*
Y170100D01*
X58500Y171600D01*
X54700D01*
X54100Y171000D01*
X51000D01*
X50500Y171500D01*
Y174200D01*
X50000Y174700D01*
X42500D01*
X40800Y176400D01*
X40000D01*
X39264Y175664D01*
Y172986D01*
X38678Y172400D01*
X37850D01*
X37264Y172986D01*
Y176100D01*
X36764Y176600D01*
X35764D01*
X35264Y176100D01*
Y172986D01*
X34678Y172400D01*
X33850D01*
X33264Y172986D01*
Y176100D01*
X32764Y176600D01*
X31764D01*
X31264Y176100D01*
Y172986D01*
X30678Y172400D01*
X29850D01*
X29264Y172986D01*
Y174114D01*
X28678Y174700D01*
X26900D01*
X25900Y173700D01*
Y159600D01*
X26400Y159100D01*
X28800D01*
X29300Y158600D01*
Y157500D01*
X28800Y157000D01*
X26500D01*
X26000Y156500D01*
Y155500D01*
X26500Y155000D01*
X34000D01*
G01X63480Y176500D02*
X61730Y178250D01*
X24750D01*
X24000Y179000D01*
G01Y181500D02*
X26000Y179500D01*
X62940D01*
X65440Y177000D01*
Y173500D01*
G01X24000Y184000D02*
X27000Y181000D01*
X51000D01*
X54000Y184000D01*
X62500D01*
X69660Y176840D01*
Y173500D01*
G01X78324Y182000D02*
X69624Y190700D01*
X46200D01*
X44950Y191950D01*
X25050D01*
X24000Y193000D01*
G01X70452Y182000D02*
X66952Y185500D01*
X53500D01*
X50350Y182350D01*
X27650D01*
X23500Y186500D01*
G01X72420Y179080D02*
X72500Y179160D01*
Y183000D01*
X68600Y186900D01*
X25850D01*
X24000Y188750D01*
G01X74388Y182000D02*
Y183612D01*
X69500Y188500D01*
X26500D01*
X24000Y191000D01*
G01X104000Y207160D02*
X95900D01*
X95240Y206500D01*
X49500D01*
X47302Y208698D01*
X37302D01*
X34500Y211500D01*
X19500D01*
G01Y206500D02*
X22000D01*
X23900Y204600D01*
Y201100D01*
X27000Y198000D01*
X37500D01*
X38500Y199000D01*
X86100D01*
X88080Y200980D01*
X101000D01*
G01X104000Y202940D02*
X87540D01*
X85100Y200500D01*
X51300D01*
X48800Y203000D01*
X38500D01*
X35000Y199500D01*
X27500D01*
X26000Y201000D01*
Y203500D01*
G01X101000Y204900D02*
X39734D01*
X39684Y204850D01*
X38316D01*
X38266Y204900D01*
X31400D01*
X28000Y201500D01*
G01X99000Y209016D02*
X97016Y211000D01*
X87100D01*
X83900Y207800D01*
X50700D01*
X48000Y210500D01*
X38500D01*
X30050Y218950D01*
X24000D01*
G01X8000Y234500D02*
Y236000D01*
X29000Y257000D01*
X56500D01*
G01X60000D02*
X58000Y255000D01*
X30000D01*
X14000Y239000D01*
G01X170000Y100500D02*
X166500D01*
X166000Y101000D01*
X112750D01*
X110000Y103750D01*
X105650D01*
X101150Y99250D01*
X98000D01*
X94750Y96000D01*
X33500D01*
G01X119350Y112850D02*
X119000Y112500D01*
X97500D01*
X91500Y106500D01*
X89250D01*
X81625Y98875D01*
X69125D01*
X65350Y102650D01*
X52950D01*
X50300Y100000D01*
X49300D01*
X48714Y100586D01*
Y103250D01*
X48214Y103750D01*
X47214D01*
X46714Y103250D01*
Y100586D01*
X46128Y100000D01*
X45300D01*
X44714Y100586D01*
Y103250D01*
X44214Y103750D01*
X43214D01*
X42714Y103250D01*
Y100586D01*
X42128Y100000D01*
X41300D01*
X40714Y100586D01*
Y103250D01*
X40214Y103750D01*
X39214D01*
X38714Y103250D01*
Y100586D01*
X38128Y100000D01*
X33500D01*
G01X31300Y98000D02*
X50600D01*
X51900Y99300D01*
X55700D01*
X57600Y97400D01*
X58600D01*
X59186Y97986D01*
Y100164D01*
X59772Y100750D01*
X60600D01*
X61186Y100164D01*
Y97986D01*
X61772Y97400D01*
X62600D01*
X63186Y97986D01*
Y100164D01*
X63772Y100750D01*
X64600D01*
X65186Y100164D01*
Y97986D01*
X65772Y97400D01*
X82150D01*
X89500Y104750D01*
X92250D01*
X98500Y111000D01*
X120500D01*
X120850Y111350D01*
G01X139000Y185500D02*
X136750Y183250D01*
X120300D01*
X119650Y182600D01*
G01X85100Y164650D02*
X70400D01*
X69750Y164000D01*
X55500D01*
X55000Y163500D01*
Y162250D01*
X54500Y161750D01*
X53485D01*
X52899Y162336D01*
Y167750D01*
X52399Y168250D01*
X51750D01*
X51250Y167750D01*
Y162250D01*
X50750Y161750D01*
X50000D01*
X49500Y162250D01*
Y165400D01*
X49000Y165900D01*
X48250D01*
X47750Y165400D01*
Y162250D01*
X47250Y161750D01*
X46500D01*
X46000Y162250D01*
Y163300D01*
X45500Y163800D01*
X44750D01*
X44250Y163300D01*
Y157000D01*
X43750Y156500D01*
X40600D01*
X40100Y157000D01*
Y168600D01*
X39600Y169100D01*
X38750D01*
X38250Y168600D01*
Y145250D01*
X37750Y144750D01*
X35250D01*
X34000Y146000D01*
G01X143500Y178500D02*
Y176800D01*
X140300Y173600D01*
G01X85100Y155600D02*
X83285D01*
X80335Y152650D01*
X76800D01*
X76300Y153150D01*
Y154150D01*
X75800Y154650D01*
X73816D01*
X71516Y152350D01*
X61550D01*
X60750Y153150D01*
X58750D01*
X57800Y152200D01*
X55400D01*
X53550Y150350D01*
X50200D01*
X49700Y149850D01*
Y145000D01*
X48050Y143350D01*
X47050D01*
X46464Y143936D01*
Y150414D01*
X45878Y151000D01*
X45050D01*
X44464Y150414D01*
Y143936D01*
X43878Y143350D01*
X43050D01*
X42464Y143936D01*
Y150414D01*
X41878Y151000D01*
X41050D01*
X40464Y150414D01*
Y143936D01*
X39878Y143350D01*
X33650D01*
X31000Y146000D01*
G01Y142500D02*
X31850Y141650D01*
X48750D01*
X51200Y144100D01*
Y147200D01*
X53000Y149000D01*
X54000D01*
X55750Y150750D01*
X57250D01*
X58700Y149300D01*
X60124D01*
X61000Y150176D01*
X77490D01*
X79316Y148350D01*
X80684D01*
X81650Y149316D01*
Y150684D01*
X82416Y151450D01*
X84716D01*
G01X152850Y173600D02*
X156250Y177000D01*
X159750D01*
X160900Y175850D01*
X163650D01*
X165600Y177800D01*
X191700D01*
X194500Y175000D01*
G01X141500Y180000D02*
X140300D01*
X139800Y179500D01*
X138500D01*
X137750Y180250D01*
X127250D01*
X126200Y179200D01*
X125050D01*
X124000Y180250D01*
X122750D01*
X121600Y179100D01*
X119650D01*
G01X85100Y159600D02*
X83200D01*
X81150Y161650D01*
X72950D01*
X68630Y157330D01*
X66688D01*
X66102Y157916D01*
Y159614D01*
X65516Y160200D01*
X64688D01*
X64102Y159614D01*
Y157916D01*
X63516Y157330D01*
X48770D01*
X47500Y158600D01*
Y160000D01*
G01X137000Y178500D02*
X133000D01*
X132500Y179000D01*
X128000D01*
X127150Y178150D01*
Y176316D01*
X126184Y175350D01*
X123000D01*
X122500Y175850D01*
X119650D01*
G01X85100Y158600D02*
X82650D01*
X80750Y160500D01*
X73750D01*
X69400Y156150D01*
X47350D01*
X46000Y157500D01*
G01X139500Y176000D02*
X137650Y174150D01*
X133000D01*
X132450Y173600D01*
G01X85100Y156600D02*
X82870D01*
X79970Y153700D01*
X78600D01*
X76650Y155650D01*
X72901D01*
X70601Y153350D01*
X62250D01*
X61450Y154150D01*
X58050D01*
X57400Y153500D01*
X55000D01*
X53500Y152000D01*
X51400D01*
X50900Y152500D01*
Y154100D01*
X50400Y154600D01*
X40750D01*
X40250Y154100D01*
Y153300D01*
X40750Y152800D01*
X48200D01*
X49000Y152000D01*
G01X106100Y138550D02*
X104900Y137350D01*
X86500D01*
X83250Y140600D01*
X79316D01*
X78316Y141600D01*
X65900D01*
X65074Y142426D01*
G01X106100Y136750D02*
X105500Y136150D01*
X101900D01*
X99600Y133850D01*
X96050D01*
X93750Y136150D01*
X85350D01*
X84250Y137250D01*
X79250D01*
X76150Y140350D01*
X69100D01*
X66750Y138000D01*
X60648D01*
X58003Y135355D01*
G01X58500Y141000D02*
Y143000D01*
X62676Y147176D01*
X67824D01*
X70650Y144350D01*
X77100D01*
X77750Y145000D01*
X86250D01*
X87225Y145975D01*
G01X88300Y144900D02*
Y140500D01*
X87800Y140000D01*
X86500D01*
X85250Y141250D01*
Y143000D01*
X84350Y143900D01*
X78566D01*
X77566Y142900D01*
X70350D01*
X67074Y146176D01*
X63520D01*
X61324Y143980D01*
Y141490D01*
X59184Y139350D01*
X54650D01*
X53500Y140500D01*
Y143500D01*
G01X86475Y146725D02*
X85750Y146000D01*
X77500D01*
X75850Y147650D01*
X73816D01*
X72916Y146750D01*
X70000D01*
X68574Y148176D01*
X61830D01*
X60804Y147150D01*
X53650D01*
X53500Y147000D01*
G01X85100Y150125D02*
X84425D01*
X81400Y147100D01*
X78500D01*
X76424Y149176D01*
X61415D01*
X60389Y148150D01*
X57350D01*
X56500Y149000D01*
G01X139500Y181500D02*
X139250Y181250D01*
X121950D01*
X120800Y180100D01*
X119650D01*
G01X85100Y162650D02*
X71900D01*
X70750Y161500D01*
X62750D01*
X60250Y159000D01*
X54000D01*
X53000Y160000D01*
G01X57500Y160800D02*
X59450Y162750D01*
X70250D01*
X71150Y163650D01*
X85100D01*
G01X119650Y181100D02*
X120000D01*
X121150Y182250D01*
X137750D01*
X139000Y183500D01*
X141000D01*
G01X145500Y177000D02*
X142100Y173600D01*
G01X85100Y154600D02*
X83700D01*
X80750Y151650D01*
X79316D01*
X79016Y151350D01*
X59900D01*
X59750Y151500D01*
G01X121000Y185500D02*
X124800D01*
X125300Y186000D01*
Y187500D01*
X124800Y188000D01*
X119650D01*
G01X85100Y167650D02*
X62050D01*
X61500Y168200D01*
Y170900D01*
X59400Y173000D01*
X52500D01*
G01X137000Y176000D02*
X135750Y177250D01*
X134084D01*
X131584Y174750D01*
X130250D01*
X129500Y175500D01*
X128250D01*
X127000Y174250D01*
X122685D01*
X122085Y174850D01*
X119650D01*
G01X85100Y157600D02*
X82455D01*
X81505Y156650D01*
X80505D01*
X80066Y157089D01*
Y158700D01*
X79566Y159200D01*
X78800D01*
X78300Y158700D01*
Y157150D01*
X77800Y156650D01*
X77000D01*
X76500Y157150D01*
Y158700D01*
X76000Y159200D01*
X75100D01*
X74600Y158700D01*
Y157150D01*
X74100Y156650D01*
X71900D01*
X69600Y154350D01*
X62850D01*
X62050Y155150D01*
X54150D01*
X53000Y154000D01*
G01X74388Y238000D02*
X71000D01*
X70500Y237500D01*
Y228000D01*
X71000Y227500D01*
X131000D01*
X131500Y227000D01*
Y222000D01*
X132000Y221500D01*
X133000D01*
X133500Y222000D01*
Y227000D01*
X134000Y227500D01*
X135000D01*
X135500Y227000D01*
Y218000D01*
X136000Y217500D01*
X137000D01*
X137500Y218000D01*
Y223000D01*
X138000Y223500D01*
X139000D01*
X139500Y223000D01*
Y218000D01*
X140000Y217500D01*
X141000D01*
X141500Y218000D01*
Y223000D01*
X142000Y223500D01*
X143000D01*
X143500Y223000D01*
Y218000D01*
X144000Y217500D01*
X149500D01*
X153250Y213750D01*
Y197589D01*
X156839Y194000D01*
X159200D01*
G01X162500Y69500D02*
X161200Y68200D01*
X149700D01*
X148200Y66700D01*
X144266D01*
X142466Y68500D01*
X117834D01*
X111834Y62500D01*
X108000D01*
X103500Y58000D01*
Y47500D01*
X100750Y44750D01*
X91250D01*
X84500Y38000D01*
X80000D01*
G01X95000Y37500D02*
X89500D01*
X80000Y28000D01*
G01X164000Y88500D02*
X163000Y87500D01*
X155000D01*
X151500Y84000D01*
X145000D01*
X142600Y81600D01*
X105851D01*
X104801Y82650D01*
X78760D01*
X74455Y86955D01*
X72955D01*
G01X86287Y121213D02*
X91787D01*
X99000Y114000D01*
X115600D01*
G01X124000Y223000D02*
X123940Y222940D01*
X118000D01*
X116098Y221038D01*
Y220210D01*
X116990Y219318D01*
Y218490D01*
X116403Y217903D01*
X115575D01*
X114683Y218795D01*
X113855D01*
X107500Y212440D01*
Y196250D01*
G01X85100Y183071D02*
X83500Y181471D01*
Y178750D01*
X82735Y177985D01*
X78985D01*
X75500Y174500D01*
Y171000D01*
G01X126500Y217060D02*
X122310D01*
X111750Y206500D01*
Y202750D01*
X111250Y202250D01*
Y195500D01*
G01X85100Y175100D02*
X81100D01*
X79500Y173500D01*
Y171000D01*
G01X83500D02*
X85100D01*
G01X113750Y195000D02*
Y200750D01*
X114750Y201750D01*
X121250D01*
X126500Y207000D01*
G01X121784Y220852D02*
X115533Y214601D01*
X114705D01*
X113692Y215614D01*
X112864D01*
X112277Y215027D01*
Y214199D01*
X113290Y213186D01*
Y212358D01*
X112703Y211771D01*
X111875D01*
X110862Y212784D01*
X110034D01*
X109447Y212197D01*
Y211369D01*
X110460Y210356D01*
Y209528D01*
X108750Y207818D01*
Y196000D01*
G01X126500Y220852D02*
X124398Y218750D01*
X121750D01*
X110250Y207250D01*
Y203250D01*
X110000Y203000D01*
Y195750D01*
G01X85100Y176600D02*
X79850D01*
X77500Y174250D01*
Y173000D01*
G01X122750Y215100D02*
X116850Y209200D01*
Y208372D01*
X118447Y206775D01*
Y205947D01*
X117860Y205360D01*
X117032D01*
X115435Y206957D01*
X114607D01*
X113250Y205600D01*
Y202250D01*
X112500Y201500D01*
Y195250D01*
G01X85100Y173000D02*
X81500D01*
G01X81000Y238000D02*
Y231500D01*
X82000Y230500D01*
X150750D01*
X152000Y229250D01*
Y220500D01*
X157240Y215260D01*
Y214236D01*
X157826Y213650D01*
X163000D01*
X163500Y213150D01*
Y212150D01*
X163000Y211650D01*
X157826D01*
X157240Y211064D01*
Y210236D01*
X157826Y209650D01*
X163000D01*
X163500Y209150D01*
Y208150D01*
X163000Y207650D01*
X157826D01*
X157240Y207064D01*
Y206236D01*
X157826Y205650D01*
X163000D01*
X163500Y205150D01*
Y204150D01*
X163000Y203650D01*
X157826D01*
X157240Y203064D01*
Y202236D01*
X157826Y201650D01*
X163500D01*
X164000Y201150D01*
Y200150D01*
X163500Y199650D01*
X157826D01*
X157240Y199064D01*
Y196000D01*
G01X155280Y198000D02*
Y214470D01*
X150000Y219750D01*
Y228500D01*
X149500Y229000D01*
X148500D01*
X148000Y228500D01*
Y220000D01*
X147500Y219500D01*
X146500D01*
X146000Y220000D01*
Y228431D01*
X145500Y228931D01*
X142000D01*
X141500Y228431D01*
Y226000D01*
X141000Y225500D01*
X140000D01*
X139500Y226000D01*
Y228431D01*
X139000Y228931D01*
X72500D01*
X72000Y229431D01*
Y231500D01*
X72500Y232000D01*
X78500D01*
X79000Y232500D01*
Y233500D01*
X78500Y234000D01*
X72500D01*
X72000Y234500D01*
Y235500D01*
X72500Y236000D01*
X77000D01*
X77500Y236500D01*
Y238000D01*
G01X100000Y-7000D02*
X111500D01*
X128000Y-23500D01*
X211000D01*
X226500Y-8000D01*
X238500D01*
X256500Y10000D01*
Y11000D01*
G01X98000Y-9000D02*
X111000D01*
X127500Y-25500D01*
X211500D01*
X227100Y-9900D01*
X238600D01*
X259500Y11000D01*
G01X177000Y70000D02*
X172300Y65300D01*
X143800D01*
X142100Y67000D01*
X118500D01*
X112500Y61000D01*
X109000D01*
X105500Y57500D01*
Y33500D01*
X107445Y31500D01*
X109500D01*
G01X105500Y73539D02*
X106539Y72500D01*
X107585D01*
X108735Y73650D01*
X154500D01*
X159850Y79000D01*
X170500D01*
X175750Y84250D01*
X185750D01*
X197500Y96000D01*
X207700D01*
X210800Y92900D01*
X263515D01*
X270415Y86000D01*
X275066D01*
X278566Y82500D01*
X282500D01*
X290000Y75000D01*
X290962D01*
X292000Y76038D01*
G01X168000Y92000D02*
X162500D01*
X161000Y90500D01*
X153000D01*
X149350Y86850D01*
X143650D01*
X143000Y87500D01*
X141350D01*
X138450Y84600D01*
X108900D01*
X107400Y86100D01*
X96900D01*
X93500Y89500D01*
Y91000D01*
G01X105500Y70462D02*
X106538Y71500D01*
X108000D01*
X109150Y72650D01*
X154915D01*
X160265Y78000D01*
X170915D01*
X176165Y83250D01*
X186165D01*
X197915Y95000D01*
X207285D01*
X210385Y91900D01*
X263100D01*
X270000Y85000D01*
X274651D01*
X278151Y81500D01*
X282085D01*
X289585Y74000D01*
X290961D01*
X292000Y72961D01*
G01X144500Y88500D02*
X143500Y89500D01*
X141935D01*
X140785Y88350D01*
X137984D01*
X137184Y89150D01*
X127150D01*
X125600Y87600D01*
X117000D01*
X111671Y92929D01*
X100429D01*
G01X146000Y95000D02*
X143500Y97500D01*
X113750D01*
X111250Y100000D01*
X107500D01*
G01X101500Y155000D02*
X102750Y156250D01*
X108500D01*
G01X113000D02*
X113416D01*
X113708Y156542D01*
X114500Y157335D01*
Y158085D01*
X119965Y163550D01*
X132535D01*
X139552Y156533D01*
X145381D01*
X146674Y157826D01*
Y158926D01*
X147381Y159633D01*
G01X101500Y158000D02*
X102250Y157250D01*
X108500D01*
G01X113000D02*
X113500Y157750D01*
Y158500D01*
X119500Y164500D01*
X133000D01*
X139967Y157533D01*
X144966D01*
X145674Y158241D01*
Y158904D01*
X144889Y159689D01*
G01X99000Y224760D02*
X105240D01*
X106000Y224000D01*
Y197000D01*
X99500Y190500D01*
G01X312250Y220000D02*
X308000D01*
X299000Y211000D01*
Y209000D01*
X296600Y206600D01*
X284900D01*
X280500Y211000D01*
X265500D01*
X257500Y219000D01*
X241150D01*
X239500Y217350D01*
X212150D01*
X207500Y222000D01*
X178000D01*
X171586Y228414D01*
X159086D01*
X153000Y234500D01*
X112000D01*
G01X309500Y200500D02*
X306000Y204000D01*
X298000D01*
X296900Y205100D01*
X283900D01*
X280000Y209000D01*
X264500D01*
X256000Y217500D01*
X241500D01*
X240000Y216000D01*
X211000D01*
X207000Y220000D01*
X177500D01*
X171000Y226500D01*
X158000D01*
X152000Y232500D01*
X109500D01*
G01X253500Y11000D02*
Y9000D01*
X238500Y-6000D01*
X204500D01*
X201500Y-9000D01*
X154000D01*
X150500Y-12500D01*
X120000D01*
X115000Y-7500D01*
G01X161000Y95000D02*
X159350Y93350D01*
X138850D01*
X138000Y92500D01*
X136700D01*
X134700Y94500D01*
X129500D01*
G01X186000Y95650D02*
X180316D01*
X178666Y94000D01*
X162500D01*
X160500Y92000D01*
X142834D01*
X140184Y89350D01*
X138650D01*
X137850Y90150D01*
X128684D01*
X126184Y92650D01*
X122150D01*
X119000Y89500D01*
G01X133500Y185500D02*
Y189822D01*
X139850Y196172D01*
Y196184D01*
X140816Y197150D01*
X146422D01*
X157172Y186400D01*
X172663D01*
X176913Y182150D01*
X211850D01*
X214750Y179250D01*
G01X127500Y187000D02*
Y192500D01*
X135950Y200950D01*
X148050D01*
X158750Y190250D01*
X168250D01*
X171150Y193150D01*
X185700D01*
X187000Y191850D01*
Y190500D01*
X190000Y187500D01*
X206000D01*
X208000Y189500D01*
X219500D01*
X220500Y188500D01*
X227500D01*
G01X219500Y181000D02*
Y182750D01*
X217400Y184850D01*
X188650D01*
X185200Y188300D01*
X170300D01*
X169700Y187700D01*
X157711D01*
X146961Y198450D01*
X140277D01*
X138549Y196722D01*
Y196710D01*
X131500Y189661D01*
Y187000D01*
G01X230000Y180500D02*
X225650Y184850D01*
X220316D01*
X217016Y188150D01*
X208650D01*
X206750Y186250D01*
X189250D01*
X185900Y189600D01*
X169600D01*
X169000Y189000D01*
X158250D01*
X147500Y199750D01*
X139738D01*
X137249Y197261D01*
Y197249D01*
X129500Y189500D01*
Y185500D01*
G01X148500Y95000D02*
X153150Y99650D01*
X165350D01*
X167500Y97500D01*
X177500D01*
G01X181000Y94000D02*
X179500Y92500D01*
X171000D01*
X168850Y90350D01*
X162850D01*
X161500Y89000D01*
X154000D01*
X153000Y88000D01*
G01X186000Y99500D02*
X184500D01*
X181500Y102500D01*
X157000D01*
X154500Y105000D01*
G01X175000Y144500D02*
X178000D01*
X178500Y144000D01*
Y142700D01*
X179050Y142150D01*
X186433D01*
X188241Y140342D01*
Y135259D01*
X190100Y133400D01*
X194100D01*
X195500Y132000D01*
X199200D01*
X199700Y132500D01*
Y133500D01*
X200900Y134700D01*
X205550D01*
X206500Y133750D01*
Y132329D01*
X209429Y129400D01*
X215700D01*
X216200Y129900D01*
Y132631D01*
X216669Y133100D01*
X217331D01*
X217800Y132631D01*
Y131700D01*
X218300Y131200D01*
X220000D01*
X220500Y130700D01*
Y127300D01*
X221000Y126800D01*
X221800D01*
X222300Y127300D01*
Y131800D01*
X221600Y132500D01*
Y134600D01*
X222700Y135700D01*
G01X211000Y132250D02*
X208999Y134251D01*
Y134750D01*
X205049Y138700D01*
X199450D01*
X198750Y138000D01*
X194261D01*
X192080Y140181D01*
Y141181D01*
X189500Y143761D01*
Y145100D01*
X187800Y146800D01*
X183061D01*
X182100Y147761D01*
Y152900D01*
X185400Y156200D01*
Y160100D01*
X184800Y160700D01*
X180500D01*
X179900Y160100D01*
Y158500D01*
X177800Y156400D01*
Y148800D01*
X177100Y148100D01*
G01X227500Y169000D02*
X225500Y171000D01*
X200750D01*
X198150Y168400D01*
Y167316D01*
X197184Y166350D01*
X192250D01*
X190500Y168100D01*
Y169200D01*
X189250Y170450D01*
X187150D01*
X185350Y168650D01*
X168850D01*
X167700Y167500D01*
G01X229500Y174500D02*
X226500Y177500D01*
X222339D01*
X220389Y175550D01*
X212450D01*
X208650Y179350D01*
X165000D01*
X159830Y184520D01*
X146980D01*
X144500Y187000D01*
G01X231000Y102500D02*
X228000D01*
X225350Y99850D01*
X189350D01*
X187000Y97500D01*
X180200D01*
X178350Y95650D01*
X161650D01*
X161000Y95000D01*
G01X164500Y110250D02*
X167750Y107000D01*
X186755D01*
X189955Y103800D01*
X223800D01*
X227850Y107850D01*
X236850D01*
X239000Y110000D01*
G01X231000Y106000D02*
X227500D01*
X223950Y102450D01*
X185550D01*
X182500Y105500D01*
X166000D01*
X163000Y108500D01*
G01X161500Y106000D02*
X163500Y104000D01*
X182000D01*
X184850Y101150D01*
X224650D01*
X227750Y104250D01*
X233750D01*
X235500Y106000D01*
G01X161000Y137601D02*
Y136000D01*
X165600Y131400D01*
X174216D01*
X182983Y122633D01*
X183315Y122300D01*
X195000D01*
X200000Y117300D01*
X209300D01*
X211250Y119250D01*
X223500D01*
X224750Y120500D01*
X230500D01*
G01X241500Y116000D02*
X240000D01*
X236000Y112000D01*
X228700D01*
X225050Y108350D01*
X213316D01*
X212366Y107400D01*
X195100D01*
X190600Y111900D01*
X167100D01*
X164500Y114500D01*
G01X217750Y117250D02*
X216300D01*
X215700Y117850D01*
X211600D01*
X209650Y115900D01*
X199700D01*
X194400Y121200D01*
X180700D01*
X179400Y122500D01*
Y124600D01*
X176300Y127700D01*
X169800D01*
X168000Y129500D01*
G01X164600Y144100D02*
Y142313D01*
X163787Y141500D01*
G01X163150Y135450D02*
X166200Y132400D01*
X174850D01*
X181600Y125650D01*
X185184D01*
X187434Y123400D01*
X195455D01*
X200105Y118750D01*
X209000D01*
X210650Y120400D01*
X223000D01*
X227100Y124500D01*
X230500D01*
G01X191500Y106000D02*
X189150Y108350D01*
X169300D01*
X167400Y110250D01*
G01X170000Y139500D02*
X171400D01*
X171900Y139000D01*
Y135400D01*
X172400Y134900D01*
X175700D01*
X180800Y129800D01*
X181961D01*
X183111Y130950D01*
X185723D01*
X187723Y128950D01*
X191500D01*
X192450Y128000D01*
Y126500D01*
X192950Y126000D01*
X196533D01*
X197533Y125000D01*
X198600D01*
X199250Y125650D01*
X201400D01*
X201900Y125150D01*
Y123200D01*
X202500Y122600D01*
X203400D01*
X204300Y123500D01*
X208250D01*
X210150Y121600D01*
X218900D01*
X221450Y124150D01*
X224750D01*
X226500Y125900D01*
X228500D01*
X229500Y126900D01*
X231600D01*
X232800Y125700D01*
X234000D01*
X234500Y126200D01*
Y128500D01*
X234000Y129000D01*
X230500D01*
G01X173750Y144000D02*
X174650Y143100D01*
X175900D01*
X176525Y142475D01*
Y139975D01*
X177243Y139257D01*
X177863D01*
X179200Y140594D01*
X179820D01*
X180261Y140153D01*
Y139533D01*
X178924Y138196D01*
Y137576D01*
X179365Y137135D01*
X179985D01*
X181065Y138215D01*
X181685D01*
X182126Y137774D01*
Y137154D01*
X181046Y136074D01*
Y135454D01*
X181800Y134700D01*
X183100D01*
X183600Y135200D01*
Y138200D01*
X184100Y138700D01*
X186600D01*
X187100Y138200D01*
Y134700D01*
X189500Y132300D01*
X193600D01*
X195700Y130200D01*
X197100D01*
X197857Y130957D01*
X206207D01*
X208864Y128300D01*
X215000D01*
X216650Y126650D01*
Y124950D01*
X217100Y124500D01*
X218300D01*
X218800Y125000D01*
Y127700D01*
X217750Y128750D01*
G01X166700Y145800D02*
X169000D01*
X169500Y145300D01*
Y143000D01*
X170000Y142500D01*
X171000D01*
G01X173350D02*
X175100Y140750D01*
Y137900D01*
X175500Y137500D01*
X177000D01*
X178500Y136000D01*
Y135500D01*
X180600Y133400D01*
X186700D01*
X188900Y131200D01*
X193100D01*
X195800Y128500D01*
X196900D01*
X198357Y129957D01*
X205792D01*
X208499Y127250D01*
X209765D01*
X211508Y125508D01*
X212258D01*
X213250Y126500D01*
G01X214600Y133100D02*
Y131200D01*
X214100Y130700D01*
X209968D01*
X207654Y133014D01*
Y134296D01*
X205250Y136700D01*
X203500D01*
G01X200000Y135700D02*
X199000D01*
X198400Y135100D01*
Y133600D01*
X198100Y133300D01*
X197100D01*
X196700Y133700D01*
Y136200D01*
X196200Y136700D01*
X195600D01*
X195100Y136200D01*
Y135200D01*
X194600Y134700D01*
X194000D01*
X193500Y135200D01*
Y136200D01*
X193000Y136700D01*
X192400D01*
X191900Y136200D01*
Y135200D01*
X191400Y134700D01*
X190700D01*
X189541Y135859D01*
Y136841D01*
X190300Y137600D01*
Y140122D01*
X188200Y142222D01*
Y143800D01*
X187867Y144133D01*
X186567D01*
X185934Y143500D01*
X180700D01*
X180200Y144000D01*
Y145300D01*
X180800Y145900D01*
Y153439D01*
X181200Y153839D01*
X181800Y154441D01*
Y155943D01*
X181300Y156443D01*
X179796D01*
X179100Y155747D01*
Y146700D01*
X178600Y146200D01*
X174800D01*
X174000Y147000D01*
X171750D01*
G01X172000Y141000D02*
X173100D01*
X173700Y140400D01*
Y139400D01*
X173200Y138900D01*
Y136600D01*
X173600Y136200D01*
X176100D01*
X181047Y131253D01*
X181753D01*
X182700Y132200D01*
X186200D01*
X188300Y130100D01*
X192488D01*
X193800Y128788D01*
Y127500D01*
X194100Y127200D01*
X197800D01*
X198300Y127700D01*
Y128450D01*
X198800Y128950D01*
X205384D01*
X208334Y126000D01*
X209250D01*
X211450Y123800D01*
X214050D01*
X215000Y124750D01*
G01X198000Y140250D02*
X197050Y139300D01*
X194800D01*
X193400Y140700D01*
Y141700D01*
X190800Y144300D01*
Y147800D01*
X190500Y148100D01*
X184200D01*
X183500Y148800D01*
Y151750D01*
X184000Y152250D01*
X192250D01*
X193000Y153000D01*
Y161100D01*
X192100Y162000D01*
X185600D01*
X183000Y164600D01*
X180300D01*
X178500Y162800D01*
Y159250D01*
X176500Y157250D01*
G01X207500Y121800D02*
X205750Y120050D01*
X200644D01*
X195994Y124700D01*
X191900D01*
X191150Y125450D01*
Y127100D01*
X190600Y127650D01*
X187184D01*
X185184Y129650D01*
X183650D01*
X182500Y128500D01*
X180400D01*
X175400Y133500D01*
X171000D01*
X170500Y134000D01*
Y137100D01*
X170000Y137600D01*
X169200D01*
X168700Y137100D01*
Y134000D01*
X168200Y133500D01*
X167600D01*
X163950Y137150D01*
G01X192650Y169050D02*
X191250Y170450D01*
X190850D01*
X189300Y172000D01*
X186700D01*
X185900Y171200D01*
X168500D01*
G01X166500Y181000D02*
X166650Y180850D01*
X209150D01*
X213150Y176850D01*
X219850D01*
X222000Y179000D01*
X228000D01*
X228500Y178500D01*
X243150D01*
X244900Y176750D01*
X263500D01*
X267250Y173000D01*
X279500D01*
X281700Y175200D01*
X288300D01*
X290500Y173000D01*
X309000D01*
G01X224000Y175500D02*
X222000D01*
X221050Y174550D01*
X211450D01*
X209000Y177000D01*
X201400D01*
X198800Y174400D01*
X196850D01*
X195800Y173350D01*
X191316D01*
X190350Y174316D01*
Y175750D01*
X189450Y176650D01*
X171250D01*
X170000Y175400D01*
G01X195000Y170000D02*
X192900Y172100D01*
X190900D01*
X189700Y173300D01*
X187700D01*
X185350Y175650D01*
X173150D01*
X171000Y173500D01*
X168400D01*
X166500Y175400D01*
G01X292500Y195500D02*
X271000D01*
X261000Y205500D01*
X251500D01*
X244000Y213000D01*
X190000D01*
X184500Y207500D01*
X178500D01*
X175500Y204500D01*
X173500D01*
G01X301900Y198750D02*
X300250D01*
X295500Y203500D01*
X267000D01*
X254500Y216000D01*
X242000D01*
X240500Y214500D01*
X182000D01*
X175000Y207500D01*
X173500D01*
G01X233500Y110000D02*
X228500D01*
X223500Y105000D01*
X195500D01*
X190500Y110000D01*
X182500D01*
G01X286350Y173150D02*
X282150D01*
X274000Y165000D01*
X266000D01*
X257000Y156000D01*
X251000D01*
X247500Y152500D01*
Y149500D01*
X243500Y145500D01*
X235000D01*
X232851Y143351D01*
X209100D01*
X204501Y147950D01*
X200450D01*
X199500Y147000D01*
G01X185600Y149800D02*
X194200D01*
X198800Y145200D01*
X201000D01*
G01X239000Y137500D02*
X240750Y135750D01*
X243000D01*
G01X183500Y186500D02*
X185000D01*
X188000Y183500D01*
X214000D01*
X214300Y183200D01*
X215750D01*
G01X255500Y203000D02*
X250500D01*
X245650Y207850D01*
X215150D01*
X211500Y211500D01*
X193560D01*
X191500Y209440D01*
G01X185500Y240500D02*
X187500D01*
X190000Y243000D01*
X249000D01*
X251000Y245000D01*
X267250D01*
X268250Y246000D01*
X283000D01*
X286000Y249000D01*
Y255500D01*
X293500Y263000D01*
Y265750D01*
X298250Y270500D01*
X302500D01*
G01X181500Y238500D02*
X188500D01*
X191000Y241000D01*
X250000D01*
X252000Y243000D01*
X267750D01*
X269250Y244500D01*
X283500D01*
X287350Y248350D01*
Y251550D01*
X288500Y252700D01*
X289700D01*
X291100Y254100D01*
Y258600D01*
X295000Y262500D01*
Y265304D01*
X298446Y268750D01*
X305750D01*
X307500Y270500D01*
G01X183500Y244000D02*
X188000D01*
X190650Y246650D01*
X266500D01*
X267350Y247500D01*
X282500D01*
X284750Y249750D01*
Y256250D01*
X292000Y263500D01*
Y267000D01*
X295000Y270000D01*
G01X289000Y250500D02*
Y248000D01*
X284000Y243000D01*
X270250D01*
X266250Y239000D01*
X193150D01*
G01X215100Y-28300D02*
X219400Y-24000D01*
X231500D01*
G01X203500Y46000D02*
X256500D01*
X258500Y44000D01*
G01X266000Y134500D02*
X260500Y129000D01*
X236300D01*
X234300Y131000D01*
X229700D01*
X224200Y125500D01*
X220900D01*
X218100Y122700D01*
X210800D01*
X208800Y124700D01*
X207300D01*
X205000Y127000D01*
G01X226000Y223000D02*
X225000Y222000D01*
X220500D01*
X217500Y225000D01*
G01X244900Y-34300D02*
X231100Y-20500D01*
X228500D01*
G01X245000Y98000D02*
X247500Y95500D01*
X270000D01*
X273500Y92000D01*
G01X245000Y150000D02*
Y153000D01*
X250000Y158000D01*
X256000D01*
X264500Y166500D01*
Y170500D01*
G54D14*
X85000Y272500D03*
G54D24*
G01X111333Y-205500D02*
Y-195500D01*
X114667D01*
X116000Y-196000D01*
X117000Y-196667D01*
X117833Y-197667D01*
X118500Y-198834D01*
X118667Y-200500D01*
X118500Y-202167D01*
X117833Y-203333D01*
X117000Y-204334D01*
X116000Y-205000D01*
X114667Y-205500D01*
X111333D01*
G01X121833D02*
X126000Y-195500D01*
X130167Y-205500D01*
G01X128667Y-202000D02*
X123333D01*
G01X137000Y-195500D02*
Y-205500D01*
G01X133167Y-195500D02*
X140833D01*
G01X151333Y-205500D02*
X144667D01*
Y-195500D01*
X151333D01*
G01X148667Y-200333D02*
X144667D01*
G01X159000Y-205833D02*
X158667Y-205667D01*
Y-205333D01*
X159000Y-205167D01*
X159333Y-205333D01*
Y-205667D01*
X159000Y-205833D01*
G01Y-201334D02*
X158667Y-201167D01*
Y-200833D01*
X159000Y-200667D01*
X159333Y-200833D01*
Y-201167D01*
X159000Y-201334D01*
G01X115000Y-140000D02*
Y-150000D01*
G01X111167Y-140000D02*
X118833D01*
G01X129333Y-150000D02*
X122667D01*
Y-140000D01*
X129333D01*
G01X126667Y-144833D02*
X122667D01*
G01X133500Y-150000D02*
X140500Y-140000D01*
G01X133500D02*
X140500Y-150000D01*
G01X143833D02*
X148000Y-140000D01*
X152167Y-150000D01*
G01X150667Y-146500D02*
X145333D01*
G01X155500Y-148667D02*
X156833Y-149500D01*
X158333Y-150000D01*
X159667D01*
X161000Y-149500D01*
X162000Y-148667D01*
X162500Y-147500D01*
X162167Y-146334D01*
X161333Y-145333D01*
X159833Y-144667D01*
X157833Y-144333D01*
X156667Y-143667D01*
X156167Y-142500D01*
X156500Y-141333D01*
X157333Y-140500D01*
X158500Y-140000D01*
X159667D01*
X160833Y-140333D01*
X161833Y-141167D01*
G01X179000Y-140000D02*
X183000D01*
G01X181000D02*
Y-150000D01*
G01X179000D02*
X183000D01*
G01X188167D02*
Y-140000D01*
X195833Y-150000D01*
Y-140000D01*
G01X199500Y-148667D02*
X200833Y-149500D01*
X202333Y-150000D01*
X203667D01*
X205000Y-149500D01*
X206000Y-148667D01*
X206500Y-147500D01*
X206167Y-146334D01*
X205333Y-145333D01*
X203833Y-144667D01*
X201833Y-144333D01*
X200667Y-143667D01*
X200167Y-142500D01*
X200500Y-141333D01*
X201333Y-140500D01*
X202500Y-140000D01*
X203667D01*
X204833Y-140333D01*
X205833Y-141167D01*
G01X214000Y-140000D02*
Y-150000D01*
G01X210167Y-140000D02*
X217833D01*
G01X221667Y-150000D02*
Y-140000D01*
X225833D01*
X227167Y-140500D01*
X228000Y-141167D01*
X228333Y-142500D01*
X228000Y-143833D01*
X227000Y-144667D01*
X225833Y-145167D01*
X221667D01*
G01X225833D02*
X228333Y-150000D01*
G01X232333Y-140000D02*
Y-147167D01*
X233000Y-148667D01*
X234333Y-149667D01*
X236000Y-150000D01*
X237667Y-149667D01*
X239000Y-148667D01*
X239667Y-147167D01*
Y-140000D01*
G01X242667Y-150000D02*
Y-140000D01*
X247000Y-148333D01*
X251333Y-140000D01*
Y-150000D01*
G01X261333D02*
X254667D01*
Y-140000D01*
X261333D01*
G01X258667Y-144833D02*
X254667D01*
G01X265167Y-150000D02*
Y-140000D01*
X272833Y-150000D01*
Y-140000D01*
G01X280000D02*
Y-150000D01*
G01X276167Y-140000D02*
X283833D01*
G01X287500Y-148667D02*
X288833Y-149500D01*
X290333Y-150000D01*
X291667D01*
X293000Y-149500D01*
X294000Y-148667D01*
X294500Y-147500D01*
X294167Y-146334D01*
X293333Y-145333D01*
X291833Y-144667D01*
X289833Y-144333D01*
X288667Y-143667D01*
X288167Y-142500D01*
X288500Y-141333D01*
X289333Y-140500D01*
X290500Y-140000D01*
X291667D01*
X292833Y-140333D01*
X293833Y-141167D01*
G01X172500Y-195500D02*
X171166Y-195833D01*
X170167Y-196667D01*
X169500Y-197667D01*
X169000Y-199000D01*
X168833Y-200500D01*
X169000Y-202000D01*
X169500Y-203333D01*
X170167Y-204334D01*
X171166Y-205167D01*
X172500Y-205500D01*
X173833Y-205167D01*
X174833Y-204334D01*
X175500Y-203333D01*
X176000Y-202000D01*
X176167Y-200500D01*
X176000Y-199000D01*
X175500Y-197667D01*
X174833Y-196667D01*
X173833Y-195833D01*
X172500Y-195500D01*
G01X183500Y-205500D02*
X184667Y-205333D01*
X186000Y-204833D01*
X186833Y-204000D01*
X187167Y-202833D01*
X186833Y-201667D01*
X185833Y-200667D01*
X184333Y-200167D01*
X182667D01*
X181667Y-199833D01*
X180833Y-199000D01*
X180500Y-197833D01*
X181000Y-196667D01*
X182166Y-195833D01*
X183500Y-195500D01*
X184833Y-195833D01*
X186000Y-196667D01*
X186500Y-197833D01*
X186167Y-199000D01*
X185333Y-199833D01*
X184333Y-200167D01*
X182667D01*
X181167Y-200667D01*
X180167Y-201667D01*
X179833Y-202833D01*
X180167Y-204000D01*
X181000Y-204833D01*
X182333Y-205333D01*
X183500Y-205500D01*
G01X191500Y-205833D02*
X197500Y-195500D01*
G01X205500Y-205500D02*
Y-195500D01*
X203500Y-197500D01*
G01Y-205500D02*
X207500D01*
G01X213333Y-201334D02*
X214500Y-200167D01*
X215500Y-199500D01*
X216833Y-199167D01*
X218000Y-199500D01*
X218833Y-200167D01*
X219500Y-201167D01*
X219667Y-202333D01*
X219500Y-203333D01*
X218833Y-204334D01*
X217833Y-205167D01*
X216667Y-205500D01*
X215333Y-205167D01*
X214167Y-204167D01*
X213500Y-202667D01*
X213333Y-201000D01*
X213667Y-198834D01*
X214167Y-197667D01*
X215000Y-196500D01*
X216167Y-195667D01*
X217333Y-195500D01*
X218500Y-195833D01*
X219333Y-196667D01*
G01X224500Y-205833D02*
X230500Y-195500D01*
G01X238500Y-205500D02*
Y-195500D01*
X236500Y-197500D01*
G01Y-205500D02*
X240500D01*
G01X249500D02*
Y-195500D01*
X247500Y-197500D01*
G01Y-205500D02*
X251500D01*
G54D15*
X141500Y118500D03*
X170500Y160000D03*
X199500Y147000D03*
X230500Y129000D03*
G54D16*
G01X149650Y153950D02*
X150650Y154950D01*
X159500D01*
X160550Y156000D01*
X164500D01*
G01X183500Y195500D02*
X185500Y197500D01*
X199812D01*
X201712Y195600D01*
X204600D01*
X205500Y196500D01*
X215500D01*
X217500Y194500D01*
G01X232000Y136000D02*
X233250D01*
X235500Y133750D01*
G54D17*
G01X15000Y-130500D02*
Y-213000D01*
X299000D01*
Y-130500D01*
X15000D01*
G01X97500D02*
Y-213000D01*
G01Y-185500D02*
X299000D01*
G01X97500Y-158000D02*
X298500D01*
G01X175000D02*
Y-185500D01*
G01X276000Y240500D02*
X284500D01*
X286001Y238999D01*
X288829D01*
X290165Y240335D01*
Y245665D01*
X294000Y249500D01*
Y257000D01*
X297500Y260500D01*
X305500D01*
X310000Y265000D01*
G54D18*
G01X24750Y175750D02*
X19550Y170550D01*
Y163050D01*
X17500Y161000D01*
Y122500D01*
X20000Y120000D01*
G01X241000Y249000D02*
X38000D01*
X35500Y246500D01*
G01X68443Y121213D02*
X72145D01*
G01X65074Y124582D02*
Y128284D01*
G01X61372D02*
X65074D01*
G01D02*
X68776D01*
G01X79216Y110440D02*
Y114142D01*
G01D02*
Y117844D01*
G01X75514Y114142D02*
X79216D01*
G01D02*
X82918D01*
G01X72145Y117511D02*
Y121213D01*
G01D02*
Y124915D01*
G01Y121213D02*
X75847D01*
G01X141500Y118500D02*
X143100Y116900D01*
X145038D01*
X149238Y121100D01*
X152900D01*
X153700Y121900D01*
X168100D01*
X173000Y117000D01*
X192750D01*
X197450Y112300D01*
X215800D01*
X216500Y113000D01*
X223000D01*
X228000Y118000D01*
G01X159500Y128000D02*
X155700Y124200D01*
X152100D01*
X151300Y123400D01*
X148800D01*
G01X163200Y118400D02*
X160712D01*
X159463Y117151D01*
X153849D01*
X152050Y118950D01*
X149692D01*
X145142Y114400D01*
X141700D01*
X140600Y115500D01*
G01X222000Y115250D02*
X215879D01*
X214829Y116300D01*
X212550D01*
X210500Y114250D01*
X199000D01*
X193750Y119500D01*
X180250D01*
X177750Y122000D01*
Y123950D01*
X175700Y126000D01*
X163000D01*
X161000Y128000D01*
X159500D01*
G01X203583Y-182500D02*
Y-175000D01*
X206292D01*
X207158Y-175375D01*
X207700Y-175875D01*
X207917Y-176875D01*
X207700Y-177875D01*
X207050Y-178500D01*
X206292Y-178875D01*
X203583D01*
G01X206292D02*
X207917Y-182500D01*
G01X215217D02*
X210883D01*
Y-175000D01*
X215217D01*
G01X213483Y-178625D02*
X210883D01*
G01X217642Y-175000D02*
X220350Y-182500D01*
X223058Y-175000D01*
G01X227650Y-182750D02*
X227433Y-182625D01*
Y-182375D01*
X227650Y-182250D01*
X227867Y-182375D01*
Y-182625D01*
X227650Y-182750D01*
G01X244633Y-175625D02*
X243983Y-175250D01*
X243225Y-175000D01*
X242358D01*
X241383Y-175375D01*
X240625Y-176000D01*
X240083Y-176750D01*
X239650Y-178000D01*
X239542Y-179125D01*
X239758Y-180250D01*
X240083Y-181000D01*
X240733Y-181750D01*
X241492Y-182250D01*
X242250Y-182500D01*
X243008D01*
X243767Y-182250D01*
X244417Y-181875D01*
X244958Y-181375D01*
G01X249550Y-182500D02*
Y-175000D01*
X248250Y-176500D01*
G01Y-182500D02*
X250850D01*
G01X206617Y-166000D02*
X207050Y-165625D01*
X207375Y-165000D01*
X207592Y-164125D01*
X207375Y-163375D01*
X206942Y-162875D01*
X206183Y-162500D01*
X203258D01*
Y-170000D01*
X206833D01*
X207592Y-169500D01*
X208025Y-168750D01*
X208242Y-167875D01*
X208025Y-167000D01*
X207375Y-166250D01*
X206617Y-166000D01*
X203258D01*
G01X215217Y-170000D02*
X210883D01*
Y-162500D01*
X215217D01*
G01X213483Y-166125D02*
X210883D01*
G01X217642Y-170000D02*
X220350Y-162500D01*
X223058Y-170000D01*
G01X222083Y-167375D02*
X218617D01*
G01X228300Y-166250D02*
X230467D01*
Y-168500D01*
X229817Y-169250D01*
X229058Y-169750D01*
X227975Y-170000D01*
X226892Y-169750D01*
X226133Y-169250D01*
X225483Y-168500D01*
X225050Y-167625D01*
X224833Y-166625D01*
Y-165750D01*
X225050Y-165000D01*
X225483Y-164125D01*
X226133Y-163375D01*
X226783Y-162875D01*
X227650Y-162500D01*
X228408D01*
X229275Y-162750D01*
X229925Y-163250D01*
G01X232783Y-162500D02*
Y-170000D01*
X237117D01*
G01X244417D02*
X240083D01*
Y-162500D01*
X244417D01*
G01X242683Y-166125D02*
X240083D01*
G01X254575Y-170000D02*
X259125Y-162500D01*
G01X254575D02*
X259125Y-170000D01*
G01X261333D02*
Y-162500D01*
X264150Y-168750D01*
X266967Y-162500D01*
Y-170000D01*
G01X236450Y172500D02*
X249000D01*
G54D19*
G01X12500Y27500D02*
X7500Y32500D01*
X0D01*
X-9500Y42000D01*
Y109000D01*
X-6000Y112500D01*
Y150500D01*
X-8000Y152500D01*
G01X-3000Y176500D02*
X-8000Y171500D01*
Y152500D01*
G01X63290Y272500D02*
X31500D01*
X27500Y268500D01*
Y265000D01*
X8000Y245500D01*
Y240750D01*
X5500Y238250D01*
X2500D01*
G01X294000Y245500D02*
Y237200D01*
X292400Y235600D01*
X288900D01*
X282900Y229600D01*
X269441D01*
X269391Y229650D01*
X230309D01*
X226459Y233500D01*
X177500D01*
X168850Y242150D01*
X94850D01*
X90500Y246500D01*
X41500D01*
X29500Y234500D01*
X14000D01*
G01X42500Y46000D02*
X45000Y43500D01*
X70000D01*
X76000Y49500D01*
Y55500D01*
X78500Y58000D01*
X86500D01*
X98000Y69500D01*
X100500D01*
X102500Y71500D01*
Y74189D01*
X104311Y76000D01*
X153000D01*
X158500Y81500D01*
X169000D01*
X174500Y87000D01*
X184400D01*
X195750Y98350D01*
X231050D01*
X248200Y115500D01*
X259000D01*
X263000Y111500D01*
G01X88000Y241000D02*
X85000Y244000D01*
X61500D01*
X59862Y242362D01*
Y238000D01*
G01X85000Y272500D02*
X63290D01*
G01X88000Y241000D02*
Y238500D01*
X84500Y235000D01*
G01X296000Y209300D02*
X285700D01*
X281650Y213350D01*
X267150D01*
X259000Y221500D01*
X235500D01*
X234000Y220000D01*
X217000D01*
X212000Y225000D01*
X178500D01*
X168000Y235500D01*
X157500D01*
X154000Y239000D01*
X93500D01*
X91500Y241000D01*
G01X155500Y30500D02*
X150000Y25000D01*
X112820D01*
X110612Y27208D01*
G01X237500Y1500D02*
X236000Y0D01*
X205700D01*
X202700Y3000D01*
X196500D01*
X188500Y-5000D01*
X154500D01*
X149500Y-10000D01*
X124700D01*
X120000Y-5300D01*
G01X245000Y5000D02*
X232000D01*
X230000Y3000D01*
X206700D01*
X203900Y5800D01*
X195300D01*
X188000Y-1500D01*
X152500D01*
X151000Y0D01*
X125000D01*
X120000Y5000D01*
G01X158500Y30500D02*
X155500D01*
G01X249000Y118500D02*
X236541D01*
X232541Y114500D01*
X228500D01*
X224000Y110000D01*
X196000D01*
X191500Y114500D01*
X171000D01*
X167100Y118400D01*
X163200D01*
G01X149200Y162050D02*
X158400D01*
X161650Y165300D01*
X168950D01*
X173000Y161250D01*
Y159800D01*
X174500Y158300D01*
G01X211500Y70500D02*
X206500D01*
X204000Y73000D01*
X158500D01*
G01X174500Y158300D02*
X176750Y160550D01*
Y163750D01*
X179500Y166500D01*
X187041D01*
X189041Y164500D01*
X192700D01*
X195450Y161750D01*
X203750D01*
X216001Y149499D01*
Y144901D01*
G01X242500Y195000D02*
X234250Y203250D01*
X216000D01*
X214750Y204500D01*
X182000D01*
X179500Y202000D01*
X172000D01*
X168500Y205500D01*
G01X215000Y67000D02*
X205500D01*
X203500Y69000D01*
X190500D01*
G01X305000Y177500D02*
X294500D01*
X287350Y184650D01*
X278850D01*
X277000Y186500D01*
X263500D01*
X258500Y191500D01*
X226500D01*
X224850Y193150D01*
X220109D01*
X218479Y191520D01*
X215021D01*
X212891Y193650D01*
X209191D01*
X205891Y190350D01*
X201891D01*
X200891Y189350D01*
X198650D01*
X195500Y192500D01*
G01X189000D02*
Y191400D01*
X190400Y190000D01*
X193000D01*
X195500Y192500D01*
G01X217500Y88100D02*
X215600D01*
X212500Y85000D01*
G01X237500Y88100D02*
X217500D01*
G01X211500Y169000D02*
X215500D01*
X221000Y163500D01*
X224500D01*
X227550Y166550D01*
X230500D01*
X236450Y172500D01*
G01X249000D02*
X257000D01*
X259000Y170500D01*
G01X207500Y236500D02*
X268500D01*
G01X237500Y88100D02*
X241400Y84200D01*
X253600D01*
X257500Y88100D01*
G01X266000Y108500D02*
Y116000D01*
X260000Y122000D01*
X235500D01*
X231000Y117500D01*
G01X240000Y143500D02*
X243500D01*
G01X260450Y132450D02*
X240900D01*
X235300Y138050D01*
X229950D01*
X227800Y135900D01*
Y132600D01*
G01X242500Y195000D02*
X259500D01*
X264500Y190000D01*
X278500D01*
X280500Y188000D01*
X284000D01*
G01X260000Y109000D02*
X270150Y98850D01*
X280150D01*
X283000Y96000D01*
G01X268500Y193500D02*
X265500D01*
X261500Y197500D01*
X246000D01*
G01X284000Y188000D02*
X288500D01*
X295000Y181500D01*
X305000D01*
G01X309000Y287000D02*
X308000Y286000D01*
X265500D01*
G01X313500Y257500D02*
X311350Y255350D01*
X300650D01*
X298750Y257250D01*
M02*
