M48
INCH
T01C.006
T02C.008
T03C.012
T04C.028
T05C.03
T06C.038
T07C.04
T08C.043
T09C.051
T10C.07
T11C.09
T12C.12
T13C.156
T14C.035
T15C.06
T16C.063
T17C.128
;LEADER: 12 
;HEADER: 
;CODE  : ASCII 
;FILE  : ctc070_RevC1-1-2.drl for board ctc070_RevC1.brd ... layers TOP and LYR2-GND
;T01 Holesize 1. = 6.000000 Tolerance = +0.000000/-6.000000 PLATED MILS Quantity = 174
%
G90
T01
X00126337Y00127812
X00231813Y00157088
X00127912Y00129387
X00212910Y00144490
X00118462Y00143562
X00147500Y00121200
X00148390Y00127810
X00149960Y00127810
X00149400Y00121200
X00145500Y00123000
X00146810Y00127810
X00149963Y00165613
X00149963Y00164038
X00151538Y00167188
X00153113Y00165613
X00138938Y00127812
X00225513Y00142912
X00214488Y00158661
X00131062Y00157738
X00118460Y00146714
X00214490Y00141340
X00214501Y00138001
X00149963Y00167188
X00151538Y00165613
X00154688Y00165613
X00148388Y00165613
X00148388Y00167188
X00124762Y00127812
X00211340Y00146060
X00209760Y00152360
X00209762Y00142912
X00211339Y00149213
X00211339Y00150787
X00211339Y00147638
X00137360Y00130960
X00137363Y00140412
X00134212Y00137262
X00137370Y00129385
X00212913Y00158661
X00154688Y00127812
X00156263Y00157738
X00143663Y00127812
X00211340Y00152360
X00153113Y00154588
X00115312Y00127812
X00153110Y00134110
X00151540Y00134110
X00115312Y00137262
X00115312Y00143562
X00118460Y00148290
X00115310Y00151440
X00116890Y00127810
X00121612Y00127812
X00135788Y00127812
X00127912Y00127812
X00154688Y00129387
X00143660Y00130960
X00131062Y00130962
X00131060Y00129390
X00143660Y00129390
X00116890Y00162460
X00116887Y00156163
X00123190Y00164040
X00123190Y00165610
X00116887Y00140412
X00116887Y00148288
X00115312Y00149863
X00127910Y00165610
X00131062Y00154588
X00131062Y00156163
X00127910Y00140410
X00127910Y00141990
X00127910Y00148290
X00127912Y00154588
X00126340Y00141990
X00126340Y00143560
X00126340Y00148290
X00126340Y00149860
X00126337Y00154588
X00137360Y00156160
X00142090Y00148290
X00132640Y00140410
X00138940Y00154590
X00143660Y00151440
X00143660Y00146710
X00142090Y00141990
X00142090Y00154590
X00143660Y00153010
X00142090Y00153010
X00153113Y00146712
X00132637Y00156163
X00143660Y00145140
X00142088Y00140412
X00131060Y00138840
X00134210Y00140410
X00137360Y00154590
X00132640Y00138840
X00138940Y00156160
X00142090Y00146710
X00132640Y00165610
X00132640Y00164040
X00154688Y00156163
X00154688Y00159313
X00153113Y00153013
X00156263Y00151438
X00209764Y00153937
X00212913Y00161811
X00212910Y00153940
X00212913Y00157087
X00212913Y00155512
X00208187Y00138187
X00208187Y00141337
X00214487Y00139762
X00209760Y00160240
X00230238Y00139762
X00223940Y00138190
X00231813Y00139762
X00228660Y00139760
X00228660Y00138190
X00220787Y00146063
X00223937Y00150787
X00228661Y00147638
X00228661Y00149213
X00225512Y00155512
X00219213Y00150787
X00220787Y00149213
X00220787Y00147638
X00219213Y00152362
X00219210Y00153940
X00227087Y00158661
X00220787Y00142913
X00228661Y00152362
X00222362Y00149213
X00230238Y00138187
X00220790Y00157090
X00219210Y00146060
X00230236Y00150787
X00219213Y00149213
X00222362Y00158661
X00219210Y00157090
X00116887Y00168763
X00115312Y00167188
X00154690Y00167190
X00135788Y00167188
X00223940Y00158660
X00116887Y00130962
X00118462Y00130962
X00116887Y00129387
X00212910Y00147640
X00154688Y00143562
X00222360Y00141340
X00135790Y00129390
X00225512Y00158661
X00154688Y00130962
X00219210Y00139760
X00154688Y00141987
X00223937Y00141339
X00220790Y00141340
X00137363Y00138837
X00140513Y00156163
X00153113Y00127812
X00154690Y00137260
X00159118Y00136151
X00154690Y00135690
X00162000Y00134567
X00160500Y00133367
X00154690Y00132540
X00151540Y00127810
X00211337Y00157088
X00118462Y00127812
X00120037Y00127812
X00132637Y00127812
X00154688Y00140412
X00154688Y00138837
M30
